G04 #@! TF.GenerationSoftware,KiCad,Pcbnew,9.0.6-9.0.6~ubuntu24.04.1*
G04 #@! TF.CreationDate,2025-12-18T12:56:06+01:00*
G04 #@! TF.ProjectId,PCB_RAIL,5043425f-5241-4494-9c2e-6b696361645f,rev?*
G04 #@! TF.SameCoordinates,Original*
G04 #@! TF.FileFunction,Soldermask,Top*
G04 #@! TF.FilePolarity,Negative*
%FSLAX46Y46*%
G04 Gerber Fmt 4.6, Leading zero omitted, Abs format (unit mm)*
G04 Created by KiCad (PCBNEW 9.0.6-9.0.6~ubuntu24.04.1) date 2025-12-18 12:56:06*
%MOMM*%
%LPD*%
G01*
G04 APERTURE LIST*
G04 Aperture macros list*
%AMRoundRect*
0 Rectangle with rounded corners*
0 $1 Rounding radius*
0 $2 $3 $4 $5 $6 $7 $8 $9 X,Y pos of 4 corners*
0 Add a 4 corners polygon primitive as box body*
4,1,4,$2,$3,$4,$5,$6,$7,$8,$9,$2,$3,0*
0 Add four circle primitives for the rounded corners*
1,1,$1+$1,$2,$3*
1,1,$1+$1,$4,$5*
1,1,$1+$1,$6,$7*
1,1,$1+$1,$8,$9*
0 Add four rect primitives between the rounded corners*
20,1,$1+$1,$2,$3,$4,$5,0*
20,1,$1+$1,$4,$5,$6,$7,0*
20,1,$1+$1,$6,$7,$8,$9,0*
20,1,$1+$1,$8,$9,$2,$3,0*%
G04 Aperture macros list end*
%ADD10C,0.010000*%
%ADD11RoundRect,0.135000X1.465000X0.315000X-1.465000X0.315000X-1.465000X-0.315000X1.465000X-0.315000X0*%
%ADD12RoundRect,0.135000X0.135000X0.185000X-0.135000X0.185000X-0.135000X-0.185000X0.135000X-0.185000X0*%
%ADD13RoundRect,0.237500X-0.287500X-0.237500X0.287500X-0.237500X0.287500X0.237500X-0.287500X0.237500X0*%
%ADD14RoundRect,0.135000X-0.185000X0.135000X-0.185000X-0.135000X0.185000X-0.135000X0.185000X0.135000X0*%
%ADD15RoundRect,0.250000X-0.900000X1.000000X-0.900000X-1.000000X0.900000X-1.000000X0.900000X1.000000X0*%
%ADD16RoundRect,0.250000X0.350000X0.625000X-0.350000X0.625000X-0.350000X-0.625000X0.350000X-0.625000X0*%
%ADD17O,1.200000X1.750000*%
%ADD18RoundRect,0.250000X-0.325000X-1.100000X0.325000X-1.100000X0.325000X1.100000X-0.325000X1.100000X0*%
%ADD19RoundRect,0.135000X-0.135000X-0.185000X0.135000X-0.185000X0.135000X0.185000X-0.135000X0.185000X0*%
%ADD20RoundRect,0.250000X-0.600000X-0.725000X0.600000X-0.725000X0.600000X0.725000X-0.600000X0.725000X0*%
%ADD21O,1.700000X1.950000*%
%ADD22R,2.400000X0.740000*%
%ADD23RoundRect,0.100000X-0.675000X-0.100000X0.675000X-0.100000X0.675000X0.100000X-0.675000X0.100000X0*%
%ADD24R,2.750000X6.200000*%
%ADD25RoundRect,0.250000X-0.250000X-0.475000X0.250000X-0.475000X0.250000X0.475000X-0.250000X0.475000X0*%
%ADD26RoundRect,0.250000X-0.725000X0.600000X-0.725000X-0.600000X0.725000X-0.600000X0.725000X0.600000X0*%
%ADD27O,1.950000X1.700000*%
%ADD28RoundRect,0.150000X0.350000X-0.450000X0.350000X0.450000X-0.350000X0.450000X-0.350000X-0.450000X0*%
%ADD29RoundRect,0.250000X0.600000X0.725000X-0.600000X0.725000X-0.600000X-0.725000X0.600000X-0.725000X0*%
%ADD30RoundRect,0.102000X-2.300000X0.900000X-2.300000X-0.900000X2.300000X-0.900000X2.300000X0.900000X0*%
%ADD31C,0.700000*%
%ADD32C,4.400000*%
%ADD33C,1.000000*%
%ADD34RoundRect,0.102000X-0.600000X-0.600000X0.600000X-0.600000X0.600000X0.600000X-0.600000X0.600000X0*%
%ADD35C,1.404000*%
%ADD36RoundRect,0.250000X-0.325000X-0.650000X0.325000X-0.650000X0.325000X0.650000X-0.325000X0.650000X0*%
%ADD37R,1.700000X1.700000*%
%ADD38C,1.700000*%
%ADD39RoundRect,0.140000X0.140000X0.170000X-0.140000X0.170000X-0.140000X-0.170000X0.140000X-0.170000X0*%
%ADD40RoundRect,0.760000X1.140000X-1.140000X1.140000X1.140000X-1.140000X1.140000X-1.140000X-1.140000X0*%
%ADD41C,4.000000*%
%ADD42RoundRect,0.225000X0.250000X-0.225000X0.250000X0.225000X-0.250000X0.225000X-0.250000X-0.225000X0*%
%ADD43RoundRect,0.225000X-0.225000X-0.250000X0.225000X-0.250000X0.225000X0.250000X-0.225000X0.250000X0*%
%ADD44RoundRect,0.062500X-0.375000X-0.062500X0.375000X-0.062500X0.375000X0.062500X-0.375000X0.062500X0*%
%ADD45RoundRect,0.062500X-0.062500X-0.375000X0.062500X-0.375000X0.062500X0.375000X-0.062500X0.375000X0*%
%ADD46R,5.600000X5.600000*%
%ADD47RoundRect,0.225000X-0.250000X0.225000X-0.250000X-0.225000X0.250000X-0.225000X0.250000X0.225000X0*%
%ADD48RoundRect,0.102000X-0.337500X0.375000X-0.337500X-0.375000X0.337500X-0.375000X0.337500X0.375000X0*%
%ADD49RoundRect,0.250000X-0.350000X-0.625000X0.350000X-0.625000X0.350000X0.625000X-0.350000X0.625000X0*%
%ADD50RoundRect,0.102000X0.600000X0.600000X-0.600000X0.600000X-0.600000X-0.600000X0.600000X-0.600000X0*%
%ADD51C,1.712000*%
%ADD52RoundRect,0.102000X0.700000X-0.800000X0.700000X0.800000X-0.700000X0.800000X-0.700000X-0.800000X0*%
%ADD53RoundRect,0.050000X-0.100000X0.285000X-0.100000X-0.285000X0.100000X-0.285000X0.100000X0.285000X0*%
%ADD54RoundRect,0.140000X-0.140000X-0.170000X0.140000X-0.170000X0.140000X0.170000X-0.140000X0.170000X0*%
%ADD55RoundRect,0.225000X0.225000X0.250000X-0.225000X0.250000X-0.225000X-0.250000X0.225000X-0.250000X0*%
%ADD56RoundRect,0.102000X0.600000X-0.600000X0.600000X0.600000X-0.600000X0.600000X-0.600000X-0.600000X0*%
%ADD57RoundRect,0.250000X0.325000X0.650000X-0.325000X0.650000X-0.325000X-0.650000X0.325000X-0.650000X0*%
%ADD58R,5.400000X2.900000*%
%ADD59C,1.512000*%
G04 APERTURE END LIST*
D10*
X123655000Y-83427500D02*
X122780000Y-83427500D01*
X122780000Y-82772500D01*
X122397500Y-82772500D01*
X122397500Y-83427500D01*
X121522500Y-83427500D01*
X121522500Y-82772500D01*
X121077500Y-82772500D01*
X121077500Y-83427500D01*
X120202500Y-83427500D01*
X120202500Y-82772500D01*
X119820000Y-82772500D01*
X119820000Y-83427500D01*
X118945000Y-83427500D01*
X118945000Y-78277500D01*
X123655000Y-78277500D01*
X123655000Y-83427500D01*
G36*
X123655000Y-83427500D02*
G01*
X122780000Y-83427500D01*
X122780000Y-82772500D01*
X122397500Y-82772500D01*
X122397500Y-83427500D01*
X121522500Y-83427500D01*
X121522500Y-82772500D01*
X121077500Y-82772500D01*
X121077500Y-83427500D01*
X120202500Y-83427500D01*
X120202500Y-82772500D01*
X119820000Y-82772500D01*
X119820000Y-83427500D01*
X118945000Y-83427500D01*
X118945000Y-78277500D01*
X123655000Y-78277500D01*
X123655000Y-83427500D01*
G37*
X117808000Y-77676000D02*
X117810000Y-77676000D01*
X117813000Y-77677000D01*
X117815000Y-77677000D01*
X117818000Y-77678000D01*
X117820000Y-77679000D01*
X117823000Y-77680000D01*
X117825000Y-77682000D01*
X117827000Y-77683000D01*
X117829000Y-77685000D01*
X117831000Y-77686000D01*
X117833000Y-77688000D01*
X117835000Y-77690000D01*
X117837000Y-77692000D01*
X117839000Y-77694000D01*
X117840000Y-77696000D01*
X117842000Y-77698000D01*
X117843000Y-77700000D01*
X117845000Y-77702000D01*
X117846000Y-77705000D01*
X117847000Y-77707000D01*
X117848000Y-77710000D01*
X117848000Y-77712000D01*
X117849000Y-77715000D01*
X117849000Y-77717000D01*
X117850000Y-77720000D01*
X117850000Y-77722000D01*
X117850000Y-77725000D01*
X117850000Y-77925000D01*
X117850000Y-77928000D01*
X117850000Y-77930000D01*
X117849000Y-77933000D01*
X117849000Y-77935000D01*
X117848000Y-77938000D01*
X117848000Y-77940000D01*
X117847000Y-77943000D01*
X117846000Y-77945000D01*
X117845000Y-77948000D01*
X117843000Y-77950000D01*
X117842000Y-77952000D01*
X117840000Y-77954000D01*
X117839000Y-77956000D01*
X117837000Y-77958000D01*
X117835000Y-77960000D01*
X117833000Y-77962000D01*
X117831000Y-77964000D01*
X117829000Y-77965000D01*
X117827000Y-77967000D01*
X117825000Y-77968000D01*
X117823000Y-77970000D01*
X117820000Y-77971000D01*
X117818000Y-77972000D01*
X117815000Y-77973000D01*
X117813000Y-77973000D01*
X117810000Y-77974000D01*
X117808000Y-77974000D01*
X117805000Y-77975000D01*
X117803000Y-77975000D01*
X117800000Y-77975000D01*
X117300000Y-77975000D01*
X117297000Y-77975000D01*
X117295000Y-77975000D01*
X117292000Y-77974000D01*
X117290000Y-77974000D01*
X117287000Y-77973000D01*
X117285000Y-77973000D01*
X117282000Y-77972000D01*
X117280000Y-77971000D01*
X117277000Y-77970000D01*
X117275000Y-77968000D01*
X117273000Y-77967000D01*
X117271000Y-77965000D01*
X117269000Y-77964000D01*
X117267000Y-77962000D01*
X117265000Y-77960000D01*
X117263000Y-77958000D01*
X117261000Y-77956000D01*
X117260000Y-77954000D01*
X117258000Y-77952000D01*
X117257000Y-77950000D01*
X117255000Y-77948000D01*
X117254000Y-77945000D01*
X117253000Y-77943000D01*
X117252000Y-77940000D01*
X117252000Y-77938000D01*
X117251000Y-77935000D01*
X117251000Y-77933000D01*
X117250000Y-77930000D01*
X117250000Y-77928000D01*
X117250000Y-77925000D01*
X117250000Y-77725000D01*
X117250000Y-77722000D01*
X117250000Y-77720000D01*
X117251000Y-77717000D01*
X117251000Y-77715000D01*
X117252000Y-77712000D01*
X117252000Y-77710000D01*
X117253000Y-77707000D01*
X117254000Y-77705000D01*
X117255000Y-77702000D01*
X117257000Y-77700000D01*
X117258000Y-77698000D01*
X117260000Y-77696000D01*
X117261000Y-77694000D01*
X117263000Y-77692000D01*
X117265000Y-77690000D01*
X117267000Y-77688000D01*
X117269000Y-77686000D01*
X117271000Y-77685000D01*
X117273000Y-77683000D01*
X117275000Y-77682000D01*
X117277000Y-77680000D01*
X117280000Y-77679000D01*
X117282000Y-77678000D01*
X117285000Y-77677000D01*
X117287000Y-77677000D01*
X117290000Y-77676000D01*
X117292000Y-77676000D01*
X117295000Y-77675000D01*
X117297000Y-77675000D01*
X117300000Y-77675000D01*
X117800000Y-77675000D01*
X117803000Y-77675000D01*
X117805000Y-77675000D01*
X117808000Y-77676000D01*
G36*
X117808000Y-77676000D02*
G01*
X117810000Y-77676000D01*
X117813000Y-77677000D01*
X117815000Y-77677000D01*
X117818000Y-77678000D01*
X117820000Y-77679000D01*
X117823000Y-77680000D01*
X117825000Y-77682000D01*
X117827000Y-77683000D01*
X117829000Y-77685000D01*
X117831000Y-77686000D01*
X117833000Y-77688000D01*
X117835000Y-77690000D01*
X117837000Y-77692000D01*
X117839000Y-77694000D01*
X117840000Y-77696000D01*
X117842000Y-77698000D01*
X117843000Y-77700000D01*
X117845000Y-77702000D01*
X117846000Y-77705000D01*
X117847000Y-77707000D01*
X117848000Y-77710000D01*
X117848000Y-77712000D01*
X117849000Y-77715000D01*
X117849000Y-77717000D01*
X117850000Y-77720000D01*
X117850000Y-77722000D01*
X117850000Y-77725000D01*
X117850000Y-77925000D01*
X117850000Y-77928000D01*
X117850000Y-77930000D01*
X117849000Y-77933000D01*
X117849000Y-77935000D01*
X117848000Y-77938000D01*
X117848000Y-77940000D01*
X117847000Y-77943000D01*
X117846000Y-77945000D01*
X117845000Y-77948000D01*
X117843000Y-77950000D01*
X117842000Y-77952000D01*
X117840000Y-77954000D01*
X117839000Y-77956000D01*
X117837000Y-77958000D01*
X117835000Y-77960000D01*
X117833000Y-77962000D01*
X117831000Y-77964000D01*
X117829000Y-77965000D01*
X117827000Y-77967000D01*
X117825000Y-77968000D01*
X117823000Y-77970000D01*
X117820000Y-77971000D01*
X117818000Y-77972000D01*
X117815000Y-77973000D01*
X117813000Y-77973000D01*
X117810000Y-77974000D01*
X117808000Y-77974000D01*
X117805000Y-77975000D01*
X117803000Y-77975000D01*
X117800000Y-77975000D01*
X117300000Y-77975000D01*
X117297000Y-77975000D01*
X117295000Y-77975000D01*
X117292000Y-77974000D01*
X117290000Y-77974000D01*
X117287000Y-77973000D01*
X117285000Y-77973000D01*
X117282000Y-77972000D01*
X117280000Y-77971000D01*
X117277000Y-77970000D01*
X117275000Y-77968000D01*
X117273000Y-77967000D01*
X117271000Y-77965000D01*
X117269000Y-77964000D01*
X117267000Y-77962000D01*
X117265000Y-77960000D01*
X117263000Y-77958000D01*
X117261000Y-77956000D01*
X117260000Y-77954000D01*
X117258000Y-77952000D01*
X117257000Y-77950000D01*
X117255000Y-77948000D01*
X117254000Y-77945000D01*
X117253000Y-77943000D01*
X117252000Y-77940000D01*
X117252000Y-77938000D01*
X117251000Y-77935000D01*
X117251000Y-77933000D01*
X117250000Y-77930000D01*
X117250000Y-77928000D01*
X117250000Y-77925000D01*
X117250000Y-77725000D01*
X117250000Y-77722000D01*
X117250000Y-77720000D01*
X117251000Y-77717000D01*
X117251000Y-77715000D01*
X117252000Y-77712000D01*
X117252000Y-77710000D01*
X117253000Y-77707000D01*
X117254000Y-77705000D01*
X117255000Y-77702000D01*
X117257000Y-77700000D01*
X117258000Y-77698000D01*
X117260000Y-77696000D01*
X117261000Y-77694000D01*
X117263000Y-77692000D01*
X117265000Y-77690000D01*
X117267000Y-77688000D01*
X117269000Y-77686000D01*
X117271000Y-77685000D01*
X117273000Y-77683000D01*
X117275000Y-77682000D01*
X117277000Y-77680000D01*
X117280000Y-77679000D01*
X117282000Y-77678000D01*
X117285000Y-77677000D01*
X117287000Y-77677000D01*
X117290000Y-77676000D01*
X117292000Y-77676000D01*
X117295000Y-77675000D01*
X117297000Y-77675000D01*
X117300000Y-77675000D01*
X117800000Y-77675000D01*
X117803000Y-77675000D01*
X117805000Y-77675000D01*
X117808000Y-77676000D01*
G37*
X117808000Y-78326000D02*
X117810000Y-78326000D01*
X117813000Y-78327000D01*
X117815000Y-78327000D01*
X117818000Y-78328000D01*
X117820000Y-78329000D01*
X117823000Y-78330000D01*
X117825000Y-78332000D01*
X117827000Y-78333000D01*
X117829000Y-78335000D01*
X117831000Y-78336000D01*
X117833000Y-78338000D01*
X117835000Y-78340000D01*
X117837000Y-78342000D01*
X117839000Y-78344000D01*
X117840000Y-78346000D01*
X117842000Y-78348000D01*
X117843000Y-78350000D01*
X117845000Y-78352000D01*
X117846000Y-78355000D01*
X117847000Y-78357000D01*
X117848000Y-78360000D01*
X117848000Y-78362000D01*
X117849000Y-78365000D01*
X117849000Y-78367000D01*
X117850000Y-78370000D01*
X117850000Y-78372000D01*
X117850000Y-78375000D01*
X117850000Y-78575000D01*
X117850000Y-78578000D01*
X117850000Y-78580000D01*
X117849000Y-78583000D01*
X117849000Y-78585000D01*
X117848000Y-78588000D01*
X117848000Y-78590000D01*
X117847000Y-78593000D01*
X117846000Y-78595000D01*
X117845000Y-78598000D01*
X117843000Y-78600000D01*
X117842000Y-78602000D01*
X117840000Y-78604000D01*
X117839000Y-78606000D01*
X117837000Y-78608000D01*
X117835000Y-78610000D01*
X117833000Y-78612000D01*
X117831000Y-78614000D01*
X117829000Y-78615000D01*
X117827000Y-78617000D01*
X117825000Y-78618000D01*
X117823000Y-78620000D01*
X117820000Y-78621000D01*
X117818000Y-78622000D01*
X117815000Y-78623000D01*
X117813000Y-78623000D01*
X117810000Y-78624000D01*
X117808000Y-78624000D01*
X117805000Y-78625000D01*
X117803000Y-78625000D01*
X117800000Y-78625000D01*
X117300000Y-78625000D01*
X117297000Y-78625000D01*
X117295000Y-78625000D01*
X117292000Y-78624000D01*
X117290000Y-78624000D01*
X117287000Y-78623000D01*
X117285000Y-78623000D01*
X117282000Y-78622000D01*
X117280000Y-78621000D01*
X117277000Y-78620000D01*
X117275000Y-78618000D01*
X117273000Y-78617000D01*
X117271000Y-78615000D01*
X117269000Y-78614000D01*
X117267000Y-78612000D01*
X117265000Y-78610000D01*
X117263000Y-78608000D01*
X117261000Y-78606000D01*
X117260000Y-78604000D01*
X117258000Y-78602000D01*
X117257000Y-78600000D01*
X117255000Y-78598000D01*
X117254000Y-78595000D01*
X117253000Y-78593000D01*
X117252000Y-78590000D01*
X117252000Y-78588000D01*
X117251000Y-78585000D01*
X117251000Y-78583000D01*
X117250000Y-78580000D01*
X117250000Y-78578000D01*
X117250000Y-78575000D01*
X117250000Y-78375000D01*
X117250000Y-78372000D01*
X117250000Y-78370000D01*
X117251000Y-78367000D01*
X117251000Y-78365000D01*
X117252000Y-78362000D01*
X117252000Y-78360000D01*
X117253000Y-78357000D01*
X117254000Y-78355000D01*
X117255000Y-78352000D01*
X117257000Y-78350000D01*
X117258000Y-78348000D01*
X117260000Y-78346000D01*
X117261000Y-78344000D01*
X117263000Y-78342000D01*
X117265000Y-78340000D01*
X117267000Y-78338000D01*
X117269000Y-78336000D01*
X117271000Y-78335000D01*
X117273000Y-78333000D01*
X117275000Y-78332000D01*
X117277000Y-78330000D01*
X117280000Y-78329000D01*
X117282000Y-78328000D01*
X117285000Y-78327000D01*
X117287000Y-78327000D01*
X117290000Y-78326000D01*
X117292000Y-78326000D01*
X117295000Y-78325000D01*
X117297000Y-78325000D01*
X117300000Y-78325000D01*
X117800000Y-78325000D01*
X117803000Y-78325000D01*
X117805000Y-78325000D01*
X117808000Y-78326000D01*
G36*
X117808000Y-78326000D02*
G01*
X117810000Y-78326000D01*
X117813000Y-78327000D01*
X117815000Y-78327000D01*
X117818000Y-78328000D01*
X117820000Y-78329000D01*
X117823000Y-78330000D01*
X117825000Y-78332000D01*
X117827000Y-78333000D01*
X117829000Y-78335000D01*
X117831000Y-78336000D01*
X117833000Y-78338000D01*
X117835000Y-78340000D01*
X117837000Y-78342000D01*
X117839000Y-78344000D01*
X117840000Y-78346000D01*
X117842000Y-78348000D01*
X117843000Y-78350000D01*
X117845000Y-78352000D01*
X117846000Y-78355000D01*
X117847000Y-78357000D01*
X117848000Y-78360000D01*
X117848000Y-78362000D01*
X117849000Y-78365000D01*
X117849000Y-78367000D01*
X117850000Y-78370000D01*
X117850000Y-78372000D01*
X117850000Y-78375000D01*
X117850000Y-78575000D01*
X117850000Y-78578000D01*
X117850000Y-78580000D01*
X117849000Y-78583000D01*
X117849000Y-78585000D01*
X117848000Y-78588000D01*
X117848000Y-78590000D01*
X117847000Y-78593000D01*
X117846000Y-78595000D01*
X117845000Y-78598000D01*
X117843000Y-78600000D01*
X117842000Y-78602000D01*
X117840000Y-78604000D01*
X117839000Y-78606000D01*
X117837000Y-78608000D01*
X117835000Y-78610000D01*
X117833000Y-78612000D01*
X117831000Y-78614000D01*
X117829000Y-78615000D01*
X117827000Y-78617000D01*
X117825000Y-78618000D01*
X117823000Y-78620000D01*
X117820000Y-78621000D01*
X117818000Y-78622000D01*
X117815000Y-78623000D01*
X117813000Y-78623000D01*
X117810000Y-78624000D01*
X117808000Y-78624000D01*
X117805000Y-78625000D01*
X117803000Y-78625000D01*
X117800000Y-78625000D01*
X117300000Y-78625000D01*
X117297000Y-78625000D01*
X117295000Y-78625000D01*
X117292000Y-78624000D01*
X117290000Y-78624000D01*
X117287000Y-78623000D01*
X117285000Y-78623000D01*
X117282000Y-78622000D01*
X117280000Y-78621000D01*
X117277000Y-78620000D01*
X117275000Y-78618000D01*
X117273000Y-78617000D01*
X117271000Y-78615000D01*
X117269000Y-78614000D01*
X117267000Y-78612000D01*
X117265000Y-78610000D01*
X117263000Y-78608000D01*
X117261000Y-78606000D01*
X117260000Y-78604000D01*
X117258000Y-78602000D01*
X117257000Y-78600000D01*
X117255000Y-78598000D01*
X117254000Y-78595000D01*
X117253000Y-78593000D01*
X117252000Y-78590000D01*
X117252000Y-78588000D01*
X117251000Y-78585000D01*
X117251000Y-78583000D01*
X117250000Y-78580000D01*
X117250000Y-78578000D01*
X117250000Y-78575000D01*
X117250000Y-78375000D01*
X117250000Y-78372000D01*
X117250000Y-78370000D01*
X117251000Y-78367000D01*
X117251000Y-78365000D01*
X117252000Y-78362000D01*
X117252000Y-78360000D01*
X117253000Y-78357000D01*
X117254000Y-78355000D01*
X117255000Y-78352000D01*
X117257000Y-78350000D01*
X117258000Y-78348000D01*
X117260000Y-78346000D01*
X117261000Y-78344000D01*
X117263000Y-78342000D01*
X117265000Y-78340000D01*
X117267000Y-78338000D01*
X117269000Y-78336000D01*
X117271000Y-78335000D01*
X117273000Y-78333000D01*
X117275000Y-78332000D01*
X117277000Y-78330000D01*
X117280000Y-78329000D01*
X117282000Y-78328000D01*
X117285000Y-78327000D01*
X117287000Y-78327000D01*
X117290000Y-78326000D01*
X117292000Y-78326000D01*
X117295000Y-78325000D01*
X117297000Y-78325000D01*
X117300000Y-78325000D01*
X117800000Y-78325000D01*
X117803000Y-78325000D01*
X117805000Y-78325000D01*
X117808000Y-78326000D01*
G37*
X117808000Y-78976000D02*
X117810000Y-78976000D01*
X117813000Y-78977000D01*
X117815000Y-78977000D01*
X117818000Y-78978000D01*
X117820000Y-78979000D01*
X117823000Y-78980000D01*
X117825000Y-78982000D01*
X117827000Y-78983000D01*
X117829000Y-78985000D01*
X117831000Y-78986000D01*
X117833000Y-78988000D01*
X117835000Y-78990000D01*
X117837000Y-78992000D01*
X117839000Y-78994000D01*
X117840000Y-78996000D01*
X117842000Y-78998000D01*
X117843000Y-79000000D01*
X117845000Y-79002000D01*
X117846000Y-79005000D01*
X117847000Y-79007000D01*
X117848000Y-79010000D01*
X117848000Y-79012000D01*
X117849000Y-79015000D01*
X117849000Y-79017000D01*
X117850000Y-79020000D01*
X117850000Y-79022000D01*
X117850000Y-79025000D01*
X117850000Y-79225000D01*
X117850000Y-79228000D01*
X117850000Y-79230000D01*
X117849000Y-79233000D01*
X117849000Y-79235000D01*
X117848000Y-79238000D01*
X117848000Y-79240000D01*
X117847000Y-79243000D01*
X117846000Y-79245000D01*
X117845000Y-79248000D01*
X117843000Y-79250000D01*
X117842000Y-79252000D01*
X117840000Y-79254000D01*
X117839000Y-79256000D01*
X117837000Y-79258000D01*
X117835000Y-79260000D01*
X117833000Y-79262000D01*
X117831000Y-79264000D01*
X117829000Y-79265000D01*
X117827000Y-79267000D01*
X117825000Y-79268000D01*
X117823000Y-79270000D01*
X117820000Y-79271000D01*
X117818000Y-79272000D01*
X117815000Y-79273000D01*
X117813000Y-79273000D01*
X117810000Y-79274000D01*
X117808000Y-79274000D01*
X117805000Y-79275000D01*
X117803000Y-79275000D01*
X117800000Y-79275000D01*
X117300000Y-79275000D01*
X117297000Y-79275000D01*
X117295000Y-79275000D01*
X117292000Y-79274000D01*
X117290000Y-79274000D01*
X117287000Y-79273000D01*
X117285000Y-79273000D01*
X117282000Y-79272000D01*
X117280000Y-79271000D01*
X117277000Y-79270000D01*
X117275000Y-79268000D01*
X117273000Y-79267000D01*
X117271000Y-79265000D01*
X117269000Y-79264000D01*
X117267000Y-79262000D01*
X117265000Y-79260000D01*
X117263000Y-79258000D01*
X117261000Y-79256000D01*
X117260000Y-79254000D01*
X117258000Y-79252000D01*
X117257000Y-79250000D01*
X117255000Y-79248000D01*
X117254000Y-79245000D01*
X117253000Y-79243000D01*
X117252000Y-79240000D01*
X117252000Y-79238000D01*
X117251000Y-79235000D01*
X117251000Y-79233000D01*
X117250000Y-79230000D01*
X117250000Y-79228000D01*
X117250000Y-79225000D01*
X117250000Y-79025000D01*
X117250000Y-79022000D01*
X117250000Y-79020000D01*
X117251000Y-79017000D01*
X117251000Y-79015000D01*
X117252000Y-79012000D01*
X117252000Y-79010000D01*
X117253000Y-79007000D01*
X117254000Y-79005000D01*
X117255000Y-79002000D01*
X117257000Y-79000000D01*
X117258000Y-78998000D01*
X117260000Y-78996000D01*
X117261000Y-78994000D01*
X117263000Y-78992000D01*
X117265000Y-78990000D01*
X117267000Y-78988000D01*
X117269000Y-78986000D01*
X117271000Y-78985000D01*
X117273000Y-78983000D01*
X117275000Y-78982000D01*
X117277000Y-78980000D01*
X117280000Y-78979000D01*
X117282000Y-78978000D01*
X117285000Y-78977000D01*
X117287000Y-78977000D01*
X117290000Y-78976000D01*
X117292000Y-78976000D01*
X117295000Y-78975000D01*
X117297000Y-78975000D01*
X117300000Y-78975000D01*
X117800000Y-78975000D01*
X117803000Y-78975000D01*
X117805000Y-78975000D01*
X117808000Y-78976000D01*
G36*
X117808000Y-78976000D02*
G01*
X117810000Y-78976000D01*
X117813000Y-78977000D01*
X117815000Y-78977000D01*
X117818000Y-78978000D01*
X117820000Y-78979000D01*
X117823000Y-78980000D01*
X117825000Y-78982000D01*
X117827000Y-78983000D01*
X117829000Y-78985000D01*
X117831000Y-78986000D01*
X117833000Y-78988000D01*
X117835000Y-78990000D01*
X117837000Y-78992000D01*
X117839000Y-78994000D01*
X117840000Y-78996000D01*
X117842000Y-78998000D01*
X117843000Y-79000000D01*
X117845000Y-79002000D01*
X117846000Y-79005000D01*
X117847000Y-79007000D01*
X117848000Y-79010000D01*
X117848000Y-79012000D01*
X117849000Y-79015000D01*
X117849000Y-79017000D01*
X117850000Y-79020000D01*
X117850000Y-79022000D01*
X117850000Y-79025000D01*
X117850000Y-79225000D01*
X117850000Y-79228000D01*
X117850000Y-79230000D01*
X117849000Y-79233000D01*
X117849000Y-79235000D01*
X117848000Y-79238000D01*
X117848000Y-79240000D01*
X117847000Y-79243000D01*
X117846000Y-79245000D01*
X117845000Y-79248000D01*
X117843000Y-79250000D01*
X117842000Y-79252000D01*
X117840000Y-79254000D01*
X117839000Y-79256000D01*
X117837000Y-79258000D01*
X117835000Y-79260000D01*
X117833000Y-79262000D01*
X117831000Y-79264000D01*
X117829000Y-79265000D01*
X117827000Y-79267000D01*
X117825000Y-79268000D01*
X117823000Y-79270000D01*
X117820000Y-79271000D01*
X117818000Y-79272000D01*
X117815000Y-79273000D01*
X117813000Y-79273000D01*
X117810000Y-79274000D01*
X117808000Y-79274000D01*
X117805000Y-79275000D01*
X117803000Y-79275000D01*
X117800000Y-79275000D01*
X117300000Y-79275000D01*
X117297000Y-79275000D01*
X117295000Y-79275000D01*
X117292000Y-79274000D01*
X117290000Y-79274000D01*
X117287000Y-79273000D01*
X117285000Y-79273000D01*
X117282000Y-79272000D01*
X117280000Y-79271000D01*
X117277000Y-79270000D01*
X117275000Y-79268000D01*
X117273000Y-79267000D01*
X117271000Y-79265000D01*
X117269000Y-79264000D01*
X117267000Y-79262000D01*
X117265000Y-79260000D01*
X117263000Y-79258000D01*
X117261000Y-79256000D01*
X117260000Y-79254000D01*
X117258000Y-79252000D01*
X117257000Y-79250000D01*
X117255000Y-79248000D01*
X117254000Y-79245000D01*
X117253000Y-79243000D01*
X117252000Y-79240000D01*
X117252000Y-79238000D01*
X117251000Y-79235000D01*
X117251000Y-79233000D01*
X117250000Y-79230000D01*
X117250000Y-79228000D01*
X117250000Y-79225000D01*
X117250000Y-79025000D01*
X117250000Y-79022000D01*
X117250000Y-79020000D01*
X117251000Y-79017000D01*
X117251000Y-79015000D01*
X117252000Y-79012000D01*
X117252000Y-79010000D01*
X117253000Y-79007000D01*
X117254000Y-79005000D01*
X117255000Y-79002000D01*
X117257000Y-79000000D01*
X117258000Y-78998000D01*
X117260000Y-78996000D01*
X117261000Y-78994000D01*
X117263000Y-78992000D01*
X117265000Y-78990000D01*
X117267000Y-78988000D01*
X117269000Y-78986000D01*
X117271000Y-78985000D01*
X117273000Y-78983000D01*
X117275000Y-78982000D01*
X117277000Y-78980000D01*
X117280000Y-78979000D01*
X117282000Y-78978000D01*
X117285000Y-78977000D01*
X117287000Y-78977000D01*
X117290000Y-78976000D01*
X117292000Y-78976000D01*
X117295000Y-78975000D01*
X117297000Y-78975000D01*
X117300000Y-78975000D01*
X117800000Y-78975000D01*
X117803000Y-78975000D01*
X117805000Y-78975000D01*
X117808000Y-78976000D01*
G37*
X117808000Y-79626000D02*
X117810000Y-79626000D01*
X117813000Y-79627000D01*
X117815000Y-79627000D01*
X117818000Y-79628000D01*
X117820000Y-79629000D01*
X117823000Y-79630000D01*
X117825000Y-79632000D01*
X117827000Y-79633000D01*
X117829000Y-79635000D01*
X117831000Y-79636000D01*
X117833000Y-79638000D01*
X117835000Y-79640000D01*
X117837000Y-79642000D01*
X117839000Y-79644000D01*
X117840000Y-79646000D01*
X117842000Y-79648000D01*
X117843000Y-79650000D01*
X117845000Y-79652000D01*
X117846000Y-79655000D01*
X117847000Y-79657000D01*
X117848000Y-79660000D01*
X117848000Y-79662000D01*
X117849000Y-79665000D01*
X117849000Y-79667000D01*
X117850000Y-79670000D01*
X117850000Y-79672000D01*
X117850000Y-79675000D01*
X117850000Y-79875000D01*
X117850000Y-79878000D01*
X117850000Y-79880000D01*
X117849000Y-79883000D01*
X117849000Y-79885000D01*
X117848000Y-79888000D01*
X117848000Y-79890000D01*
X117847000Y-79893000D01*
X117846000Y-79895000D01*
X117845000Y-79898000D01*
X117843000Y-79900000D01*
X117842000Y-79902000D01*
X117840000Y-79904000D01*
X117839000Y-79906000D01*
X117837000Y-79908000D01*
X117835000Y-79910000D01*
X117833000Y-79912000D01*
X117831000Y-79914000D01*
X117829000Y-79915000D01*
X117827000Y-79917000D01*
X117825000Y-79918000D01*
X117823000Y-79920000D01*
X117820000Y-79921000D01*
X117818000Y-79922000D01*
X117815000Y-79923000D01*
X117813000Y-79923000D01*
X117810000Y-79924000D01*
X117808000Y-79924000D01*
X117805000Y-79925000D01*
X117803000Y-79925000D01*
X117800000Y-79925000D01*
X117300000Y-79925000D01*
X117297000Y-79925000D01*
X117295000Y-79925000D01*
X117292000Y-79924000D01*
X117290000Y-79924000D01*
X117287000Y-79923000D01*
X117285000Y-79923000D01*
X117282000Y-79922000D01*
X117280000Y-79921000D01*
X117277000Y-79920000D01*
X117275000Y-79918000D01*
X117273000Y-79917000D01*
X117271000Y-79915000D01*
X117269000Y-79914000D01*
X117267000Y-79912000D01*
X117265000Y-79910000D01*
X117263000Y-79908000D01*
X117261000Y-79906000D01*
X117260000Y-79904000D01*
X117258000Y-79902000D01*
X117257000Y-79900000D01*
X117255000Y-79898000D01*
X117254000Y-79895000D01*
X117253000Y-79893000D01*
X117252000Y-79890000D01*
X117252000Y-79888000D01*
X117251000Y-79885000D01*
X117251000Y-79883000D01*
X117250000Y-79880000D01*
X117250000Y-79878000D01*
X117250000Y-79875000D01*
X117250000Y-79675000D01*
X117250000Y-79672000D01*
X117250000Y-79670000D01*
X117251000Y-79667000D01*
X117251000Y-79665000D01*
X117252000Y-79662000D01*
X117252000Y-79660000D01*
X117253000Y-79657000D01*
X117254000Y-79655000D01*
X117255000Y-79652000D01*
X117257000Y-79650000D01*
X117258000Y-79648000D01*
X117260000Y-79646000D01*
X117261000Y-79644000D01*
X117263000Y-79642000D01*
X117265000Y-79640000D01*
X117267000Y-79638000D01*
X117269000Y-79636000D01*
X117271000Y-79635000D01*
X117273000Y-79633000D01*
X117275000Y-79632000D01*
X117277000Y-79630000D01*
X117280000Y-79629000D01*
X117282000Y-79628000D01*
X117285000Y-79627000D01*
X117287000Y-79627000D01*
X117290000Y-79626000D01*
X117292000Y-79626000D01*
X117295000Y-79625000D01*
X117297000Y-79625000D01*
X117300000Y-79625000D01*
X117800000Y-79625000D01*
X117803000Y-79625000D01*
X117805000Y-79625000D01*
X117808000Y-79626000D01*
G36*
X117808000Y-79626000D02*
G01*
X117810000Y-79626000D01*
X117813000Y-79627000D01*
X117815000Y-79627000D01*
X117818000Y-79628000D01*
X117820000Y-79629000D01*
X117823000Y-79630000D01*
X117825000Y-79632000D01*
X117827000Y-79633000D01*
X117829000Y-79635000D01*
X117831000Y-79636000D01*
X117833000Y-79638000D01*
X117835000Y-79640000D01*
X117837000Y-79642000D01*
X117839000Y-79644000D01*
X117840000Y-79646000D01*
X117842000Y-79648000D01*
X117843000Y-79650000D01*
X117845000Y-79652000D01*
X117846000Y-79655000D01*
X117847000Y-79657000D01*
X117848000Y-79660000D01*
X117848000Y-79662000D01*
X117849000Y-79665000D01*
X117849000Y-79667000D01*
X117850000Y-79670000D01*
X117850000Y-79672000D01*
X117850000Y-79675000D01*
X117850000Y-79875000D01*
X117850000Y-79878000D01*
X117850000Y-79880000D01*
X117849000Y-79883000D01*
X117849000Y-79885000D01*
X117848000Y-79888000D01*
X117848000Y-79890000D01*
X117847000Y-79893000D01*
X117846000Y-79895000D01*
X117845000Y-79898000D01*
X117843000Y-79900000D01*
X117842000Y-79902000D01*
X117840000Y-79904000D01*
X117839000Y-79906000D01*
X117837000Y-79908000D01*
X117835000Y-79910000D01*
X117833000Y-79912000D01*
X117831000Y-79914000D01*
X117829000Y-79915000D01*
X117827000Y-79917000D01*
X117825000Y-79918000D01*
X117823000Y-79920000D01*
X117820000Y-79921000D01*
X117818000Y-79922000D01*
X117815000Y-79923000D01*
X117813000Y-79923000D01*
X117810000Y-79924000D01*
X117808000Y-79924000D01*
X117805000Y-79925000D01*
X117803000Y-79925000D01*
X117800000Y-79925000D01*
X117300000Y-79925000D01*
X117297000Y-79925000D01*
X117295000Y-79925000D01*
X117292000Y-79924000D01*
X117290000Y-79924000D01*
X117287000Y-79923000D01*
X117285000Y-79923000D01*
X117282000Y-79922000D01*
X117280000Y-79921000D01*
X117277000Y-79920000D01*
X117275000Y-79918000D01*
X117273000Y-79917000D01*
X117271000Y-79915000D01*
X117269000Y-79914000D01*
X117267000Y-79912000D01*
X117265000Y-79910000D01*
X117263000Y-79908000D01*
X117261000Y-79906000D01*
X117260000Y-79904000D01*
X117258000Y-79902000D01*
X117257000Y-79900000D01*
X117255000Y-79898000D01*
X117254000Y-79895000D01*
X117253000Y-79893000D01*
X117252000Y-79890000D01*
X117252000Y-79888000D01*
X117251000Y-79885000D01*
X117251000Y-79883000D01*
X117250000Y-79880000D01*
X117250000Y-79878000D01*
X117250000Y-79875000D01*
X117250000Y-79675000D01*
X117250000Y-79672000D01*
X117250000Y-79670000D01*
X117251000Y-79667000D01*
X117251000Y-79665000D01*
X117252000Y-79662000D01*
X117252000Y-79660000D01*
X117253000Y-79657000D01*
X117254000Y-79655000D01*
X117255000Y-79652000D01*
X117257000Y-79650000D01*
X117258000Y-79648000D01*
X117260000Y-79646000D01*
X117261000Y-79644000D01*
X117263000Y-79642000D01*
X117265000Y-79640000D01*
X117267000Y-79638000D01*
X117269000Y-79636000D01*
X117271000Y-79635000D01*
X117273000Y-79633000D01*
X117275000Y-79632000D01*
X117277000Y-79630000D01*
X117280000Y-79629000D01*
X117282000Y-79628000D01*
X117285000Y-79627000D01*
X117287000Y-79627000D01*
X117290000Y-79626000D01*
X117292000Y-79626000D01*
X117295000Y-79625000D01*
X117297000Y-79625000D01*
X117300000Y-79625000D01*
X117800000Y-79625000D01*
X117803000Y-79625000D01*
X117805000Y-79625000D01*
X117808000Y-79626000D01*
G37*
X116518000Y-77576000D02*
X116520000Y-77576000D01*
X116523000Y-77577000D01*
X116525000Y-77577000D01*
X116528000Y-77578000D01*
X116530000Y-77579000D01*
X116533000Y-77580000D01*
X116535000Y-77582000D01*
X116537000Y-77583000D01*
X116539000Y-77585000D01*
X116541000Y-77586000D01*
X116543000Y-77588000D01*
X116545000Y-77590000D01*
X116547000Y-77592000D01*
X116549000Y-77594000D01*
X116550000Y-77596000D01*
X116552000Y-77598000D01*
X116553000Y-77600000D01*
X116555000Y-77602000D01*
X116556000Y-77605000D01*
X116557000Y-77607000D01*
X116558000Y-77610000D01*
X116558000Y-77612000D01*
X116559000Y-77615000D01*
X116559000Y-77617000D01*
X116560000Y-77620000D01*
X116560000Y-77622000D01*
X116560000Y-77625000D01*
X116560000Y-79975000D01*
X116560000Y-79978000D01*
X116560000Y-79980000D01*
X116559000Y-79983000D01*
X116559000Y-79985000D01*
X116558000Y-79988000D01*
X116558000Y-79990000D01*
X116557000Y-79993000D01*
X116556000Y-79995000D01*
X116555000Y-79998000D01*
X116553000Y-80000000D01*
X116552000Y-80002000D01*
X116550000Y-80004000D01*
X116549000Y-80006000D01*
X116547000Y-80008000D01*
X116545000Y-80010000D01*
X116543000Y-80012000D01*
X116541000Y-80014000D01*
X116539000Y-80015000D01*
X116537000Y-80017000D01*
X116535000Y-80018000D01*
X116533000Y-80020000D01*
X116530000Y-80021000D01*
X116528000Y-80022000D01*
X116525000Y-80023000D01*
X116523000Y-80023000D01*
X116520000Y-80024000D01*
X116518000Y-80024000D01*
X116515000Y-80025000D01*
X116513000Y-80025000D01*
X116510000Y-80025000D01*
X114835000Y-80025000D01*
X114832000Y-80025000D01*
X114830000Y-80025000D01*
X114827000Y-80024000D01*
X114825000Y-80024000D01*
X114822000Y-80023000D01*
X114820000Y-80023000D01*
X114817000Y-80022000D01*
X114815000Y-80021000D01*
X114812000Y-80020000D01*
X114810000Y-80018000D01*
X114808000Y-80017000D01*
X114806000Y-80015000D01*
X114804000Y-80014000D01*
X114802000Y-80012000D01*
X114800000Y-80010000D01*
X114798000Y-80008000D01*
X114796000Y-80006000D01*
X114795000Y-80004000D01*
X114793000Y-80002000D01*
X114792000Y-80000000D01*
X114790000Y-79998000D01*
X114789000Y-79995000D01*
X114788000Y-79993000D01*
X114787000Y-79990000D01*
X114787000Y-79988000D01*
X114786000Y-79985000D01*
X114786000Y-79983000D01*
X114785000Y-79980000D01*
X114785000Y-79978000D01*
X114785000Y-79975000D01*
X114785000Y-79925000D01*
X114200000Y-79925000D01*
X114197000Y-79925000D01*
X114195000Y-79925000D01*
X114192000Y-79924000D01*
X114190000Y-79924000D01*
X114187000Y-79923000D01*
X114185000Y-79923000D01*
X114182000Y-79922000D01*
X114180000Y-79921000D01*
X114177000Y-79920000D01*
X114175000Y-79918000D01*
X114173000Y-79917000D01*
X114171000Y-79915000D01*
X114169000Y-79914000D01*
X114167000Y-79912000D01*
X114165000Y-79910000D01*
X114163000Y-79908000D01*
X114161000Y-79906000D01*
X114160000Y-79904000D01*
X114158000Y-79902000D01*
X114157000Y-79900000D01*
X114155000Y-79898000D01*
X114154000Y-79895000D01*
X114153000Y-79893000D01*
X114152000Y-79890000D01*
X114152000Y-79888000D01*
X114151000Y-79885000D01*
X114151000Y-79883000D01*
X114150000Y-79880000D01*
X114150000Y-79878000D01*
X114150000Y-79875000D01*
X114150000Y-79675000D01*
X114150000Y-79672000D01*
X114150000Y-79670000D01*
X114151000Y-79667000D01*
X114151000Y-79665000D01*
X114152000Y-79662000D01*
X114152000Y-79660000D01*
X114153000Y-79657000D01*
X114154000Y-79655000D01*
X114155000Y-79652000D01*
X114157000Y-79650000D01*
X114158000Y-79648000D01*
X114160000Y-79646000D01*
X114161000Y-79644000D01*
X114163000Y-79642000D01*
X114165000Y-79640000D01*
X114167000Y-79638000D01*
X114169000Y-79636000D01*
X114171000Y-79635000D01*
X114173000Y-79633000D01*
X114175000Y-79632000D01*
X114177000Y-79630000D01*
X114180000Y-79629000D01*
X114182000Y-79628000D01*
X114185000Y-79627000D01*
X114187000Y-79627000D01*
X114190000Y-79626000D01*
X114192000Y-79626000D01*
X114195000Y-79625000D01*
X114197000Y-79625000D01*
X114200000Y-79625000D01*
X114785000Y-79625000D01*
X114785000Y-79275000D01*
X114200000Y-79275000D01*
X114197000Y-79275000D01*
X114195000Y-79275000D01*
X114192000Y-79274000D01*
X114190000Y-79274000D01*
X114187000Y-79273000D01*
X114185000Y-79273000D01*
X114182000Y-79272000D01*
X114180000Y-79271000D01*
X114177000Y-79270000D01*
X114175000Y-79268000D01*
X114173000Y-79267000D01*
X114171000Y-79265000D01*
X114169000Y-79264000D01*
X114167000Y-79262000D01*
X114165000Y-79260000D01*
X114163000Y-79258000D01*
X114161000Y-79256000D01*
X114160000Y-79254000D01*
X114158000Y-79252000D01*
X114157000Y-79250000D01*
X114155000Y-79248000D01*
X114154000Y-79245000D01*
X114153000Y-79243000D01*
X114152000Y-79240000D01*
X114152000Y-79238000D01*
X114151000Y-79235000D01*
X114151000Y-79233000D01*
X114150000Y-79230000D01*
X114150000Y-79228000D01*
X114150000Y-79225000D01*
X114150000Y-79025000D01*
X114150000Y-79022000D01*
X114150000Y-79020000D01*
X114151000Y-79017000D01*
X114151000Y-79015000D01*
X114152000Y-79012000D01*
X114152000Y-79010000D01*
X114153000Y-79007000D01*
X114154000Y-79005000D01*
X114155000Y-79002000D01*
X114157000Y-79000000D01*
X114158000Y-78998000D01*
X114160000Y-78996000D01*
X114161000Y-78994000D01*
X114163000Y-78992000D01*
X114165000Y-78990000D01*
X114167000Y-78988000D01*
X114169000Y-78986000D01*
X114171000Y-78985000D01*
X114173000Y-78983000D01*
X114175000Y-78982000D01*
X114177000Y-78980000D01*
X114180000Y-78979000D01*
X114182000Y-78978000D01*
X114185000Y-78977000D01*
X114187000Y-78977000D01*
X114190000Y-78976000D01*
X114192000Y-78976000D01*
X114195000Y-78975000D01*
X114197000Y-78975000D01*
X114200000Y-78975000D01*
X114785000Y-78975000D01*
X114785000Y-78625000D01*
X114200000Y-78625000D01*
X114197000Y-78625000D01*
X114195000Y-78625000D01*
X114192000Y-78624000D01*
X114190000Y-78624000D01*
X114187000Y-78623000D01*
X114185000Y-78623000D01*
X114182000Y-78622000D01*
X114180000Y-78621000D01*
X114177000Y-78620000D01*
X114175000Y-78618000D01*
X114173000Y-78617000D01*
X114171000Y-78615000D01*
X114169000Y-78614000D01*
X114167000Y-78612000D01*
X114165000Y-78610000D01*
X114163000Y-78608000D01*
X114161000Y-78606000D01*
X114160000Y-78604000D01*
X114158000Y-78602000D01*
X114157000Y-78600000D01*
X114155000Y-78598000D01*
X114154000Y-78595000D01*
X114153000Y-78593000D01*
X114152000Y-78590000D01*
X114152000Y-78588000D01*
X114151000Y-78585000D01*
X114151000Y-78583000D01*
X114150000Y-78580000D01*
X114150000Y-78578000D01*
X114150000Y-78575000D01*
X114150000Y-78375000D01*
X114150000Y-78372000D01*
X114150000Y-78370000D01*
X114151000Y-78367000D01*
X114151000Y-78365000D01*
X114152000Y-78362000D01*
X114152000Y-78360000D01*
X114153000Y-78357000D01*
X114154000Y-78355000D01*
X114155000Y-78352000D01*
X114157000Y-78350000D01*
X114158000Y-78348000D01*
X114160000Y-78346000D01*
X114161000Y-78344000D01*
X114163000Y-78342000D01*
X114165000Y-78340000D01*
X114167000Y-78338000D01*
X114169000Y-78336000D01*
X114171000Y-78335000D01*
X114173000Y-78333000D01*
X114175000Y-78332000D01*
X114177000Y-78330000D01*
X114180000Y-78329000D01*
X114182000Y-78328000D01*
X114185000Y-78327000D01*
X114187000Y-78327000D01*
X114190000Y-78326000D01*
X114192000Y-78326000D01*
X114195000Y-78325000D01*
X114197000Y-78325000D01*
X114200000Y-78325000D01*
X114785000Y-78325000D01*
X114785000Y-77975000D01*
X114200000Y-77975000D01*
X114197000Y-77975000D01*
X114195000Y-77975000D01*
X114192000Y-77974000D01*
X114190000Y-77974000D01*
X114187000Y-77973000D01*
X114185000Y-77973000D01*
X114182000Y-77972000D01*
X114180000Y-77971000D01*
X114177000Y-77970000D01*
X114175000Y-77968000D01*
X114173000Y-77967000D01*
X114171000Y-77965000D01*
X114169000Y-77964000D01*
X114167000Y-77962000D01*
X114165000Y-77960000D01*
X114163000Y-77958000D01*
X114161000Y-77956000D01*
X114160000Y-77954000D01*
X114158000Y-77952000D01*
X114157000Y-77950000D01*
X114155000Y-77948000D01*
X114154000Y-77945000D01*
X114153000Y-77943000D01*
X114152000Y-77940000D01*
X114152000Y-77938000D01*
X114151000Y-77935000D01*
X114151000Y-77933000D01*
X114150000Y-77930000D01*
X114150000Y-77928000D01*
X114150000Y-77925000D01*
X114150000Y-77725000D01*
X114150000Y-77722000D01*
X114150000Y-77720000D01*
X114151000Y-77717000D01*
X114151000Y-77715000D01*
X114152000Y-77712000D01*
X114152000Y-77710000D01*
X114153000Y-77707000D01*
X114154000Y-77705000D01*
X114155000Y-77702000D01*
X114157000Y-77700000D01*
X114158000Y-77698000D01*
X114160000Y-77696000D01*
X114161000Y-77694000D01*
X114163000Y-77692000D01*
X114165000Y-77690000D01*
X114167000Y-77688000D01*
X114169000Y-77686000D01*
X114171000Y-77685000D01*
X114173000Y-77683000D01*
X114175000Y-77682000D01*
X114177000Y-77680000D01*
X114180000Y-77679000D01*
X114182000Y-77678000D01*
X114185000Y-77677000D01*
X114187000Y-77677000D01*
X114190000Y-77676000D01*
X114192000Y-77676000D01*
X114195000Y-77675000D01*
X114197000Y-77675000D01*
X114200000Y-77675000D01*
X114785000Y-77675000D01*
X114785000Y-77625000D01*
X114785000Y-77622000D01*
X114785000Y-77620000D01*
X114786000Y-77617000D01*
X114786000Y-77615000D01*
X114787000Y-77612000D01*
X114787000Y-77610000D01*
X114788000Y-77607000D01*
X114789000Y-77605000D01*
X114790000Y-77602000D01*
X114792000Y-77600000D01*
X114793000Y-77598000D01*
X114795000Y-77596000D01*
X114796000Y-77594000D01*
X114798000Y-77592000D01*
X114800000Y-77590000D01*
X114802000Y-77588000D01*
X114804000Y-77586000D01*
X114806000Y-77585000D01*
X114808000Y-77583000D01*
X114810000Y-77582000D01*
X114812000Y-77580000D01*
X114815000Y-77579000D01*
X114817000Y-77578000D01*
X114820000Y-77577000D01*
X114822000Y-77577000D01*
X114825000Y-77576000D01*
X114827000Y-77576000D01*
X114830000Y-77575000D01*
X114832000Y-77575000D01*
X114835000Y-77575000D01*
X116510000Y-77575000D01*
X116513000Y-77575000D01*
X116515000Y-77575000D01*
X116518000Y-77576000D01*
G36*
X116518000Y-77576000D02*
G01*
X116520000Y-77576000D01*
X116523000Y-77577000D01*
X116525000Y-77577000D01*
X116528000Y-77578000D01*
X116530000Y-77579000D01*
X116533000Y-77580000D01*
X116535000Y-77582000D01*
X116537000Y-77583000D01*
X116539000Y-77585000D01*
X116541000Y-77586000D01*
X116543000Y-77588000D01*
X116545000Y-77590000D01*
X116547000Y-77592000D01*
X116549000Y-77594000D01*
X116550000Y-77596000D01*
X116552000Y-77598000D01*
X116553000Y-77600000D01*
X116555000Y-77602000D01*
X116556000Y-77605000D01*
X116557000Y-77607000D01*
X116558000Y-77610000D01*
X116558000Y-77612000D01*
X116559000Y-77615000D01*
X116559000Y-77617000D01*
X116560000Y-77620000D01*
X116560000Y-77622000D01*
X116560000Y-77625000D01*
X116560000Y-79975000D01*
X116560000Y-79978000D01*
X116560000Y-79980000D01*
X116559000Y-79983000D01*
X116559000Y-79985000D01*
X116558000Y-79988000D01*
X116558000Y-79990000D01*
X116557000Y-79993000D01*
X116556000Y-79995000D01*
X116555000Y-79998000D01*
X116553000Y-80000000D01*
X116552000Y-80002000D01*
X116550000Y-80004000D01*
X116549000Y-80006000D01*
X116547000Y-80008000D01*
X116545000Y-80010000D01*
X116543000Y-80012000D01*
X116541000Y-80014000D01*
X116539000Y-80015000D01*
X116537000Y-80017000D01*
X116535000Y-80018000D01*
X116533000Y-80020000D01*
X116530000Y-80021000D01*
X116528000Y-80022000D01*
X116525000Y-80023000D01*
X116523000Y-80023000D01*
X116520000Y-80024000D01*
X116518000Y-80024000D01*
X116515000Y-80025000D01*
X116513000Y-80025000D01*
X116510000Y-80025000D01*
X114835000Y-80025000D01*
X114832000Y-80025000D01*
X114830000Y-80025000D01*
X114827000Y-80024000D01*
X114825000Y-80024000D01*
X114822000Y-80023000D01*
X114820000Y-80023000D01*
X114817000Y-80022000D01*
X114815000Y-80021000D01*
X114812000Y-80020000D01*
X114810000Y-80018000D01*
X114808000Y-80017000D01*
X114806000Y-80015000D01*
X114804000Y-80014000D01*
X114802000Y-80012000D01*
X114800000Y-80010000D01*
X114798000Y-80008000D01*
X114796000Y-80006000D01*
X114795000Y-80004000D01*
X114793000Y-80002000D01*
X114792000Y-80000000D01*
X114790000Y-79998000D01*
X114789000Y-79995000D01*
X114788000Y-79993000D01*
X114787000Y-79990000D01*
X114787000Y-79988000D01*
X114786000Y-79985000D01*
X114786000Y-79983000D01*
X114785000Y-79980000D01*
X114785000Y-79978000D01*
X114785000Y-79975000D01*
X114785000Y-79925000D01*
X114200000Y-79925000D01*
X114197000Y-79925000D01*
X114195000Y-79925000D01*
X114192000Y-79924000D01*
X114190000Y-79924000D01*
X114187000Y-79923000D01*
X114185000Y-79923000D01*
X114182000Y-79922000D01*
X114180000Y-79921000D01*
X114177000Y-79920000D01*
X114175000Y-79918000D01*
X114173000Y-79917000D01*
X114171000Y-79915000D01*
X114169000Y-79914000D01*
X114167000Y-79912000D01*
X114165000Y-79910000D01*
X114163000Y-79908000D01*
X114161000Y-79906000D01*
X114160000Y-79904000D01*
X114158000Y-79902000D01*
X114157000Y-79900000D01*
X114155000Y-79898000D01*
X114154000Y-79895000D01*
X114153000Y-79893000D01*
X114152000Y-79890000D01*
X114152000Y-79888000D01*
X114151000Y-79885000D01*
X114151000Y-79883000D01*
X114150000Y-79880000D01*
X114150000Y-79878000D01*
X114150000Y-79875000D01*
X114150000Y-79675000D01*
X114150000Y-79672000D01*
X114150000Y-79670000D01*
X114151000Y-79667000D01*
X114151000Y-79665000D01*
X114152000Y-79662000D01*
X114152000Y-79660000D01*
X114153000Y-79657000D01*
X114154000Y-79655000D01*
X114155000Y-79652000D01*
X114157000Y-79650000D01*
X114158000Y-79648000D01*
X114160000Y-79646000D01*
X114161000Y-79644000D01*
X114163000Y-79642000D01*
X114165000Y-79640000D01*
X114167000Y-79638000D01*
X114169000Y-79636000D01*
X114171000Y-79635000D01*
X114173000Y-79633000D01*
X114175000Y-79632000D01*
X114177000Y-79630000D01*
X114180000Y-79629000D01*
X114182000Y-79628000D01*
X114185000Y-79627000D01*
X114187000Y-79627000D01*
X114190000Y-79626000D01*
X114192000Y-79626000D01*
X114195000Y-79625000D01*
X114197000Y-79625000D01*
X114200000Y-79625000D01*
X114785000Y-79625000D01*
X114785000Y-79275000D01*
X114200000Y-79275000D01*
X114197000Y-79275000D01*
X114195000Y-79275000D01*
X114192000Y-79274000D01*
X114190000Y-79274000D01*
X114187000Y-79273000D01*
X114185000Y-79273000D01*
X114182000Y-79272000D01*
X114180000Y-79271000D01*
X114177000Y-79270000D01*
X114175000Y-79268000D01*
X114173000Y-79267000D01*
X114171000Y-79265000D01*
X114169000Y-79264000D01*
X114167000Y-79262000D01*
X114165000Y-79260000D01*
X114163000Y-79258000D01*
X114161000Y-79256000D01*
X114160000Y-79254000D01*
X114158000Y-79252000D01*
X114157000Y-79250000D01*
X114155000Y-79248000D01*
X114154000Y-79245000D01*
X114153000Y-79243000D01*
X114152000Y-79240000D01*
X114152000Y-79238000D01*
X114151000Y-79235000D01*
X114151000Y-79233000D01*
X114150000Y-79230000D01*
X114150000Y-79228000D01*
X114150000Y-79225000D01*
X114150000Y-79025000D01*
X114150000Y-79022000D01*
X114150000Y-79020000D01*
X114151000Y-79017000D01*
X114151000Y-79015000D01*
X114152000Y-79012000D01*
X114152000Y-79010000D01*
X114153000Y-79007000D01*
X114154000Y-79005000D01*
X114155000Y-79002000D01*
X114157000Y-79000000D01*
X114158000Y-78998000D01*
X114160000Y-78996000D01*
X114161000Y-78994000D01*
X114163000Y-78992000D01*
X114165000Y-78990000D01*
X114167000Y-78988000D01*
X114169000Y-78986000D01*
X114171000Y-78985000D01*
X114173000Y-78983000D01*
X114175000Y-78982000D01*
X114177000Y-78980000D01*
X114180000Y-78979000D01*
X114182000Y-78978000D01*
X114185000Y-78977000D01*
X114187000Y-78977000D01*
X114190000Y-78976000D01*
X114192000Y-78976000D01*
X114195000Y-78975000D01*
X114197000Y-78975000D01*
X114200000Y-78975000D01*
X114785000Y-78975000D01*
X114785000Y-78625000D01*
X114200000Y-78625000D01*
X114197000Y-78625000D01*
X114195000Y-78625000D01*
X114192000Y-78624000D01*
X114190000Y-78624000D01*
X114187000Y-78623000D01*
X114185000Y-78623000D01*
X114182000Y-78622000D01*
X114180000Y-78621000D01*
X114177000Y-78620000D01*
X114175000Y-78618000D01*
X114173000Y-78617000D01*
X114171000Y-78615000D01*
X114169000Y-78614000D01*
X114167000Y-78612000D01*
X114165000Y-78610000D01*
X114163000Y-78608000D01*
X114161000Y-78606000D01*
X114160000Y-78604000D01*
X114158000Y-78602000D01*
X114157000Y-78600000D01*
X114155000Y-78598000D01*
X114154000Y-78595000D01*
X114153000Y-78593000D01*
X114152000Y-78590000D01*
X114152000Y-78588000D01*
X114151000Y-78585000D01*
X114151000Y-78583000D01*
X114150000Y-78580000D01*
X114150000Y-78578000D01*
X114150000Y-78575000D01*
X114150000Y-78375000D01*
X114150000Y-78372000D01*
X114150000Y-78370000D01*
X114151000Y-78367000D01*
X114151000Y-78365000D01*
X114152000Y-78362000D01*
X114152000Y-78360000D01*
X114153000Y-78357000D01*
X114154000Y-78355000D01*
X114155000Y-78352000D01*
X114157000Y-78350000D01*
X114158000Y-78348000D01*
X114160000Y-78346000D01*
X114161000Y-78344000D01*
X114163000Y-78342000D01*
X114165000Y-78340000D01*
X114167000Y-78338000D01*
X114169000Y-78336000D01*
X114171000Y-78335000D01*
X114173000Y-78333000D01*
X114175000Y-78332000D01*
X114177000Y-78330000D01*
X114180000Y-78329000D01*
X114182000Y-78328000D01*
X114185000Y-78327000D01*
X114187000Y-78327000D01*
X114190000Y-78326000D01*
X114192000Y-78326000D01*
X114195000Y-78325000D01*
X114197000Y-78325000D01*
X114200000Y-78325000D01*
X114785000Y-78325000D01*
X114785000Y-77975000D01*
X114200000Y-77975000D01*
X114197000Y-77975000D01*
X114195000Y-77975000D01*
X114192000Y-77974000D01*
X114190000Y-77974000D01*
X114187000Y-77973000D01*
X114185000Y-77973000D01*
X114182000Y-77972000D01*
X114180000Y-77971000D01*
X114177000Y-77970000D01*
X114175000Y-77968000D01*
X114173000Y-77967000D01*
X114171000Y-77965000D01*
X114169000Y-77964000D01*
X114167000Y-77962000D01*
X114165000Y-77960000D01*
X114163000Y-77958000D01*
X114161000Y-77956000D01*
X114160000Y-77954000D01*
X114158000Y-77952000D01*
X114157000Y-77950000D01*
X114155000Y-77948000D01*
X114154000Y-77945000D01*
X114153000Y-77943000D01*
X114152000Y-77940000D01*
X114152000Y-77938000D01*
X114151000Y-77935000D01*
X114151000Y-77933000D01*
X114150000Y-77930000D01*
X114150000Y-77928000D01*
X114150000Y-77925000D01*
X114150000Y-77725000D01*
X114150000Y-77722000D01*
X114150000Y-77720000D01*
X114151000Y-77717000D01*
X114151000Y-77715000D01*
X114152000Y-77712000D01*
X114152000Y-77710000D01*
X114153000Y-77707000D01*
X114154000Y-77705000D01*
X114155000Y-77702000D01*
X114157000Y-77700000D01*
X114158000Y-77698000D01*
X114160000Y-77696000D01*
X114161000Y-77694000D01*
X114163000Y-77692000D01*
X114165000Y-77690000D01*
X114167000Y-77688000D01*
X114169000Y-77686000D01*
X114171000Y-77685000D01*
X114173000Y-77683000D01*
X114175000Y-77682000D01*
X114177000Y-77680000D01*
X114180000Y-77679000D01*
X114182000Y-77678000D01*
X114185000Y-77677000D01*
X114187000Y-77677000D01*
X114190000Y-77676000D01*
X114192000Y-77676000D01*
X114195000Y-77675000D01*
X114197000Y-77675000D01*
X114200000Y-77675000D01*
X114785000Y-77675000D01*
X114785000Y-77625000D01*
X114785000Y-77622000D01*
X114785000Y-77620000D01*
X114786000Y-77617000D01*
X114786000Y-77615000D01*
X114787000Y-77612000D01*
X114787000Y-77610000D01*
X114788000Y-77607000D01*
X114789000Y-77605000D01*
X114790000Y-77602000D01*
X114792000Y-77600000D01*
X114793000Y-77598000D01*
X114795000Y-77596000D01*
X114796000Y-77594000D01*
X114798000Y-77592000D01*
X114800000Y-77590000D01*
X114802000Y-77588000D01*
X114804000Y-77586000D01*
X114806000Y-77585000D01*
X114808000Y-77583000D01*
X114810000Y-77582000D01*
X114812000Y-77580000D01*
X114815000Y-77579000D01*
X114817000Y-77578000D01*
X114820000Y-77577000D01*
X114822000Y-77577000D01*
X114825000Y-77576000D01*
X114827000Y-77576000D01*
X114830000Y-77575000D01*
X114832000Y-77575000D01*
X114835000Y-77575000D01*
X116510000Y-77575000D01*
X116513000Y-77575000D01*
X116515000Y-77575000D01*
X116518000Y-77576000D01*
G37*
D11*
X151200000Y-77600000D03*
X151200000Y-76100000D03*
D12*
X146620000Y-100920000D03*
X145600000Y-100920000D03*
D13*
X123977500Y-106990000D03*
X125727500Y-106990000D03*
D14*
X118700000Y-112090000D03*
X118700000Y-113110000D03*
D15*
X109000000Y-83699998D03*
X109000000Y-88000000D03*
D16*
X103420000Y-121030000D03*
D17*
X101420000Y-121030000D03*
D18*
X113225000Y-74500000D03*
X116175000Y-74500000D03*
D19*
X127317500Y-109890000D03*
X128337500Y-109890000D03*
D20*
X122870000Y-127760000D03*
D21*
X125370000Y-127760000D03*
X127870000Y-127760000D03*
D22*
X165050000Y-120310000D03*
X161150000Y-120310000D03*
X165050000Y-119040000D03*
X161150000Y-119040000D03*
X165050000Y-117770000D03*
X161150000Y-117770000D03*
X165050000Y-116500000D03*
X161150000Y-116500000D03*
X165050000Y-115230000D03*
X161150000Y-115230000D03*
X165050000Y-113960000D03*
X161150000Y-113960000D03*
X165050000Y-112690000D03*
X161150000Y-112690000D03*
D23*
X142104226Y-77208274D03*
X142104226Y-77858274D03*
X142104226Y-78508274D03*
X142104226Y-79158274D03*
X142104226Y-79808274D03*
X142104226Y-80458274D03*
X142104226Y-81108274D03*
X142104226Y-81758274D03*
X142104226Y-82408274D03*
X142104226Y-83058274D03*
X142104226Y-83708274D03*
X142104226Y-84358274D03*
X142104226Y-85008274D03*
X142104226Y-85658274D03*
X147854226Y-85658274D03*
X147854226Y-85008274D03*
X147854226Y-84358274D03*
X147854226Y-83708274D03*
X147854226Y-83058274D03*
X147854226Y-82408274D03*
X147854226Y-81758274D03*
X147854226Y-81108274D03*
X147854226Y-80458274D03*
X147854226Y-79808274D03*
X147854226Y-79158274D03*
X147854226Y-78508274D03*
X147854226Y-77858274D03*
X147854226Y-77208274D03*
D24*
X144979226Y-81433274D03*
D25*
X116450000Y-114700000D03*
X118350000Y-114700000D03*
D26*
X134000000Y-122000000D03*
D27*
X134000000Y-124500000D03*
X134000000Y-127000000D03*
D20*
X122920000Y-121080000D03*
D21*
X125420000Y-121080000D03*
X127920000Y-121080000D03*
D28*
X166150000Y-93500000D03*
X167850000Y-93500000D03*
X166150000Y-99100000D03*
X167850000Y-99100000D03*
D11*
X138800000Y-77700000D03*
X138800000Y-76200000D03*
D29*
X142050000Y-115280000D03*
D21*
X139550000Y-115280000D03*
X137050000Y-115280000D03*
X134550000Y-115280000D03*
D26*
X142000000Y-122000000D03*
D27*
X142000000Y-124500000D03*
X142000000Y-127000000D03*
D13*
X123977500Y-109890000D03*
X125727500Y-109890000D03*
D19*
X138590000Y-79700000D03*
X139610000Y-79700000D03*
D13*
X123957500Y-104010000D03*
X125707500Y-104010000D03*
D20*
X111110000Y-121080000D03*
D21*
X113610000Y-121080000D03*
X116110000Y-121080000D03*
D30*
X111500000Y-107900000D03*
X111500000Y-114100000D03*
D19*
X116440000Y-112150000D03*
X117460000Y-112150000D03*
D31*
X102000000Y-128650000D03*
X100833274Y-128166726D03*
X103166726Y-128166726D03*
X100350000Y-127000000D03*
D32*
X102000000Y-127000000D03*
D31*
X103650000Y-127000000D03*
X100833274Y-125833274D03*
X103166726Y-125833274D03*
X102000000Y-125350000D03*
D33*
X150900000Y-80900000D03*
D34*
X103320000Y-96270000D03*
D35*
X108320000Y-96270000D03*
D19*
X127390000Y-104000000D03*
X128410000Y-104000000D03*
D36*
X113225000Y-70600000D03*
X116175000Y-70600000D03*
D37*
X153000000Y-125460000D03*
D38*
X153000000Y-128000000D03*
D37*
X155580000Y-119540000D03*
D38*
X155580000Y-117000000D03*
X155580000Y-114460000D03*
D39*
X117390000Y-109830000D03*
X116430000Y-109830000D03*
D19*
X149070000Y-103480000D03*
X150090000Y-103480000D03*
D40*
X102400000Y-88000000D03*
D41*
X102400000Y-83000000D03*
D31*
X165000000Y-128650000D03*
X163833274Y-128166726D03*
X166166726Y-128166726D03*
X163350000Y-127000000D03*
D32*
X165000000Y-127000000D03*
D31*
X166650000Y-127000000D03*
X163833274Y-125833274D03*
X166166726Y-125833274D03*
X165000000Y-125350000D03*
D20*
X153740000Y-86970000D03*
D21*
X156240000Y-86970000D03*
X158740000Y-86970000D03*
X161240000Y-86970000D03*
X163740000Y-86970000D03*
X166240000Y-86970000D03*
D42*
X109900000Y-70875000D03*
X109900000Y-69325000D03*
D43*
X118775000Y-99610000D03*
X120325000Y-99610000D03*
D33*
X116370000Y-100370000D03*
D44*
X147902500Y-95190000D03*
X147902500Y-95690000D03*
X147902500Y-96190000D03*
X147902500Y-96690000D03*
X147902500Y-97190000D03*
X147902500Y-97690000D03*
X147902500Y-98190000D03*
X147902500Y-98690000D03*
X147902500Y-99190000D03*
X147902500Y-99690000D03*
X147902500Y-100190000D03*
X147902500Y-100690000D03*
D45*
X148590000Y-101377500D03*
X149090000Y-101377500D03*
X149590000Y-101377500D03*
X150090000Y-101377500D03*
X150590000Y-101377500D03*
X151090000Y-101377500D03*
X151590000Y-101377500D03*
X152090000Y-101377500D03*
X152590000Y-101377500D03*
X153090000Y-101377500D03*
X153590000Y-101377500D03*
X154090000Y-101377500D03*
D44*
X154777500Y-100690000D03*
X154777500Y-100190000D03*
X154777500Y-99690000D03*
X154777500Y-99190000D03*
X154777500Y-98690000D03*
X154777500Y-98190000D03*
X154777500Y-97690000D03*
X154777500Y-97190000D03*
X154777500Y-96690000D03*
X154777500Y-96190000D03*
X154777500Y-95690000D03*
X154777500Y-95190000D03*
D45*
X154090000Y-94502500D03*
X153590000Y-94502500D03*
X153090000Y-94502500D03*
X152590000Y-94502500D03*
X152090000Y-94502500D03*
X151590000Y-94502500D03*
X151090000Y-94502500D03*
X150590000Y-94502500D03*
X150090000Y-94502500D03*
X149590000Y-94502500D03*
X149090000Y-94502500D03*
X148590000Y-94502500D03*
D46*
X151340000Y-97940000D03*
D39*
X150830000Y-83050000D03*
X149870000Y-83050000D03*
D47*
X132379226Y-81158274D03*
X132379226Y-82708274D03*
D48*
X123217500Y-77447500D03*
X121960000Y-77447500D03*
X120640000Y-77447500D03*
X119382500Y-77447500D03*
D49*
X100660000Y-103920000D03*
D17*
X102660000Y-103920000D03*
X104660000Y-103920000D03*
D39*
X166120000Y-101290000D03*
X165160000Y-101290000D03*
D37*
X153040000Y-119540000D03*
D38*
X153040000Y-117000000D03*
X153040000Y-114460000D03*
D31*
X163350000Y-71000000D03*
X163833274Y-69833274D03*
X163833274Y-72166726D03*
X165000000Y-69350000D03*
D32*
X165000000Y-71000000D03*
D31*
X165000000Y-72650000D03*
X166166726Y-69833274D03*
X166166726Y-72166726D03*
X166650000Y-71000000D03*
D50*
X132500000Y-73000000D03*
D35*
X127500000Y-73000000D03*
D51*
X132200000Y-93760000D03*
X132200000Y-96300000D03*
X132200000Y-98840000D03*
D47*
X135579226Y-81158274D03*
X135579226Y-82708274D03*
D37*
X155540000Y-125460000D03*
D38*
X155540000Y-128000000D03*
D29*
X148750000Y-71300000D03*
D21*
X146250000Y-71300000D03*
X143750000Y-71300000D03*
X141250000Y-71300000D03*
D39*
X166230000Y-91930000D03*
X165270000Y-91930000D03*
D47*
X144610000Y-97005000D03*
X144610000Y-98555000D03*
D42*
X137800000Y-85475000D03*
X137800000Y-83925000D03*
D37*
X150460000Y-125460000D03*
D38*
X150460000Y-128000000D03*
D52*
X142490000Y-98050000D03*
X142490000Y-94250000D03*
X140190000Y-94250000D03*
X140190000Y-98050000D03*
D53*
X118140000Y-106140000D03*
X117640000Y-106140000D03*
X117140000Y-106140000D03*
X116640000Y-106140000D03*
X116640000Y-107620000D03*
X117140000Y-107620000D03*
X117640000Y-107620000D03*
X118140000Y-107620000D03*
D54*
X116470000Y-110980000D03*
X117430000Y-110980000D03*
D37*
X150500000Y-119540000D03*
D38*
X150500000Y-117000000D03*
X150500000Y-114460000D03*
D47*
X133979226Y-81158274D03*
X133979226Y-82708274D03*
D19*
X127390000Y-106950000D03*
X128410000Y-106950000D03*
D33*
X121780000Y-110750000D03*
D55*
X139475000Y-81000000D03*
X137925000Y-81000000D03*
D28*
X166100000Y-102800000D03*
X167800000Y-102800000D03*
X166100000Y-108400000D03*
X167800000Y-108400000D03*
D56*
X104000000Y-76000000D03*
D35*
X104000000Y-71000000D03*
D57*
X117555000Y-103310000D03*
X114605000Y-103310000D03*
D58*
X122510000Y-86780000D03*
X122510000Y-96680000D03*
D59*
X158190000Y-78730000D03*
X158190000Y-81270000D03*
X165810000Y-78730000D03*
X165810000Y-81270000D03*
D33*
X121770000Y-107890000D03*
D20*
X111130000Y-127810000D03*
D21*
X113630000Y-127810000D03*
X116130000Y-127810000D03*
D42*
X144600000Y-95445000D03*
X144600000Y-93895000D03*
D12*
X155490000Y-103460000D03*
X154470000Y-103460000D03*
D49*
X100720000Y-110320000D03*
D17*
X102720000Y-110320000D03*
X104720000Y-110320000D03*
D37*
X158080000Y-125460000D03*
D38*
X158080000Y-128000000D03*
D18*
X111835000Y-92100000D03*
X114785000Y-92100000D03*
M02*
