G04 #@! TF.GenerationSoftware,KiCad,Pcbnew,9.0.6-9.0.6~ubuntu24.04.1*
G04 #@! TF.CreationDate,2025-12-18T12:56:06+01:00*
G04 #@! TF.ProjectId,PCB_RAIL,5043425f-5241-4494-9c2e-6b696361645f,rev?*
G04 #@! TF.SameCoordinates,Original*
G04 #@! TF.FileFunction,Paste,Bot*
G04 #@! TF.FilePolarity,Positive*
%FSLAX46Y46*%
G04 Gerber Fmt 4.6, Leading zero omitted, Abs format (unit mm)*
G04 Created by KiCad (PCBNEW 9.0.6-9.0.6~ubuntu24.04.1) date 2025-12-18 12:56:06*
%MOMM*%
%LPD*%
G01*
G04 APERTURE LIST*
G04 Aperture macros list*
%AMRoundRect*
0 Rectangle with rounded corners*
0 $1 Rounding radius*
0 $2 $3 $4 $5 $6 $7 $8 $9 X,Y pos of 4 corners*
0 Add a 4 corners polygon primitive as box body*
4,1,4,$2,$3,$4,$5,$6,$7,$8,$9,$2,$3,0*
0 Add four circle primitives for the rounded corners*
1,1,$1+$1,$2,$3*
1,1,$1+$1,$4,$5*
1,1,$1+$1,$6,$7*
1,1,$1+$1,$8,$9*
0 Add four rect primitives between the rounded corners*
20,1,$1+$1,$2,$3,$4,$5,0*
20,1,$1+$1,$4,$5,$6,$7,0*
20,1,$1+$1,$6,$7,$8,$9,0*
20,1,$1+$1,$8,$9,$2,$3,0*%
G04 Aperture macros list end*
%ADD10C,0.010000*%
%ADD11RoundRect,0.094500X-0.094500X-0.129500X0.094500X-0.129500X0.094500X0.129500X-0.094500X0.129500X0*%
%ADD12RoundRect,0.098000X0.098000X0.119000X-0.098000X0.119000X-0.098000X-0.119000X0.098000X-0.119000X0*%
%ADD13RoundRect,0.140000X-0.192500X0.140000X-0.192500X-0.140000X0.192500X-0.140000X0.192500X0.140000X0*%
%ADD14RoundRect,0.094500X-0.129500X0.094500X-0.129500X-0.094500X0.129500X-0.094500X0.129500X0.094500X0*%
%ADD15RoundRect,0.153125X0.153125X0.179375X-0.153125X0.179375X-0.153125X-0.179375X0.153125X-0.179375X0*%
%ADD16RoundRect,0.098000X-0.119000X0.098000X-0.119000X-0.098000X0.119000X-0.098000X0.119000X0.098000X0*%
%ADD17RoundRect,0.175000X0.770000X-0.227500X0.770000X0.227500X-0.770000X0.227500X-0.770000X-0.227500X0*%
%ADD18RoundRect,0.098000X0.119000X-0.098000X0.119000X0.098000X-0.119000X0.098000X-0.119000X-0.098000X0*%
%ADD19RoundRect,0.157500X-0.175000X0.157500X-0.175000X-0.157500X0.175000X-0.157500X0.175000X0.157500X0*%
%ADD20RoundRect,0.035000X-0.175000X0.052500X-0.175000X-0.052500X0.175000X-0.052500X0.175000X0.052500X0*%
%ADD21RoundRect,0.035000X-0.052500X0.175000X-0.052500X-0.175000X0.052500X-0.175000X0.052500X0.175000X0*%
%ADD22RoundRect,0.140000X-0.140000X-0.192500X0.140000X-0.192500X0.140000X0.192500X-0.140000X0.192500X0*%
%ADD23RoundRect,0.140000X0.140000X0.192500X-0.140000X0.192500X-0.140000X-0.192500X0.140000X-0.192500X0*%
%ADD24RoundRect,0.098000X-0.098000X-0.119000X0.098000X-0.119000X0.098000X0.119000X-0.098000X0.119000X0*%
%ADD25RoundRect,0.157500X-0.262500X0.157500X-0.262500X-0.157500X0.262500X-0.157500X0.262500X0.157500X0*%
%ADD26RoundRect,0.157500X-0.157500X-0.175000X0.157500X-0.175000X0.157500X0.175000X-0.157500X0.175000X0*%
%ADD27RoundRect,0.157500X0.157500X0.175000X-0.157500X0.175000X-0.157500X-0.175000X0.157500X-0.175000X0*%
G04 APERTURE END LIST*
D10*
X118213000Y-73581000D02*
X118215000Y-73581000D01*
X118218000Y-73582000D01*
X118220000Y-73582000D01*
X118223000Y-73583000D01*
X118225000Y-73584000D01*
X118228000Y-73585000D01*
X118230000Y-73587000D01*
X118232000Y-73588000D01*
X118234000Y-73590000D01*
X118236000Y-73591000D01*
X118238000Y-73593000D01*
X118240000Y-73595000D01*
X118242000Y-73597000D01*
X118244000Y-73599000D01*
X118245000Y-73601000D01*
X118247000Y-73603000D01*
X118248000Y-73605000D01*
X118250000Y-73607000D01*
X118251000Y-73610000D01*
X118252000Y-73612000D01*
X118253000Y-73615000D01*
X118253000Y-73617000D01*
X118254000Y-73620000D01*
X118254000Y-73622000D01*
X118255000Y-73625000D01*
X118255000Y-73627000D01*
X118255000Y-73630000D01*
X118255000Y-74280000D01*
X118255000Y-74283000D01*
X118255000Y-74285000D01*
X118254000Y-74288000D01*
X118254000Y-74290000D01*
X118253000Y-74293000D01*
X118253000Y-74295000D01*
X118252000Y-74298000D01*
X118251000Y-74300000D01*
X118250000Y-74303000D01*
X118248000Y-74305000D01*
X118247000Y-74307000D01*
X118245000Y-74309000D01*
X118244000Y-74311000D01*
X118242000Y-74313000D01*
X118240000Y-74315000D01*
X118238000Y-74317000D01*
X118236000Y-74319000D01*
X118234000Y-74320000D01*
X118232000Y-74322000D01*
X118230000Y-74323000D01*
X118228000Y-74325000D01*
X118225000Y-74326000D01*
X118223000Y-74327000D01*
X118220000Y-74328000D01*
X118218000Y-74328000D01*
X118215000Y-74329000D01*
X118213000Y-74329000D01*
X118210000Y-74330000D01*
X118208000Y-74330000D01*
X118205000Y-74330000D01*
X117095000Y-74330000D01*
X117092000Y-74330000D01*
X117090000Y-74330000D01*
X117087000Y-74329000D01*
X117085000Y-74329000D01*
X117082000Y-74328000D01*
X117080000Y-74328000D01*
X117077000Y-74327000D01*
X117075000Y-74326000D01*
X117072000Y-74325000D01*
X117070000Y-74323000D01*
X117068000Y-74322000D01*
X117066000Y-74320000D01*
X117064000Y-74319000D01*
X117062000Y-74317000D01*
X117060000Y-74315000D01*
X117058000Y-74313000D01*
X117056000Y-74311000D01*
X117055000Y-74309000D01*
X117053000Y-74307000D01*
X117052000Y-74305000D01*
X117050000Y-74303000D01*
X117049000Y-74300000D01*
X117048000Y-74298000D01*
X117047000Y-74295000D01*
X117047000Y-74293000D01*
X117046000Y-74290000D01*
X117046000Y-74288000D01*
X117045000Y-74285000D01*
X117045000Y-74283000D01*
X117045000Y-74280000D01*
X117045000Y-73630000D01*
X117045000Y-73627000D01*
X117045000Y-73625000D01*
X117046000Y-73622000D01*
X117046000Y-73620000D01*
X117047000Y-73617000D01*
X117047000Y-73615000D01*
X117048000Y-73612000D01*
X117049000Y-73610000D01*
X117050000Y-73607000D01*
X117052000Y-73605000D01*
X117053000Y-73603000D01*
X117055000Y-73601000D01*
X117056000Y-73599000D01*
X117058000Y-73597000D01*
X117060000Y-73595000D01*
X117062000Y-73593000D01*
X117064000Y-73591000D01*
X117066000Y-73590000D01*
X117068000Y-73588000D01*
X117070000Y-73587000D01*
X117072000Y-73585000D01*
X117075000Y-73584000D01*
X117077000Y-73583000D01*
X117080000Y-73582000D01*
X117082000Y-73582000D01*
X117085000Y-73581000D01*
X117087000Y-73581000D01*
X117090000Y-73580000D01*
X117092000Y-73580000D01*
X117095000Y-73580000D01*
X118205000Y-73580000D01*
X118208000Y-73580000D01*
X118210000Y-73580000D01*
X118213000Y-73581000D01*
G36*
X118213000Y-73581000D02*
G01*
X118215000Y-73581000D01*
X118218000Y-73582000D01*
X118220000Y-73582000D01*
X118223000Y-73583000D01*
X118225000Y-73584000D01*
X118228000Y-73585000D01*
X118230000Y-73587000D01*
X118232000Y-73588000D01*
X118234000Y-73590000D01*
X118236000Y-73591000D01*
X118238000Y-73593000D01*
X118240000Y-73595000D01*
X118242000Y-73597000D01*
X118244000Y-73599000D01*
X118245000Y-73601000D01*
X118247000Y-73603000D01*
X118248000Y-73605000D01*
X118250000Y-73607000D01*
X118251000Y-73610000D01*
X118252000Y-73612000D01*
X118253000Y-73615000D01*
X118253000Y-73617000D01*
X118254000Y-73620000D01*
X118254000Y-73622000D01*
X118255000Y-73625000D01*
X118255000Y-73627000D01*
X118255000Y-73630000D01*
X118255000Y-74280000D01*
X118255000Y-74283000D01*
X118255000Y-74285000D01*
X118254000Y-74288000D01*
X118254000Y-74290000D01*
X118253000Y-74293000D01*
X118253000Y-74295000D01*
X118252000Y-74298000D01*
X118251000Y-74300000D01*
X118250000Y-74303000D01*
X118248000Y-74305000D01*
X118247000Y-74307000D01*
X118245000Y-74309000D01*
X118244000Y-74311000D01*
X118242000Y-74313000D01*
X118240000Y-74315000D01*
X118238000Y-74317000D01*
X118236000Y-74319000D01*
X118234000Y-74320000D01*
X118232000Y-74322000D01*
X118230000Y-74323000D01*
X118228000Y-74325000D01*
X118225000Y-74326000D01*
X118223000Y-74327000D01*
X118220000Y-74328000D01*
X118218000Y-74328000D01*
X118215000Y-74329000D01*
X118213000Y-74329000D01*
X118210000Y-74330000D01*
X118208000Y-74330000D01*
X118205000Y-74330000D01*
X117095000Y-74330000D01*
X117092000Y-74330000D01*
X117090000Y-74330000D01*
X117087000Y-74329000D01*
X117085000Y-74329000D01*
X117082000Y-74328000D01*
X117080000Y-74328000D01*
X117077000Y-74327000D01*
X117075000Y-74326000D01*
X117072000Y-74325000D01*
X117070000Y-74323000D01*
X117068000Y-74322000D01*
X117066000Y-74320000D01*
X117064000Y-74319000D01*
X117062000Y-74317000D01*
X117060000Y-74315000D01*
X117058000Y-74313000D01*
X117056000Y-74311000D01*
X117055000Y-74309000D01*
X117053000Y-74307000D01*
X117052000Y-74305000D01*
X117050000Y-74303000D01*
X117049000Y-74300000D01*
X117048000Y-74298000D01*
X117047000Y-74295000D01*
X117047000Y-74293000D01*
X117046000Y-74290000D01*
X117046000Y-74288000D01*
X117045000Y-74285000D01*
X117045000Y-74283000D01*
X117045000Y-74280000D01*
X117045000Y-73630000D01*
X117045000Y-73627000D01*
X117045000Y-73625000D01*
X117046000Y-73622000D01*
X117046000Y-73620000D01*
X117047000Y-73617000D01*
X117047000Y-73615000D01*
X117048000Y-73612000D01*
X117049000Y-73610000D01*
X117050000Y-73607000D01*
X117052000Y-73605000D01*
X117053000Y-73603000D01*
X117055000Y-73601000D01*
X117056000Y-73599000D01*
X117058000Y-73597000D01*
X117060000Y-73595000D01*
X117062000Y-73593000D01*
X117064000Y-73591000D01*
X117066000Y-73590000D01*
X117068000Y-73588000D01*
X117070000Y-73587000D01*
X117072000Y-73585000D01*
X117075000Y-73584000D01*
X117077000Y-73583000D01*
X117080000Y-73582000D01*
X117082000Y-73582000D01*
X117085000Y-73581000D01*
X117087000Y-73581000D01*
X117090000Y-73580000D01*
X117092000Y-73580000D01*
X117095000Y-73580000D01*
X118205000Y-73580000D01*
X118208000Y-73580000D01*
X118210000Y-73580000D01*
X118213000Y-73581000D01*
G37*
X118213000Y-74531000D02*
X118215000Y-74531000D01*
X118218000Y-74532000D01*
X118220000Y-74532000D01*
X118223000Y-74533000D01*
X118225000Y-74534000D01*
X118228000Y-74535000D01*
X118230000Y-74537000D01*
X118232000Y-74538000D01*
X118234000Y-74540000D01*
X118236000Y-74541000D01*
X118238000Y-74543000D01*
X118240000Y-74545000D01*
X118242000Y-74547000D01*
X118244000Y-74549000D01*
X118245000Y-74551000D01*
X118247000Y-74553000D01*
X118248000Y-74555000D01*
X118250000Y-74557000D01*
X118251000Y-74560000D01*
X118252000Y-74562000D01*
X118253000Y-74565000D01*
X118253000Y-74567000D01*
X118254000Y-74570000D01*
X118254000Y-74572000D01*
X118255000Y-74575000D01*
X118255000Y-74577000D01*
X118255000Y-74580000D01*
X118255000Y-75230000D01*
X118255000Y-75233000D01*
X118255000Y-75235000D01*
X118254000Y-75238000D01*
X118254000Y-75240000D01*
X118253000Y-75243000D01*
X118253000Y-75245000D01*
X118252000Y-75248000D01*
X118251000Y-75250000D01*
X118250000Y-75253000D01*
X118248000Y-75255000D01*
X118247000Y-75257000D01*
X118245000Y-75259000D01*
X118244000Y-75261000D01*
X118242000Y-75263000D01*
X118240000Y-75265000D01*
X118238000Y-75267000D01*
X118236000Y-75269000D01*
X118234000Y-75270000D01*
X118232000Y-75272000D01*
X118230000Y-75273000D01*
X118228000Y-75275000D01*
X118225000Y-75276000D01*
X118223000Y-75277000D01*
X118220000Y-75278000D01*
X118218000Y-75278000D01*
X118215000Y-75279000D01*
X118213000Y-75279000D01*
X118210000Y-75280000D01*
X118208000Y-75280000D01*
X118205000Y-75280000D01*
X117095000Y-75280000D01*
X117092000Y-75280000D01*
X117090000Y-75280000D01*
X117087000Y-75279000D01*
X117085000Y-75279000D01*
X117082000Y-75278000D01*
X117080000Y-75278000D01*
X117077000Y-75277000D01*
X117075000Y-75276000D01*
X117072000Y-75275000D01*
X117070000Y-75273000D01*
X117068000Y-75272000D01*
X117066000Y-75270000D01*
X117064000Y-75269000D01*
X117062000Y-75267000D01*
X117060000Y-75265000D01*
X117058000Y-75263000D01*
X117056000Y-75261000D01*
X117055000Y-75259000D01*
X117053000Y-75257000D01*
X117052000Y-75255000D01*
X117050000Y-75253000D01*
X117049000Y-75250000D01*
X117048000Y-75248000D01*
X117047000Y-75245000D01*
X117047000Y-75243000D01*
X117046000Y-75240000D01*
X117046000Y-75238000D01*
X117045000Y-75235000D01*
X117045000Y-75233000D01*
X117045000Y-75230000D01*
X117045000Y-74580000D01*
X117045000Y-74577000D01*
X117045000Y-74575000D01*
X117046000Y-74572000D01*
X117046000Y-74570000D01*
X117047000Y-74567000D01*
X117047000Y-74565000D01*
X117048000Y-74562000D01*
X117049000Y-74560000D01*
X117050000Y-74557000D01*
X117052000Y-74555000D01*
X117053000Y-74553000D01*
X117055000Y-74551000D01*
X117056000Y-74549000D01*
X117058000Y-74547000D01*
X117060000Y-74545000D01*
X117062000Y-74543000D01*
X117064000Y-74541000D01*
X117066000Y-74540000D01*
X117068000Y-74538000D01*
X117070000Y-74537000D01*
X117072000Y-74535000D01*
X117075000Y-74534000D01*
X117077000Y-74533000D01*
X117080000Y-74532000D01*
X117082000Y-74532000D01*
X117085000Y-74531000D01*
X117087000Y-74531000D01*
X117090000Y-74530000D01*
X117092000Y-74530000D01*
X117095000Y-74530000D01*
X118205000Y-74530000D01*
X118208000Y-74530000D01*
X118210000Y-74530000D01*
X118213000Y-74531000D01*
G36*
X118213000Y-74531000D02*
G01*
X118215000Y-74531000D01*
X118218000Y-74532000D01*
X118220000Y-74532000D01*
X118223000Y-74533000D01*
X118225000Y-74534000D01*
X118228000Y-74535000D01*
X118230000Y-74537000D01*
X118232000Y-74538000D01*
X118234000Y-74540000D01*
X118236000Y-74541000D01*
X118238000Y-74543000D01*
X118240000Y-74545000D01*
X118242000Y-74547000D01*
X118244000Y-74549000D01*
X118245000Y-74551000D01*
X118247000Y-74553000D01*
X118248000Y-74555000D01*
X118250000Y-74557000D01*
X118251000Y-74560000D01*
X118252000Y-74562000D01*
X118253000Y-74565000D01*
X118253000Y-74567000D01*
X118254000Y-74570000D01*
X118254000Y-74572000D01*
X118255000Y-74575000D01*
X118255000Y-74577000D01*
X118255000Y-74580000D01*
X118255000Y-75230000D01*
X118255000Y-75233000D01*
X118255000Y-75235000D01*
X118254000Y-75238000D01*
X118254000Y-75240000D01*
X118253000Y-75243000D01*
X118253000Y-75245000D01*
X118252000Y-75248000D01*
X118251000Y-75250000D01*
X118250000Y-75253000D01*
X118248000Y-75255000D01*
X118247000Y-75257000D01*
X118245000Y-75259000D01*
X118244000Y-75261000D01*
X118242000Y-75263000D01*
X118240000Y-75265000D01*
X118238000Y-75267000D01*
X118236000Y-75269000D01*
X118234000Y-75270000D01*
X118232000Y-75272000D01*
X118230000Y-75273000D01*
X118228000Y-75275000D01*
X118225000Y-75276000D01*
X118223000Y-75277000D01*
X118220000Y-75278000D01*
X118218000Y-75278000D01*
X118215000Y-75279000D01*
X118213000Y-75279000D01*
X118210000Y-75280000D01*
X118208000Y-75280000D01*
X118205000Y-75280000D01*
X117095000Y-75280000D01*
X117092000Y-75280000D01*
X117090000Y-75280000D01*
X117087000Y-75279000D01*
X117085000Y-75279000D01*
X117082000Y-75278000D01*
X117080000Y-75278000D01*
X117077000Y-75277000D01*
X117075000Y-75276000D01*
X117072000Y-75275000D01*
X117070000Y-75273000D01*
X117068000Y-75272000D01*
X117066000Y-75270000D01*
X117064000Y-75269000D01*
X117062000Y-75267000D01*
X117060000Y-75265000D01*
X117058000Y-75263000D01*
X117056000Y-75261000D01*
X117055000Y-75259000D01*
X117053000Y-75257000D01*
X117052000Y-75255000D01*
X117050000Y-75253000D01*
X117049000Y-75250000D01*
X117048000Y-75248000D01*
X117047000Y-75245000D01*
X117047000Y-75243000D01*
X117046000Y-75240000D01*
X117046000Y-75238000D01*
X117045000Y-75235000D01*
X117045000Y-75233000D01*
X117045000Y-75230000D01*
X117045000Y-74580000D01*
X117045000Y-74577000D01*
X117045000Y-74575000D01*
X117046000Y-74572000D01*
X117046000Y-74570000D01*
X117047000Y-74567000D01*
X117047000Y-74565000D01*
X117048000Y-74562000D01*
X117049000Y-74560000D01*
X117050000Y-74557000D01*
X117052000Y-74555000D01*
X117053000Y-74553000D01*
X117055000Y-74551000D01*
X117056000Y-74549000D01*
X117058000Y-74547000D01*
X117060000Y-74545000D01*
X117062000Y-74543000D01*
X117064000Y-74541000D01*
X117066000Y-74540000D01*
X117068000Y-74538000D01*
X117070000Y-74537000D01*
X117072000Y-74535000D01*
X117075000Y-74534000D01*
X117077000Y-74533000D01*
X117080000Y-74532000D01*
X117082000Y-74532000D01*
X117085000Y-74531000D01*
X117087000Y-74531000D01*
X117090000Y-74530000D01*
X117092000Y-74530000D01*
X117095000Y-74530000D01*
X118205000Y-74530000D01*
X118208000Y-74530000D01*
X118210000Y-74530000D01*
X118213000Y-74531000D01*
G37*
X119633000Y-73581000D02*
X119635000Y-73581000D01*
X119638000Y-73582000D01*
X119640000Y-73582000D01*
X119643000Y-73583000D01*
X119645000Y-73584000D01*
X119648000Y-73585000D01*
X119650000Y-73587000D01*
X119652000Y-73588000D01*
X119654000Y-73590000D01*
X119656000Y-73591000D01*
X119658000Y-73593000D01*
X119660000Y-73595000D01*
X119662000Y-73597000D01*
X119664000Y-73599000D01*
X119665000Y-73601000D01*
X119667000Y-73603000D01*
X119668000Y-73605000D01*
X119670000Y-73607000D01*
X119671000Y-73610000D01*
X119672000Y-73612000D01*
X119673000Y-73615000D01*
X119673000Y-73617000D01*
X119674000Y-73620000D01*
X119674000Y-73622000D01*
X119675000Y-73625000D01*
X119675000Y-73627000D01*
X119675000Y-73630000D01*
X119675000Y-74280000D01*
X119675000Y-74283000D01*
X119675000Y-74285000D01*
X119674000Y-74288000D01*
X119674000Y-74290000D01*
X119673000Y-74293000D01*
X119673000Y-74295000D01*
X119672000Y-74298000D01*
X119671000Y-74300000D01*
X119670000Y-74303000D01*
X119668000Y-74305000D01*
X119667000Y-74307000D01*
X119665000Y-74309000D01*
X119664000Y-74311000D01*
X119662000Y-74313000D01*
X119660000Y-74315000D01*
X119658000Y-74317000D01*
X119656000Y-74319000D01*
X119654000Y-74320000D01*
X119652000Y-74322000D01*
X119650000Y-74323000D01*
X119648000Y-74325000D01*
X119645000Y-74326000D01*
X119643000Y-74327000D01*
X119640000Y-74328000D01*
X119638000Y-74328000D01*
X119635000Y-74329000D01*
X119633000Y-74329000D01*
X119630000Y-74330000D01*
X119628000Y-74330000D01*
X119625000Y-74330000D01*
X118515000Y-74330000D01*
X118512000Y-74330000D01*
X118510000Y-74330000D01*
X118507000Y-74329000D01*
X118505000Y-74329000D01*
X118502000Y-74328000D01*
X118500000Y-74328000D01*
X118497000Y-74327000D01*
X118495000Y-74326000D01*
X118492000Y-74325000D01*
X118490000Y-74323000D01*
X118488000Y-74322000D01*
X118486000Y-74320000D01*
X118484000Y-74319000D01*
X118482000Y-74317000D01*
X118480000Y-74315000D01*
X118478000Y-74313000D01*
X118476000Y-74311000D01*
X118475000Y-74309000D01*
X118473000Y-74307000D01*
X118472000Y-74305000D01*
X118470000Y-74303000D01*
X118469000Y-74300000D01*
X118468000Y-74298000D01*
X118467000Y-74295000D01*
X118467000Y-74293000D01*
X118466000Y-74290000D01*
X118466000Y-74288000D01*
X118465000Y-74285000D01*
X118465000Y-74283000D01*
X118465000Y-74280000D01*
X118465000Y-73630000D01*
X118465000Y-73627000D01*
X118465000Y-73625000D01*
X118466000Y-73622000D01*
X118466000Y-73620000D01*
X118467000Y-73617000D01*
X118467000Y-73615000D01*
X118468000Y-73612000D01*
X118469000Y-73610000D01*
X118470000Y-73607000D01*
X118472000Y-73605000D01*
X118473000Y-73603000D01*
X118475000Y-73601000D01*
X118476000Y-73599000D01*
X118478000Y-73597000D01*
X118480000Y-73595000D01*
X118482000Y-73593000D01*
X118484000Y-73591000D01*
X118486000Y-73590000D01*
X118488000Y-73588000D01*
X118490000Y-73587000D01*
X118492000Y-73585000D01*
X118495000Y-73584000D01*
X118497000Y-73583000D01*
X118500000Y-73582000D01*
X118502000Y-73582000D01*
X118505000Y-73581000D01*
X118507000Y-73581000D01*
X118510000Y-73580000D01*
X118512000Y-73580000D01*
X118515000Y-73580000D01*
X119625000Y-73580000D01*
X119628000Y-73580000D01*
X119630000Y-73580000D01*
X119633000Y-73581000D01*
G36*
X119633000Y-73581000D02*
G01*
X119635000Y-73581000D01*
X119638000Y-73582000D01*
X119640000Y-73582000D01*
X119643000Y-73583000D01*
X119645000Y-73584000D01*
X119648000Y-73585000D01*
X119650000Y-73587000D01*
X119652000Y-73588000D01*
X119654000Y-73590000D01*
X119656000Y-73591000D01*
X119658000Y-73593000D01*
X119660000Y-73595000D01*
X119662000Y-73597000D01*
X119664000Y-73599000D01*
X119665000Y-73601000D01*
X119667000Y-73603000D01*
X119668000Y-73605000D01*
X119670000Y-73607000D01*
X119671000Y-73610000D01*
X119672000Y-73612000D01*
X119673000Y-73615000D01*
X119673000Y-73617000D01*
X119674000Y-73620000D01*
X119674000Y-73622000D01*
X119675000Y-73625000D01*
X119675000Y-73627000D01*
X119675000Y-73630000D01*
X119675000Y-74280000D01*
X119675000Y-74283000D01*
X119675000Y-74285000D01*
X119674000Y-74288000D01*
X119674000Y-74290000D01*
X119673000Y-74293000D01*
X119673000Y-74295000D01*
X119672000Y-74298000D01*
X119671000Y-74300000D01*
X119670000Y-74303000D01*
X119668000Y-74305000D01*
X119667000Y-74307000D01*
X119665000Y-74309000D01*
X119664000Y-74311000D01*
X119662000Y-74313000D01*
X119660000Y-74315000D01*
X119658000Y-74317000D01*
X119656000Y-74319000D01*
X119654000Y-74320000D01*
X119652000Y-74322000D01*
X119650000Y-74323000D01*
X119648000Y-74325000D01*
X119645000Y-74326000D01*
X119643000Y-74327000D01*
X119640000Y-74328000D01*
X119638000Y-74328000D01*
X119635000Y-74329000D01*
X119633000Y-74329000D01*
X119630000Y-74330000D01*
X119628000Y-74330000D01*
X119625000Y-74330000D01*
X118515000Y-74330000D01*
X118512000Y-74330000D01*
X118510000Y-74330000D01*
X118507000Y-74329000D01*
X118505000Y-74329000D01*
X118502000Y-74328000D01*
X118500000Y-74328000D01*
X118497000Y-74327000D01*
X118495000Y-74326000D01*
X118492000Y-74325000D01*
X118490000Y-74323000D01*
X118488000Y-74322000D01*
X118486000Y-74320000D01*
X118484000Y-74319000D01*
X118482000Y-74317000D01*
X118480000Y-74315000D01*
X118478000Y-74313000D01*
X118476000Y-74311000D01*
X118475000Y-74309000D01*
X118473000Y-74307000D01*
X118472000Y-74305000D01*
X118470000Y-74303000D01*
X118469000Y-74300000D01*
X118468000Y-74298000D01*
X118467000Y-74295000D01*
X118467000Y-74293000D01*
X118466000Y-74290000D01*
X118466000Y-74288000D01*
X118465000Y-74285000D01*
X118465000Y-74283000D01*
X118465000Y-74280000D01*
X118465000Y-73630000D01*
X118465000Y-73627000D01*
X118465000Y-73625000D01*
X118466000Y-73622000D01*
X118466000Y-73620000D01*
X118467000Y-73617000D01*
X118467000Y-73615000D01*
X118468000Y-73612000D01*
X118469000Y-73610000D01*
X118470000Y-73607000D01*
X118472000Y-73605000D01*
X118473000Y-73603000D01*
X118475000Y-73601000D01*
X118476000Y-73599000D01*
X118478000Y-73597000D01*
X118480000Y-73595000D01*
X118482000Y-73593000D01*
X118484000Y-73591000D01*
X118486000Y-73590000D01*
X118488000Y-73588000D01*
X118490000Y-73587000D01*
X118492000Y-73585000D01*
X118495000Y-73584000D01*
X118497000Y-73583000D01*
X118500000Y-73582000D01*
X118502000Y-73582000D01*
X118505000Y-73581000D01*
X118507000Y-73581000D01*
X118510000Y-73580000D01*
X118512000Y-73580000D01*
X118515000Y-73580000D01*
X119625000Y-73580000D01*
X119628000Y-73580000D01*
X119630000Y-73580000D01*
X119633000Y-73581000D01*
G37*
X119633000Y-74531000D02*
X119635000Y-74531000D01*
X119638000Y-74532000D01*
X119640000Y-74532000D01*
X119643000Y-74533000D01*
X119645000Y-74534000D01*
X119648000Y-74535000D01*
X119650000Y-74537000D01*
X119652000Y-74538000D01*
X119654000Y-74540000D01*
X119656000Y-74541000D01*
X119658000Y-74543000D01*
X119660000Y-74545000D01*
X119662000Y-74547000D01*
X119664000Y-74549000D01*
X119665000Y-74551000D01*
X119667000Y-74553000D01*
X119668000Y-74555000D01*
X119670000Y-74557000D01*
X119671000Y-74560000D01*
X119672000Y-74562000D01*
X119673000Y-74565000D01*
X119673000Y-74567000D01*
X119674000Y-74570000D01*
X119674000Y-74572000D01*
X119675000Y-74575000D01*
X119675000Y-74577000D01*
X119675000Y-74580000D01*
X119675000Y-75230000D01*
X119675000Y-75233000D01*
X119675000Y-75235000D01*
X119674000Y-75238000D01*
X119674000Y-75240000D01*
X119673000Y-75243000D01*
X119673000Y-75245000D01*
X119672000Y-75248000D01*
X119671000Y-75250000D01*
X119670000Y-75253000D01*
X119668000Y-75255000D01*
X119667000Y-75257000D01*
X119665000Y-75259000D01*
X119664000Y-75261000D01*
X119662000Y-75263000D01*
X119660000Y-75265000D01*
X119658000Y-75267000D01*
X119656000Y-75269000D01*
X119654000Y-75270000D01*
X119652000Y-75272000D01*
X119650000Y-75273000D01*
X119648000Y-75275000D01*
X119645000Y-75276000D01*
X119643000Y-75277000D01*
X119640000Y-75278000D01*
X119638000Y-75278000D01*
X119635000Y-75279000D01*
X119633000Y-75279000D01*
X119630000Y-75280000D01*
X119628000Y-75280000D01*
X119625000Y-75280000D01*
X118515000Y-75280000D01*
X118512000Y-75280000D01*
X118510000Y-75280000D01*
X118507000Y-75279000D01*
X118505000Y-75279000D01*
X118502000Y-75278000D01*
X118500000Y-75278000D01*
X118497000Y-75277000D01*
X118495000Y-75276000D01*
X118492000Y-75275000D01*
X118490000Y-75273000D01*
X118488000Y-75272000D01*
X118486000Y-75270000D01*
X118484000Y-75269000D01*
X118482000Y-75267000D01*
X118480000Y-75265000D01*
X118478000Y-75263000D01*
X118476000Y-75261000D01*
X118475000Y-75259000D01*
X118473000Y-75257000D01*
X118472000Y-75255000D01*
X118470000Y-75253000D01*
X118469000Y-75250000D01*
X118468000Y-75248000D01*
X118467000Y-75245000D01*
X118467000Y-75243000D01*
X118466000Y-75240000D01*
X118466000Y-75238000D01*
X118465000Y-75235000D01*
X118465000Y-75233000D01*
X118465000Y-75230000D01*
X118465000Y-74580000D01*
X118465000Y-74577000D01*
X118465000Y-74575000D01*
X118466000Y-74572000D01*
X118466000Y-74570000D01*
X118467000Y-74567000D01*
X118467000Y-74565000D01*
X118468000Y-74562000D01*
X118469000Y-74560000D01*
X118470000Y-74557000D01*
X118472000Y-74555000D01*
X118473000Y-74553000D01*
X118475000Y-74551000D01*
X118476000Y-74549000D01*
X118478000Y-74547000D01*
X118480000Y-74545000D01*
X118482000Y-74543000D01*
X118484000Y-74541000D01*
X118486000Y-74540000D01*
X118488000Y-74538000D01*
X118490000Y-74537000D01*
X118492000Y-74535000D01*
X118495000Y-74534000D01*
X118497000Y-74533000D01*
X118500000Y-74532000D01*
X118502000Y-74532000D01*
X118505000Y-74531000D01*
X118507000Y-74531000D01*
X118510000Y-74530000D01*
X118512000Y-74530000D01*
X118515000Y-74530000D01*
X119625000Y-74530000D01*
X119628000Y-74530000D01*
X119630000Y-74530000D01*
X119633000Y-74531000D01*
G36*
X119633000Y-74531000D02*
G01*
X119635000Y-74531000D01*
X119638000Y-74532000D01*
X119640000Y-74532000D01*
X119643000Y-74533000D01*
X119645000Y-74534000D01*
X119648000Y-74535000D01*
X119650000Y-74537000D01*
X119652000Y-74538000D01*
X119654000Y-74540000D01*
X119656000Y-74541000D01*
X119658000Y-74543000D01*
X119660000Y-74545000D01*
X119662000Y-74547000D01*
X119664000Y-74549000D01*
X119665000Y-74551000D01*
X119667000Y-74553000D01*
X119668000Y-74555000D01*
X119670000Y-74557000D01*
X119671000Y-74560000D01*
X119672000Y-74562000D01*
X119673000Y-74565000D01*
X119673000Y-74567000D01*
X119674000Y-74570000D01*
X119674000Y-74572000D01*
X119675000Y-74575000D01*
X119675000Y-74577000D01*
X119675000Y-74580000D01*
X119675000Y-75230000D01*
X119675000Y-75233000D01*
X119675000Y-75235000D01*
X119674000Y-75238000D01*
X119674000Y-75240000D01*
X119673000Y-75243000D01*
X119673000Y-75245000D01*
X119672000Y-75248000D01*
X119671000Y-75250000D01*
X119670000Y-75253000D01*
X119668000Y-75255000D01*
X119667000Y-75257000D01*
X119665000Y-75259000D01*
X119664000Y-75261000D01*
X119662000Y-75263000D01*
X119660000Y-75265000D01*
X119658000Y-75267000D01*
X119656000Y-75269000D01*
X119654000Y-75270000D01*
X119652000Y-75272000D01*
X119650000Y-75273000D01*
X119648000Y-75275000D01*
X119645000Y-75276000D01*
X119643000Y-75277000D01*
X119640000Y-75278000D01*
X119638000Y-75278000D01*
X119635000Y-75279000D01*
X119633000Y-75279000D01*
X119630000Y-75280000D01*
X119628000Y-75280000D01*
X119625000Y-75280000D01*
X118515000Y-75280000D01*
X118512000Y-75280000D01*
X118510000Y-75280000D01*
X118507000Y-75279000D01*
X118505000Y-75279000D01*
X118502000Y-75278000D01*
X118500000Y-75278000D01*
X118497000Y-75277000D01*
X118495000Y-75276000D01*
X118492000Y-75275000D01*
X118490000Y-75273000D01*
X118488000Y-75272000D01*
X118486000Y-75270000D01*
X118484000Y-75269000D01*
X118482000Y-75267000D01*
X118480000Y-75265000D01*
X118478000Y-75263000D01*
X118476000Y-75261000D01*
X118475000Y-75259000D01*
X118473000Y-75257000D01*
X118472000Y-75255000D01*
X118470000Y-75253000D01*
X118469000Y-75250000D01*
X118468000Y-75248000D01*
X118467000Y-75245000D01*
X118467000Y-75243000D01*
X118466000Y-75240000D01*
X118466000Y-75238000D01*
X118465000Y-75235000D01*
X118465000Y-75233000D01*
X118465000Y-75230000D01*
X118465000Y-74580000D01*
X118465000Y-74577000D01*
X118465000Y-74575000D01*
X118466000Y-74572000D01*
X118466000Y-74570000D01*
X118467000Y-74567000D01*
X118467000Y-74565000D01*
X118468000Y-74562000D01*
X118469000Y-74560000D01*
X118470000Y-74557000D01*
X118472000Y-74555000D01*
X118473000Y-74553000D01*
X118475000Y-74551000D01*
X118476000Y-74549000D01*
X118478000Y-74547000D01*
X118480000Y-74545000D01*
X118482000Y-74543000D01*
X118484000Y-74541000D01*
X118486000Y-74540000D01*
X118488000Y-74538000D01*
X118490000Y-74537000D01*
X118492000Y-74535000D01*
X118495000Y-74534000D01*
X118497000Y-74533000D01*
X118500000Y-74532000D01*
X118502000Y-74532000D01*
X118505000Y-74531000D01*
X118507000Y-74531000D01*
X118510000Y-74530000D01*
X118512000Y-74530000D01*
X118515000Y-74530000D01*
X119625000Y-74530000D01*
X119628000Y-74530000D01*
X119630000Y-74530000D01*
X119633000Y-74531000D01*
G37*
D11*
X117130000Y-69607024D03*
X118150000Y-69607024D03*
D12*
X154730000Y-95970000D03*
X153770000Y-95970000D03*
D13*
X112530000Y-75722024D03*
X112530000Y-77372024D03*
D11*
X114440000Y-69977024D03*
X115460000Y-69977024D03*
D14*
X149860000Y-94470000D03*
X149860000Y-95490000D03*
X119130000Y-68547024D03*
X119130000Y-69567024D03*
D15*
X123787500Y-72500000D03*
X122212500Y-72500000D03*
D16*
X147652500Y-94460000D03*
X147652500Y-95420000D03*
D17*
X137400000Y-122975000D03*
X137400000Y-120025000D03*
D18*
X152652500Y-101420000D03*
X152652500Y-100460000D03*
D12*
X154730000Y-97070000D03*
X153770000Y-97070000D03*
D19*
X114230000Y-77472024D03*
X114230000Y-79022024D03*
D18*
X151510000Y-101420000D03*
X151510000Y-100460000D03*
D14*
X121230000Y-77390000D03*
X121230000Y-78410000D03*
D20*
X116210000Y-73680000D03*
D21*
X116610000Y-72780000D03*
X117110000Y-72780000D03*
X117610000Y-72780000D03*
X118110000Y-72780000D03*
X118610000Y-72780000D03*
X119110000Y-72780000D03*
X119610000Y-72780000D03*
X120110000Y-72780000D03*
D20*
X120510000Y-73680000D03*
X120510000Y-75180000D03*
D21*
X120110000Y-76080000D03*
X119610000Y-76080000D03*
X119110000Y-76080000D03*
X118610000Y-76080000D03*
X118110000Y-76080000D03*
X117610000Y-76080000D03*
X117110000Y-76080000D03*
X116610000Y-76080000D03*
D20*
X116210000Y-75180000D03*
D22*
X121405000Y-69047024D03*
X123055000Y-69047024D03*
D23*
X123825000Y-74200000D03*
X122175000Y-74200000D03*
D14*
X114530000Y-73737024D03*
X114530000Y-74757024D03*
D24*
X100700000Y-107600000D03*
X101660000Y-107600000D03*
D25*
X145700000Y-125050000D03*
X145700000Y-128350000D03*
D17*
X145700000Y-123175000D03*
X145700000Y-120225000D03*
D11*
X121410000Y-70547024D03*
X122430000Y-70547024D03*
D12*
X115440000Y-68877024D03*
X114480000Y-68877024D03*
D18*
X149240000Y-101420000D03*
X149240000Y-100460000D03*
D25*
X137500000Y-124950000D03*
X137500000Y-128250000D03*
D11*
X153730000Y-94830000D03*
X154750000Y-94830000D03*
D12*
X118140000Y-70697024D03*
X117180000Y-70697024D03*
D18*
X150340000Y-101420000D03*
X150340000Y-100460000D03*
D24*
X119210000Y-70727024D03*
X120170000Y-70727024D03*
X100700000Y-106370000D03*
X101660000Y-106370000D03*
D16*
X148752500Y-94460000D03*
X148752500Y-95420000D03*
D12*
X118070000Y-68397024D03*
X117110000Y-68397024D03*
D26*
X122265000Y-75890000D03*
X123815000Y-75890000D03*
D22*
X112805000Y-72247024D03*
X114455000Y-72247024D03*
D27*
X117775000Y-78047024D03*
X116225000Y-78047024D03*
D18*
X153752500Y-101420000D03*
X153752500Y-100460000D03*
M02*
