M48
; DRILL file {KiCad 9.0.6-9.0.6~ubuntu24.04.1} date 2025-12-18T12:56:02+0100
; FORMAT={-:-/ absolute / metric / decimal}
; #@! TF.CreationDate,2025-12-18T12:56:02+01:00
; #@! TF.GenerationSoftware,Kicad,Pcbnew,9.0.6-9.0.6~ubuntu24.04.1
; #@! TF.FileFunction,Plated,1,4,PTH
FMAT,2
METRIC
; #@! TA.AperFunction,Plated,PTH,ViaDrill
T1C0.300
; #@! TA.AperFunction,Plated,PTH,ComponentDrill
T2C0.300
; #@! TA.AperFunction,Plated,PTH,ComponentDrill
T3C0.400
; #@! TA.AperFunction,Plated,PTH,ComponentDrill
T4C0.750
; #@! TA.AperFunction,Plated,PTH,ComponentDrill
T5C0.800
; #@! TA.AperFunction,Plated,PTH,ComponentDrill
T6C0.850
; #@! TA.AperFunction,Plated,PTH,ComponentDrill
T7C0.950
; #@! TA.AperFunction,Plated,PTH,ComponentDrill
T8C1.000
; #@! TA.AperFunction,Plated,PTH,ComponentDrill
T9C2.200
; #@! TA.AperFunction,Plated,PTH,ComponentDrill
T10C2.700
%
G90
G05
T1
X100.04Y-92.26
X100.04Y-95.67
X100.04Y-99.08
X100.04Y-122.95
X100.06Y-115.23
X103.64Y-92.26
X103.64Y-122.95
X103.66Y-115.23
X106.88Y-76.2
X106.88Y-78.2
X106.88Y-80.2
X107.22Y-86.35
X107.24Y-88.85
X107.24Y-92.26
X107.24Y-95.67
X107.24Y-102.49
X107.24Y-119.54
X107.24Y-122.95
X107.24Y-126.36
X107.24Y-129.77
X107.26Y-115.23
X108.88Y-76.2
X108.88Y-78.2
X108.88Y-80.2
X109.81Y-111.65
X109.81Y-112.65
X109.81Y-115.5
X110.82Y-86.35
X110.84Y-88.85
X110.84Y-99.08
X110.84Y-102.49
X110.84Y-105.9
X110.84Y-122.95
X110.84Y-129.77
X110.85Y-118.85
X110.88Y-76.2
X110.88Y-78.2
X110.88Y-80.2
X111.31Y-111.65
X111.31Y-112.65
X111.31Y-115.5
X111.85Y-69.5
X111.85Y-71.2
X112.81Y-111.65
X112.81Y-112.65
X112.81Y-115.5
X114.31Y-111.65
X114.31Y-112.65
X114.31Y-115.5
X114.44Y-99.08
X114.44Y-104.87
X114.44Y-105.9
X114.44Y-118.84
X114.44Y-122.95
X114.44Y-129.77
X115.0Y-71.2
X115.12Y-105.4
X115.15Y-106.56
X115.35Y-75.35
X115.45Y-74.45
X115.65Y-72.55
X115.74Y-104.85
X115.75Y-105.89
X116.14Y-67.75
X117.1Y-77.34
X117.11Y-90.52
X117.11Y-92.52
X117.11Y-94.52
X117.4Y-74.0
X117.4Y-75.0
X118.04Y-122.95
X118.04Y-126.36
X118.4Y-74.0
X118.4Y-75.0
X118.46Y-78.83
X118.95Y-71.7
X119.11Y-90.52
X119.11Y-92.52
X119.11Y-94.52
X119.14Y-76.665
X119.28Y-105.74
X119.28Y-106.73
X119.28Y-107.73
X119.28Y-108.73
X119.4Y-74.0
X119.4Y-75.0
X119.937Y-76.855
X120.28Y-105.74
X120.28Y-106.73
X120.28Y-107.73
X120.28Y-108.73
X120.43Y-67.76
X120.85Y-76.45
X121.11Y-90.52
X121.11Y-92.52
X121.11Y-94.52
X121.2Y-71.4
X121.25Y-74.6
X121.64Y-99.08
X121.64Y-102.49
X121.64Y-112.72
X121.64Y-122.95
X121.77Y-107.89
X121.78Y-110.75
X123.15Y-71.4
X123.9Y-70.55
X124.05Y-79.5
X125.24Y-68.39
X125.24Y-99.08
X125.24Y-102.49
X125.24Y-105.9
X125.24Y-112.72
X125.24Y-119.01
X125.24Y-122.95
X125.24Y-126.36
X125.26Y-129.31
X127.92Y-118.88
X128.83Y-108.27
X128.84Y-68.39
X128.84Y-71.8
X128.84Y-75.21
X128.84Y-78.62
X128.84Y-82.03
X128.84Y-85.44
X128.84Y-99.08
X128.84Y-105.9
X128.84Y-112.72
X128.84Y-122.95
X128.84Y-126.36
X128.85Y-95.82
X128.85Y-102.5
X129.13Y-103.98
X132.41Y-129.0
X132.44Y-68.39
X132.44Y-71.8
X132.44Y-85.44
X132.44Y-102.49
X132.44Y-105.9
X132.44Y-108.25
X132.44Y-112.72
X132.44Y-119.54
X132.44Y-126.36
X135.89Y-78.53
X136.04Y-68.39
X136.04Y-71.8
X136.04Y-75.21
X136.04Y-85.44
X136.04Y-88.85
X136.04Y-92.26
X136.04Y-95.67
X136.04Y-99.08
X136.04Y-102.49
X136.04Y-105.9
X136.04Y-112.72
X136.04Y-119.54
X136.04Y-126.36
X136.55Y-121.71
X136.669Y-129.166
X136.834Y-78.584
X137.1Y-79.8
X137.489Y-129.166
X138.08Y-109.26
X138.319Y-129.176
X138.34Y-121.71
X138.61Y-83.03
X139.27Y-80.016
X139.64Y-68.39
X139.64Y-71.8
X139.64Y-75.21
X139.64Y-88.85
X139.64Y-92.26
X139.64Y-102.49
X139.64Y-119.54
X139.64Y-122.95
X139.64Y-126.36
X139.65Y-96.3
X140.19Y-87.06
X140.4Y-84.4
X140.6Y-79.2
X140.6Y-83.1
X140.66Y-80.46
X140.84Y-129.24
X141.0Y-85.7
X142.81Y-129.22
X143.11Y-96.31
X143.24Y-68.39
X143.24Y-88.85
X143.24Y-92.26
X143.24Y-105.9
X143.24Y-109.31
X143.24Y-112.72
X143.24Y-119.54
X143.27Y-99.62
X144.05Y-103.73
X144.12Y-126.36
X144.14Y-76.14
X144.72Y-121.8
X144.74Y-74.94
X144.86Y-129.3
X145.28Y-103.71
X145.34Y-76.14
X145.4Y-73.3
X145.68Y-129.3
X145.82Y-98.06
X145.88Y-107.52
X145.89Y-117.55
X145.94Y-74.94
X145.98Y-91.4
X146.51Y-129.31
X146.56Y-73.31
X146.56Y-90.76
X146.6Y-121.83
X146.77Y-98.17
X146.84Y-68.39
X146.84Y-88.85
X146.84Y-102.49
X146.84Y-105.9
X146.84Y-109.31
X146.84Y-112.72
X146.84Y-126.36
X147.05Y-94.69
X147.51Y-93.29
X147.57Y-90.13
X147.97Y-102.47
X148.39Y-93.78
X148.83Y-105.76
X148.86Y-129.28
X148.95Y-83.73
X148.99Y-82.39
X149.1Y-85.67
X149.1Y-90.05
X149.12Y-93.26
X149.3Y-104.58
X149.3Y-123.76
X149.34Y-96.48
X149.34Y-97.94
X149.35Y-99.39
X149.37Y-83.07
X149.65Y-84.35
X149.7Y-79.4
X149.85Y-81.69
X149.99Y-89.49
X150.44Y-68.39
X150.44Y-71.8
X150.5Y-78.7
X150.6Y-75.2
X150.61Y-92.45
X150.81Y-84.35
X151.09Y-91.89
X151.1Y-103.49
X151.11Y-85.66
X151.34Y-96.48
X151.34Y-97.94
X151.35Y-99.39
X151.76Y-129.3
X151.9Y-104.01
X151.93Y-102.23
X152.07Y-93.26
X152.15Y-82.36
X152.6Y-83.2
X152.6Y-102.21
X152.61Y-92.19
X153.1Y-92.69
X153.11Y-103.05
X153.32Y-108.89
X153.34Y-97.94
X153.35Y-99.39
X153.62Y-93.88
X153.752Y-102.237
X154.04Y-68.39
X154.04Y-71.8
X154.04Y-75.21
X154.04Y-78.62
X154.04Y-82.03
X154.04Y-85.44
X154.04Y-88.85
X154.24Y-129.28
X154.47Y-111.71
X155.47Y-99.7
X155.48Y-97.69
X155.48Y-105.72
X155.62Y-98.68
X155.85Y-95.69
X155.93Y-101.62
X155.94Y-100.25
X155.99Y-94.01
X156.84Y-90.01
X156.86Y-82.85
X157.64Y-68.39
X157.64Y-71.8
X157.64Y-75.21
X157.64Y-85.44
X157.89Y-100.29
X158.17Y-94.01
X158.2Y-99.44
X158.22Y-88.72
X158.46Y-129.78
X158.52Y-98.66
X158.54Y-117.89
X158.81Y-97.64
X158.92Y-123.46
X158.95Y-120.03
X158.95Y-121.77
X159.02Y-118.47
X159.51Y-89.99
X160.378Y-102.307
X160.43Y-107.04
X160.43Y-111.23
X160.45Y-104.2
X160.65Y-88.74
X161.24Y-68.39
X161.24Y-71.8
X161.24Y-75.21
X161.24Y-78.62
X161.24Y-82.03
X161.24Y-85.44
X161.24Y-95.67
X161.24Y-99.08
X161.24Y-126.36
X161.24Y-129.77
X161.41Y-103.09
X161.52Y-90.54
X162.6Y-109.26
X162.63Y-105.36
X162.73Y-99.69
X162.74Y-100.78
X162.75Y-102.1
X162.98Y-114.13
X162.98Y-119.17
X162.99Y-98.13
X162.99Y-116.55
X163.11Y-88.89
X163.72Y-90.6
X164.59Y-111.16
X164.83Y-93.82
X164.84Y-75.21
X164.84Y-82.03
X164.84Y-85.44
X164.84Y-99.08
X164.84Y-122.95
X164.84Y-129.77
X164.86Y-106.05
X165.55Y-88.9
X166.79Y-119.07
X168.2Y-71.8
X168.2Y-75.21
X168.2Y-78.62
X168.2Y-82.03
X168.2Y-85.44
X168.2Y-88.85
X168.2Y-95.67
X168.2Y-105.9
X168.2Y-112.72
X168.2Y-116.13
X168.2Y-119.54
X168.2Y-122.95
X168.2Y-126.36
T2
X143.904Y-78.633
X143.904Y-80.5
X143.904Y-82.367
X143.904Y-84.233
X144.979Y-79.433
X144.979Y-81.433
X144.979Y-83.433
X146.054Y-78.633
X146.054Y-80.5
X146.054Y-82.367
X146.054Y-84.233
T3
X100.35Y-127.0
X100.833Y-125.833
X100.833Y-128.167
X102.0Y-125.35
X102.0Y-128.65
X103.167Y-125.833
X103.167Y-128.167
X103.65Y-127.0
X163.35Y-71.0
X163.35Y-127.0
X163.833Y-69.833
X163.833Y-72.167
X163.833Y-125.833
X163.833Y-128.167
X165.0Y-69.35
X165.0Y-72.65
X165.0Y-125.35
X165.0Y-128.65
X166.167Y-69.833
X166.167Y-72.167
X166.167Y-125.833
X166.167Y-128.167
X166.65Y-71.0
X166.65Y-127.0
T4
X100.66Y-103.92
X100.72Y-110.32
X101.42Y-121.03
X102.66Y-103.92
X102.72Y-110.32
X103.42Y-121.03
X104.66Y-103.92
X104.72Y-110.32
T5
X158.19Y-78.73
X158.19Y-81.27
X165.81Y-78.73
X165.81Y-81.27
T6
X103.32Y-96.27
X104.0Y-71.0
X104.0Y-76.0
X108.32Y-96.27
X127.5Y-73.0
X132.5Y-73.0
T7
X111.11Y-121.08
X111.13Y-127.81
X113.61Y-121.08
X113.63Y-127.81
X116.11Y-121.08
X116.13Y-127.81
X122.87Y-127.76
X122.92Y-121.08
X125.37Y-127.76
X125.42Y-121.08
X127.87Y-127.76
X127.92Y-121.08
X134.0Y-122.0
X134.0Y-124.5
X134.0Y-127.0
X134.55Y-115.28
X137.05Y-115.28
X139.55Y-115.28
X141.25Y-71.3
X142.0Y-122.0
X142.0Y-124.5
X142.0Y-127.0
X142.05Y-115.28
X143.75Y-71.3
X146.25Y-71.3
X148.75Y-71.3
X153.74Y-86.97
X156.24Y-86.97
X158.74Y-86.97
X161.24Y-86.97
X163.74Y-86.97
X166.24Y-86.97
T8
X132.2Y-93.76
X132.2Y-96.3
X132.2Y-98.84
X150.46Y-125.46
X150.46Y-128.0
X150.5Y-114.46
X150.5Y-117.0
X150.5Y-119.54
X153.0Y-125.46
X153.0Y-128.0
X153.04Y-114.46
X153.04Y-117.0
X153.04Y-119.54
X155.54Y-125.46
X155.54Y-128.0
X155.58Y-114.46
X155.58Y-117.0
X155.58Y-119.54
X158.08Y-125.46
X158.08Y-128.0
T9
X102.0Y-127.0
X165.0Y-71.0
X165.0Y-127.0
T10
X102.4Y-83.0
X102.4Y-88.0
M30
