G04 #@! TF.GenerationSoftware,KiCad,Pcbnew,9.0.6-9.0.6~ubuntu24.04.1*
G04 #@! TF.CreationDate,2025-12-18T12:56:06+01:00*
G04 #@! TF.ProjectId,PCB_RAIL,5043425f-5241-4494-9c2e-6b696361645f,rev?*
G04 #@! TF.SameCoordinates,Original*
G04 #@! TF.FileFunction,Paste,Top*
G04 #@! TF.FilePolarity,Positive*
%FSLAX46Y46*%
G04 Gerber Fmt 4.6, Leading zero omitted, Abs format (unit mm)*
G04 Created by KiCad (PCBNEW 9.0.6-9.0.6~ubuntu24.04.1) date 2025-12-18 12:56:06*
%MOMM*%
%LPD*%
G01*
G04 APERTURE LIST*
G04 Aperture macros list*
%AMRoundRect*
0 Rectangle with rounded corners*
0 $1 Rounding radius*
0 $2 $3 $4 $5 $6 $7 $8 $9 X,Y pos of 4 corners*
0 Add a 4 corners polygon primitive as box body*
4,1,4,$2,$3,$4,$5,$6,$7,$8,$9,$2,$3,0*
0 Add four circle primitives for the rounded corners*
1,1,$1+$1,$2,$3*
1,1,$1+$1,$4,$5*
1,1,$1+$1,$6,$7*
1,1,$1+$1,$8,$9*
0 Add four rect primitives between the rounded corners*
20,1,$1+$1,$2,$3,$4,$5,0*
20,1,$1+$1,$4,$5,$6,$7,0*
20,1,$1+$1,$6,$7,$8,$9,0*
20,1,$1+$1,$8,$9,$2,$3,0*%
G04 Aperture macros list end*
%ADD10C,0.010000*%
%ADD11RoundRect,0.094500X1.025500X0.220500X-1.025500X0.220500X-1.025500X-0.220500X1.025500X-0.220500X0*%
%ADD12RoundRect,0.094500X0.094500X0.129500X-0.094500X0.129500X-0.094500X-0.129500X0.094500X-0.129500X0*%
%ADD13RoundRect,0.166250X-0.201250X-0.166250X0.201250X-0.166250X0.201250X0.166250X-0.201250X0.166250X0*%
%ADD14RoundRect,0.094500X-0.129500X0.094500X-0.129500X-0.094500X0.129500X-0.094500X0.129500X0.094500X0*%
%ADD15RoundRect,0.175000X-0.630000X0.700000X-0.630000X-0.700000X0.630000X-0.700000X0.630000X0.700000X0*%
%ADD16RoundRect,0.175000X-0.227500X-0.770000X0.227500X-0.770000X0.227500X0.770000X-0.227500X0.770000X0*%
%ADD17RoundRect,0.094500X-0.094500X-0.129500X0.094500X-0.129500X0.094500X0.129500X-0.094500X0.129500X0*%
%ADD18R,1.680000X0.518000*%
%ADD19RoundRect,0.250001X-0.859999X-0.584999X0.859999X-0.584999X0.859999X0.584999X-0.859999X0.584999X0*%
%ADD20RoundRect,0.070000X-0.472500X-0.070000X0.472500X-0.070000X0.472500X0.070000X-0.472500X0.070000X0*%
%ADD21RoundRect,0.175000X-0.175000X-0.332500X0.175000X-0.332500X0.175000X0.332500X-0.175000X0.332500X0*%
%ADD22RoundRect,0.105000X0.245000X-0.315000X0.245000X0.315000X-0.245000X0.315000X-0.245000X-0.315000X0*%
%ADD23R,3.220000X1.260000*%
%ADD24RoundRect,0.175000X-0.227500X-0.455000X0.227500X-0.455000X0.227500X0.455000X-0.227500X0.455000X0*%
%ADD25RoundRect,0.098000X0.098000X0.119000X-0.098000X0.119000X-0.098000X-0.119000X0.098000X-0.119000X0*%
%ADD26RoundRect,0.157500X0.175000X-0.157500X0.175000X0.157500X-0.175000X0.157500X-0.175000X-0.157500X0*%
%ADD27RoundRect,0.157500X-0.157500X-0.175000X0.157500X-0.175000X0.157500X0.175000X-0.157500X0.175000X0*%
%ADD28RoundRect,0.250000X-0.315000X-0.315000X0.315000X-0.315000X0.315000X0.315000X-0.315000X0.315000X0*%
%ADD29RoundRect,0.043750X-0.262500X-0.043750X0.262500X-0.043750X0.262500X0.043750X-0.262500X0.043750X0*%
%ADD30RoundRect,0.043750X-0.043750X-0.262500X0.043750X-0.262500X0.043750X0.262500X-0.043750X0.262500X0*%
%ADD31RoundRect,0.157500X-0.175000X0.157500X-0.175000X-0.157500X0.175000X-0.157500X0.175000X0.157500X0*%
%ADD32R,0.980000X1.120000*%
%ADD33RoundRect,0.035000X-0.070000X0.199500X-0.070000X-0.199500X0.070000X-0.199500X0.070000X0.199500X0*%
%ADD34RoundRect,0.098000X-0.098000X-0.119000X0.098000X-0.119000X0.098000X0.119000X-0.098000X0.119000X0*%
%ADD35RoundRect,0.157500X0.157500X0.175000X-0.157500X0.175000X-0.157500X-0.175000X0.157500X-0.175000X0*%
%ADD36RoundRect,0.175000X0.227500X0.455000X-0.227500X0.455000X-0.227500X-0.455000X0.227500X-0.455000X0*%
%ADD37R,3.780000X2.030000*%
G04 APERTURE END LIST*
D10*
X119645000Y-77680000D02*
X119145000Y-77680000D01*
X119145000Y-77180000D01*
X119645000Y-77180000D01*
X119645000Y-77680000D01*
G36*
X119645000Y-77680000D02*
G01*
X119145000Y-77680000D01*
X119145000Y-77180000D01*
X119645000Y-77180000D01*
X119645000Y-77680000D01*
G37*
X119645000Y-83220000D02*
X119145000Y-83220000D01*
X119145000Y-82720000D01*
X119645000Y-82720000D01*
X119645000Y-83220000D01*
G36*
X119645000Y-83220000D02*
G01*
X119145000Y-83220000D01*
X119145000Y-82720000D01*
X119645000Y-82720000D01*
X119645000Y-83220000D01*
G37*
X120915000Y-77680000D02*
X120415000Y-77680000D01*
X120415000Y-77180000D01*
X120915000Y-77180000D01*
X120915000Y-77680000D01*
G36*
X120915000Y-77680000D02*
G01*
X120415000Y-77680000D01*
X120415000Y-77180000D01*
X120915000Y-77180000D01*
X120915000Y-77680000D01*
G37*
X120915000Y-83220000D02*
X120415000Y-83220000D01*
X120415000Y-82720000D01*
X120915000Y-82720000D01*
X120915000Y-83220000D01*
G36*
X120915000Y-83220000D02*
G01*
X120415000Y-83220000D01*
X120415000Y-82720000D01*
X120915000Y-82720000D01*
X120915000Y-83220000D01*
G37*
X120990000Y-80020000D02*
X119420000Y-80020000D01*
X119420000Y-78785000D01*
X120990000Y-78785000D01*
X120990000Y-80020000D01*
G36*
X120990000Y-80020000D02*
G01*
X119420000Y-80020000D01*
X119420000Y-78785000D01*
X120990000Y-78785000D01*
X120990000Y-80020000D01*
G37*
X120990000Y-82105000D02*
X119420000Y-82105000D01*
X119420000Y-80520000D01*
X120990000Y-80520000D01*
X120990000Y-82105000D01*
G36*
X120990000Y-82105000D02*
G01*
X119420000Y-82105000D01*
X119420000Y-80520000D01*
X120990000Y-80520000D01*
X120990000Y-82105000D01*
G37*
X122185000Y-77680000D02*
X121685000Y-77680000D01*
X121685000Y-77180000D01*
X122185000Y-77180000D01*
X122185000Y-77680000D01*
G36*
X122185000Y-77680000D02*
G01*
X121685000Y-77680000D01*
X121685000Y-77180000D01*
X122185000Y-77180000D01*
X122185000Y-77680000D01*
G37*
X122185000Y-83220000D02*
X121685000Y-83220000D01*
X121685000Y-82720000D01*
X122185000Y-82720000D01*
X122185000Y-83220000D01*
G36*
X122185000Y-83220000D02*
G01*
X121685000Y-83220000D01*
X121685000Y-82720000D01*
X122185000Y-82720000D01*
X122185000Y-83220000D01*
G37*
X123180000Y-80020000D02*
X121610000Y-80020000D01*
X121610000Y-78785000D01*
X123180000Y-78785000D01*
X123180000Y-80020000D01*
G36*
X123180000Y-80020000D02*
G01*
X121610000Y-80020000D01*
X121610000Y-78785000D01*
X123180000Y-78785000D01*
X123180000Y-80020000D01*
G37*
X123180000Y-82105000D02*
X121610000Y-82105000D01*
X121610000Y-80520000D01*
X123180000Y-80520000D01*
X123180000Y-82105000D01*
G36*
X123180000Y-82105000D02*
G01*
X121610000Y-82105000D01*
X121610000Y-80520000D01*
X123180000Y-80520000D01*
X123180000Y-82105000D01*
G37*
X123455000Y-77680000D02*
X122955000Y-77680000D01*
X122955000Y-77180000D01*
X123455000Y-77180000D01*
X123455000Y-77680000D01*
G36*
X123455000Y-77680000D02*
G01*
X122955000Y-77680000D01*
X122955000Y-77180000D01*
X123455000Y-77180000D01*
X123455000Y-77680000D01*
G37*
X123455000Y-83220000D02*
X122955000Y-83220000D01*
X122955000Y-82720000D01*
X123455000Y-82720000D01*
X123455000Y-83220000D01*
G36*
X123455000Y-83220000D02*
G01*
X122955000Y-83220000D01*
X122955000Y-82720000D01*
X123455000Y-82720000D01*
X123455000Y-83220000D01*
G37*
X114708000Y-77676000D02*
X114710000Y-77676000D01*
X114713000Y-77677000D01*
X114715000Y-77677000D01*
X114718000Y-77678000D01*
X114720000Y-77679000D01*
X114723000Y-77680000D01*
X114725000Y-77682000D01*
X114727000Y-77683000D01*
X114729000Y-77685000D01*
X114731000Y-77686000D01*
X114733000Y-77688000D01*
X114735000Y-77690000D01*
X114737000Y-77692000D01*
X114739000Y-77694000D01*
X114740000Y-77696000D01*
X114742000Y-77698000D01*
X114743000Y-77700000D01*
X114745000Y-77702000D01*
X114746000Y-77705000D01*
X114747000Y-77707000D01*
X114748000Y-77710000D01*
X114748000Y-77712000D01*
X114749000Y-77715000D01*
X114749000Y-77717000D01*
X114750000Y-77720000D01*
X114750000Y-77722000D01*
X114750000Y-77725000D01*
X114750000Y-77925000D01*
X114750000Y-77928000D01*
X114750000Y-77930000D01*
X114749000Y-77933000D01*
X114749000Y-77935000D01*
X114748000Y-77938000D01*
X114748000Y-77940000D01*
X114747000Y-77943000D01*
X114746000Y-77945000D01*
X114745000Y-77948000D01*
X114743000Y-77950000D01*
X114742000Y-77952000D01*
X114740000Y-77954000D01*
X114739000Y-77956000D01*
X114737000Y-77958000D01*
X114735000Y-77960000D01*
X114733000Y-77962000D01*
X114731000Y-77964000D01*
X114729000Y-77965000D01*
X114727000Y-77967000D01*
X114725000Y-77968000D01*
X114723000Y-77970000D01*
X114720000Y-77971000D01*
X114718000Y-77972000D01*
X114715000Y-77973000D01*
X114713000Y-77973000D01*
X114710000Y-77974000D01*
X114708000Y-77974000D01*
X114705000Y-77975000D01*
X114703000Y-77975000D01*
X114700000Y-77975000D01*
X114200000Y-77975000D01*
X114197000Y-77975000D01*
X114195000Y-77975000D01*
X114192000Y-77974000D01*
X114190000Y-77974000D01*
X114187000Y-77973000D01*
X114185000Y-77973000D01*
X114182000Y-77972000D01*
X114180000Y-77971000D01*
X114177000Y-77970000D01*
X114175000Y-77968000D01*
X114173000Y-77967000D01*
X114171000Y-77965000D01*
X114169000Y-77964000D01*
X114167000Y-77962000D01*
X114165000Y-77960000D01*
X114163000Y-77958000D01*
X114161000Y-77956000D01*
X114160000Y-77954000D01*
X114158000Y-77952000D01*
X114157000Y-77950000D01*
X114155000Y-77948000D01*
X114154000Y-77945000D01*
X114153000Y-77943000D01*
X114152000Y-77940000D01*
X114152000Y-77938000D01*
X114151000Y-77935000D01*
X114151000Y-77933000D01*
X114150000Y-77930000D01*
X114150000Y-77928000D01*
X114150000Y-77925000D01*
X114150000Y-77725000D01*
X114150000Y-77722000D01*
X114150000Y-77720000D01*
X114151000Y-77717000D01*
X114151000Y-77715000D01*
X114152000Y-77712000D01*
X114152000Y-77710000D01*
X114153000Y-77707000D01*
X114154000Y-77705000D01*
X114155000Y-77702000D01*
X114157000Y-77700000D01*
X114158000Y-77698000D01*
X114160000Y-77696000D01*
X114161000Y-77694000D01*
X114163000Y-77692000D01*
X114165000Y-77690000D01*
X114167000Y-77688000D01*
X114169000Y-77686000D01*
X114171000Y-77685000D01*
X114173000Y-77683000D01*
X114175000Y-77682000D01*
X114177000Y-77680000D01*
X114180000Y-77679000D01*
X114182000Y-77678000D01*
X114185000Y-77677000D01*
X114187000Y-77677000D01*
X114190000Y-77676000D01*
X114192000Y-77676000D01*
X114195000Y-77675000D01*
X114197000Y-77675000D01*
X114200000Y-77675000D01*
X114700000Y-77675000D01*
X114703000Y-77675000D01*
X114705000Y-77675000D01*
X114708000Y-77676000D01*
G36*
X114708000Y-77676000D02*
G01*
X114710000Y-77676000D01*
X114713000Y-77677000D01*
X114715000Y-77677000D01*
X114718000Y-77678000D01*
X114720000Y-77679000D01*
X114723000Y-77680000D01*
X114725000Y-77682000D01*
X114727000Y-77683000D01*
X114729000Y-77685000D01*
X114731000Y-77686000D01*
X114733000Y-77688000D01*
X114735000Y-77690000D01*
X114737000Y-77692000D01*
X114739000Y-77694000D01*
X114740000Y-77696000D01*
X114742000Y-77698000D01*
X114743000Y-77700000D01*
X114745000Y-77702000D01*
X114746000Y-77705000D01*
X114747000Y-77707000D01*
X114748000Y-77710000D01*
X114748000Y-77712000D01*
X114749000Y-77715000D01*
X114749000Y-77717000D01*
X114750000Y-77720000D01*
X114750000Y-77722000D01*
X114750000Y-77725000D01*
X114750000Y-77925000D01*
X114750000Y-77928000D01*
X114750000Y-77930000D01*
X114749000Y-77933000D01*
X114749000Y-77935000D01*
X114748000Y-77938000D01*
X114748000Y-77940000D01*
X114747000Y-77943000D01*
X114746000Y-77945000D01*
X114745000Y-77948000D01*
X114743000Y-77950000D01*
X114742000Y-77952000D01*
X114740000Y-77954000D01*
X114739000Y-77956000D01*
X114737000Y-77958000D01*
X114735000Y-77960000D01*
X114733000Y-77962000D01*
X114731000Y-77964000D01*
X114729000Y-77965000D01*
X114727000Y-77967000D01*
X114725000Y-77968000D01*
X114723000Y-77970000D01*
X114720000Y-77971000D01*
X114718000Y-77972000D01*
X114715000Y-77973000D01*
X114713000Y-77973000D01*
X114710000Y-77974000D01*
X114708000Y-77974000D01*
X114705000Y-77975000D01*
X114703000Y-77975000D01*
X114700000Y-77975000D01*
X114200000Y-77975000D01*
X114197000Y-77975000D01*
X114195000Y-77975000D01*
X114192000Y-77974000D01*
X114190000Y-77974000D01*
X114187000Y-77973000D01*
X114185000Y-77973000D01*
X114182000Y-77972000D01*
X114180000Y-77971000D01*
X114177000Y-77970000D01*
X114175000Y-77968000D01*
X114173000Y-77967000D01*
X114171000Y-77965000D01*
X114169000Y-77964000D01*
X114167000Y-77962000D01*
X114165000Y-77960000D01*
X114163000Y-77958000D01*
X114161000Y-77956000D01*
X114160000Y-77954000D01*
X114158000Y-77952000D01*
X114157000Y-77950000D01*
X114155000Y-77948000D01*
X114154000Y-77945000D01*
X114153000Y-77943000D01*
X114152000Y-77940000D01*
X114152000Y-77938000D01*
X114151000Y-77935000D01*
X114151000Y-77933000D01*
X114150000Y-77930000D01*
X114150000Y-77928000D01*
X114150000Y-77925000D01*
X114150000Y-77725000D01*
X114150000Y-77722000D01*
X114150000Y-77720000D01*
X114151000Y-77717000D01*
X114151000Y-77715000D01*
X114152000Y-77712000D01*
X114152000Y-77710000D01*
X114153000Y-77707000D01*
X114154000Y-77705000D01*
X114155000Y-77702000D01*
X114157000Y-77700000D01*
X114158000Y-77698000D01*
X114160000Y-77696000D01*
X114161000Y-77694000D01*
X114163000Y-77692000D01*
X114165000Y-77690000D01*
X114167000Y-77688000D01*
X114169000Y-77686000D01*
X114171000Y-77685000D01*
X114173000Y-77683000D01*
X114175000Y-77682000D01*
X114177000Y-77680000D01*
X114180000Y-77679000D01*
X114182000Y-77678000D01*
X114185000Y-77677000D01*
X114187000Y-77677000D01*
X114190000Y-77676000D01*
X114192000Y-77676000D01*
X114195000Y-77675000D01*
X114197000Y-77675000D01*
X114200000Y-77675000D01*
X114700000Y-77675000D01*
X114703000Y-77675000D01*
X114705000Y-77675000D01*
X114708000Y-77676000D01*
G37*
X114708000Y-78326000D02*
X114710000Y-78326000D01*
X114713000Y-78327000D01*
X114715000Y-78327000D01*
X114718000Y-78328000D01*
X114720000Y-78329000D01*
X114723000Y-78330000D01*
X114725000Y-78332000D01*
X114727000Y-78333000D01*
X114729000Y-78335000D01*
X114731000Y-78336000D01*
X114733000Y-78338000D01*
X114735000Y-78340000D01*
X114737000Y-78342000D01*
X114739000Y-78344000D01*
X114740000Y-78346000D01*
X114742000Y-78348000D01*
X114743000Y-78350000D01*
X114745000Y-78352000D01*
X114746000Y-78355000D01*
X114747000Y-78357000D01*
X114748000Y-78360000D01*
X114748000Y-78362000D01*
X114749000Y-78365000D01*
X114749000Y-78367000D01*
X114750000Y-78370000D01*
X114750000Y-78372000D01*
X114750000Y-78375000D01*
X114750000Y-78575000D01*
X114750000Y-78578000D01*
X114750000Y-78580000D01*
X114749000Y-78583000D01*
X114749000Y-78585000D01*
X114748000Y-78588000D01*
X114748000Y-78590000D01*
X114747000Y-78593000D01*
X114746000Y-78595000D01*
X114745000Y-78598000D01*
X114743000Y-78600000D01*
X114742000Y-78602000D01*
X114740000Y-78604000D01*
X114739000Y-78606000D01*
X114737000Y-78608000D01*
X114735000Y-78610000D01*
X114733000Y-78612000D01*
X114731000Y-78614000D01*
X114729000Y-78615000D01*
X114727000Y-78617000D01*
X114725000Y-78618000D01*
X114723000Y-78620000D01*
X114720000Y-78621000D01*
X114718000Y-78622000D01*
X114715000Y-78623000D01*
X114713000Y-78623000D01*
X114710000Y-78624000D01*
X114708000Y-78624000D01*
X114705000Y-78625000D01*
X114703000Y-78625000D01*
X114700000Y-78625000D01*
X114200000Y-78625000D01*
X114197000Y-78625000D01*
X114195000Y-78625000D01*
X114192000Y-78624000D01*
X114190000Y-78624000D01*
X114187000Y-78623000D01*
X114185000Y-78623000D01*
X114182000Y-78622000D01*
X114180000Y-78621000D01*
X114177000Y-78620000D01*
X114175000Y-78618000D01*
X114173000Y-78617000D01*
X114171000Y-78615000D01*
X114169000Y-78614000D01*
X114167000Y-78612000D01*
X114165000Y-78610000D01*
X114163000Y-78608000D01*
X114161000Y-78606000D01*
X114160000Y-78604000D01*
X114158000Y-78602000D01*
X114157000Y-78600000D01*
X114155000Y-78598000D01*
X114154000Y-78595000D01*
X114153000Y-78593000D01*
X114152000Y-78590000D01*
X114152000Y-78588000D01*
X114151000Y-78585000D01*
X114151000Y-78583000D01*
X114150000Y-78580000D01*
X114150000Y-78578000D01*
X114150000Y-78575000D01*
X114150000Y-78375000D01*
X114150000Y-78372000D01*
X114150000Y-78370000D01*
X114151000Y-78367000D01*
X114151000Y-78365000D01*
X114152000Y-78362000D01*
X114152000Y-78360000D01*
X114153000Y-78357000D01*
X114154000Y-78355000D01*
X114155000Y-78352000D01*
X114157000Y-78350000D01*
X114158000Y-78348000D01*
X114160000Y-78346000D01*
X114161000Y-78344000D01*
X114163000Y-78342000D01*
X114165000Y-78340000D01*
X114167000Y-78338000D01*
X114169000Y-78336000D01*
X114171000Y-78335000D01*
X114173000Y-78333000D01*
X114175000Y-78332000D01*
X114177000Y-78330000D01*
X114180000Y-78329000D01*
X114182000Y-78328000D01*
X114185000Y-78327000D01*
X114187000Y-78327000D01*
X114190000Y-78326000D01*
X114192000Y-78326000D01*
X114195000Y-78325000D01*
X114197000Y-78325000D01*
X114200000Y-78325000D01*
X114700000Y-78325000D01*
X114703000Y-78325000D01*
X114705000Y-78325000D01*
X114708000Y-78326000D01*
G36*
X114708000Y-78326000D02*
G01*
X114710000Y-78326000D01*
X114713000Y-78327000D01*
X114715000Y-78327000D01*
X114718000Y-78328000D01*
X114720000Y-78329000D01*
X114723000Y-78330000D01*
X114725000Y-78332000D01*
X114727000Y-78333000D01*
X114729000Y-78335000D01*
X114731000Y-78336000D01*
X114733000Y-78338000D01*
X114735000Y-78340000D01*
X114737000Y-78342000D01*
X114739000Y-78344000D01*
X114740000Y-78346000D01*
X114742000Y-78348000D01*
X114743000Y-78350000D01*
X114745000Y-78352000D01*
X114746000Y-78355000D01*
X114747000Y-78357000D01*
X114748000Y-78360000D01*
X114748000Y-78362000D01*
X114749000Y-78365000D01*
X114749000Y-78367000D01*
X114750000Y-78370000D01*
X114750000Y-78372000D01*
X114750000Y-78375000D01*
X114750000Y-78575000D01*
X114750000Y-78578000D01*
X114750000Y-78580000D01*
X114749000Y-78583000D01*
X114749000Y-78585000D01*
X114748000Y-78588000D01*
X114748000Y-78590000D01*
X114747000Y-78593000D01*
X114746000Y-78595000D01*
X114745000Y-78598000D01*
X114743000Y-78600000D01*
X114742000Y-78602000D01*
X114740000Y-78604000D01*
X114739000Y-78606000D01*
X114737000Y-78608000D01*
X114735000Y-78610000D01*
X114733000Y-78612000D01*
X114731000Y-78614000D01*
X114729000Y-78615000D01*
X114727000Y-78617000D01*
X114725000Y-78618000D01*
X114723000Y-78620000D01*
X114720000Y-78621000D01*
X114718000Y-78622000D01*
X114715000Y-78623000D01*
X114713000Y-78623000D01*
X114710000Y-78624000D01*
X114708000Y-78624000D01*
X114705000Y-78625000D01*
X114703000Y-78625000D01*
X114700000Y-78625000D01*
X114200000Y-78625000D01*
X114197000Y-78625000D01*
X114195000Y-78625000D01*
X114192000Y-78624000D01*
X114190000Y-78624000D01*
X114187000Y-78623000D01*
X114185000Y-78623000D01*
X114182000Y-78622000D01*
X114180000Y-78621000D01*
X114177000Y-78620000D01*
X114175000Y-78618000D01*
X114173000Y-78617000D01*
X114171000Y-78615000D01*
X114169000Y-78614000D01*
X114167000Y-78612000D01*
X114165000Y-78610000D01*
X114163000Y-78608000D01*
X114161000Y-78606000D01*
X114160000Y-78604000D01*
X114158000Y-78602000D01*
X114157000Y-78600000D01*
X114155000Y-78598000D01*
X114154000Y-78595000D01*
X114153000Y-78593000D01*
X114152000Y-78590000D01*
X114152000Y-78588000D01*
X114151000Y-78585000D01*
X114151000Y-78583000D01*
X114150000Y-78580000D01*
X114150000Y-78578000D01*
X114150000Y-78575000D01*
X114150000Y-78375000D01*
X114150000Y-78372000D01*
X114150000Y-78370000D01*
X114151000Y-78367000D01*
X114151000Y-78365000D01*
X114152000Y-78362000D01*
X114152000Y-78360000D01*
X114153000Y-78357000D01*
X114154000Y-78355000D01*
X114155000Y-78352000D01*
X114157000Y-78350000D01*
X114158000Y-78348000D01*
X114160000Y-78346000D01*
X114161000Y-78344000D01*
X114163000Y-78342000D01*
X114165000Y-78340000D01*
X114167000Y-78338000D01*
X114169000Y-78336000D01*
X114171000Y-78335000D01*
X114173000Y-78333000D01*
X114175000Y-78332000D01*
X114177000Y-78330000D01*
X114180000Y-78329000D01*
X114182000Y-78328000D01*
X114185000Y-78327000D01*
X114187000Y-78327000D01*
X114190000Y-78326000D01*
X114192000Y-78326000D01*
X114195000Y-78325000D01*
X114197000Y-78325000D01*
X114200000Y-78325000D01*
X114700000Y-78325000D01*
X114703000Y-78325000D01*
X114705000Y-78325000D01*
X114708000Y-78326000D01*
G37*
X114708000Y-78976000D02*
X114710000Y-78976000D01*
X114713000Y-78977000D01*
X114715000Y-78977000D01*
X114718000Y-78978000D01*
X114720000Y-78979000D01*
X114723000Y-78980000D01*
X114725000Y-78982000D01*
X114727000Y-78983000D01*
X114729000Y-78985000D01*
X114731000Y-78986000D01*
X114733000Y-78988000D01*
X114735000Y-78990000D01*
X114737000Y-78992000D01*
X114739000Y-78994000D01*
X114740000Y-78996000D01*
X114742000Y-78998000D01*
X114743000Y-79000000D01*
X114745000Y-79002000D01*
X114746000Y-79005000D01*
X114747000Y-79007000D01*
X114748000Y-79010000D01*
X114748000Y-79012000D01*
X114749000Y-79015000D01*
X114749000Y-79017000D01*
X114750000Y-79020000D01*
X114750000Y-79022000D01*
X114750000Y-79025000D01*
X114750000Y-79225000D01*
X114750000Y-79228000D01*
X114750000Y-79230000D01*
X114749000Y-79233000D01*
X114749000Y-79235000D01*
X114748000Y-79238000D01*
X114748000Y-79240000D01*
X114747000Y-79243000D01*
X114746000Y-79245000D01*
X114745000Y-79248000D01*
X114743000Y-79250000D01*
X114742000Y-79252000D01*
X114740000Y-79254000D01*
X114739000Y-79256000D01*
X114737000Y-79258000D01*
X114735000Y-79260000D01*
X114733000Y-79262000D01*
X114731000Y-79264000D01*
X114729000Y-79265000D01*
X114727000Y-79267000D01*
X114725000Y-79268000D01*
X114723000Y-79270000D01*
X114720000Y-79271000D01*
X114718000Y-79272000D01*
X114715000Y-79273000D01*
X114713000Y-79273000D01*
X114710000Y-79274000D01*
X114708000Y-79274000D01*
X114705000Y-79275000D01*
X114703000Y-79275000D01*
X114700000Y-79275000D01*
X114200000Y-79275000D01*
X114197000Y-79275000D01*
X114195000Y-79275000D01*
X114192000Y-79274000D01*
X114190000Y-79274000D01*
X114187000Y-79273000D01*
X114185000Y-79273000D01*
X114182000Y-79272000D01*
X114180000Y-79271000D01*
X114177000Y-79270000D01*
X114175000Y-79268000D01*
X114173000Y-79267000D01*
X114171000Y-79265000D01*
X114169000Y-79264000D01*
X114167000Y-79262000D01*
X114165000Y-79260000D01*
X114163000Y-79258000D01*
X114161000Y-79256000D01*
X114160000Y-79254000D01*
X114158000Y-79252000D01*
X114157000Y-79250000D01*
X114155000Y-79248000D01*
X114154000Y-79245000D01*
X114153000Y-79243000D01*
X114152000Y-79240000D01*
X114152000Y-79238000D01*
X114151000Y-79235000D01*
X114151000Y-79233000D01*
X114150000Y-79230000D01*
X114150000Y-79228000D01*
X114150000Y-79225000D01*
X114150000Y-79025000D01*
X114150000Y-79022000D01*
X114150000Y-79020000D01*
X114151000Y-79017000D01*
X114151000Y-79015000D01*
X114152000Y-79012000D01*
X114152000Y-79010000D01*
X114153000Y-79007000D01*
X114154000Y-79005000D01*
X114155000Y-79002000D01*
X114157000Y-79000000D01*
X114158000Y-78998000D01*
X114160000Y-78996000D01*
X114161000Y-78994000D01*
X114163000Y-78992000D01*
X114165000Y-78990000D01*
X114167000Y-78988000D01*
X114169000Y-78986000D01*
X114171000Y-78985000D01*
X114173000Y-78983000D01*
X114175000Y-78982000D01*
X114177000Y-78980000D01*
X114180000Y-78979000D01*
X114182000Y-78978000D01*
X114185000Y-78977000D01*
X114187000Y-78977000D01*
X114190000Y-78976000D01*
X114192000Y-78976000D01*
X114195000Y-78975000D01*
X114197000Y-78975000D01*
X114200000Y-78975000D01*
X114700000Y-78975000D01*
X114703000Y-78975000D01*
X114705000Y-78975000D01*
X114708000Y-78976000D01*
G36*
X114708000Y-78976000D02*
G01*
X114710000Y-78976000D01*
X114713000Y-78977000D01*
X114715000Y-78977000D01*
X114718000Y-78978000D01*
X114720000Y-78979000D01*
X114723000Y-78980000D01*
X114725000Y-78982000D01*
X114727000Y-78983000D01*
X114729000Y-78985000D01*
X114731000Y-78986000D01*
X114733000Y-78988000D01*
X114735000Y-78990000D01*
X114737000Y-78992000D01*
X114739000Y-78994000D01*
X114740000Y-78996000D01*
X114742000Y-78998000D01*
X114743000Y-79000000D01*
X114745000Y-79002000D01*
X114746000Y-79005000D01*
X114747000Y-79007000D01*
X114748000Y-79010000D01*
X114748000Y-79012000D01*
X114749000Y-79015000D01*
X114749000Y-79017000D01*
X114750000Y-79020000D01*
X114750000Y-79022000D01*
X114750000Y-79025000D01*
X114750000Y-79225000D01*
X114750000Y-79228000D01*
X114750000Y-79230000D01*
X114749000Y-79233000D01*
X114749000Y-79235000D01*
X114748000Y-79238000D01*
X114748000Y-79240000D01*
X114747000Y-79243000D01*
X114746000Y-79245000D01*
X114745000Y-79248000D01*
X114743000Y-79250000D01*
X114742000Y-79252000D01*
X114740000Y-79254000D01*
X114739000Y-79256000D01*
X114737000Y-79258000D01*
X114735000Y-79260000D01*
X114733000Y-79262000D01*
X114731000Y-79264000D01*
X114729000Y-79265000D01*
X114727000Y-79267000D01*
X114725000Y-79268000D01*
X114723000Y-79270000D01*
X114720000Y-79271000D01*
X114718000Y-79272000D01*
X114715000Y-79273000D01*
X114713000Y-79273000D01*
X114710000Y-79274000D01*
X114708000Y-79274000D01*
X114705000Y-79275000D01*
X114703000Y-79275000D01*
X114700000Y-79275000D01*
X114200000Y-79275000D01*
X114197000Y-79275000D01*
X114195000Y-79275000D01*
X114192000Y-79274000D01*
X114190000Y-79274000D01*
X114187000Y-79273000D01*
X114185000Y-79273000D01*
X114182000Y-79272000D01*
X114180000Y-79271000D01*
X114177000Y-79270000D01*
X114175000Y-79268000D01*
X114173000Y-79267000D01*
X114171000Y-79265000D01*
X114169000Y-79264000D01*
X114167000Y-79262000D01*
X114165000Y-79260000D01*
X114163000Y-79258000D01*
X114161000Y-79256000D01*
X114160000Y-79254000D01*
X114158000Y-79252000D01*
X114157000Y-79250000D01*
X114155000Y-79248000D01*
X114154000Y-79245000D01*
X114153000Y-79243000D01*
X114152000Y-79240000D01*
X114152000Y-79238000D01*
X114151000Y-79235000D01*
X114151000Y-79233000D01*
X114150000Y-79230000D01*
X114150000Y-79228000D01*
X114150000Y-79225000D01*
X114150000Y-79025000D01*
X114150000Y-79022000D01*
X114150000Y-79020000D01*
X114151000Y-79017000D01*
X114151000Y-79015000D01*
X114152000Y-79012000D01*
X114152000Y-79010000D01*
X114153000Y-79007000D01*
X114154000Y-79005000D01*
X114155000Y-79002000D01*
X114157000Y-79000000D01*
X114158000Y-78998000D01*
X114160000Y-78996000D01*
X114161000Y-78994000D01*
X114163000Y-78992000D01*
X114165000Y-78990000D01*
X114167000Y-78988000D01*
X114169000Y-78986000D01*
X114171000Y-78985000D01*
X114173000Y-78983000D01*
X114175000Y-78982000D01*
X114177000Y-78980000D01*
X114180000Y-78979000D01*
X114182000Y-78978000D01*
X114185000Y-78977000D01*
X114187000Y-78977000D01*
X114190000Y-78976000D01*
X114192000Y-78976000D01*
X114195000Y-78975000D01*
X114197000Y-78975000D01*
X114200000Y-78975000D01*
X114700000Y-78975000D01*
X114703000Y-78975000D01*
X114705000Y-78975000D01*
X114708000Y-78976000D01*
G37*
X114708000Y-79626000D02*
X114710000Y-79626000D01*
X114713000Y-79627000D01*
X114715000Y-79627000D01*
X114718000Y-79628000D01*
X114720000Y-79629000D01*
X114723000Y-79630000D01*
X114725000Y-79632000D01*
X114727000Y-79633000D01*
X114729000Y-79635000D01*
X114731000Y-79636000D01*
X114733000Y-79638000D01*
X114735000Y-79640000D01*
X114737000Y-79642000D01*
X114739000Y-79644000D01*
X114740000Y-79646000D01*
X114742000Y-79648000D01*
X114743000Y-79650000D01*
X114745000Y-79652000D01*
X114746000Y-79655000D01*
X114747000Y-79657000D01*
X114748000Y-79660000D01*
X114748000Y-79662000D01*
X114749000Y-79665000D01*
X114749000Y-79667000D01*
X114750000Y-79670000D01*
X114750000Y-79672000D01*
X114750000Y-79675000D01*
X114750000Y-79875000D01*
X114750000Y-79878000D01*
X114750000Y-79880000D01*
X114749000Y-79883000D01*
X114749000Y-79885000D01*
X114748000Y-79888000D01*
X114748000Y-79890000D01*
X114747000Y-79893000D01*
X114746000Y-79895000D01*
X114745000Y-79898000D01*
X114743000Y-79900000D01*
X114742000Y-79902000D01*
X114740000Y-79904000D01*
X114739000Y-79906000D01*
X114737000Y-79908000D01*
X114735000Y-79910000D01*
X114733000Y-79912000D01*
X114731000Y-79914000D01*
X114729000Y-79915000D01*
X114727000Y-79917000D01*
X114725000Y-79918000D01*
X114723000Y-79920000D01*
X114720000Y-79921000D01*
X114718000Y-79922000D01*
X114715000Y-79923000D01*
X114713000Y-79923000D01*
X114710000Y-79924000D01*
X114708000Y-79924000D01*
X114705000Y-79925000D01*
X114703000Y-79925000D01*
X114700000Y-79925000D01*
X114200000Y-79925000D01*
X114197000Y-79925000D01*
X114195000Y-79925000D01*
X114192000Y-79924000D01*
X114190000Y-79924000D01*
X114187000Y-79923000D01*
X114185000Y-79923000D01*
X114182000Y-79922000D01*
X114180000Y-79921000D01*
X114177000Y-79920000D01*
X114175000Y-79918000D01*
X114173000Y-79917000D01*
X114171000Y-79915000D01*
X114169000Y-79914000D01*
X114167000Y-79912000D01*
X114165000Y-79910000D01*
X114163000Y-79908000D01*
X114161000Y-79906000D01*
X114160000Y-79904000D01*
X114158000Y-79902000D01*
X114157000Y-79900000D01*
X114155000Y-79898000D01*
X114154000Y-79895000D01*
X114153000Y-79893000D01*
X114152000Y-79890000D01*
X114152000Y-79888000D01*
X114151000Y-79885000D01*
X114151000Y-79883000D01*
X114150000Y-79880000D01*
X114150000Y-79878000D01*
X114150000Y-79875000D01*
X114150000Y-79675000D01*
X114150000Y-79672000D01*
X114150000Y-79670000D01*
X114151000Y-79667000D01*
X114151000Y-79665000D01*
X114152000Y-79662000D01*
X114152000Y-79660000D01*
X114153000Y-79657000D01*
X114154000Y-79655000D01*
X114155000Y-79652000D01*
X114157000Y-79650000D01*
X114158000Y-79648000D01*
X114160000Y-79646000D01*
X114161000Y-79644000D01*
X114163000Y-79642000D01*
X114165000Y-79640000D01*
X114167000Y-79638000D01*
X114169000Y-79636000D01*
X114171000Y-79635000D01*
X114173000Y-79633000D01*
X114175000Y-79632000D01*
X114177000Y-79630000D01*
X114180000Y-79629000D01*
X114182000Y-79628000D01*
X114185000Y-79627000D01*
X114187000Y-79627000D01*
X114190000Y-79626000D01*
X114192000Y-79626000D01*
X114195000Y-79625000D01*
X114197000Y-79625000D01*
X114200000Y-79625000D01*
X114700000Y-79625000D01*
X114703000Y-79625000D01*
X114705000Y-79625000D01*
X114708000Y-79626000D01*
G36*
X114708000Y-79626000D02*
G01*
X114710000Y-79626000D01*
X114713000Y-79627000D01*
X114715000Y-79627000D01*
X114718000Y-79628000D01*
X114720000Y-79629000D01*
X114723000Y-79630000D01*
X114725000Y-79632000D01*
X114727000Y-79633000D01*
X114729000Y-79635000D01*
X114731000Y-79636000D01*
X114733000Y-79638000D01*
X114735000Y-79640000D01*
X114737000Y-79642000D01*
X114739000Y-79644000D01*
X114740000Y-79646000D01*
X114742000Y-79648000D01*
X114743000Y-79650000D01*
X114745000Y-79652000D01*
X114746000Y-79655000D01*
X114747000Y-79657000D01*
X114748000Y-79660000D01*
X114748000Y-79662000D01*
X114749000Y-79665000D01*
X114749000Y-79667000D01*
X114750000Y-79670000D01*
X114750000Y-79672000D01*
X114750000Y-79675000D01*
X114750000Y-79875000D01*
X114750000Y-79878000D01*
X114750000Y-79880000D01*
X114749000Y-79883000D01*
X114749000Y-79885000D01*
X114748000Y-79888000D01*
X114748000Y-79890000D01*
X114747000Y-79893000D01*
X114746000Y-79895000D01*
X114745000Y-79898000D01*
X114743000Y-79900000D01*
X114742000Y-79902000D01*
X114740000Y-79904000D01*
X114739000Y-79906000D01*
X114737000Y-79908000D01*
X114735000Y-79910000D01*
X114733000Y-79912000D01*
X114731000Y-79914000D01*
X114729000Y-79915000D01*
X114727000Y-79917000D01*
X114725000Y-79918000D01*
X114723000Y-79920000D01*
X114720000Y-79921000D01*
X114718000Y-79922000D01*
X114715000Y-79923000D01*
X114713000Y-79923000D01*
X114710000Y-79924000D01*
X114708000Y-79924000D01*
X114705000Y-79925000D01*
X114703000Y-79925000D01*
X114700000Y-79925000D01*
X114200000Y-79925000D01*
X114197000Y-79925000D01*
X114195000Y-79925000D01*
X114192000Y-79924000D01*
X114190000Y-79924000D01*
X114187000Y-79923000D01*
X114185000Y-79923000D01*
X114182000Y-79922000D01*
X114180000Y-79921000D01*
X114177000Y-79920000D01*
X114175000Y-79918000D01*
X114173000Y-79917000D01*
X114171000Y-79915000D01*
X114169000Y-79914000D01*
X114167000Y-79912000D01*
X114165000Y-79910000D01*
X114163000Y-79908000D01*
X114161000Y-79906000D01*
X114160000Y-79904000D01*
X114158000Y-79902000D01*
X114157000Y-79900000D01*
X114155000Y-79898000D01*
X114154000Y-79895000D01*
X114153000Y-79893000D01*
X114152000Y-79890000D01*
X114152000Y-79888000D01*
X114151000Y-79885000D01*
X114151000Y-79883000D01*
X114150000Y-79880000D01*
X114150000Y-79878000D01*
X114150000Y-79875000D01*
X114150000Y-79675000D01*
X114150000Y-79672000D01*
X114150000Y-79670000D01*
X114151000Y-79667000D01*
X114151000Y-79665000D01*
X114152000Y-79662000D01*
X114152000Y-79660000D01*
X114153000Y-79657000D01*
X114154000Y-79655000D01*
X114155000Y-79652000D01*
X114157000Y-79650000D01*
X114158000Y-79648000D01*
X114160000Y-79646000D01*
X114161000Y-79644000D01*
X114163000Y-79642000D01*
X114165000Y-79640000D01*
X114167000Y-79638000D01*
X114169000Y-79636000D01*
X114171000Y-79635000D01*
X114173000Y-79633000D01*
X114175000Y-79632000D01*
X114177000Y-79630000D01*
X114180000Y-79629000D01*
X114182000Y-79628000D01*
X114185000Y-79627000D01*
X114187000Y-79627000D01*
X114190000Y-79626000D01*
X114192000Y-79626000D01*
X114195000Y-79625000D01*
X114197000Y-79625000D01*
X114200000Y-79625000D01*
X114700000Y-79625000D01*
X114703000Y-79625000D01*
X114705000Y-79625000D01*
X114708000Y-79626000D01*
G37*
X117808000Y-77676000D02*
X117810000Y-77676000D01*
X117813000Y-77677000D01*
X117815000Y-77677000D01*
X117818000Y-77678000D01*
X117820000Y-77679000D01*
X117823000Y-77680000D01*
X117825000Y-77682000D01*
X117827000Y-77683000D01*
X117829000Y-77685000D01*
X117831000Y-77686000D01*
X117833000Y-77688000D01*
X117835000Y-77690000D01*
X117837000Y-77692000D01*
X117839000Y-77694000D01*
X117840000Y-77696000D01*
X117842000Y-77698000D01*
X117843000Y-77700000D01*
X117845000Y-77702000D01*
X117846000Y-77705000D01*
X117847000Y-77707000D01*
X117848000Y-77710000D01*
X117848000Y-77712000D01*
X117849000Y-77715000D01*
X117849000Y-77717000D01*
X117850000Y-77720000D01*
X117850000Y-77722000D01*
X117850000Y-77725000D01*
X117850000Y-77925000D01*
X117850000Y-77928000D01*
X117850000Y-77930000D01*
X117849000Y-77933000D01*
X117849000Y-77935000D01*
X117848000Y-77938000D01*
X117848000Y-77940000D01*
X117847000Y-77943000D01*
X117846000Y-77945000D01*
X117845000Y-77948000D01*
X117843000Y-77950000D01*
X117842000Y-77952000D01*
X117840000Y-77954000D01*
X117839000Y-77956000D01*
X117837000Y-77958000D01*
X117835000Y-77960000D01*
X117833000Y-77962000D01*
X117831000Y-77964000D01*
X117829000Y-77965000D01*
X117827000Y-77967000D01*
X117825000Y-77968000D01*
X117823000Y-77970000D01*
X117820000Y-77971000D01*
X117818000Y-77972000D01*
X117815000Y-77973000D01*
X117813000Y-77973000D01*
X117810000Y-77974000D01*
X117808000Y-77974000D01*
X117805000Y-77975000D01*
X117803000Y-77975000D01*
X117800000Y-77975000D01*
X117300000Y-77975000D01*
X117297000Y-77975000D01*
X117295000Y-77975000D01*
X117292000Y-77974000D01*
X117290000Y-77974000D01*
X117287000Y-77973000D01*
X117285000Y-77973000D01*
X117282000Y-77972000D01*
X117280000Y-77971000D01*
X117277000Y-77970000D01*
X117275000Y-77968000D01*
X117273000Y-77967000D01*
X117271000Y-77965000D01*
X117269000Y-77964000D01*
X117267000Y-77962000D01*
X117265000Y-77960000D01*
X117263000Y-77958000D01*
X117261000Y-77956000D01*
X117260000Y-77954000D01*
X117258000Y-77952000D01*
X117257000Y-77950000D01*
X117255000Y-77948000D01*
X117254000Y-77945000D01*
X117253000Y-77943000D01*
X117252000Y-77940000D01*
X117252000Y-77938000D01*
X117251000Y-77935000D01*
X117251000Y-77933000D01*
X117250000Y-77930000D01*
X117250000Y-77928000D01*
X117250000Y-77925000D01*
X117250000Y-77725000D01*
X117250000Y-77722000D01*
X117250000Y-77720000D01*
X117251000Y-77717000D01*
X117251000Y-77715000D01*
X117252000Y-77712000D01*
X117252000Y-77710000D01*
X117253000Y-77707000D01*
X117254000Y-77705000D01*
X117255000Y-77702000D01*
X117257000Y-77700000D01*
X117258000Y-77698000D01*
X117260000Y-77696000D01*
X117261000Y-77694000D01*
X117263000Y-77692000D01*
X117265000Y-77690000D01*
X117267000Y-77688000D01*
X117269000Y-77686000D01*
X117271000Y-77685000D01*
X117273000Y-77683000D01*
X117275000Y-77682000D01*
X117277000Y-77680000D01*
X117280000Y-77679000D01*
X117282000Y-77678000D01*
X117285000Y-77677000D01*
X117287000Y-77677000D01*
X117290000Y-77676000D01*
X117292000Y-77676000D01*
X117295000Y-77675000D01*
X117297000Y-77675000D01*
X117300000Y-77675000D01*
X117800000Y-77675000D01*
X117803000Y-77675000D01*
X117805000Y-77675000D01*
X117808000Y-77676000D01*
G36*
X117808000Y-77676000D02*
G01*
X117810000Y-77676000D01*
X117813000Y-77677000D01*
X117815000Y-77677000D01*
X117818000Y-77678000D01*
X117820000Y-77679000D01*
X117823000Y-77680000D01*
X117825000Y-77682000D01*
X117827000Y-77683000D01*
X117829000Y-77685000D01*
X117831000Y-77686000D01*
X117833000Y-77688000D01*
X117835000Y-77690000D01*
X117837000Y-77692000D01*
X117839000Y-77694000D01*
X117840000Y-77696000D01*
X117842000Y-77698000D01*
X117843000Y-77700000D01*
X117845000Y-77702000D01*
X117846000Y-77705000D01*
X117847000Y-77707000D01*
X117848000Y-77710000D01*
X117848000Y-77712000D01*
X117849000Y-77715000D01*
X117849000Y-77717000D01*
X117850000Y-77720000D01*
X117850000Y-77722000D01*
X117850000Y-77725000D01*
X117850000Y-77925000D01*
X117850000Y-77928000D01*
X117850000Y-77930000D01*
X117849000Y-77933000D01*
X117849000Y-77935000D01*
X117848000Y-77938000D01*
X117848000Y-77940000D01*
X117847000Y-77943000D01*
X117846000Y-77945000D01*
X117845000Y-77948000D01*
X117843000Y-77950000D01*
X117842000Y-77952000D01*
X117840000Y-77954000D01*
X117839000Y-77956000D01*
X117837000Y-77958000D01*
X117835000Y-77960000D01*
X117833000Y-77962000D01*
X117831000Y-77964000D01*
X117829000Y-77965000D01*
X117827000Y-77967000D01*
X117825000Y-77968000D01*
X117823000Y-77970000D01*
X117820000Y-77971000D01*
X117818000Y-77972000D01*
X117815000Y-77973000D01*
X117813000Y-77973000D01*
X117810000Y-77974000D01*
X117808000Y-77974000D01*
X117805000Y-77975000D01*
X117803000Y-77975000D01*
X117800000Y-77975000D01*
X117300000Y-77975000D01*
X117297000Y-77975000D01*
X117295000Y-77975000D01*
X117292000Y-77974000D01*
X117290000Y-77974000D01*
X117287000Y-77973000D01*
X117285000Y-77973000D01*
X117282000Y-77972000D01*
X117280000Y-77971000D01*
X117277000Y-77970000D01*
X117275000Y-77968000D01*
X117273000Y-77967000D01*
X117271000Y-77965000D01*
X117269000Y-77964000D01*
X117267000Y-77962000D01*
X117265000Y-77960000D01*
X117263000Y-77958000D01*
X117261000Y-77956000D01*
X117260000Y-77954000D01*
X117258000Y-77952000D01*
X117257000Y-77950000D01*
X117255000Y-77948000D01*
X117254000Y-77945000D01*
X117253000Y-77943000D01*
X117252000Y-77940000D01*
X117252000Y-77938000D01*
X117251000Y-77935000D01*
X117251000Y-77933000D01*
X117250000Y-77930000D01*
X117250000Y-77928000D01*
X117250000Y-77925000D01*
X117250000Y-77725000D01*
X117250000Y-77722000D01*
X117250000Y-77720000D01*
X117251000Y-77717000D01*
X117251000Y-77715000D01*
X117252000Y-77712000D01*
X117252000Y-77710000D01*
X117253000Y-77707000D01*
X117254000Y-77705000D01*
X117255000Y-77702000D01*
X117257000Y-77700000D01*
X117258000Y-77698000D01*
X117260000Y-77696000D01*
X117261000Y-77694000D01*
X117263000Y-77692000D01*
X117265000Y-77690000D01*
X117267000Y-77688000D01*
X117269000Y-77686000D01*
X117271000Y-77685000D01*
X117273000Y-77683000D01*
X117275000Y-77682000D01*
X117277000Y-77680000D01*
X117280000Y-77679000D01*
X117282000Y-77678000D01*
X117285000Y-77677000D01*
X117287000Y-77677000D01*
X117290000Y-77676000D01*
X117292000Y-77676000D01*
X117295000Y-77675000D01*
X117297000Y-77675000D01*
X117300000Y-77675000D01*
X117800000Y-77675000D01*
X117803000Y-77675000D01*
X117805000Y-77675000D01*
X117808000Y-77676000D01*
G37*
X117808000Y-78326000D02*
X117810000Y-78326000D01*
X117813000Y-78327000D01*
X117815000Y-78327000D01*
X117818000Y-78328000D01*
X117820000Y-78329000D01*
X117823000Y-78330000D01*
X117825000Y-78332000D01*
X117827000Y-78333000D01*
X117829000Y-78335000D01*
X117831000Y-78336000D01*
X117833000Y-78338000D01*
X117835000Y-78340000D01*
X117837000Y-78342000D01*
X117839000Y-78344000D01*
X117840000Y-78346000D01*
X117842000Y-78348000D01*
X117843000Y-78350000D01*
X117845000Y-78352000D01*
X117846000Y-78355000D01*
X117847000Y-78357000D01*
X117848000Y-78360000D01*
X117848000Y-78362000D01*
X117849000Y-78365000D01*
X117849000Y-78367000D01*
X117850000Y-78370000D01*
X117850000Y-78372000D01*
X117850000Y-78375000D01*
X117850000Y-78575000D01*
X117850000Y-78578000D01*
X117850000Y-78580000D01*
X117849000Y-78583000D01*
X117849000Y-78585000D01*
X117848000Y-78588000D01*
X117848000Y-78590000D01*
X117847000Y-78593000D01*
X117846000Y-78595000D01*
X117845000Y-78598000D01*
X117843000Y-78600000D01*
X117842000Y-78602000D01*
X117840000Y-78604000D01*
X117839000Y-78606000D01*
X117837000Y-78608000D01*
X117835000Y-78610000D01*
X117833000Y-78612000D01*
X117831000Y-78614000D01*
X117829000Y-78615000D01*
X117827000Y-78617000D01*
X117825000Y-78618000D01*
X117823000Y-78620000D01*
X117820000Y-78621000D01*
X117818000Y-78622000D01*
X117815000Y-78623000D01*
X117813000Y-78623000D01*
X117810000Y-78624000D01*
X117808000Y-78624000D01*
X117805000Y-78625000D01*
X117803000Y-78625000D01*
X117800000Y-78625000D01*
X117300000Y-78625000D01*
X117297000Y-78625000D01*
X117295000Y-78625000D01*
X117292000Y-78624000D01*
X117290000Y-78624000D01*
X117287000Y-78623000D01*
X117285000Y-78623000D01*
X117282000Y-78622000D01*
X117280000Y-78621000D01*
X117277000Y-78620000D01*
X117275000Y-78618000D01*
X117273000Y-78617000D01*
X117271000Y-78615000D01*
X117269000Y-78614000D01*
X117267000Y-78612000D01*
X117265000Y-78610000D01*
X117263000Y-78608000D01*
X117261000Y-78606000D01*
X117260000Y-78604000D01*
X117258000Y-78602000D01*
X117257000Y-78600000D01*
X117255000Y-78598000D01*
X117254000Y-78595000D01*
X117253000Y-78593000D01*
X117252000Y-78590000D01*
X117252000Y-78588000D01*
X117251000Y-78585000D01*
X117251000Y-78583000D01*
X117250000Y-78580000D01*
X117250000Y-78578000D01*
X117250000Y-78575000D01*
X117250000Y-78375000D01*
X117250000Y-78372000D01*
X117250000Y-78370000D01*
X117251000Y-78367000D01*
X117251000Y-78365000D01*
X117252000Y-78362000D01*
X117252000Y-78360000D01*
X117253000Y-78357000D01*
X117254000Y-78355000D01*
X117255000Y-78352000D01*
X117257000Y-78350000D01*
X117258000Y-78348000D01*
X117260000Y-78346000D01*
X117261000Y-78344000D01*
X117263000Y-78342000D01*
X117265000Y-78340000D01*
X117267000Y-78338000D01*
X117269000Y-78336000D01*
X117271000Y-78335000D01*
X117273000Y-78333000D01*
X117275000Y-78332000D01*
X117277000Y-78330000D01*
X117280000Y-78329000D01*
X117282000Y-78328000D01*
X117285000Y-78327000D01*
X117287000Y-78327000D01*
X117290000Y-78326000D01*
X117292000Y-78326000D01*
X117295000Y-78325000D01*
X117297000Y-78325000D01*
X117300000Y-78325000D01*
X117800000Y-78325000D01*
X117803000Y-78325000D01*
X117805000Y-78325000D01*
X117808000Y-78326000D01*
G36*
X117808000Y-78326000D02*
G01*
X117810000Y-78326000D01*
X117813000Y-78327000D01*
X117815000Y-78327000D01*
X117818000Y-78328000D01*
X117820000Y-78329000D01*
X117823000Y-78330000D01*
X117825000Y-78332000D01*
X117827000Y-78333000D01*
X117829000Y-78335000D01*
X117831000Y-78336000D01*
X117833000Y-78338000D01*
X117835000Y-78340000D01*
X117837000Y-78342000D01*
X117839000Y-78344000D01*
X117840000Y-78346000D01*
X117842000Y-78348000D01*
X117843000Y-78350000D01*
X117845000Y-78352000D01*
X117846000Y-78355000D01*
X117847000Y-78357000D01*
X117848000Y-78360000D01*
X117848000Y-78362000D01*
X117849000Y-78365000D01*
X117849000Y-78367000D01*
X117850000Y-78370000D01*
X117850000Y-78372000D01*
X117850000Y-78375000D01*
X117850000Y-78575000D01*
X117850000Y-78578000D01*
X117850000Y-78580000D01*
X117849000Y-78583000D01*
X117849000Y-78585000D01*
X117848000Y-78588000D01*
X117848000Y-78590000D01*
X117847000Y-78593000D01*
X117846000Y-78595000D01*
X117845000Y-78598000D01*
X117843000Y-78600000D01*
X117842000Y-78602000D01*
X117840000Y-78604000D01*
X117839000Y-78606000D01*
X117837000Y-78608000D01*
X117835000Y-78610000D01*
X117833000Y-78612000D01*
X117831000Y-78614000D01*
X117829000Y-78615000D01*
X117827000Y-78617000D01*
X117825000Y-78618000D01*
X117823000Y-78620000D01*
X117820000Y-78621000D01*
X117818000Y-78622000D01*
X117815000Y-78623000D01*
X117813000Y-78623000D01*
X117810000Y-78624000D01*
X117808000Y-78624000D01*
X117805000Y-78625000D01*
X117803000Y-78625000D01*
X117800000Y-78625000D01*
X117300000Y-78625000D01*
X117297000Y-78625000D01*
X117295000Y-78625000D01*
X117292000Y-78624000D01*
X117290000Y-78624000D01*
X117287000Y-78623000D01*
X117285000Y-78623000D01*
X117282000Y-78622000D01*
X117280000Y-78621000D01*
X117277000Y-78620000D01*
X117275000Y-78618000D01*
X117273000Y-78617000D01*
X117271000Y-78615000D01*
X117269000Y-78614000D01*
X117267000Y-78612000D01*
X117265000Y-78610000D01*
X117263000Y-78608000D01*
X117261000Y-78606000D01*
X117260000Y-78604000D01*
X117258000Y-78602000D01*
X117257000Y-78600000D01*
X117255000Y-78598000D01*
X117254000Y-78595000D01*
X117253000Y-78593000D01*
X117252000Y-78590000D01*
X117252000Y-78588000D01*
X117251000Y-78585000D01*
X117251000Y-78583000D01*
X117250000Y-78580000D01*
X117250000Y-78578000D01*
X117250000Y-78575000D01*
X117250000Y-78375000D01*
X117250000Y-78372000D01*
X117250000Y-78370000D01*
X117251000Y-78367000D01*
X117251000Y-78365000D01*
X117252000Y-78362000D01*
X117252000Y-78360000D01*
X117253000Y-78357000D01*
X117254000Y-78355000D01*
X117255000Y-78352000D01*
X117257000Y-78350000D01*
X117258000Y-78348000D01*
X117260000Y-78346000D01*
X117261000Y-78344000D01*
X117263000Y-78342000D01*
X117265000Y-78340000D01*
X117267000Y-78338000D01*
X117269000Y-78336000D01*
X117271000Y-78335000D01*
X117273000Y-78333000D01*
X117275000Y-78332000D01*
X117277000Y-78330000D01*
X117280000Y-78329000D01*
X117282000Y-78328000D01*
X117285000Y-78327000D01*
X117287000Y-78327000D01*
X117290000Y-78326000D01*
X117292000Y-78326000D01*
X117295000Y-78325000D01*
X117297000Y-78325000D01*
X117300000Y-78325000D01*
X117800000Y-78325000D01*
X117803000Y-78325000D01*
X117805000Y-78325000D01*
X117808000Y-78326000D01*
G37*
X117808000Y-78976000D02*
X117810000Y-78976000D01*
X117813000Y-78977000D01*
X117815000Y-78977000D01*
X117818000Y-78978000D01*
X117820000Y-78979000D01*
X117823000Y-78980000D01*
X117825000Y-78982000D01*
X117827000Y-78983000D01*
X117829000Y-78985000D01*
X117831000Y-78986000D01*
X117833000Y-78988000D01*
X117835000Y-78990000D01*
X117837000Y-78992000D01*
X117839000Y-78994000D01*
X117840000Y-78996000D01*
X117842000Y-78998000D01*
X117843000Y-79000000D01*
X117845000Y-79002000D01*
X117846000Y-79005000D01*
X117847000Y-79007000D01*
X117848000Y-79010000D01*
X117848000Y-79012000D01*
X117849000Y-79015000D01*
X117849000Y-79017000D01*
X117850000Y-79020000D01*
X117850000Y-79022000D01*
X117850000Y-79025000D01*
X117850000Y-79225000D01*
X117850000Y-79228000D01*
X117850000Y-79230000D01*
X117849000Y-79233000D01*
X117849000Y-79235000D01*
X117848000Y-79238000D01*
X117848000Y-79240000D01*
X117847000Y-79243000D01*
X117846000Y-79245000D01*
X117845000Y-79248000D01*
X117843000Y-79250000D01*
X117842000Y-79252000D01*
X117840000Y-79254000D01*
X117839000Y-79256000D01*
X117837000Y-79258000D01*
X117835000Y-79260000D01*
X117833000Y-79262000D01*
X117831000Y-79264000D01*
X117829000Y-79265000D01*
X117827000Y-79267000D01*
X117825000Y-79268000D01*
X117823000Y-79270000D01*
X117820000Y-79271000D01*
X117818000Y-79272000D01*
X117815000Y-79273000D01*
X117813000Y-79273000D01*
X117810000Y-79274000D01*
X117808000Y-79274000D01*
X117805000Y-79275000D01*
X117803000Y-79275000D01*
X117800000Y-79275000D01*
X117300000Y-79275000D01*
X117297000Y-79275000D01*
X117295000Y-79275000D01*
X117292000Y-79274000D01*
X117290000Y-79274000D01*
X117287000Y-79273000D01*
X117285000Y-79273000D01*
X117282000Y-79272000D01*
X117280000Y-79271000D01*
X117277000Y-79270000D01*
X117275000Y-79268000D01*
X117273000Y-79267000D01*
X117271000Y-79265000D01*
X117269000Y-79264000D01*
X117267000Y-79262000D01*
X117265000Y-79260000D01*
X117263000Y-79258000D01*
X117261000Y-79256000D01*
X117260000Y-79254000D01*
X117258000Y-79252000D01*
X117257000Y-79250000D01*
X117255000Y-79248000D01*
X117254000Y-79245000D01*
X117253000Y-79243000D01*
X117252000Y-79240000D01*
X117252000Y-79238000D01*
X117251000Y-79235000D01*
X117251000Y-79233000D01*
X117250000Y-79230000D01*
X117250000Y-79228000D01*
X117250000Y-79225000D01*
X117250000Y-79025000D01*
X117250000Y-79022000D01*
X117250000Y-79020000D01*
X117251000Y-79017000D01*
X117251000Y-79015000D01*
X117252000Y-79012000D01*
X117252000Y-79010000D01*
X117253000Y-79007000D01*
X117254000Y-79005000D01*
X117255000Y-79002000D01*
X117257000Y-79000000D01*
X117258000Y-78998000D01*
X117260000Y-78996000D01*
X117261000Y-78994000D01*
X117263000Y-78992000D01*
X117265000Y-78990000D01*
X117267000Y-78988000D01*
X117269000Y-78986000D01*
X117271000Y-78985000D01*
X117273000Y-78983000D01*
X117275000Y-78982000D01*
X117277000Y-78980000D01*
X117280000Y-78979000D01*
X117282000Y-78978000D01*
X117285000Y-78977000D01*
X117287000Y-78977000D01*
X117290000Y-78976000D01*
X117292000Y-78976000D01*
X117295000Y-78975000D01*
X117297000Y-78975000D01*
X117300000Y-78975000D01*
X117800000Y-78975000D01*
X117803000Y-78975000D01*
X117805000Y-78975000D01*
X117808000Y-78976000D01*
G36*
X117808000Y-78976000D02*
G01*
X117810000Y-78976000D01*
X117813000Y-78977000D01*
X117815000Y-78977000D01*
X117818000Y-78978000D01*
X117820000Y-78979000D01*
X117823000Y-78980000D01*
X117825000Y-78982000D01*
X117827000Y-78983000D01*
X117829000Y-78985000D01*
X117831000Y-78986000D01*
X117833000Y-78988000D01*
X117835000Y-78990000D01*
X117837000Y-78992000D01*
X117839000Y-78994000D01*
X117840000Y-78996000D01*
X117842000Y-78998000D01*
X117843000Y-79000000D01*
X117845000Y-79002000D01*
X117846000Y-79005000D01*
X117847000Y-79007000D01*
X117848000Y-79010000D01*
X117848000Y-79012000D01*
X117849000Y-79015000D01*
X117849000Y-79017000D01*
X117850000Y-79020000D01*
X117850000Y-79022000D01*
X117850000Y-79025000D01*
X117850000Y-79225000D01*
X117850000Y-79228000D01*
X117850000Y-79230000D01*
X117849000Y-79233000D01*
X117849000Y-79235000D01*
X117848000Y-79238000D01*
X117848000Y-79240000D01*
X117847000Y-79243000D01*
X117846000Y-79245000D01*
X117845000Y-79248000D01*
X117843000Y-79250000D01*
X117842000Y-79252000D01*
X117840000Y-79254000D01*
X117839000Y-79256000D01*
X117837000Y-79258000D01*
X117835000Y-79260000D01*
X117833000Y-79262000D01*
X117831000Y-79264000D01*
X117829000Y-79265000D01*
X117827000Y-79267000D01*
X117825000Y-79268000D01*
X117823000Y-79270000D01*
X117820000Y-79271000D01*
X117818000Y-79272000D01*
X117815000Y-79273000D01*
X117813000Y-79273000D01*
X117810000Y-79274000D01*
X117808000Y-79274000D01*
X117805000Y-79275000D01*
X117803000Y-79275000D01*
X117800000Y-79275000D01*
X117300000Y-79275000D01*
X117297000Y-79275000D01*
X117295000Y-79275000D01*
X117292000Y-79274000D01*
X117290000Y-79274000D01*
X117287000Y-79273000D01*
X117285000Y-79273000D01*
X117282000Y-79272000D01*
X117280000Y-79271000D01*
X117277000Y-79270000D01*
X117275000Y-79268000D01*
X117273000Y-79267000D01*
X117271000Y-79265000D01*
X117269000Y-79264000D01*
X117267000Y-79262000D01*
X117265000Y-79260000D01*
X117263000Y-79258000D01*
X117261000Y-79256000D01*
X117260000Y-79254000D01*
X117258000Y-79252000D01*
X117257000Y-79250000D01*
X117255000Y-79248000D01*
X117254000Y-79245000D01*
X117253000Y-79243000D01*
X117252000Y-79240000D01*
X117252000Y-79238000D01*
X117251000Y-79235000D01*
X117251000Y-79233000D01*
X117250000Y-79230000D01*
X117250000Y-79228000D01*
X117250000Y-79225000D01*
X117250000Y-79025000D01*
X117250000Y-79022000D01*
X117250000Y-79020000D01*
X117251000Y-79017000D01*
X117251000Y-79015000D01*
X117252000Y-79012000D01*
X117252000Y-79010000D01*
X117253000Y-79007000D01*
X117254000Y-79005000D01*
X117255000Y-79002000D01*
X117257000Y-79000000D01*
X117258000Y-78998000D01*
X117260000Y-78996000D01*
X117261000Y-78994000D01*
X117263000Y-78992000D01*
X117265000Y-78990000D01*
X117267000Y-78988000D01*
X117269000Y-78986000D01*
X117271000Y-78985000D01*
X117273000Y-78983000D01*
X117275000Y-78982000D01*
X117277000Y-78980000D01*
X117280000Y-78979000D01*
X117282000Y-78978000D01*
X117285000Y-78977000D01*
X117287000Y-78977000D01*
X117290000Y-78976000D01*
X117292000Y-78976000D01*
X117295000Y-78975000D01*
X117297000Y-78975000D01*
X117300000Y-78975000D01*
X117800000Y-78975000D01*
X117803000Y-78975000D01*
X117805000Y-78975000D01*
X117808000Y-78976000D01*
G37*
X117808000Y-79626000D02*
X117810000Y-79626000D01*
X117813000Y-79627000D01*
X117815000Y-79627000D01*
X117818000Y-79628000D01*
X117820000Y-79629000D01*
X117823000Y-79630000D01*
X117825000Y-79632000D01*
X117827000Y-79633000D01*
X117829000Y-79635000D01*
X117831000Y-79636000D01*
X117833000Y-79638000D01*
X117835000Y-79640000D01*
X117837000Y-79642000D01*
X117839000Y-79644000D01*
X117840000Y-79646000D01*
X117842000Y-79648000D01*
X117843000Y-79650000D01*
X117845000Y-79652000D01*
X117846000Y-79655000D01*
X117847000Y-79657000D01*
X117848000Y-79660000D01*
X117848000Y-79662000D01*
X117849000Y-79665000D01*
X117849000Y-79667000D01*
X117850000Y-79670000D01*
X117850000Y-79672000D01*
X117850000Y-79675000D01*
X117850000Y-79875000D01*
X117850000Y-79878000D01*
X117850000Y-79880000D01*
X117849000Y-79883000D01*
X117849000Y-79885000D01*
X117848000Y-79888000D01*
X117848000Y-79890000D01*
X117847000Y-79893000D01*
X117846000Y-79895000D01*
X117845000Y-79898000D01*
X117843000Y-79900000D01*
X117842000Y-79902000D01*
X117840000Y-79904000D01*
X117839000Y-79906000D01*
X117837000Y-79908000D01*
X117835000Y-79910000D01*
X117833000Y-79912000D01*
X117831000Y-79914000D01*
X117829000Y-79915000D01*
X117827000Y-79917000D01*
X117825000Y-79918000D01*
X117823000Y-79920000D01*
X117820000Y-79921000D01*
X117818000Y-79922000D01*
X117815000Y-79923000D01*
X117813000Y-79923000D01*
X117810000Y-79924000D01*
X117808000Y-79924000D01*
X117805000Y-79925000D01*
X117803000Y-79925000D01*
X117800000Y-79925000D01*
X117300000Y-79925000D01*
X117297000Y-79925000D01*
X117295000Y-79925000D01*
X117292000Y-79924000D01*
X117290000Y-79924000D01*
X117287000Y-79923000D01*
X117285000Y-79923000D01*
X117282000Y-79922000D01*
X117280000Y-79921000D01*
X117277000Y-79920000D01*
X117275000Y-79918000D01*
X117273000Y-79917000D01*
X117271000Y-79915000D01*
X117269000Y-79914000D01*
X117267000Y-79912000D01*
X117265000Y-79910000D01*
X117263000Y-79908000D01*
X117261000Y-79906000D01*
X117260000Y-79904000D01*
X117258000Y-79902000D01*
X117257000Y-79900000D01*
X117255000Y-79898000D01*
X117254000Y-79895000D01*
X117253000Y-79893000D01*
X117252000Y-79890000D01*
X117252000Y-79888000D01*
X117251000Y-79885000D01*
X117251000Y-79883000D01*
X117250000Y-79880000D01*
X117250000Y-79878000D01*
X117250000Y-79875000D01*
X117250000Y-79675000D01*
X117250000Y-79672000D01*
X117250000Y-79670000D01*
X117251000Y-79667000D01*
X117251000Y-79665000D01*
X117252000Y-79662000D01*
X117252000Y-79660000D01*
X117253000Y-79657000D01*
X117254000Y-79655000D01*
X117255000Y-79652000D01*
X117257000Y-79650000D01*
X117258000Y-79648000D01*
X117260000Y-79646000D01*
X117261000Y-79644000D01*
X117263000Y-79642000D01*
X117265000Y-79640000D01*
X117267000Y-79638000D01*
X117269000Y-79636000D01*
X117271000Y-79635000D01*
X117273000Y-79633000D01*
X117275000Y-79632000D01*
X117277000Y-79630000D01*
X117280000Y-79629000D01*
X117282000Y-79628000D01*
X117285000Y-79627000D01*
X117287000Y-79627000D01*
X117290000Y-79626000D01*
X117292000Y-79626000D01*
X117295000Y-79625000D01*
X117297000Y-79625000D01*
X117300000Y-79625000D01*
X117800000Y-79625000D01*
X117803000Y-79625000D01*
X117805000Y-79625000D01*
X117808000Y-79626000D01*
G36*
X117808000Y-79626000D02*
G01*
X117810000Y-79626000D01*
X117813000Y-79627000D01*
X117815000Y-79627000D01*
X117818000Y-79628000D01*
X117820000Y-79629000D01*
X117823000Y-79630000D01*
X117825000Y-79632000D01*
X117827000Y-79633000D01*
X117829000Y-79635000D01*
X117831000Y-79636000D01*
X117833000Y-79638000D01*
X117835000Y-79640000D01*
X117837000Y-79642000D01*
X117839000Y-79644000D01*
X117840000Y-79646000D01*
X117842000Y-79648000D01*
X117843000Y-79650000D01*
X117845000Y-79652000D01*
X117846000Y-79655000D01*
X117847000Y-79657000D01*
X117848000Y-79660000D01*
X117848000Y-79662000D01*
X117849000Y-79665000D01*
X117849000Y-79667000D01*
X117850000Y-79670000D01*
X117850000Y-79672000D01*
X117850000Y-79675000D01*
X117850000Y-79875000D01*
X117850000Y-79878000D01*
X117850000Y-79880000D01*
X117849000Y-79883000D01*
X117849000Y-79885000D01*
X117848000Y-79888000D01*
X117848000Y-79890000D01*
X117847000Y-79893000D01*
X117846000Y-79895000D01*
X117845000Y-79898000D01*
X117843000Y-79900000D01*
X117842000Y-79902000D01*
X117840000Y-79904000D01*
X117839000Y-79906000D01*
X117837000Y-79908000D01*
X117835000Y-79910000D01*
X117833000Y-79912000D01*
X117831000Y-79914000D01*
X117829000Y-79915000D01*
X117827000Y-79917000D01*
X117825000Y-79918000D01*
X117823000Y-79920000D01*
X117820000Y-79921000D01*
X117818000Y-79922000D01*
X117815000Y-79923000D01*
X117813000Y-79923000D01*
X117810000Y-79924000D01*
X117808000Y-79924000D01*
X117805000Y-79925000D01*
X117803000Y-79925000D01*
X117800000Y-79925000D01*
X117300000Y-79925000D01*
X117297000Y-79925000D01*
X117295000Y-79925000D01*
X117292000Y-79924000D01*
X117290000Y-79924000D01*
X117287000Y-79923000D01*
X117285000Y-79923000D01*
X117282000Y-79922000D01*
X117280000Y-79921000D01*
X117277000Y-79920000D01*
X117275000Y-79918000D01*
X117273000Y-79917000D01*
X117271000Y-79915000D01*
X117269000Y-79914000D01*
X117267000Y-79912000D01*
X117265000Y-79910000D01*
X117263000Y-79908000D01*
X117261000Y-79906000D01*
X117260000Y-79904000D01*
X117258000Y-79902000D01*
X117257000Y-79900000D01*
X117255000Y-79898000D01*
X117254000Y-79895000D01*
X117253000Y-79893000D01*
X117252000Y-79890000D01*
X117252000Y-79888000D01*
X117251000Y-79885000D01*
X117251000Y-79883000D01*
X117250000Y-79880000D01*
X117250000Y-79878000D01*
X117250000Y-79875000D01*
X117250000Y-79675000D01*
X117250000Y-79672000D01*
X117250000Y-79670000D01*
X117251000Y-79667000D01*
X117251000Y-79665000D01*
X117252000Y-79662000D01*
X117252000Y-79660000D01*
X117253000Y-79657000D01*
X117254000Y-79655000D01*
X117255000Y-79652000D01*
X117257000Y-79650000D01*
X117258000Y-79648000D01*
X117260000Y-79646000D01*
X117261000Y-79644000D01*
X117263000Y-79642000D01*
X117265000Y-79640000D01*
X117267000Y-79638000D01*
X117269000Y-79636000D01*
X117271000Y-79635000D01*
X117273000Y-79633000D01*
X117275000Y-79632000D01*
X117277000Y-79630000D01*
X117280000Y-79629000D01*
X117282000Y-79628000D01*
X117285000Y-79627000D01*
X117287000Y-79627000D01*
X117290000Y-79626000D01*
X117292000Y-79626000D01*
X117295000Y-79625000D01*
X117297000Y-79625000D01*
X117300000Y-79625000D01*
X117800000Y-79625000D01*
X117803000Y-79625000D01*
X117805000Y-79625000D01*
X117808000Y-79626000D01*
G37*
X115613000Y-77576000D02*
X115616000Y-77576000D01*
X115618000Y-77577000D01*
X115621000Y-77577000D01*
X115623000Y-77578000D01*
X115626000Y-77579000D01*
X115628000Y-77580000D01*
X115631000Y-77582000D01*
X115633000Y-77583000D01*
X115635000Y-77585000D01*
X115637000Y-77586000D01*
X115639000Y-77588000D01*
X115641000Y-77590000D01*
X115643000Y-77592000D01*
X115644000Y-77594000D01*
X115646000Y-77596000D01*
X115647000Y-77598000D01*
X115649000Y-77600000D01*
X115650000Y-77602000D01*
X115651000Y-77605000D01*
X115652000Y-77607000D01*
X115653000Y-77610000D01*
X115654000Y-77612000D01*
X115654000Y-77615000D01*
X115655000Y-77617000D01*
X115655000Y-77620000D01*
X115655000Y-77622000D01*
X115656000Y-77625000D01*
X115656000Y-78650000D01*
X115655000Y-78653000D01*
X115655000Y-78655000D01*
X115655000Y-78658000D01*
X115654000Y-78660000D01*
X115654000Y-78663000D01*
X115653000Y-78665000D01*
X115652000Y-78668000D01*
X115651000Y-78670000D01*
X115650000Y-78673000D01*
X115649000Y-78675000D01*
X115647000Y-78677000D01*
X115646000Y-78679000D01*
X115644000Y-78681000D01*
X115643000Y-78683000D01*
X115641000Y-78685000D01*
X115639000Y-78687000D01*
X115637000Y-78689000D01*
X115635000Y-78690000D01*
X115633000Y-78692000D01*
X115631000Y-78693000D01*
X115628000Y-78695000D01*
X115626000Y-78696000D01*
X115623000Y-78697000D01*
X115621000Y-78698000D01*
X115618000Y-78698000D01*
X115616000Y-78699000D01*
X115613000Y-78699000D01*
X115611000Y-78700000D01*
X115608000Y-78700000D01*
X115605000Y-78700000D01*
X115000000Y-78700000D01*
X114998000Y-78700000D01*
X114995000Y-78700000D01*
X114993000Y-78699000D01*
X114990000Y-78699000D01*
X114988000Y-78698000D01*
X114985000Y-78698000D01*
X114983000Y-78697000D01*
X114980000Y-78696000D01*
X114978000Y-78695000D01*
X114975000Y-78693000D01*
X114973000Y-78692000D01*
X114971000Y-78690000D01*
X114969000Y-78689000D01*
X114967000Y-78687000D01*
X114965000Y-78685000D01*
X114963000Y-78683000D01*
X114962000Y-78681000D01*
X114960000Y-78679000D01*
X114959000Y-78677000D01*
X114957000Y-78675000D01*
X114956000Y-78673000D01*
X114955000Y-78670000D01*
X114954000Y-78668000D01*
X114953000Y-78665000D01*
X114952000Y-78663000D01*
X114952000Y-78660000D01*
X114951000Y-78658000D01*
X114951000Y-78655000D01*
X114951000Y-78653000D01*
X114950000Y-78650000D01*
X114950000Y-77625000D01*
X114951000Y-77622000D01*
X114951000Y-77620000D01*
X114951000Y-77617000D01*
X114952000Y-77615000D01*
X114952000Y-77612000D01*
X114953000Y-77610000D01*
X114954000Y-77607000D01*
X114955000Y-77605000D01*
X114956000Y-77602000D01*
X114957000Y-77600000D01*
X114959000Y-77598000D01*
X114960000Y-77596000D01*
X114962000Y-77594000D01*
X114963000Y-77592000D01*
X114965000Y-77590000D01*
X114967000Y-77588000D01*
X114969000Y-77586000D01*
X114971000Y-77585000D01*
X114973000Y-77583000D01*
X114975000Y-77582000D01*
X114978000Y-77580000D01*
X114980000Y-77579000D01*
X114983000Y-77578000D01*
X114985000Y-77577000D01*
X114988000Y-77577000D01*
X114990000Y-77576000D01*
X114993000Y-77576000D01*
X114995000Y-77575000D01*
X114998000Y-77575000D01*
X115000000Y-77575000D01*
X115000500Y-77575000D01*
X115605000Y-77575000D01*
X115608000Y-77575000D01*
X115611000Y-77575000D01*
X115613000Y-77576000D01*
G36*
X115613000Y-77576000D02*
G01*
X115616000Y-77576000D01*
X115618000Y-77577000D01*
X115621000Y-77577000D01*
X115623000Y-77578000D01*
X115626000Y-77579000D01*
X115628000Y-77580000D01*
X115631000Y-77582000D01*
X115633000Y-77583000D01*
X115635000Y-77585000D01*
X115637000Y-77586000D01*
X115639000Y-77588000D01*
X115641000Y-77590000D01*
X115643000Y-77592000D01*
X115644000Y-77594000D01*
X115646000Y-77596000D01*
X115647000Y-77598000D01*
X115649000Y-77600000D01*
X115650000Y-77602000D01*
X115651000Y-77605000D01*
X115652000Y-77607000D01*
X115653000Y-77610000D01*
X115654000Y-77612000D01*
X115654000Y-77615000D01*
X115655000Y-77617000D01*
X115655000Y-77620000D01*
X115655000Y-77622000D01*
X115656000Y-77625000D01*
X115656000Y-78650000D01*
X115655000Y-78653000D01*
X115655000Y-78655000D01*
X115655000Y-78658000D01*
X115654000Y-78660000D01*
X115654000Y-78663000D01*
X115653000Y-78665000D01*
X115652000Y-78668000D01*
X115651000Y-78670000D01*
X115650000Y-78673000D01*
X115649000Y-78675000D01*
X115647000Y-78677000D01*
X115646000Y-78679000D01*
X115644000Y-78681000D01*
X115643000Y-78683000D01*
X115641000Y-78685000D01*
X115639000Y-78687000D01*
X115637000Y-78689000D01*
X115635000Y-78690000D01*
X115633000Y-78692000D01*
X115631000Y-78693000D01*
X115628000Y-78695000D01*
X115626000Y-78696000D01*
X115623000Y-78697000D01*
X115621000Y-78698000D01*
X115618000Y-78698000D01*
X115616000Y-78699000D01*
X115613000Y-78699000D01*
X115611000Y-78700000D01*
X115608000Y-78700000D01*
X115605000Y-78700000D01*
X115000000Y-78700000D01*
X114998000Y-78700000D01*
X114995000Y-78700000D01*
X114993000Y-78699000D01*
X114990000Y-78699000D01*
X114988000Y-78698000D01*
X114985000Y-78698000D01*
X114983000Y-78697000D01*
X114980000Y-78696000D01*
X114978000Y-78695000D01*
X114975000Y-78693000D01*
X114973000Y-78692000D01*
X114971000Y-78690000D01*
X114969000Y-78689000D01*
X114967000Y-78687000D01*
X114965000Y-78685000D01*
X114963000Y-78683000D01*
X114962000Y-78681000D01*
X114960000Y-78679000D01*
X114959000Y-78677000D01*
X114957000Y-78675000D01*
X114956000Y-78673000D01*
X114955000Y-78670000D01*
X114954000Y-78668000D01*
X114953000Y-78665000D01*
X114952000Y-78663000D01*
X114952000Y-78660000D01*
X114951000Y-78658000D01*
X114951000Y-78655000D01*
X114951000Y-78653000D01*
X114950000Y-78650000D01*
X114950000Y-77625000D01*
X114951000Y-77622000D01*
X114951000Y-77620000D01*
X114951000Y-77617000D01*
X114952000Y-77615000D01*
X114952000Y-77612000D01*
X114953000Y-77610000D01*
X114954000Y-77607000D01*
X114955000Y-77605000D01*
X114956000Y-77602000D01*
X114957000Y-77600000D01*
X114959000Y-77598000D01*
X114960000Y-77596000D01*
X114962000Y-77594000D01*
X114963000Y-77592000D01*
X114965000Y-77590000D01*
X114967000Y-77588000D01*
X114969000Y-77586000D01*
X114971000Y-77585000D01*
X114973000Y-77583000D01*
X114975000Y-77582000D01*
X114978000Y-77580000D01*
X114980000Y-77579000D01*
X114983000Y-77578000D01*
X114985000Y-77577000D01*
X114988000Y-77577000D01*
X114990000Y-77576000D01*
X114993000Y-77576000D01*
X114995000Y-77575000D01*
X114998000Y-77575000D01*
X115000000Y-77575000D01*
X115000500Y-77575000D01*
X115605000Y-77575000D01*
X115608000Y-77575000D01*
X115611000Y-77575000D01*
X115613000Y-77576000D01*
G37*
X115613000Y-78901000D02*
X115616000Y-78901000D01*
X115618000Y-78902000D01*
X115621000Y-78902000D01*
X115623000Y-78903000D01*
X115626000Y-78904000D01*
X115628000Y-78905000D01*
X115631000Y-78907000D01*
X115633000Y-78908000D01*
X115635000Y-78910000D01*
X115637000Y-78911000D01*
X115639000Y-78913000D01*
X115641000Y-78915000D01*
X115643000Y-78917000D01*
X115644000Y-78919000D01*
X115646000Y-78921000D01*
X115647000Y-78923000D01*
X115649000Y-78925000D01*
X115650000Y-78927000D01*
X115651000Y-78930000D01*
X115652000Y-78932000D01*
X115653000Y-78935000D01*
X115654000Y-78937000D01*
X115654000Y-78940000D01*
X115655000Y-78942000D01*
X115655000Y-78945000D01*
X115655000Y-78947000D01*
X115656000Y-78950000D01*
X115656000Y-79975000D01*
X115655000Y-79978000D01*
X115655000Y-79980000D01*
X115655000Y-79983000D01*
X115654000Y-79985000D01*
X115654000Y-79988000D01*
X115653000Y-79990000D01*
X115652000Y-79993000D01*
X115651000Y-79995000D01*
X115650000Y-79998000D01*
X115649000Y-80000000D01*
X115647000Y-80002000D01*
X115646000Y-80004000D01*
X115644000Y-80006000D01*
X115643000Y-80008000D01*
X115641000Y-80010000D01*
X115639000Y-80012000D01*
X115637000Y-80014000D01*
X115635000Y-80015000D01*
X115633000Y-80017000D01*
X115631000Y-80018000D01*
X115628000Y-80020000D01*
X115626000Y-80021000D01*
X115623000Y-80022000D01*
X115621000Y-80023000D01*
X115618000Y-80023000D01*
X115616000Y-80024000D01*
X115613000Y-80024000D01*
X115611000Y-80025000D01*
X115608000Y-80025000D01*
X115605000Y-80025000D01*
X115000000Y-80025000D01*
X114998000Y-80025000D01*
X114995000Y-80025000D01*
X114993000Y-80024000D01*
X114990000Y-80024000D01*
X114988000Y-80023000D01*
X114985000Y-80023000D01*
X114983000Y-80022000D01*
X114980000Y-80021000D01*
X114978000Y-80020000D01*
X114975000Y-80018000D01*
X114973000Y-80017000D01*
X114971000Y-80015000D01*
X114969000Y-80014000D01*
X114967000Y-80012000D01*
X114965000Y-80010000D01*
X114963000Y-80008000D01*
X114962000Y-80006000D01*
X114960000Y-80004000D01*
X114959000Y-80002000D01*
X114957000Y-80000000D01*
X114956000Y-79998000D01*
X114955000Y-79995000D01*
X114954000Y-79993000D01*
X114953000Y-79990000D01*
X114952000Y-79988000D01*
X114952000Y-79985000D01*
X114951000Y-79983000D01*
X114951000Y-79980000D01*
X114951000Y-79978000D01*
X114950000Y-79975000D01*
X114950000Y-78950000D01*
X114951000Y-78947000D01*
X114951000Y-78945000D01*
X114951000Y-78942000D01*
X114952000Y-78940000D01*
X114952000Y-78937000D01*
X114953000Y-78935000D01*
X114954000Y-78932000D01*
X114955000Y-78930000D01*
X114956000Y-78927000D01*
X114957000Y-78925000D01*
X114959000Y-78923000D01*
X114960000Y-78921000D01*
X114962000Y-78919000D01*
X114963000Y-78917000D01*
X114965000Y-78915000D01*
X114967000Y-78913000D01*
X114969000Y-78911000D01*
X114971000Y-78910000D01*
X114973000Y-78908000D01*
X114975000Y-78907000D01*
X114978000Y-78905000D01*
X114980000Y-78904000D01*
X114983000Y-78903000D01*
X114985000Y-78902000D01*
X114988000Y-78902000D01*
X114990000Y-78901000D01*
X114993000Y-78901000D01*
X114995000Y-78900000D01*
X114998000Y-78900000D01*
X115000000Y-78900000D01*
X115000500Y-78900000D01*
X115605000Y-78900000D01*
X115608000Y-78900000D01*
X115611000Y-78900000D01*
X115613000Y-78901000D01*
G36*
X115613000Y-78901000D02*
G01*
X115616000Y-78901000D01*
X115618000Y-78902000D01*
X115621000Y-78902000D01*
X115623000Y-78903000D01*
X115626000Y-78904000D01*
X115628000Y-78905000D01*
X115631000Y-78907000D01*
X115633000Y-78908000D01*
X115635000Y-78910000D01*
X115637000Y-78911000D01*
X115639000Y-78913000D01*
X115641000Y-78915000D01*
X115643000Y-78917000D01*
X115644000Y-78919000D01*
X115646000Y-78921000D01*
X115647000Y-78923000D01*
X115649000Y-78925000D01*
X115650000Y-78927000D01*
X115651000Y-78930000D01*
X115652000Y-78932000D01*
X115653000Y-78935000D01*
X115654000Y-78937000D01*
X115654000Y-78940000D01*
X115655000Y-78942000D01*
X115655000Y-78945000D01*
X115655000Y-78947000D01*
X115656000Y-78950000D01*
X115656000Y-79975000D01*
X115655000Y-79978000D01*
X115655000Y-79980000D01*
X115655000Y-79983000D01*
X115654000Y-79985000D01*
X115654000Y-79988000D01*
X115653000Y-79990000D01*
X115652000Y-79993000D01*
X115651000Y-79995000D01*
X115650000Y-79998000D01*
X115649000Y-80000000D01*
X115647000Y-80002000D01*
X115646000Y-80004000D01*
X115644000Y-80006000D01*
X115643000Y-80008000D01*
X115641000Y-80010000D01*
X115639000Y-80012000D01*
X115637000Y-80014000D01*
X115635000Y-80015000D01*
X115633000Y-80017000D01*
X115631000Y-80018000D01*
X115628000Y-80020000D01*
X115626000Y-80021000D01*
X115623000Y-80022000D01*
X115621000Y-80023000D01*
X115618000Y-80023000D01*
X115616000Y-80024000D01*
X115613000Y-80024000D01*
X115611000Y-80025000D01*
X115608000Y-80025000D01*
X115605000Y-80025000D01*
X115000000Y-80025000D01*
X114998000Y-80025000D01*
X114995000Y-80025000D01*
X114993000Y-80024000D01*
X114990000Y-80024000D01*
X114988000Y-80023000D01*
X114985000Y-80023000D01*
X114983000Y-80022000D01*
X114980000Y-80021000D01*
X114978000Y-80020000D01*
X114975000Y-80018000D01*
X114973000Y-80017000D01*
X114971000Y-80015000D01*
X114969000Y-80014000D01*
X114967000Y-80012000D01*
X114965000Y-80010000D01*
X114963000Y-80008000D01*
X114962000Y-80006000D01*
X114960000Y-80004000D01*
X114959000Y-80002000D01*
X114957000Y-80000000D01*
X114956000Y-79998000D01*
X114955000Y-79995000D01*
X114954000Y-79993000D01*
X114953000Y-79990000D01*
X114952000Y-79988000D01*
X114952000Y-79985000D01*
X114951000Y-79983000D01*
X114951000Y-79980000D01*
X114951000Y-79978000D01*
X114950000Y-79975000D01*
X114950000Y-78950000D01*
X114951000Y-78947000D01*
X114951000Y-78945000D01*
X114951000Y-78942000D01*
X114952000Y-78940000D01*
X114952000Y-78937000D01*
X114953000Y-78935000D01*
X114954000Y-78932000D01*
X114955000Y-78930000D01*
X114956000Y-78927000D01*
X114957000Y-78925000D01*
X114959000Y-78923000D01*
X114960000Y-78921000D01*
X114962000Y-78919000D01*
X114963000Y-78917000D01*
X114965000Y-78915000D01*
X114967000Y-78913000D01*
X114969000Y-78911000D01*
X114971000Y-78910000D01*
X114973000Y-78908000D01*
X114975000Y-78907000D01*
X114978000Y-78905000D01*
X114980000Y-78904000D01*
X114983000Y-78903000D01*
X114985000Y-78902000D01*
X114988000Y-78902000D01*
X114990000Y-78901000D01*
X114993000Y-78901000D01*
X114995000Y-78900000D01*
X114998000Y-78900000D01*
X115000000Y-78900000D01*
X115000500Y-78900000D01*
X115605000Y-78900000D01*
X115608000Y-78900000D01*
X115611000Y-78900000D01*
X115613000Y-78901000D01*
G37*
X116518000Y-77576000D02*
X116521000Y-77576000D01*
X116523000Y-77577000D01*
X116526000Y-77577000D01*
X116528000Y-77578000D01*
X116531000Y-77579000D01*
X116533000Y-77580000D01*
X116535000Y-77582000D01*
X116538000Y-77583000D01*
X116540000Y-77585000D01*
X116542000Y-77586000D01*
X116544000Y-77588000D01*
X116546000Y-77590000D01*
X116548000Y-77592000D01*
X116549000Y-77594000D01*
X116551000Y-77596000D01*
X116552000Y-77598000D01*
X116554000Y-77600000D01*
X116555000Y-77602000D01*
X116556000Y-77605000D01*
X116557000Y-77607000D01*
X116558000Y-77610000D01*
X116559000Y-77612000D01*
X116559000Y-77615000D01*
X116560000Y-77617000D01*
X116560000Y-77620000D01*
X116560000Y-77622000D01*
X116560000Y-77625000D01*
X116560000Y-78650000D01*
X116560000Y-78653000D01*
X116560000Y-78655000D01*
X116560000Y-78658000D01*
X116559000Y-78660000D01*
X116559000Y-78663000D01*
X116558000Y-78665000D01*
X116557000Y-78668000D01*
X116556000Y-78670000D01*
X116555000Y-78673000D01*
X116554000Y-78675000D01*
X116552000Y-78677000D01*
X116551000Y-78679000D01*
X116549000Y-78681000D01*
X116548000Y-78683000D01*
X116546000Y-78685000D01*
X116544000Y-78687000D01*
X116542000Y-78689000D01*
X116540000Y-78690000D01*
X116538000Y-78692000D01*
X116535000Y-78693000D01*
X116533000Y-78695000D01*
X116531000Y-78696000D01*
X116528000Y-78697000D01*
X116526000Y-78698000D01*
X116523000Y-78698000D01*
X116521000Y-78699000D01*
X116518000Y-78699000D01*
X116516000Y-78700000D01*
X116513000Y-78700000D01*
X116510000Y-78700000D01*
X115905000Y-78700000D01*
X115903000Y-78700000D01*
X115900000Y-78700000D01*
X115898000Y-78699000D01*
X115895000Y-78699000D01*
X115893000Y-78698000D01*
X115890000Y-78698000D01*
X115888000Y-78697000D01*
X115885000Y-78696000D01*
X115883000Y-78695000D01*
X115880000Y-78693000D01*
X115878000Y-78692000D01*
X115876000Y-78690000D01*
X115874000Y-78689000D01*
X115872000Y-78687000D01*
X115870000Y-78685000D01*
X115868000Y-78683000D01*
X115867000Y-78681000D01*
X115865000Y-78679000D01*
X115864000Y-78677000D01*
X115862000Y-78675000D01*
X115861000Y-78673000D01*
X115860000Y-78670000D01*
X115859000Y-78668000D01*
X115858000Y-78665000D01*
X115857000Y-78663000D01*
X115857000Y-78660000D01*
X115856000Y-78658000D01*
X115856000Y-78655000D01*
X115856000Y-78653000D01*
X115856000Y-78650000D01*
X115856000Y-77625000D01*
X115856000Y-77622000D01*
X115856000Y-77620000D01*
X115856000Y-77617000D01*
X115857000Y-77615000D01*
X115857000Y-77612000D01*
X115858000Y-77610000D01*
X115859000Y-77607000D01*
X115860000Y-77605000D01*
X115861000Y-77602000D01*
X115862000Y-77600000D01*
X115864000Y-77598000D01*
X115865000Y-77596000D01*
X115867000Y-77594000D01*
X115868000Y-77592000D01*
X115870000Y-77590000D01*
X115872000Y-77588000D01*
X115874000Y-77586000D01*
X115876000Y-77585000D01*
X115878000Y-77583000D01*
X115881000Y-77582000D01*
X115883000Y-77580000D01*
X115885000Y-77579000D01*
X115888000Y-77578000D01*
X115890000Y-77577000D01*
X115893000Y-77577000D01*
X115895000Y-77576000D01*
X115898000Y-77576000D01*
X115900000Y-77575000D01*
X115903000Y-77575000D01*
X115905000Y-77575000D01*
X115905500Y-77575000D01*
X116510000Y-77575000D01*
X116513000Y-77575000D01*
X116516000Y-77575000D01*
X116518000Y-77576000D01*
G36*
X116518000Y-77576000D02*
G01*
X116521000Y-77576000D01*
X116523000Y-77577000D01*
X116526000Y-77577000D01*
X116528000Y-77578000D01*
X116531000Y-77579000D01*
X116533000Y-77580000D01*
X116535000Y-77582000D01*
X116538000Y-77583000D01*
X116540000Y-77585000D01*
X116542000Y-77586000D01*
X116544000Y-77588000D01*
X116546000Y-77590000D01*
X116548000Y-77592000D01*
X116549000Y-77594000D01*
X116551000Y-77596000D01*
X116552000Y-77598000D01*
X116554000Y-77600000D01*
X116555000Y-77602000D01*
X116556000Y-77605000D01*
X116557000Y-77607000D01*
X116558000Y-77610000D01*
X116559000Y-77612000D01*
X116559000Y-77615000D01*
X116560000Y-77617000D01*
X116560000Y-77620000D01*
X116560000Y-77622000D01*
X116560000Y-77625000D01*
X116560000Y-78650000D01*
X116560000Y-78653000D01*
X116560000Y-78655000D01*
X116560000Y-78658000D01*
X116559000Y-78660000D01*
X116559000Y-78663000D01*
X116558000Y-78665000D01*
X116557000Y-78668000D01*
X116556000Y-78670000D01*
X116555000Y-78673000D01*
X116554000Y-78675000D01*
X116552000Y-78677000D01*
X116551000Y-78679000D01*
X116549000Y-78681000D01*
X116548000Y-78683000D01*
X116546000Y-78685000D01*
X116544000Y-78687000D01*
X116542000Y-78689000D01*
X116540000Y-78690000D01*
X116538000Y-78692000D01*
X116535000Y-78693000D01*
X116533000Y-78695000D01*
X116531000Y-78696000D01*
X116528000Y-78697000D01*
X116526000Y-78698000D01*
X116523000Y-78698000D01*
X116521000Y-78699000D01*
X116518000Y-78699000D01*
X116516000Y-78700000D01*
X116513000Y-78700000D01*
X116510000Y-78700000D01*
X115905000Y-78700000D01*
X115903000Y-78700000D01*
X115900000Y-78700000D01*
X115898000Y-78699000D01*
X115895000Y-78699000D01*
X115893000Y-78698000D01*
X115890000Y-78698000D01*
X115888000Y-78697000D01*
X115885000Y-78696000D01*
X115883000Y-78695000D01*
X115880000Y-78693000D01*
X115878000Y-78692000D01*
X115876000Y-78690000D01*
X115874000Y-78689000D01*
X115872000Y-78687000D01*
X115870000Y-78685000D01*
X115868000Y-78683000D01*
X115867000Y-78681000D01*
X115865000Y-78679000D01*
X115864000Y-78677000D01*
X115862000Y-78675000D01*
X115861000Y-78673000D01*
X115860000Y-78670000D01*
X115859000Y-78668000D01*
X115858000Y-78665000D01*
X115857000Y-78663000D01*
X115857000Y-78660000D01*
X115856000Y-78658000D01*
X115856000Y-78655000D01*
X115856000Y-78653000D01*
X115856000Y-78650000D01*
X115856000Y-77625000D01*
X115856000Y-77622000D01*
X115856000Y-77620000D01*
X115856000Y-77617000D01*
X115857000Y-77615000D01*
X115857000Y-77612000D01*
X115858000Y-77610000D01*
X115859000Y-77607000D01*
X115860000Y-77605000D01*
X115861000Y-77602000D01*
X115862000Y-77600000D01*
X115864000Y-77598000D01*
X115865000Y-77596000D01*
X115867000Y-77594000D01*
X115868000Y-77592000D01*
X115870000Y-77590000D01*
X115872000Y-77588000D01*
X115874000Y-77586000D01*
X115876000Y-77585000D01*
X115878000Y-77583000D01*
X115881000Y-77582000D01*
X115883000Y-77580000D01*
X115885000Y-77579000D01*
X115888000Y-77578000D01*
X115890000Y-77577000D01*
X115893000Y-77577000D01*
X115895000Y-77576000D01*
X115898000Y-77576000D01*
X115900000Y-77575000D01*
X115903000Y-77575000D01*
X115905000Y-77575000D01*
X115905500Y-77575000D01*
X116510000Y-77575000D01*
X116513000Y-77575000D01*
X116516000Y-77575000D01*
X116518000Y-77576000D01*
G37*
X116518000Y-78901000D02*
X116521000Y-78901000D01*
X116523000Y-78902000D01*
X116526000Y-78902000D01*
X116528000Y-78903000D01*
X116531000Y-78904000D01*
X116533000Y-78905000D01*
X116535000Y-78907000D01*
X116538000Y-78908000D01*
X116540000Y-78910000D01*
X116542000Y-78911000D01*
X116544000Y-78913000D01*
X116546000Y-78915000D01*
X116548000Y-78917000D01*
X116549000Y-78919000D01*
X116551000Y-78921000D01*
X116552000Y-78923000D01*
X116554000Y-78925000D01*
X116555000Y-78927000D01*
X116556000Y-78930000D01*
X116557000Y-78932000D01*
X116558000Y-78935000D01*
X116559000Y-78937000D01*
X116559000Y-78940000D01*
X116560000Y-78942000D01*
X116560000Y-78945000D01*
X116560000Y-78947000D01*
X116560000Y-78950000D01*
X116560000Y-79975000D01*
X116560000Y-79978000D01*
X116560000Y-79980000D01*
X116560000Y-79983000D01*
X116559000Y-79985000D01*
X116559000Y-79988000D01*
X116558000Y-79990000D01*
X116557000Y-79993000D01*
X116556000Y-79995000D01*
X116555000Y-79998000D01*
X116554000Y-80000000D01*
X116552000Y-80002000D01*
X116551000Y-80004000D01*
X116549000Y-80006000D01*
X116548000Y-80008000D01*
X116546000Y-80010000D01*
X116544000Y-80012000D01*
X116542000Y-80014000D01*
X116540000Y-80015000D01*
X116538000Y-80017000D01*
X116535000Y-80018000D01*
X116533000Y-80020000D01*
X116531000Y-80021000D01*
X116528000Y-80022000D01*
X116526000Y-80023000D01*
X116523000Y-80023000D01*
X116521000Y-80024000D01*
X116518000Y-80024000D01*
X116516000Y-80025000D01*
X116513000Y-80025000D01*
X116510000Y-80025000D01*
X115905000Y-80025000D01*
X115903000Y-80025000D01*
X115900000Y-80025000D01*
X115898000Y-80024000D01*
X115895000Y-80024000D01*
X115893000Y-80023000D01*
X115890000Y-80023000D01*
X115888000Y-80022000D01*
X115885000Y-80021000D01*
X115883000Y-80020000D01*
X115881000Y-80018000D01*
X115878000Y-80017000D01*
X115876000Y-80015000D01*
X115874000Y-80014000D01*
X115872000Y-80012000D01*
X115870000Y-80010000D01*
X115868000Y-80008000D01*
X115867000Y-80006000D01*
X115865000Y-80004000D01*
X115864000Y-80002000D01*
X115862000Y-80000000D01*
X115861000Y-79998000D01*
X115860000Y-79995000D01*
X115859000Y-79993000D01*
X115858000Y-79990000D01*
X115857000Y-79988000D01*
X115857000Y-79985000D01*
X115856000Y-79983000D01*
X115856000Y-79980000D01*
X115856000Y-79978000D01*
X115856000Y-79975000D01*
X115856000Y-78950000D01*
X115856000Y-78947000D01*
X115856000Y-78945000D01*
X115856000Y-78942000D01*
X115857000Y-78940000D01*
X115857000Y-78937000D01*
X115858000Y-78935000D01*
X115859000Y-78932000D01*
X115860000Y-78930000D01*
X115861000Y-78927000D01*
X115862000Y-78925000D01*
X115864000Y-78923000D01*
X115865000Y-78921000D01*
X115867000Y-78919000D01*
X115868000Y-78917000D01*
X115870000Y-78915000D01*
X115872000Y-78913000D01*
X115874000Y-78911000D01*
X115876000Y-78910000D01*
X115878000Y-78908000D01*
X115880000Y-78907000D01*
X115883000Y-78905000D01*
X115885000Y-78904000D01*
X115888000Y-78903000D01*
X115890000Y-78902000D01*
X115893000Y-78902000D01*
X115895000Y-78901000D01*
X115898000Y-78901000D01*
X115900000Y-78900000D01*
X115903000Y-78900000D01*
X115905000Y-78900000D01*
X115905500Y-78900000D01*
X116510000Y-78900000D01*
X116513000Y-78900000D01*
X116516000Y-78900000D01*
X116518000Y-78901000D01*
G36*
X116518000Y-78901000D02*
G01*
X116521000Y-78901000D01*
X116523000Y-78902000D01*
X116526000Y-78902000D01*
X116528000Y-78903000D01*
X116531000Y-78904000D01*
X116533000Y-78905000D01*
X116535000Y-78907000D01*
X116538000Y-78908000D01*
X116540000Y-78910000D01*
X116542000Y-78911000D01*
X116544000Y-78913000D01*
X116546000Y-78915000D01*
X116548000Y-78917000D01*
X116549000Y-78919000D01*
X116551000Y-78921000D01*
X116552000Y-78923000D01*
X116554000Y-78925000D01*
X116555000Y-78927000D01*
X116556000Y-78930000D01*
X116557000Y-78932000D01*
X116558000Y-78935000D01*
X116559000Y-78937000D01*
X116559000Y-78940000D01*
X116560000Y-78942000D01*
X116560000Y-78945000D01*
X116560000Y-78947000D01*
X116560000Y-78950000D01*
X116560000Y-79975000D01*
X116560000Y-79978000D01*
X116560000Y-79980000D01*
X116560000Y-79983000D01*
X116559000Y-79985000D01*
X116559000Y-79988000D01*
X116558000Y-79990000D01*
X116557000Y-79993000D01*
X116556000Y-79995000D01*
X116555000Y-79998000D01*
X116554000Y-80000000D01*
X116552000Y-80002000D01*
X116551000Y-80004000D01*
X116549000Y-80006000D01*
X116548000Y-80008000D01*
X116546000Y-80010000D01*
X116544000Y-80012000D01*
X116542000Y-80014000D01*
X116540000Y-80015000D01*
X116538000Y-80017000D01*
X116535000Y-80018000D01*
X116533000Y-80020000D01*
X116531000Y-80021000D01*
X116528000Y-80022000D01*
X116526000Y-80023000D01*
X116523000Y-80023000D01*
X116521000Y-80024000D01*
X116518000Y-80024000D01*
X116516000Y-80025000D01*
X116513000Y-80025000D01*
X116510000Y-80025000D01*
X115905000Y-80025000D01*
X115903000Y-80025000D01*
X115900000Y-80025000D01*
X115898000Y-80024000D01*
X115895000Y-80024000D01*
X115893000Y-80023000D01*
X115890000Y-80023000D01*
X115888000Y-80022000D01*
X115885000Y-80021000D01*
X115883000Y-80020000D01*
X115881000Y-80018000D01*
X115878000Y-80017000D01*
X115876000Y-80015000D01*
X115874000Y-80014000D01*
X115872000Y-80012000D01*
X115870000Y-80010000D01*
X115868000Y-80008000D01*
X115867000Y-80006000D01*
X115865000Y-80004000D01*
X115864000Y-80002000D01*
X115862000Y-80000000D01*
X115861000Y-79998000D01*
X115860000Y-79995000D01*
X115859000Y-79993000D01*
X115858000Y-79990000D01*
X115857000Y-79988000D01*
X115857000Y-79985000D01*
X115856000Y-79983000D01*
X115856000Y-79980000D01*
X115856000Y-79978000D01*
X115856000Y-79975000D01*
X115856000Y-78950000D01*
X115856000Y-78947000D01*
X115856000Y-78945000D01*
X115856000Y-78942000D01*
X115857000Y-78940000D01*
X115857000Y-78937000D01*
X115858000Y-78935000D01*
X115859000Y-78932000D01*
X115860000Y-78930000D01*
X115861000Y-78927000D01*
X115862000Y-78925000D01*
X115864000Y-78923000D01*
X115865000Y-78921000D01*
X115867000Y-78919000D01*
X115868000Y-78917000D01*
X115870000Y-78915000D01*
X115872000Y-78913000D01*
X115874000Y-78911000D01*
X115876000Y-78910000D01*
X115878000Y-78908000D01*
X115880000Y-78907000D01*
X115883000Y-78905000D01*
X115885000Y-78904000D01*
X115888000Y-78903000D01*
X115890000Y-78902000D01*
X115893000Y-78902000D01*
X115895000Y-78901000D01*
X115898000Y-78901000D01*
X115900000Y-78900000D01*
X115903000Y-78900000D01*
X115905000Y-78900000D01*
X115905500Y-78900000D01*
X116510000Y-78900000D01*
X116513000Y-78900000D01*
X116516000Y-78900000D01*
X116518000Y-78901000D01*
G37*
D11*
X151200000Y-77600000D03*
X151200000Y-76100000D03*
D12*
X146620000Y-100920000D03*
X145600000Y-100920000D03*
D13*
X123977500Y-106990000D03*
X125727500Y-106990000D03*
D14*
X118700000Y-112090000D03*
X118700000Y-113110000D03*
D15*
X109000000Y-83699998D03*
X109000000Y-88000000D03*
D16*
X113225000Y-74500000D03*
X116175000Y-74500000D03*
D17*
X127317500Y-109890000D03*
X128337500Y-109890000D03*
D18*
X165050000Y-120310000D03*
X161150000Y-120310000D03*
X165050000Y-119040000D03*
X161150000Y-119040000D03*
X165050000Y-117770000D03*
X161150000Y-117770000D03*
X165050000Y-116500000D03*
X161150000Y-116500000D03*
X165050000Y-115230000D03*
X161150000Y-115230000D03*
X165050000Y-113960000D03*
X161150000Y-113960000D03*
X165050000Y-112690000D03*
X161150000Y-112690000D03*
D19*
X144979226Y-79363274D03*
X144979226Y-81433274D03*
X144979226Y-83503274D03*
D20*
X142104226Y-77208274D03*
X142104226Y-77858274D03*
X142104226Y-78508274D03*
X142104226Y-79158274D03*
X142104226Y-79808274D03*
X142104226Y-80458274D03*
X142104226Y-81108274D03*
X142104226Y-81758274D03*
X142104226Y-82408274D03*
X142104226Y-83058274D03*
X142104226Y-83708274D03*
X142104226Y-84358274D03*
X142104226Y-85008274D03*
X142104226Y-85658274D03*
X147854226Y-85658274D03*
X147854226Y-85008274D03*
X147854226Y-84358274D03*
X147854226Y-83708274D03*
X147854226Y-83058274D03*
X147854226Y-82408274D03*
X147854226Y-81758274D03*
X147854226Y-81108274D03*
X147854226Y-80458274D03*
X147854226Y-79808274D03*
X147854226Y-79158274D03*
X147854226Y-78508274D03*
X147854226Y-77858274D03*
X147854226Y-77208274D03*
D21*
X116450000Y-114700000D03*
X118350000Y-114700000D03*
D22*
X166150000Y-93500000D03*
X167850000Y-93500000D03*
X166150000Y-99100000D03*
X167850000Y-99100000D03*
D11*
X138800000Y-77700000D03*
X138800000Y-76200000D03*
D13*
X123977500Y-109890000D03*
X125727500Y-109890000D03*
D17*
X138590000Y-79700000D03*
X139610000Y-79700000D03*
D13*
X123957500Y-104010000D03*
X125707500Y-104010000D03*
D23*
X111500000Y-107900000D03*
X111500000Y-114100000D03*
D17*
X116440000Y-112150000D03*
X117460000Y-112150000D03*
X127390000Y-104000000D03*
X128410000Y-104000000D03*
D24*
X113225000Y-70600000D03*
X116175000Y-70600000D03*
D25*
X117390000Y-109830000D03*
X116430000Y-109830000D03*
D17*
X149070000Y-103480000D03*
X150090000Y-103480000D03*
D26*
X109900000Y-70875000D03*
X109900000Y-69325000D03*
D27*
X118775000Y-99610000D03*
X120325000Y-99610000D03*
D28*
X149240000Y-95840000D03*
X149240000Y-97240000D03*
X149240000Y-98640000D03*
X149240000Y-100040000D03*
X150640000Y-95840000D03*
X150640000Y-97240000D03*
X150640000Y-98640000D03*
X150640000Y-100040000D03*
X152040000Y-95840000D03*
X152040000Y-97240000D03*
X152040000Y-98640000D03*
X152040000Y-100040000D03*
X153440000Y-95840000D03*
X153440000Y-97240000D03*
X153440000Y-98640000D03*
X153440000Y-100040000D03*
D29*
X147902500Y-95190000D03*
X147902500Y-95690000D03*
X147902500Y-96190000D03*
X147902500Y-96690000D03*
X147902500Y-97190000D03*
X147902500Y-97690000D03*
X147902500Y-98190000D03*
X147902500Y-98690000D03*
X147902500Y-99190000D03*
X147902500Y-99690000D03*
X147902500Y-100190000D03*
X147902500Y-100690000D03*
D30*
X148590000Y-101377500D03*
X149090000Y-101377500D03*
X149590000Y-101377500D03*
X150090000Y-101377500D03*
X150590000Y-101377500D03*
X151090000Y-101377500D03*
X151590000Y-101377500D03*
X152090000Y-101377500D03*
X152590000Y-101377500D03*
X153090000Y-101377500D03*
X153590000Y-101377500D03*
X154090000Y-101377500D03*
D29*
X154777500Y-100690000D03*
X154777500Y-100190000D03*
X154777500Y-99690000D03*
X154777500Y-99190000D03*
X154777500Y-98690000D03*
X154777500Y-98190000D03*
X154777500Y-97690000D03*
X154777500Y-97190000D03*
X154777500Y-96690000D03*
X154777500Y-96190000D03*
X154777500Y-95690000D03*
X154777500Y-95190000D03*
D30*
X154090000Y-94502500D03*
X153590000Y-94502500D03*
X153090000Y-94502500D03*
X152590000Y-94502500D03*
X152090000Y-94502500D03*
X151590000Y-94502500D03*
X151090000Y-94502500D03*
X150590000Y-94502500D03*
X150090000Y-94502500D03*
X149590000Y-94502500D03*
X149090000Y-94502500D03*
X148590000Y-94502500D03*
D25*
X150830000Y-83050000D03*
X149870000Y-83050000D03*
D31*
X132379226Y-81158274D03*
X132379226Y-82708274D03*
D25*
X166120000Y-101290000D03*
X165160000Y-101290000D03*
D31*
X135579226Y-81158274D03*
X135579226Y-82708274D03*
D25*
X166230000Y-91930000D03*
X165270000Y-91930000D03*
D31*
X144610000Y-97005000D03*
X144610000Y-98555000D03*
D26*
X137800000Y-85475000D03*
X137800000Y-83925000D03*
D32*
X142490000Y-98050000D03*
X142490000Y-94250000D03*
X140190000Y-94250000D03*
X140190000Y-98050000D03*
D33*
X118140000Y-106140000D03*
X117640000Y-106140000D03*
X117140000Y-106140000D03*
X116640000Y-106140000D03*
X116640000Y-107620000D03*
X117140000Y-107620000D03*
X117640000Y-107620000D03*
X118140000Y-107620000D03*
D34*
X116470000Y-110980000D03*
X117430000Y-110980000D03*
D31*
X133979226Y-81158274D03*
X133979226Y-82708274D03*
D17*
X127390000Y-106950000D03*
X128410000Y-106950000D03*
D35*
X139475000Y-81000000D03*
X137925000Y-81000000D03*
D22*
X166100000Y-102800000D03*
X167800000Y-102800000D03*
X166100000Y-108400000D03*
X167800000Y-108400000D03*
D36*
X117555000Y-103310000D03*
X114605000Y-103310000D03*
D37*
X122510000Y-86780000D03*
X122510000Y-96680000D03*
D26*
X144600000Y-95445000D03*
X144600000Y-93895000D03*
D12*
X155490000Y-103460000D03*
X154470000Y-103460000D03*
D16*
X111835000Y-92100000D03*
X114785000Y-92100000D03*
M02*
