G04 #@! TF.GenerationSoftware,KiCad,Pcbnew,9.0.6-9.0.6~ubuntu24.04.1*
G04 #@! TF.CreationDate,2025-12-18T12:56:06+01:00*
G04 #@! TF.ProjectId,PCB_RAIL,5043425f-5241-4494-9c2e-6b696361645f,rev?*
G04 #@! TF.SameCoordinates,Original*
G04 #@! TF.FileFunction,Legend,Bot*
G04 #@! TF.FilePolarity,Positive*
%FSLAX46Y46*%
G04 Gerber Fmt 4.6, Leading zero omitted, Abs format (unit mm)*
G04 Created by KiCad (PCBNEW 9.0.6-9.0.6~ubuntu24.04.1) date 2025-12-18 12:56:06*
%MOMM*%
%LPD*%
G01*
G04 APERTURE LIST*
G04 Aperture macros list*
%AMRoundRect*
0 Rectangle with rounded corners*
0 $1 Rounding radius*
0 $2 $3 $4 $5 $6 $7 $8 $9 X,Y pos of 4 corners*
0 Add a 4 corners polygon primitive as box body*
4,1,4,$2,$3,$4,$5,$6,$7,$8,$9,$2,$3,0*
0 Add four circle primitives for the rounded corners*
1,1,$1+$1,$2,$3*
1,1,$1+$1,$4,$5*
1,1,$1+$1,$6,$7*
1,1,$1+$1,$8,$9*
0 Add four rect primitives between the rounded corners*
20,1,$1+$1,$2,$3,$4,$5,0*
20,1,$1+$1,$4,$5,$6,$7,0*
20,1,$1+$1,$6,$7,$8,$9,0*
20,1,$1+$1,$8,$9,$2,$3,0*%
G04 Aperture macros list end*
%ADD10C,0.100000*%
%ADD11C,0.120000*%
%ADD12C,0.127000*%
%ADD13C,0.200000*%
%ADD14C,0.010000*%
%ADD15RoundRect,0.250000X0.350000X0.625000X-0.350000X0.625000X-0.350000X-0.625000X0.350000X-0.625000X0*%
%ADD16O,1.200000X1.750000*%
%ADD17RoundRect,0.250000X-0.600000X-0.725000X0.600000X-0.725000X0.600000X0.725000X-0.600000X0.725000X0*%
%ADD18O,1.700000X1.950000*%
%ADD19R,7.000000X7.000000*%
%ADD20RoundRect,0.250000X-0.725000X0.600000X-0.725000X-0.600000X0.725000X-0.600000X0.725000X0.600000X0*%
%ADD21O,1.950000X1.700000*%
%ADD22RoundRect,0.250000X0.600000X0.725000X-0.600000X0.725000X-0.600000X-0.725000X0.600000X-0.725000X0*%
%ADD23C,0.700000*%
%ADD24C,4.400000*%
%ADD25RoundRect,0.102000X-0.600000X-0.600000X0.600000X-0.600000X0.600000X0.600000X-0.600000X0.600000X0*%
%ADD26C,1.404000*%
%ADD27R,1.700000X1.700000*%
%ADD28C,1.700000*%
%ADD29RoundRect,0.760000X1.140000X-1.140000X1.140000X1.140000X-1.140000X1.140000X-1.140000X-1.140000X0*%
%ADD30C,4.000000*%
%ADD31RoundRect,0.250000X-0.350000X-0.625000X0.350000X-0.625000X0.350000X0.625000X-0.350000X0.625000X0*%
%ADD32RoundRect,0.102000X0.600000X0.600000X-0.600000X0.600000X-0.600000X-0.600000X0.600000X-0.600000X0*%
%ADD33C,1.712000*%
%ADD34RoundRect,0.102000X0.600000X-0.600000X0.600000X0.600000X-0.600000X0.600000X-0.600000X-0.600000X0*%
%ADD35C,1.512000*%
%ADD36RoundRect,0.135000X-0.135000X-0.185000X0.135000X-0.185000X0.135000X0.185000X-0.135000X0.185000X0*%
%ADD37RoundRect,0.140000X0.140000X0.170000X-0.140000X0.170000X-0.140000X-0.170000X0.140000X-0.170000X0*%
%ADD38RoundRect,0.200000X-0.275000X0.200000X-0.275000X-0.200000X0.275000X-0.200000X0.275000X0.200000X0*%
%ADD39RoundRect,0.135000X-0.185000X0.135000X-0.185000X-0.135000X0.185000X-0.135000X0.185000X0.135000X0*%
%ADD40RoundRect,0.218750X0.218750X0.256250X-0.218750X0.256250X-0.218750X-0.256250X0.218750X-0.256250X0*%
%ADD41RoundRect,0.140000X-0.170000X0.140000X-0.170000X-0.140000X0.170000X-0.140000X0.170000X0.140000X0*%
%ADD42RoundRect,0.250000X1.100000X-0.325000X1.100000X0.325000X-1.100000X0.325000X-1.100000X-0.325000X0*%
%ADD43RoundRect,0.140000X0.170000X-0.140000X0.170000X0.140000X-0.170000X0.140000X-0.170000X-0.140000X0*%
%ADD44RoundRect,0.225000X-0.250000X0.225000X-0.250000X-0.225000X0.250000X-0.225000X0.250000X0.225000X0*%
%ADD45RoundRect,0.200000X-0.200000X-0.275000X0.200000X-0.275000X0.200000X0.275000X-0.200000X0.275000X0*%
%ADD46RoundRect,0.200000X0.200000X0.275000X-0.200000X0.275000X-0.200000X-0.275000X0.200000X-0.275000X0*%
%ADD47RoundRect,0.140000X-0.140000X-0.170000X0.140000X-0.170000X0.140000X0.170000X-0.140000X0.170000X0*%
%ADD48R,1.000000X1.500000*%
%ADD49RoundRect,0.225000X-0.375000X0.225000X-0.375000X-0.225000X0.375000X-0.225000X0.375000X0.225000X0*%
%ADD50RoundRect,0.225000X-0.225000X-0.250000X0.225000X-0.250000X0.225000X0.250000X-0.225000X0.250000X0*%
%ADD51RoundRect,0.225000X0.225000X0.250000X-0.225000X0.250000X-0.225000X-0.250000X0.225000X-0.250000X0*%
G04 APERTURE END LIST*
D10*
X154922782Y-105276895D02*
X154613258Y-105276895D01*
X154613258Y-105276895D02*
X154779925Y-105581657D01*
X154779925Y-105581657D02*
X154708496Y-105581657D01*
X154708496Y-105581657D02*
X154660877Y-105619752D01*
X154660877Y-105619752D02*
X154637068Y-105657847D01*
X154637068Y-105657847D02*
X154613258Y-105734038D01*
X154613258Y-105734038D02*
X154613258Y-105924514D01*
X154613258Y-105924514D02*
X154637068Y-106000704D01*
X154637068Y-106000704D02*
X154660877Y-106038800D01*
X154660877Y-106038800D02*
X154708496Y-106076895D01*
X154708496Y-106076895D02*
X154851353Y-106076895D01*
X154851353Y-106076895D02*
X154898972Y-106038800D01*
X154898972Y-106038800D02*
X154922782Y-106000704D01*
X154470401Y-105276895D02*
X154303735Y-106076895D01*
X154303735Y-106076895D02*
X154137068Y-105276895D01*
X154018021Y-105276895D02*
X153708497Y-105276895D01*
X153708497Y-105276895D02*
X153875164Y-105581657D01*
X153875164Y-105581657D02*
X153803735Y-105581657D01*
X153803735Y-105581657D02*
X153756116Y-105619752D01*
X153756116Y-105619752D02*
X153732307Y-105657847D01*
X153732307Y-105657847D02*
X153708497Y-105734038D01*
X153708497Y-105734038D02*
X153708497Y-105924514D01*
X153708497Y-105924514D02*
X153732307Y-106000704D01*
X153732307Y-106000704D02*
X153756116Y-106038800D01*
X153756116Y-106038800D02*
X153803735Y-106076895D01*
X153803735Y-106076895D02*
X153946592Y-106076895D01*
X153946592Y-106076895D02*
X153994211Y-106038800D01*
X153994211Y-106038800D02*
X154018021Y-106000704D01*
X157155163Y-110396895D02*
X157155163Y-109596895D01*
X157155163Y-109596895D02*
X157036115Y-109596895D01*
X157036115Y-109596895D02*
X156964687Y-109634990D01*
X156964687Y-109634990D02*
X156917068Y-109711180D01*
X156917068Y-109711180D02*
X156893258Y-109787371D01*
X156893258Y-109787371D02*
X156869449Y-109939752D01*
X156869449Y-109939752D02*
X156869449Y-110054038D01*
X156869449Y-110054038D02*
X156893258Y-110206419D01*
X156893258Y-110206419D02*
X156917068Y-110282609D01*
X156917068Y-110282609D02*
X156964687Y-110358800D01*
X156964687Y-110358800D02*
X157036115Y-110396895D01*
X157036115Y-110396895D02*
X157155163Y-110396895D01*
X156702782Y-109596895D02*
X156369449Y-110396895D01*
X156369449Y-109596895D02*
X156702782Y-110396895D01*
X155940878Y-110396895D02*
X156178973Y-110396895D01*
X156178973Y-110396895D02*
X156178973Y-109596895D01*
X155393259Y-110396895D02*
X155393259Y-109596895D01*
X155393259Y-109596895D02*
X155274211Y-109596895D01*
X155274211Y-109596895D02*
X155202783Y-109634990D01*
X155202783Y-109634990D02*
X155155164Y-109711180D01*
X155155164Y-109711180D02*
X155131354Y-109787371D01*
X155131354Y-109787371D02*
X155107545Y-109939752D01*
X155107545Y-109939752D02*
X155107545Y-110054038D01*
X155107545Y-110054038D02*
X155131354Y-110206419D01*
X155131354Y-110206419D02*
X155155164Y-110282609D01*
X155155164Y-110282609D02*
X155202783Y-110358800D01*
X155202783Y-110358800D02*
X155274211Y-110396895D01*
X155274211Y-110396895D02*
X155393259Y-110396895D01*
X154678973Y-110396895D02*
X154678973Y-109977847D01*
X154678973Y-109977847D02*
X154702783Y-109901657D01*
X154702783Y-109901657D02*
X154750402Y-109863561D01*
X154750402Y-109863561D02*
X154845640Y-109863561D01*
X154845640Y-109863561D02*
X154893259Y-109901657D01*
X154678973Y-110358800D02*
X154726592Y-110396895D01*
X154726592Y-110396895D02*
X154845640Y-110396895D01*
X154845640Y-110396895D02*
X154893259Y-110358800D01*
X154893259Y-110358800D02*
X154917068Y-110282609D01*
X154917068Y-110282609D02*
X154917068Y-110206419D01*
X154917068Y-110206419D02*
X154893259Y-110130228D01*
X154893259Y-110130228D02*
X154845640Y-110092133D01*
X154845640Y-110092133D02*
X154726592Y-110092133D01*
X154726592Y-110092133D02*
X154678973Y-110054038D01*
X154512306Y-109863561D02*
X154321830Y-109863561D01*
X154440878Y-109596895D02*
X154440878Y-110282609D01*
X154440878Y-110282609D02*
X154417068Y-110358800D01*
X154417068Y-110358800D02*
X154369449Y-110396895D01*
X154369449Y-110396895D02*
X154321830Y-110396895D01*
X153940878Y-110396895D02*
X153940878Y-109977847D01*
X153940878Y-109977847D02*
X153964688Y-109901657D01*
X153964688Y-109901657D02*
X154012307Y-109863561D01*
X154012307Y-109863561D02*
X154107545Y-109863561D01*
X154107545Y-109863561D02*
X154155164Y-109901657D01*
X153940878Y-110358800D02*
X153988497Y-110396895D01*
X153988497Y-110396895D02*
X154107545Y-110396895D01*
X154107545Y-110396895D02*
X154155164Y-110358800D01*
X154155164Y-110358800D02*
X154178973Y-110282609D01*
X154178973Y-110282609D02*
X154178973Y-110206419D01*
X154178973Y-110206419D02*
X154155164Y-110130228D01*
X154155164Y-110130228D02*
X154107545Y-110092133D01*
X154107545Y-110092133D02*
X153988497Y-110092133D01*
X153988497Y-110092133D02*
X153940878Y-110054038D01*
X153321831Y-109863561D02*
X153321831Y-110663561D01*
X153321831Y-109901657D02*
X153274212Y-109863561D01*
X153274212Y-109863561D02*
X153178974Y-109863561D01*
X153178974Y-109863561D02*
X153131355Y-109901657D01*
X153131355Y-109901657D02*
X153107545Y-109939752D01*
X153107545Y-109939752D02*
X153083736Y-110015942D01*
X153083736Y-110015942D02*
X153083736Y-110244514D01*
X153083736Y-110244514D02*
X153107545Y-110320704D01*
X153107545Y-110320704D02*
X153131355Y-110358800D01*
X153131355Y-110358800D02*
X153178974Y-110396895D01*
X153178974Y-110396895D02*
X153274212Y-110396895D01*
X153274212Y-110396895D02*
X153321831Y-110358800D01*
X152655164Y-109863561D02*
X152655164Y-110396895D01*
X152869450Y-109863561D02*
X152869450Y-110282609D01*
X152869450Y-110282609D02*
X152845640Y-110358800D01*
X152845640Y-110358800D02*
X152798021Y-110396895D01*
X152798021Y-110396895D02*
X152726593Y-110396895D01*
X152726593Y-110396895D02*
X152678974Y-110358800D01*
X152678974Y-110358800D02*
X152655164Y-110320704D01*
X152345640Y-110396895D02*
X152393259Y-110358800D01*
X152393259Y-110358800D02*
X152417069Y-110282609D01*
X152417069Y-110282609D02*
X152417069Y-109596895D01*
X152083735Y-110396895D02*
X152131354Y-110358800D01*
X152131354Y-110358800D02*
X152155164Y-110282609D01*
X152155164Y-110282609D02*
X152155164Y-109596895D01*
X151298021Y-109863561D02*
X151298021Y-110396895D01*
X151512307Y-109863561D02*
X151512307Y-110282609D01*
X151512307Y-110282609D02*
X151488497Y-110358800D01*
X151488497Y-110358800D02*
X151440878Y-110396895D01*
X151440878Y-110396895D02*
X151369450Y-110396895D01*
X151369450Y-110396895D02*
X151321831Y-110358800D01*
X151321831Y-110358800D02*
X151298021Y-110320704D01*
X151059926Y-109863561D02*
X151059926Y-110663561D01*
X151059926Y-109901657D02*
X151012307Y-109863561D01*
X151012307Y-109863561D02*
X150917069Y-109863561D01*
X150917069Y-109863561D02*
X150869450Y-109901657D01*
X150869450Y-109901657D02*
X150845640Y-109939752D01*
X150845640Y-109939752D02*
X150821831Y-110015942D01*
X150821831Y-110015942D02*
X150821831Y-110244514D01*
X150821831Y-110244514D02*
X150845640Y-110320704D01*
X150845640Y-110320704D02*
X150869450Y-110358800D01*
X150869450Y-110358800D02*
X150917069Y-110396895D01*
X150917069Y-110396895D02*
X151012307Y-110396895D01*
X151012307Y-110396895D02*
X151059926Y-110358800D01*
X150226593Y-109863561D02*
X150226593Y-110549276D01*
X150226593Y-110549276D02*
X150250402Y-110625466D01*
X150250402Y-110625466D02*
X150298021Y-110663561D01*
X150298021Y-110663561D02*
X150321831Y-110663561D01*
X150226593Y-109596895D02*
X150250402Y-109634990D01*
X150250402Y-109634990D02*
X150226593Y-109673085D01*
X150226593Y-109673085D02*
X150202783Y-109634990D01*
X150202783Y-109634990D02*
X150226593Y-109596895D01*
X150226593Y-109596895D02*
X150226593Y-109673085D01*
X149774212Y-109863561D02*
X149774212Y-110396895D01*
X149988498Y-109863561D02*
X149988498Y-110282609D01*
X149988498Y-110282609D02*
X149964688Y-110358800D01*
X149964688Y-110358800D02*
X149917069Y-110396895D01*
X149917069Y-110396895D02*
X149845641Y-110396895D01*
X149845641Y-110396895D02*
X149798022Y-110358800D01*
X149798022Y-110358800D02*
X149774212Y-110320704D01*
X149536117Y-110396895D02*
X149536117Y-109863561D01*
X149536117Y-109939752D02*
X149512307Y-109901657D01*
X149512307Y-109901657D02*
X149464688Y-109863561D01*
X149464688Y-109863561D02*
X149393260Y-109863561D01*
X149393260Y-109863561D02*
X149345641Y-109901657D01*
X149345641Y-109901657D02*
X149321831Y-109977847D01*
X149321831Y-109977847D02*
X149321831Y-110396895D01*
X149321831Y-109977847D02*
X149298022Y-109901657D01*
X149298022Y-109901657D02*
X149250403Y-109863561D01*
X149250403Y-109863561D02*
X149178974Y-109863561D01*
X149178974Y-109863561D02*
X149131355Y-109901657D01*
X149131355Y-109901657D02*
X149107545Y-109977847D01*
X149107545Y-109977847D02*
X149107545Y-110396895D01*
X148869450Y-109863561D02*
X148869450Y-110663561D01*
X148869450Y-109901657D02*
X148821831Y-109863561D01*
X148821831Y-109863561D02*
X148726593Y-109863561D01*
X148726593Y-109863561D02*
X148678974Y-109901657D01*
X148678974Y-109901657D02*
X148655164Y-109939752D01*
X148655164Y-109939752D02*
X148631355Y-110015942D01*
X148631355Y-110015942D02*
X148631355Y-110244514D01*
X148631355Y-110244514D02*
X148655164Y-110320704D01*
X148655164Y-110320704D02*
X148678974Y-110358800D01*
X148678974Y-110358800D02*
X148726593Y-110396895D01*
X148726593Y-110396895D02*
X148821831Y-110396895D01*
X148821831Y-110396895D02*
X148869450Y-110358800D01*
X148226593Y-110358800D02*
X148274212Y-110396895D01*
X148274212Y-110396895D02*
X148369450Y-110396895D01*
X148369450Y-110396895D02*
X148417069Y-110358800D01*
X148417069Y-110358800D02*
X148440878Y-110282609D01*
X148440878Y-110282609D02*
X148440878Y-109977847D01*
X148440878Y-109977847D02*
X148417069Y-109901657D01*
X148417069Y-109901657D02*
X148369450Y-109863561D01*
X148369450Y-109863561D02*
X148274212Y-109863561D01*
X148274212Y-109863561D02*
X148226593Y-109901657D01*
X148226593Y-109901657D02*
X148202783Y-109977847D01*
X148202783Y-109977847D02*
X148202783Y-110054038D01*
X148202783Y-110054038D02*
X148440878Y-110130228D01*
X147988498Y-110396895D02*
X147988498Y-109863561D01*
X147988498Y-110015942D02*
X147964688Y-109939752D01*
X147964688Y-109939752D02*
X147940879Y-109901657D01*
X147940879Y-109901657D02*
X147893260Y-109863561D01*
X147893260Y-109863561D02*
X147845641Y-109863561D01*
X152819449Y-105980704D02*
X152843258Y-106018800D01*
X152843258Y-106018800D02*
X152914687Y-106056895D01*
X152914687Y-106056895D02*
X152962306Y-106056895D01*
X152962306Y-106056895D02*
X153033734Y-106018800D01*
X153033734Y-106018800D02*
X153081353Y-105942609D01*
X153081353Y-105942609D02*
X153105163Y-105866419D01*
X153105163Y-105866419D02*
X153128972Y-105714038D01*
X153128972Y-105714038D02*
X153128972Y-105599752D01*
X153128972Y-105599752D02*
X153105163Y-105447371D01*
X153105163Y-105447371D02*
X153081353Y-105371180D01*
X153081353Y-105371180D02*
X153033734Y-105294990D01*
X153033734Y-105294990D02*
X152962306Y-105256895D01*
X152962306Y-105256895D02*
X152914687Y-105256895D01*
X152914687Y-105256895D02*
X152843258Y-105294990D01*
X152843258Y-105294990D02*
X152819449Y-105333085D01*
X152533734Y-106056895D02*
X152581353Y-106018800D01*
X152581353Y-106018800D02*
X152605163Y-105980704D01*
X152605163Y-105980704D02*
X152628972Y-105904514D01*
X152628972Y-105904514D02*
X152628972Y-105675942D01*
X152628972Y-105675942D02*
X152605163Y-105599752D01*
X152605163Y-105599752D02*
X152581353Y-105561657D01*
X152581353Y-105561657D02*
X152533734Y-105523561D01*
X152533734Y-105523561D02*
X152462306Y-105523561D01*
X152462306Y-105523561D02*
X152414687Y-105561657D01*
X152414687Y-105561657D02*
X152390877Y-105599752D01*
X152390877Y-105599752D02*
X152367068Y-105675942D01*
X152367068Y-105675942D02*
X152367068Y-105904514D01*
X152367068Y-105904514D02*
X152390877Y-105980704D01*
X152390877Y-105980704D02*
X152414687Y-106018800D01*
X152414687Y-106018800D02*
X152462306Y-106056895D01*
X152462306Y-106056895D02*
X152533734Y-106056895D01*
X151467068Y-105236895D02*
X151705163Y-105236895D01*
X151705163Y-105236895D02*
X151728972Y-105617847D01*
X151728972Y-105617847D02*
X151705163Y-105579752D01*
X151705163Y-105579752D02*
X151657544Y-105541657D01*
X151657544Y-105541657D02*
X151538496Y-105541657D01*
X151538496Y-105541657D02*
X151490877Y-105579752D01*
X151490877Y-105579752D02*
X151467068Y-105617847D01*
X151467068Y-105617847D02*
X151443258Y-105694038D01*
X151443258Y-105694038D02*
X151443258Y-105884514D01*
X151443258Y-105884514D02*
X151467068Y-105960704D01*
X151467068Y-105960704D02*
X151490877Y-105998800D01*
X151490877Y-105998800D02*
X151538496Y-106036895D01*
X151538496Y-106036895D02*
X151657544Y-106036895D01*
X151657544Y-106036895D02*
X151705163Y-105998800D01*
X151705163Y-105998800D02*
X151728972Y-105960704D01*
X151300401Y-105236895D02*
X151133735Y-106036895D01*
X151133735Y-106036895D02*
X150967068Y-105236895D01*
D11*
X117486359Y-69227024D02*
X117793641Y-69227024D01*
X117486359Y-69987024D02*
X117793641Y-69987024D01*
X154357836Y-95610000D02*
X154142164Y-95610000D01*
X154357836Y-96330000D02*
X154142164Y-96330000D01*
X112007500Y-76309766D02*
X112007500Y-76784282D01*
X113052500Y-76309766D02*
X113052500Y-76784282D01*
X114796359Y-69597024D02*
X115103641Y-69597024D01*
X114796359Y-70357024D02*
X115103641Y-70357024D01*
X149480000Y-94826359D02*
X149480000Y-95133641D01*
X150240000Y-94826359D02*
X150240000Y-95133641D01*
X118750000Y-68903383D02*
X118750000Y-69210665D01*
X119510000Y-68903383D02*
X119510000Y-69210665D01*
X123162779Y-71990000D02*
X122837221Y-71990000D01*
X123162779Y-73010000D02*
X122837221Y-73010000D01*
X147292500Y-94832164D02*
X147292500Y-95047836D01*
X148012500Y-94832164D02*
X148012500Y-95047836D01*
X136040000Y-122211252D02*
X136040000Y-120788748D01*
X138760000Y-122211252D02*
X138760000Y-120788748D01*
X152292500Y-101047836D02*
X152292500Y-100832164D01*
X153012500Y-101047836D02*
X153012500Y-100832164D01*
X154357836Y-96710000D02*
X154142164Y-96710000D01*
X154357836Y-97430000D02*
X154142164Y-97430000D01*
X113720000Y-78106444D02*
X113720000Y-78387604D01*
X114740000Y-78106444D02*
X114740000Y-78387604D01*
X151150000Y-101047836D02*
X151150000Y-100832164D01*
X151870000Y-101047836D02*
X151870000Y-100832164D01*
X120850000Y-77746359D02*
X120850000Y-78053641D01*
X121610000Y-77746359D02*
X121610000Y-78053641D01*
D12*
X116110000Y-72680000D02*
X116110000Y-73235000D01*
X116110000Y-74125000D02*
X116110000Y-74735000D01*
X116110000Y-75625000D02*
X116110000Y-76180000D01*
X116110000Y-76180000D02*
X116165000Y-76180000D01*
X116165000Y-72680000D02*
X116110000Y-72680000D01*
X120610000Y-72680000D02*
X120555000Y-72680000D01*
X120610000Y-73235000D02*
X120610000Y-72680000D01*
X120610000Y-74735000D02*
X120610000Y-74125000D01*
X120610000Y-76180000D02*
X120555000Y-76180000D01*
X120610000Y-76180000D02*
X120610000Y-75625000D01*
D13*
X115460000Y-73680000D02*
G75*
G02*
X115260000Y-73680000I-100000J0D01*
G01*
X115260000Y-73680000D02*
G75*
G02*
X115460000Y-73680000I100000J0D01*
G01*
D11*
X121992742Y-68524524D02*
X122467258Y-68524524D01*
X121992742Y-69569524D02*
X122467258Y-69569524D01*
X123237258Y-73677500D02*
X122762742Y-73677500D01*
X123237258Y-74722500D02*
X122762742Y-74722500D01*
X114150000Y-74093383D02*
X114150000Y-74400665D01*
X114910000Y-74093383D02*
X114910000Y-74400665D01*
X101072164Y-107240000D02*
X101287836Y-107240000D01*
X101072164Y-107960000D02*
X101287836Y-107960000D01*
X150700000Y-106570000D02*
X150700000Y-108570000D01*
X150700000Y-108570000D02*
X154800000Y-108570000D01*
X154050000Y-108770000D02*
X153750000Y-109070000D01*
X154050000Y-108770000D02*
X154350000Y-109070000D01*
X154350000Y-109070000D02*
X153750000Y-109070000D01*
X154800000Y-106570000D02*
X150700000Y-106570000D01*
X154800000Y-108570000D02*
X154800000Y-106570000D01*
X144700000Y-124340000D02*
X144700000Y-128350000D01*
X144700000Y-124340000D02*
X146700000Y-124340000D01*
X146700000Y-124340000D02*
X146700000Y-128350000D01*
X144340000Y-122411252D02*
X144340000Y-120988748D01*
X147060000Y-122411252D02*
X147060000Y-120988748D01*
X121766359Y-70167024D02*
X122073641Y-70167024D01*
X121766359Y-70927024D02*
X122073641Y-70927024D01*
X115067836Y-68517024D02*
X114852164Y-68517024D01*
X115067836Y-69237024D02*
X114852164Y-69237024D01*
X148880000Y-101047836D02*
X148880000Y-100832164D01*
X149600000Y-101047836D02*
X149600000Y-100832164D01*
X136500000Y-124240000D02*
X136500000Y-128250000D01*
X136500000Y-124240000D02*
X138500000Y-124240000D01*
X138500000Y-124240000D02*
X138500000Y-128250000D01*
X154086359Y-94450000D02*
X154393641Y-94450000D01*
X154086359Y-95210000D02*
X154393641Y-95210000D01*
X117767836Y-70337024D02*
X117552164Y-70337024D01*
X117767836Y-71057024D02*
X117552164Y-71057024D01*
X149980000Y-101047836D02*
X149980000Y-100832164D01*
X150700000Y-101047836D02*
X150700000Y-100832164D01*
X119582164Y-70367024D02*
X119797836Y-70367024D01*
X119582164Y-71087024D02*
X119797836Y-71087024D01*
X101072164Y-106010000D02*
X101287836Y-106010000D01*
X101072164Y-106730000D02*
X101287836Y-106730000D01*
X148392500Y-94832164D02*
X148392500Y-95047836D01*
X149112500Y-94832164D02*
X149112500Y-95047836D01*
X117697836Y-68037024D02*
X117482164Y-68037024D01*
X117697836Y-68757024D02*
X117482164Y-68757024D01*
X122899420Y-75380000D02*
X123180580Y-75380000D01*
X122899420Y-76400000D02*
X123180580Y-76400000D01*
X113392742Y-71724524D02*
X113867258Y-71724524D01*
X113392742Y-72769524D02*
X113867258Y-72769524D01*
X117140580Y-77537024D02*
X116859420Y-77537024D01*
X117140580Y-78557024D02*
X116859420Y-78557024D01*
X153392500Y-101047836D02*
X153392500Y-100832164D01*
X154112500Y-101047836D02*
X154112500Y-100832164D01*
%LPC*%
D14*
X116698000Y-72411000D02*
X116704000Y-72411000D01*
X116710000Y-72413000D01*
X116716000Y-72414000D01*
X116722000Y-72416000D01*
X116728000Y-72418000D01*
X116734000Y-72420000D01*
X116739000Y-72423000D01*
X116745000Y-72426000D01*
X116750000Y-72429000D01*
X116756000Y-72433000D01*
X116761000Y-72437000D01*
X116765000Y-72441000D01*
X116770000Y-72445000D01*
X116774000Y-72450000D01*
X116778000Y-72454000D01*
X116782000Y-72459000D01*
X116786000Y-72465000D01*
X116789000Y-72470000D01*
X116792000Y-72476000D01*
X116795000Y-72481000D01*
X116797000Y-72487000D01*
X116799000Y-72493000D01*
X116801000Y-72499000D01*
X116802000Y-72505000D01*
X116804000Y-72511000D01*
X116804000Y-72517000D01*
X116805000Y-72524000D01*
X116805000Y-72530000D01*
X116805000Y-73030000D01*
X116805000Y-73036000D01*
X116804000Y-73043000D01*
X116804000Y-73049000D01*
X116802000Y-73055000D01*
X116801000Y-73061000D01*
X116799000Y-73067000D01*
X116797000Y-73073000D01*
X116795000Y-73079000D01*
X116792000Y-73084000D01*
X116789000Y-73090000D01*
X116786000Y-73095000D01*
X116782000Y-73101000D01*
X116778000Y-73106000D01*
X116774000Y-73110000D01*
X116770000Y-73115000D01*
X116765000Y-73119000D01*
X116761000Y-73123000D01*
X116756000Y-73127000D01*
X116750000Y-73131000D01*
X116745000Y-73134000D01*
X116739000Y-73137000D01*
X116734000Y-73140000D01*
X116728000Y-73142000D01*
X116722000Y-73144000D01*
X116716000Y-73146000D01*
X116710000Y-73147000D01*
X116704000Y-73149000D01*
X116698000Y-73149000D01*
X116691000Y-73150000D01*
X116685000Y-73150000D01*
X116535000Y-73150000D01*
X116529000Y-73150000D01*
X116522000Y-73149000D01*
X116516000Y-73149000D01*
X116510000Y-73147000D01*
X116504000Y-73146000D01*
X116498000Y-73144000D01*
X116492000Y-73142000D01*
X116486000Y-73140000D01*
X116481000Y-73137000D01*
X116475000Y-73134000D01*
X116470000Y-73131000D01*
X116464000Y-73127000D01*
X116459000Y-73123000D01*
X116455000Y-73119000D01*
X116450000Y-73115000D01*
X116446000Y-73110000D01*
X116442000Y-73106000D01*
X116438000Y-73101000D01*
X116434000Y-73095000D01*
X116431000Y-73090000D01*
X116428000Y-73084000D01*
X116425000Y-73079000D01*
X116423000Y-73073000D01*
X116421000Y-73067000D01*
X116419000Y-73061000D01*
X116418000Y-73055000D01*
X116416000Y-73049000D01*
X116416000Y-73043000D01*
X116415000Y-73036000D01*
X116415000Y-73030000D01*
X116415000Y-72530000D01*
X116415000Y-72524000D01*
X116416000Y-72517000D01*
X116416000Y-72511000D01*
X116418000Y-72505000D01*
X116419000Y-72499000D01*
X116421000Y-72493000D01*
X116423000Y-72487000D01*
X116425000Y-72481000D01*
X116428000Y-72476000D01*
X116431000Y-72470000D01*
X116434000Y-72465000D01*
X116438000Y-72459000D01*
X116442000Y-72454000D01*
X116446000Y-72450000D01*
X116450000Y-72445000D01*
X116455000Y-72441000D01*
X116459000Y-72437000D01*
X116464000Y-72433000D01*
X116470000Y-72429000D01*
X116475000Y-72426000D01*
X116481000Y-72423000D01*
X116486000Y-72420000D01*
X116492000Y-72418000D01*
X116498000Y-72416000D01*
X116504000Y-72414000D01*
X116510000Y-72413000D01*
X116516000Y-72411000D01*
X116522000Y-72411000D01*
X116529000Y-72410000D01*
X116535000Y-72410000D01*
X116685000Y-72410000D01*
X116691000Y-72410000D01*
X116698000Y-72411000D01*
G36*
X116698000Y-72411000D02*
G01*
X116704000Y-72411000D01*
X116710000Y-72413000D01*
X116716000Y-72414000D01*
X116722000Y-72416000D01*
X116728000Y-72418000D01*
X116734000Y-72420000D01*
X116739000Y-72423000D01*
X116745000Y-72426000D01*
X116750000Y-72429000D01*
X116756000Y-72433000D01*
X116761000Y-72437000D01*
X116765000Y-72441000D01*
X116770000Y-72445000D01*
X116774000Y-72450000D01*
X116778000Y-72454000D01*
X116782000Y-72459000D01*
X116786000Y-72465000D01*
X116789000Y-72470000D01*
X116792000Y-72476000D01*
X116795000Y-72481000D01*
X116797000Y-72487000D01*
X116799000Y-72493000D01*
X116801000Y-72499000D01*
X116802000Y-72505000D01*
X116804000Y-72511000D01*
X116804000Y-72517000D01*
X116805000Y-72524000D01*
X116805000Y-72530000D01*
X116805000Y-73030000D01*
X116805000Y-73036000D01*
X116804000Y-73043000D01*
X116804000Y-73049000D01*
X116802000Y-73055000D01*
X116801000Y-73061000D01*
X116799000Y-73067000D01*
X116797000Y-73073000D01*
X116795000Y-73079000D01*
X116792000Y-73084000D01*
X116789000Y-73090000D01*
X116786000Y-73095000D01*
X116782000Y-73101000D01*
X116778000Y-73106000D01*
X116774000Y-73110000D01*
X116770000Y-73115000D01*
X116765000Y-73119000D01*
X116761000Y-73123000D01*
X116756000Y-73127000D01*
X116750000Y-73131000D01*
X116745000Y-73134000D01*
X116739000Y-73137000D01*
X116734000Y-73140000D01*
X116728000Y-73142000D01*
X116722000Y-73144000D01*
X116716000Y-73146000D01*
X116710000Y-73147000D01*
X116704000Y-73149000D01*
X116698000Y-73149000D01*
X116691000Y-73150000D01*
X116685000Y-73150000D01*
X116535000Y-73150000D01*
X116529000Y-73150000D01*
X116522000Y-73149000D01*
X116516000Y-73149000D01*
X116510000Y-73147000D01*
X116504000Y-73146000D01*
X116498000Y-73144000D01*
X116492000Y-73142000D01*
X116486000Y-73140000D01*
X116481000Y-73137000D01*
X116475000Y-73134000D01*
X116470000Y-73131000D01*
X116464000Y-73127000D01*
X116459000Y-73123000D01*
X116455000Y-73119000D01*
X116450000Y-73115000D01*
X116446000Y-73110000D01*
X116442000Y-73106000D01*
X116438000Y-73101000D01*
X116434000Y-73095000D01*
X116431000Y-73090000D01*
X116428000Y-73084000D01*
X116425000Y-73079000D01*
X116423000Y-73073000D01*
X116421000Y-73067000D01*
X116419000Y-73061000D01*
X116418000Y-73055000D01*
X116416000Y-73049000D01*
X116416000Y-73043000D01*
X116415000Y-73036000D01*
X116415000Y-73030000D01*
X116415000Y-72530000D01*
X116415000Y-72524000D01*
X116416000Y-72517000D01*
X116416000Y-72511000D01*
X116418000Y-72505000D01*
X116419000Y-72499000D01*
X116421000Y-72493000D01*
X116423000Y-72487000D01*
X116425000Y-72481000D01*
X116428000Y-72476000D01*
X116431000Y-72470000D01*
X116434000Y-72465000D01*
X116438000Y-72459000D01*
X116442000Y-72454000D01*
X116446000Y-72450000D01*
X116450000Y-72445000D01*
X116455000Y-72441000D01*
X116459000Y-72437000D01*
X116464000Y-72433000D01*
X116470000Y-72429000D01*
X116475000Y-72426000D01*
X116481000Y-72423000D01*
X116486000Y-72420000D01*
X116492000Y-72418000D01*
X116498000Y-72416000D01*
X116504000Y-72414000D01*
X116510000Y-72413000D01*
X116516000Y-72411000D01*
X116522000Y-72411000D01*
X116529000Y-72410000D01*
X116535000Y-72410000D01*
X116685000Y-72410000D01*
X116691000Y-72410000D01*
X116698000Y-72411000D01*
G37*
X116698000Y-75711000D02*
X116704000Y-75711000D01*
X116710000Y-75713000D01*
X116716000Y-75714000D01*
X116722000Y-75716000D01*
X116728000Y-75718000D01*
X116734000Y-75720000D01*
X116739000Y-75723000D01*
X116745000Y-75726000D01*
X116750000Y-75729000D01*
X116756000Y-75733000D01*
X116761000Y-75737000D01*
X116765000Y-75741000D01*
X116770000Y-75745000D01*
X116774000Y-75750000D01*
X116778000Y-75754000D01*
X116782000Y-75759000D01*
X116786000Y-75765000D01*
X116789000Y-75770000D01*
X116792000Y-75776000D01*
X116795000Y-75781000D01*
X116797000Y-75787000D01*
X116799000Y-75793000D01*
X116801000Y-75799000D01*
X116802000Y-75805000D01*
X116804000Y-75811000D01*
X116804000Y-75817000D01*
X116805000Y-75824000D01*
X116805000Y-75830000D01*
X116805000Y-76330000D01*
X116805000Y-76336000D01*
X116804000Y-76343000D01*
X116804000Y-76349000D01*
X116802000Y-76355000D01*
X116801000Y-76361000D01*
X116799000Y-76367000D01*
X116797000Y-76373000D01*
X116795000Y-76379000D01*
X116792000Y-76384000D01*
X116789000Y-76390000D01*
X116786000Y-76395000D01*
X116782000Y-76401000D01*
X116778000Y-76406000D01*
X116774000Y-76410000D01*
X116770000Y-76415000D01*
X116765000Y-76419000D01*
X116761000Y-76423000D01*
X116756000Y-76427000D01*
X116750000Y-76431000D01*
X116745000Y-76434000D01*
X116739000Y-76437000D01*
X116734000Y-76440000D01*
X116728000Y-76442000D01*
X116722000Y-76444000D01*
X116716000Y-76446000D01*
X116710000Y-76447000D01*
X116704000Y-76449000D01*
X116698000Y-76449000D01*
X116691000Y-76450000D01*
X116685000Y-76450000D01*
X116535000Y-76450000D01*
X116529000Y-76450000D01*
X116522000Y-76449000D01*
X116516000Y-76449000D01*
X116510000Y-76447000D01*
X116504000Y-76446000D01*
X116498000Y-76444000D01*
X116492000Y-76442000D01*
X116486000Y-76440000D01*
X116481000Y-76437000D01*
X116475000Y-76434000D01*
X116470000Y-76431000D01*
X116464000Y-76427000D01*
X116459000Y-76423000D01*
X116455000Y-76419000D01*
X116450000Y-76415000D01*
X116446000Y-76410000D01*
X116442000Y-76406000D01*
X116438000Y-76401000D01*
X116434000Y-76395000D01*
X116431000Y-76390000D01*
X116428000Y-76384000D01*
X116425000Y-76379000D01*
X116423000Y-76373000D01*
X116421000Y-76367000D01*
X116419000Y-76361000D01*
X116418000Y-76355000D01*
X116416000Y-76349000D01*
X116416000Y-76343000D01*
X116415000Y-76336000D01*
X116415000Y-76330000D01*
X116415000Y-75830000D01*
X116415000Y-75824000D01*
X116416000Y-75817000D01*
X116416000Y-75811000D01*
X116418000Y-75805000D01*
X116419000Y-75799000D01*
X116421000Y-75793000D01*
X116423000Y-75787000D01*
X116425000Y-75781000D01*
X116428000Y-75776000D01*
X116431000Y-75770000D01*
X116434000Y-75765000D01*
X116438000Y-75759000D01*
X116442000Y-75754000D01*
X116446000Y-75750000D01*
X116450000Y-75745000D01*
X116455000Y-75741000D01*
X116459000Y-75737000D01*
X116464000Y-75733000D01*
X116470000Y-75729000D01*
X116475000Y-75726000D01*
X116481000Y-75723000D01*
X116486000Y-75720000D01*
X116492000Y-75718000D01*
X116498000Y-75716000D01*
X116504000Y-75714000D01*
X116510000Y-75713000D01*
X116516000Y-75711000D01*
X116522000Y-75711000D01*
X116529000Y-75710000D01*
X116535000Y-75710000D01*
X116685000Y-75710000D01*
X116691000Y-75710000D01*
X116698000Y-75711000D01*
G36*
X116698000Y-75711000D02*
G01*
X116704000Y-75711000D01*
X116710000Y-75713000D01*
X116716000Y-75714000D01*
X116722000Y-75716000D01*
X116728000Y-75718000D01*
X116734000Y-75720000D01*
X116739000Y-75723000D01*
X116745000Y-75726000D01*
X116750000Y-75729000D01*
X116756000Y-75733000D01*
X116761000Y-75737000D01*
X116765000Y-75741000D01*
X116770000Y-75745000D01*
X116774000Y-75750000D01*
X116778000Y-75754000D01*
X116782000Y-75759000D01*
X116786000Y-75765000D01*
X116789000Y-75770000D01*
X116792000Y-75776000D01*
X116795000Y-75781000D01*
X116797000Y-75787000D01*
X116799000Y-75793000D01*
X116801000Y-75799000D01*
X116802000Y-75805000D01*
X116804000Y-75811000D01*
X116804000Y-75817000D01*
X116805000Y-75824000D01*
X116805000Y-75830000D01*
X116805000Y-76330000D01*
X116805000Y-76336000D01*
X116804000Y-76343000D01*
X116804000Y-76349000D01*
X116802000Y-76355000D01*
X116801000Y-76361000D01*
X116799000Y-76367000D01*
X116797000Y-76373000D01*
X116795000Y-76379000D01*
X116792000Y-76384000D01*
X116789000Y-76390000D01*
X116786000Y-76395000D01*
X116782000Y-76401000D01*
X116778000Y-76406000D01*
X116774000Y-76410000D01*
X116770000Y-76415000D01*
X116765000Y-76419000D01*
X116761000Y-76423000D01*
X116756000Y-76427000D01*
X116750000Y-76431000D01*
X116745000Y-76434000D01*
X116739000Y-76437000D01*
X116734000Y-76440000D01*
X116728000Y-76442000D01*
X116722000Y-76444000D01*
X116716000Y-76446000D01*
X116710000Y-76447000D01*
X116704000Y-76449000D01*
X116698000Y-76449000D01*
X116691000Y-76450000D01*
X116685000Y-76450000D01*
X116535000Y-76450000D01*
X116529000Y-76450000D01*
X116522000Y-76449000D01*
X116516000Y-76449000D01*
X116510000Y-76447000D01*
X116504000Y-76446000D01*
X116498000Y-76444000D01*
X116492000Y-76442000D01*
X116486000Y-76440000D01*
X116481000Y-76437000D01*
X116475000Y-76434000D01*
X116470000Y-76431000D01*
X116464000Y-76427000D01*
X116459000Y-76423000D01*
X116455000Y-76419000D01*
X116450000Y-76415000D01*
X116446000Y-76410000D01*
X116442000Y-76406000D01*
X116438000Y-76401000D01*
X116434000Y-76395000D01*
X116431000Y-76390000D01*
X116428000Y-76384000D01*
X116425000Y-76379000D01*
X116423000Y-76373000D01*
X116421000Y-76367000D01*
X116419000Y-76361000D01*
X116418000Y-76355000D01*
X116416000Y-76349000D01*
X116416000Y-76343000D01*
X116415000Y-76336000D01*
X116415000Y-76330000D01*
X116415000Y-75830000D01*
X116415000Y-75824000D01*
X116416000Y-75817000D01*
X116416000Y-75811000D01*
X116418000Y-75805000D01*
X116419000Y-75799000D01*
X116421000Y-75793000D01*
X116423000Y-75787000D01*
X116425000Y-75781000D01*
X116428000Y-75776000D01*
X116431000Y-75770000D01*
X116434000Y-75765000D01*
X116438000Y-75759000D01*
X116442000Y-75754000D01*
X116446000Y-75750000D01*
X116450000Y-75745000D01*
X116455000Y-75741000D01*
X116459000Y-75737000D01*
X116464000Y-75733000D01*
X116470000Y-75729000D01*
X116475000Y-75726000D01*
X116481000Y-75723000D01*
X116486000Y-75720000D01*
X116492000Y-75718000D01*
X116498000Y-75716000D01*
X116504000Y-75714000D01*
X116510000Y-75713000D01*
X116516000Y-75711000D01*
X116522000Y-75711000D01*
X116529000Y-75710000D01*
X116535000Y-75710000D01*
X116685000Y-75710000D01*
X116691000Y-75710000D01*
X116698000Y-75711000D01*
G37*
X116473000Y-73486000D02*
X116479000Y-73486000D01*
X116485000Y-73488000D01*
X116491000Y-73489000D01*
X116497000Y-73491000D01*
X116503000Y-73493000D01*
X116509000Y-73495000D01*
X116514000Y-73498000D01*
X116520000Y-73501000D01*
X116525000Y-73504000D01*
X116531000Y-73508000D01*
X116536000Y-73512000D01*
X116540000Y-73516000D01*
X116545000Y-73520000D01*
X116549000Y-73525000D01*
X116553000Y-73529000D01*
X116557000Y-73534000D01*
X116561000Y-73540000D01*
X116564000Y-73545000D01*
X116567000Y-73551000D01*
X116570000Y-73556000D01*
X116572000Y-73562000D01*
X116574000Y-73568000D01*
X116576000Y-73574000D01*
X116577000Y-73580000D01*
X116579000Y-73586000D01*
X116579000Y-73592000D01*
X116580000Y-73599000D01*
X116580000Y-73605000D01*
X116580000Y-73755000D01*
X116580000Y-73761000D01*
X116579000Y-73768000D01*
X116579000Y-73774000D01*
X116577000Y-73780000D01*
X116576000Y-73786000D01*
X116574000Y-73792000D01*
X116572000Y-73798000D01*
X116570000Y-73804000D01*
X116567000Y-73809000D01*
X116564000Y-73815000D01*
X116561000Y-73820000D01*
X116557000Y-73826000D01*
X116553000Y-73831000D01*
X116549000Y-73835000D01*
X116545000Y-73840000D01*
X116540000Y-73844000D01*
X116536000Y-73848000D01*
X116531000Y-73852000D01*
X116525000Y-73856000D01*
X116520000Y-73859000D01*
X116514000Y-73862000D01*
X116509000Y-73865000D01*
X116503000Y-73867000D01*
X116497000Y-73869000D01*
X116491000Y-73871000D01*
X116485000Y-73872000D01*
X116479000Y-73874000D01*
X116473000Y-73874000D01*
X116466000Y-73875000D01*
X116460000Y-73875000D01*
X115960000Y-73875000D01*
X115954000Y-73875000D01*
X115947000Y-73874000D01*
X115941000Y-73874000D01*
X115935000Y-73872000D01*
X115929000Y-73871000D01*
X115923000Y-73869000D01*
X115917000Y-73867000D01*
X115911000Y-73865000D01*
X115906000Y-73862000D01*
X115900000Y-73859000D01*
X115895000Y-73856000D01*
X115889000Y-73852000D01*
X115884000Y-73848000D01*
X115880000Y-73844000D01*
X115875000Y-73840000D01*
X115871000Y-73835000D01*
X115867000Y-73831000D01*
X115863000Y-73826000D01*
X115859000Y-73820000D01*
X115856000Y-73815000D01*
X115853000Y-73809000D01*
X115850000Y-73804000D01*
X115848000Y-73798000D01*
X115846000Y-73792000D01*
X115844000Y-73786000D01*
X115843000Y-73780000D01*
X115841000Y-73774000D01*
X115841000Y-73768000D01*
X115840000Y-73761000D01*
X115840000Y-73755000D01*
X115840000Y-73605000D01*
X115840000Y-73599000D01*
X115841000Y-73592000D01*
X115841000Y-73586000D01*
X115843000Y-73580000D01*
X115844000Y-73574000D01*
X115846000Y-73568000D01*
X115848000Y-73562000D01*
X115850000Y-73556000D01*
X115853000Y-73551000D01*
X115856000Y-73545000D01*
X115859000Y-73540000D01*
X115863000Y-73534000D01*
X115867000Y-73529000D01*
X115871000Y-73525000D01*
X115875000Y-73520000D01*
X115880000Y-73516000D01*
X115884000Y-73512000D01*
X115889000Y-73508000D01*
X115895000Y-73504000D01*
X115900000Y-73501000D01*
X115906000Y-73498000D01*
X115911000Y-73495000D01*
X115917000Y-73493000D01*
X115923000Y-73491000D01*
X115929000Y-73489000D01*
X115935000Y-73488000D01*
X115941000Y-73486000D01*
X115947000Y-73486000D01*
X115954000Y-73485000D01*
X115960000Y-73485000D01*
X116460000Y-73485000D01*
X116466000Y-73485000D01*
X116473000Y-73486000D01*
G36*
X116473000Y-73486000D02*
G01*
X116479000Y-73486000D01*
X116485000Y-73488000D01*
X116491000Y-73489000D01*
X116497000Y-73491000D01*
X116503000Y-73493000D01*
X116509000Y-73495000D01*
X116514000Y-73498000D01*
X116520000Y-73501000D01*
X116525000Y-73504000D01*
X116531000Y-73508000D01*
X116536000Y-73512000D01*
X116540000Y-73516000D01*
X116545000Y-73520000D01*
X116549000Y-73525000D01*
X116553000Y-73529000D01*
X116557000Y-73534000D01*
X116561000Y-73540000D01*
X116564000Y-73545000D01*
X116567000Y-73551000D01*
X116570000Y-73556000D01*
X116572000Y-73562000D01*
X116574000Y-73568000D01*
X116576000Y-73574000D01*
X116577000Y-73580000D01*
X116579000Y-73586000D01*
X116579000Y-73592000D01*
X116580000Y-73599000D01*
X116580000Y-73605000D01*
X116580000Y-73755000D01*
X116580000Y-73761000D01*
X116579000Y-73768000D01*
X116579000Y-73774000D01*
X116577000Y-73780000D01*
X116576000Y-73786000D01*
X116574000Y-73792000D01*
X116572000Y-73798000D01*
X116570000Y-73804000D01*
X116567000Y-73809000D01*
X116564000Y-73815000D01*
X116561000Y-73820000D01*
X116557000Y-73826000D01*
X116553000Y-73831000D01*
X116549000Y-73835000D01*
X116545000Y-73840000D01*
X116540000Y-73844000D01*
X116536000Y-73848000D01*
X116531000Y-73852000D01*
X116525000Y-73856000D01*
X116520000Y-73859000D01*
X116514000Y-73862000D01*
X116509000Y-73865000D01*
X116503000Y-73867000D01*
X116497000Y-73869000D01*
X116491000Y-73871000D01*
X116485000Y-73872000D01*
X116479000Y-73874000D01*
X116473000Y-73874000D01*
X116466000Y-73875000D01*
X116460000Y-73875000D01*
X115960000Y-73875000D01*
X115954000Y-73875000D01*
X115947000Y-73874000D01*
X115941000Y-73874000D01*
X115935000Y-73872000D01*
X115929000Y-73871000D01*
X115923000Y-73869000D01*
X115917000Y-73867000D01*
X115911000Y-73865000D01*
X115906000Y-73862000D01*
X115900000Y-73859000D01*
X115895000Y-73856000D01*
X115889000Y-73852000D01*
X115884000Y-73848000D01*
X115880000Y-73844000D01*
X115875000Y-73840000D01*
X115871000Y-73835000D01*
X115867000Y-73831000D01*
X115863000Y-73826000D01*
X115859000Y-73820000D01*
X115856000Y-73815000D01*
X115853000Y-73809000D01*
X115850000Y-73804000D01*
X115848000Y-73798000D01*
X115846000Y-73792000D01*
X115844000Y-73786000D01*
X115843000Y-73780000D01*
X115841000Y-73774000D01*
X115841000Y-73768000D01*
X115840000Y-73761000D01*
X115840000Y-73755000D01*
X115840000Y-73605000D01*
X115840000Y-73599000D01*
X115841000Y-73592000D01*
X115841000Y-73586000D01*
X115843000Y-73580000D01*
X115844000Y-73574000D01*
X115846000Y-73568000D01*
X115848000Y-73562000D01*
X115850000Y-73556000D01*
X115853000Y-73551000D01*
X115856000Y-73545000D01*
X115859000Y-73540000D01*
X115863000Y-73534000D01*
X115867000Y-73529000D01*
X115871000Y-73525000D01*
X115875000Y-73520000D01*
X115880000Y-73516000D01*
X115884000Y-73512000D01*
X115889000Y-73508000D01*
X115895000Y-73504000D01*
X115900000Y-73501000D01*
X115906000Y-73498000D01*
X115911000Y-73495000D01*
X115917000Y-73493000D01*
X115923000Y-73491000D01*
X115929000Y-73489000D01*
X115935000Y-73488000D01*
X115941000Y-73486000D01*
X115947000Y-73486000D01*
X115954000Y-73485000D01*
X115960000Y-73485000D01*
X116460000Y-73485000D01*
X116466000Y-73485000D01*
X116473000Y-73486000D01*
G37*
X116473000Y-74986000D02*
X116479000Y-74986000D01*
X116485000Y-74988000D01*
X116491000Y-74989000D01*
X116497000Y-74991000D01*
X116503000Y-74993000D01*
X116509000Y-74995000D01*
X116514000Y-74998000D01*
X116520000Y-75001000D01*
X116525000Y-75004000D01*
X116531000Y-75008000D01*
X116536000Y-75012000D01*
X116540000Y-75016000D01*
X116545000Y-75020000D01*
X116549000Y-75025000D01*
X116553000Y-75029000D01*
X116557000Y-75034000D01*
X116561000Y-75040000D01*
X116564000Y-75045000D01*
X116567000Y-75051000D01*
X116570000Y-75056000D01*
X116572000Y-75062000D01*
X116574000Y-75068000D01*
X116576000Y-75074000D01*
X116577000Y-75080000D01*
X116579000Y-75086000D01*
X116579000Y-75092000D01*
X116580000Y-75099000D01*
X116580000Y-75105000D01*
X116580000Y-75255000D01*
X116580000Y-75261000D01*
X116579000Y-75268000D01*
X116579000Y-75274000D01*
X116577000Y-75280000D01*
X116576000Y-75286000D01*
X116574000Y-75292000D01*
X116572000Y-75298000D01*
X116570000Y-75304000D01*
X116567000Y-75309000D01*
X116564000Y-75315000D01*
X116561000Y-75320000D01*
X116557000Y-75326000D01*
X116553000Y-75331000D01*
X116549000Y-75335000D01*
X116545000Y-75340000D01*
X116540000Y-75344000D01*
X116536000Y-75348000D01*
X116531000Y-75352000D01*
X116525000Y-75356000D01*
X116520000Y-75359000D01*
X116514000Y-75362000D01*
X116509000Y-75365000D01*
X116503000Y-75367000D01*
X116497000Y-75369000D01*
X116491000Y-75371000D01*
X116485000Y-75372000D01*
X116479000Y-75374000D01*
X116473000Y-75374000D01*
X116466000Y-75375000D01*
X116460000Y-75375000D01*
X115960000Y-75375000D01*
X115954000Y-75375000D01*
X115947000Y-75374000D01*
X115941000Y-75374000D01*
X115935000Y-75372000D01*
X115929000Y-75371000D01*
X115923000Y-75369000D01*
X115917000Y-75367000D01*
X115911000Y-75365000D01*
X115906000Y-75362000D01*
X115900000Y-75359000D01*
X115895000Y-75356000D01*
X115889000Y-75352000D01*
X115884000Y-75348000D01*
X115880000Y-75344000D01*
X115875000Y-75340000D01*
X115871000Y-75335000D01*
X115867000Y-75331000D01*
X115863000Y-75326000D01*
X115859000Y-75320000D01*
X115856000Y-75315000D01*
X115853000Y-75309000D01*
X115850000Y-75304000D01*
X115848000Y-75298000D01*
X115846000Y-75292000D01*
X115844000Y-75286000D01*
X115843000Y-75280000D01*
X115841000Y-75274000D01*
X115841000Y-75268000D01*
X115840000Y-75261000D01*
X115840000Y-75255000D01*
X115840000Y-75105000D01*
X115840000Y-75099000D01*
X115841000Y-75092000D01*
X115841000Y-75086000D01*
X115843000Y-75080000D01*
X115844000Y-75074000D01*
X115846000Y-75068000D01*
X115848000Y-75062000D01*
X115850000Y-75056000D01*
X115853000Y-75051000D01*
X115856000Y-75045000D01*
X115859000Y-75040000D01*
X115863000Y-75034000D01*
X115867000Y-75029000D01*
X115871000Y-75025000D01*
X115875000Y-75020000D01*
X115880000Y-75016000D01*
X115884000Y-75012000D01*
X115889000Y-75008000D01*
X115895000Y-75004000D01*
X115900000Y-75001000D01*
X115906000Y-74998000D01*
X115911000Y-74995000D01*
X115917000Y-74993000D01*
X115923000Y-74991000D01*
X115929000Y-74989000D01*
X115935000Y-74988000D01*
X115941000Y-74986000D01*
X115947000Y-74986000D01*
X115954000Y-74985000D01*
X115960000Y-74985000D01*
X116460000Y-74985000D01*
X116466000Y-74985000D01*
X116473000Y-74986000D01*
G36*
X116473000Y-74986000D02*
G01*
X116479000Y-74986000D01*
X116485000Y-74988000D01*
X116491000Y-74989000D01*
X116497000Y-74991000D01*
X116503000Y-74993000D01*
X116509000Y-74995000D01*
X116514000Y-74998000D01*
X116520000Y-75001000D01*
X116525000Y-75004000D01*
X116531000Y-75008000D01*
X116536000Y-75012000D01*
X116540000Y-75016000D01*
X116545000Y-75020000D01*
X116549000Y-75025000D01*
X116553000Y-75029000D01*
X116557000Y-75034000D01*
X116561000Y-75040000D01*
X116564000Y-75045000D01*
X116567000Y-75051000D01*
X116570000Y-75056000D01*
X116572000Y-75062000D01*
X116574000Y-75068000D01*
X116576000Y-75074000D01*
X116577000Y-75080000D01*
X116579000Y-75086000D01*
X116579000Y-75092000D01*
X116580000Y-75099000D01*
X116580000Y-75105000D01*
X116580000Y-75255000D01*
X116580000Y-75261000D01*
X116579000Y-75268000D01*
X116579000Y-75274000D01*
X116577000Y-75280000D01*
X116576000Y-75286000D01*
X116574000Y-75292000D01*
X116572000Y-75298000D01*
X116570000Y-75304000D01*
X116567000Y-75309000D01*
X116564000Y-75315000D01*
X116561000Y-75320000D01*
X116557000Y-75326000D01*
X116553000Y-75331000D01*
X116549000Y-75335000D01*
X116545000Y-75340000D01*
X116540000Y-75344000D01*
X116536000Y-75348000D01*
X116531000Y-75352000D01*
X116525000Y-75356000D01*
X116520000Y-75359000D01*
X116514000Y-75362000D01*
X116509000Y-75365000D01*
X116503000Y-75367000D01*
X116497000Y-75369000D01*
X116491000Y-75371000D01*
X116485000Y-75372000D01*
X116479000Y-75374000D01*
X116473000Y-75374000D01*
X116466000Y-75375000D01*
X116460000Y-75375000D01*
X115960000Y-75375000D01*
X115954000Y-75375000D01*
X115947000Y-75374000D01*
X115941000Y-75374000D01*
X115935000Y-75372000D01*
X115929000Y-75371000D01*
X115923000Y-75369000D01*
X115917000Y-75367000D01*
X115911000Y-75365000D01*
X115906000Y-75362000D01*
X115900000Y-75359000D01*
X115895000Y-75356000D01*
X115889000Y-75352000D01*
X115884000Y-75348000D01*
X115880000Y-75344000D01*
X115875000Y-75340000D01*
X115871000Y-75335000D01*
X115867000Y-75331000D01*
X115863000Y-75326000D01*
X115859000Y-75320000D01*
X115856000Y-75315000D01*
X115853000Y-75309000D01*
X115850000Y-75304000D01*
X115848000Y-75298000D01*
X115846000Y-75292000D01*
X115844000Y-75286000D01*
X115843000Y-75280000D01*
X115841000Y-75274000D01*
X115841000Y-75268000D01*
X115840000Y-75261000D01*
X115840000Y-75255000D01*
X115840000Y-75105000D01*
X115840000Y-75099000D01*
X115841000Y-75092000D01*
X115841000Y-75086000D01*
X115843000Y-75080000D01*
X115844000Y-75074000D01*
X115846000Y-75068000D01*
X115848000Y-75062000D01*
X115850000Y-75056000D01*
X115853000Y-75051000D01*
X115856000Y-75045000D01*
X115859000Y-75040000D01*
X115863000Y-75034000D01*
X115867000Y-75029000D01*
X115871000Y-75025000D01*
X115875000Y-75020000D01*
X115880000Y-75016000D01*
X115884000Y-75012000D01*
X115889000Y-75008000D01*
X115895000Y-75004000D01*
X115900000Y-75001000D01*
X115906000Y-74998000D01*
X115911000Y-74995000D01*
X115917000Y-74993000D01*
X115923000Y-74991000D01*
X115929000Y-74989000D01*
X115935000Y-74988000D01*
X115941000Y-74986000D01*
X115947000Y-74986000D01*
X115954000Y-74985000D01*
X115960000Y-74985000D01*
X116460000Y-74985000D01*
X116466000Y-74985000D01*
X116473000Y-74986000D01*
G37*
X117198000Y-72411000D02*
X117204000Y-72411000D01*
X117210000Y-72413000D01*
X117216000Y-72414000D01*
X117222000Y-72416000D01*
X117228000Y-72418000D01*
X117234000Y-72420000D01*
X117239000Y-72423000D01*
X117245000Y-72426000D01*
X117250000Y-72429000D01*
X117256000Y-72433000D01*
X117261000Y-72437000D01*
X117265000Y-72441000D01*
X117270000Y-72445000D01*
X117274000Y-72450000D01*
X117278000Y-72454000D01*
X117282000Y-72459000D01*
X117286000Y-72465000D01*
X117289000Y-72470000D01*
X117292000Y-72476000D01*
X117295000Y-72481000D01*
X117297000Y-72487000D01*
X117299000Y-72493000D01*
X117301000Y-72499000D01*
X117302000Y-72505000D01*
X117304000Y-72511000D01*
X117304000Y-72517000D01*
X117305000Y-72524000D01*
X117305000Y-72530000D01*
X117305000Y-73030000D01*
X117305000Y-73036000D01*
X117304000Y-73043000D01*
X117304000Y-73049000D01*
X117302000Y-73055000D01*
X117301000Y-73061000D01*
X117299000Y-73067000D01*
X117297000Y-73073000D01*
X117295000Y-73079000D01*
X117292000Y-73084000D01*
X117289000Y-73090000D01*
X117286000Y-73095000D01*
X117282000Y-73101000D01*
X117278000Y-73106000D01*
X117274000Y-73110000D01*
X117270000Y-73115000D01*
X117265000Y-73119000D01*
X117261000Y-73123000D01*
X117256000Y-73127000D01*
X117250000Y-73131000D01*
X117245000Y-73134000D01*
X117239000Y-73137000D01*
X117234000Y-73140000D01*
X117228000Y-73142000D01*
X117222000Y-73144000D01*
X117216000Y-73146000D01*
X117210000Y-73147000D01*
X117204000Y-73149000D01*
X117198000Y-73149000D01*
X117191000Y-73150000D01*
X117185000Y-73150000D01*
X117035000Y-73150000D01*
X117029000Y-73150000D01*
X117022000Y-73149000D01*
X117016000Y-73149000D01*
X117010000Y-73147000D01*
X117004000Y-73146000D01*
X116998000Y-73144000D01*
X116992000Y-73142000D01*
X116986000Y-73140000D01*
X116981000Y-73137000D01*
X116975000Y-73134000D01*
X116970000Y-73131000D01*
X116964000Y-73127000D01*
X116959000Y-73123000D01*
X116955000Y-73119000D01*
X116950000Y-73115000D01*
X116946000Y-73110000D01*
X116942000Y-73106000D01*
X116938000Y-73101000D01*
X116934000Y-73095000D01*
X116931000Y-73090000D01*
X116928000Y-73084000D01*
X116925000Y-73079000D01*
X116923000Y-73073000D01*
X116921000Y-73067000D01*
X116919000Y-73061000D01*
X116918000Y-73055000D01*
X116916000Y-73049000D01*
X116916000Y-73043000D01*
X116915000Y-73036000D01*
X116915000Y-73030000D01*
X116915000Y-72530000D01*
X116915000Y-72524000D01*
X116916000Y-72517000D01*
X116916000Y-72511000D01*
X116918000Y-72505000D01*
X116919000Y-72499000D01*
X116921000Y-72493000D01*
X116923000Y-72487000D01*
X116925000Y-72481000D01*
X116928000Y-72476000D01*
X116931000Y-72470000D01*
X116934000Y-72465000D01*
X116938000Y-72459000D01*
X116942000Y-72454000D01*
X116946000Y-72450000D01*
X116950000Y-72445000D01*
X116955000Y-72441000D01*
X116959000Y-72437000D01*
X116964000Y-72433000D01*
X116970000Y-72429000D01*
X116975000Y-72426000D01*
X116981000Y-72423000D01*
X116986000Y-72420000D01*
X116992000Y-72418000D01*
X116998000Y-72416000D01*
X117004000Y-72414000D01*
X117010000Y-72413000D01*
X117016000Y-72411000D01*
X117022000Y-72411000D01*
X117029000Y-72410000D01*
X117035000Y-72410000D01*
X117185000Y-72410000D01*
X117191000Y-72410000D01*
X117198000Y-72411000D01*
G36*
X117198000Y-72411000D02*
G01*
X117204000Y-72411000D01*
X117210000Y-72413000D01*
X117216000Y-72414000D01*
X117222000Y-72416000D01*
X117228000Y-72418000D01*
X117234000Y-72420000D01*
X117239000Y-72423000D01*
X117245000Y-72426000D01*
X117250000Y-72429000D01*
X117256000Y-72433000D01*
X117261000Y-72437000D01*
X117265000Y-72441000D01*
X117270000Y-72445000D01*
X117274000Y-72450000D01*
X117278000Y-72454000D01*
X117282000Y-72459000D01*
X117286000Y-72465000D01*
X117289000Y-72470000D01*
X117292000Y-72476000D01*
X117295000Y-72481000D01*
X117297000Y-72487000D01*
X117299000Y-72493000D01*
X117301000Y-72499000D01*
X117302000Y-72505000D01*
X117304000Y-72511000D01*
X117304000Y-72517000D01*
X117305000Y-72524000D01*
X117305000Y-72530000D01*
X117305000Y-73030000D01*
X117305000Y-73036000D01*
X117304000Y-73043000D01*
X117304000Y-73049000D01*
X117302000Y-73055000D01*
X117301000Y-73061000D01*
X117299000Y-73067000D01*
X117297000Y-73073000D01*
X117295000Y-73079000D01*
X117292000Y-73084000D01*
X117289000Y-73090000D01*
X117286000Y-73095000D01*
X117282000Y-73101000D01*
X117278000Y-73106000D01*
X117274000Y-73110000D01*
X117270000Y-73115000D01*
X117265000Y-73119000D01*
X117261000Y-73123000D01*
X117256000Y-73127000D01*
X117250000Y-73131000D01*
X117245000Y-73134000D01*
X117239000Y-73137000D01*
X117234000Y-73140000D01*
X117228000Y-73142000D01*
X117222000Y-73144000D01*
X117216000Y-73146000D01*
X117210000Y-73147000D01*
X117204000Y-73149000D01*
X117198000Y-73149000D01*
X117191000Y-73150000D01*
X117185000Y-73150000D01*
X117035000Y-73150000D01*
X117029000Y-73150000D01*
X117022000Y-73149000D01*
X117016000Y-73149000D01*
X117010000Y-73147000D01*
X117004000Y-73146000D01*
X116998000Y-73144000D01*
X116992000Y-73142000D01*
X116986000Y-73140000D01*
X116981000Y-73137000D01*
X116975000Y-73134000D01*
X116970000Y-73131000D01*
X116964000Y-73127000D01*
X116959000Y-73123000D01*
X116955000Y-73119000D01*
X116950000Y-73115000D01*
X116946000Y-73110000D01*
X116942000Y-73106000D01*
X116938000Y-73101000D01*
X116934000Y-73095000D01*
X116931000Y-73090000D01*
X116928000Y-73084000D01*
X116925000Y-73079000D01*
X116923000Y-73073000D01*
X116921000Y-73067000D01*
X116919000Y-73061000D01*
X116918000Y-73055000D01*
X116916000Y-73049000D01*
X116916000Y-73043000D01*
X116915000Y-73036000D01*
X116915000Y-73030000D01*
X116915000Y-72530000D01*
X116915000Y-72524000D01*
X116916000Y-72517000D01*
X116916000Y-72511000D01*
X116918000Y-72505000D01*
X116919000Y-72499000D01*
X116921000Y-72493000D01*
X116923000Y-72487000D01*
X116925000Y-72481000D01*
X116928000Y-72476000D01*
X116931000Y-72470000D01*
X116934000Y-72465000D01*
X116938000Y-72459000D01*
X116942000Y-72454000D01*
X116946000Y-72450000D01*
X116950000Y-72445000D01*
X116955000Y-72441000D01*
X116959000Y-72437000D01*
X116964000Y-72433000D01*
X116970000Y-72429000D01*
X116975000Y-72426000D01*
X116981000Y-72423000D01*
X116986000Y-72420000D01*
X116992000Y-72418000D01*
X116998000Y-72416000D01*
X117004000Y-72414000D01*
X117010000Y-72413000D01*
X117016000Y-72411000D01*
X117022000Y-72411000D01*
X117029000Y-72410000D01*
X117035000Y-72410000D01*
X117185000Y-72410000D01*
X117191000Y-72410000D01*
X117198000Y-72411000D01*
G37*
X117198000Y-75711000D02*
X117204000Y-75711000D01*
X117210000Y-75713000D01*
X117216000Y-75714000D01*
X117222000Y-75716000D01*
X117228000Y-75718000D01*
X117234000Y-75720000D01*
X117239000Y-75723000D01*
X117245000Y-75726000D01*
X117250000Y-75729000D01*
X117256000Y-75733000D01*
X117261000Y-75737000D01*
X117265000Y-75741000D01*
X117270000Y-75745000D01*
X117274000Y-75750000D01*
X117278000Y-75754000D01*
X117282000Y-75759000D01*
X117286000Y-75765000D01*
X117289000Y-75770000D01*
X117292000Y-75776000D01*
X117295000Y-75781000D01*
X117297000Y-75787000D01*
X117299000Y-75793000D01*
X117301000Y-75799000D01*
X117302000Y-75805000D01*
X117304000Y-75811000D01*
X117304000Y-75817000D01*
X117305000Y-75824000D01*
X117305000Y-75830000D01*
X117305000Y-76330000D01*
X117305000Y-76336000D01*
X117304000Y-76343000D01*
X117304000Y-76349000D01*
X117302000Y-76355000D01*
X117301000Y-76361000D01*
X117299000Y-76367000D01*
X117297000Y-76373000D01*
X117295000Y-76379000D01*
X117292000Y-76384000D01*
X117289000Y-76390000D01*
X117286000Y-76395000D01*
X117282000Y-76401000D01*
X117278000Y-76406000D01*
X117274000Y-76410000D01*
X117270000Y-76415000D01*
X117265000Y-76419000D01*
X117261000Y-76423000D01*
X117256000Y-76427000D01*
X117250000Y-76431000D01*
X117245000Y-76434000D01*
X117239000Y-76437000D01*
X117234000Y-76440000D01*
X117228000Y-76442000D01*
X117222000Y-76444000D01*
X117216000Y-76446000D01*
X117210000Y-76447000D01*
X117204000Y-76449000D01*
X117198000Y-76449000D01*
X117191000Y-76450000D01*
X117185000Y-76450000D01*
X117035000Y-76450000D01*
X117029000Y-76450000D01*
X117022000Y-76449000D01*
X117016000Y-76449000D01*
X117010000Y-76447000D01*
X117004000Y-76446000D01*
X116998000Y-76444000D01*
X116992000Y-76442000D01*
X116986000Y-76440000D01*
X116981000Y-76437000D01*
X116975000Y-76434000D01*
X116970000Y-76431000D01*
X116964000Y-76427000D01*
X116959000Y-76423000D01*
X116955000Y-76419000D01*
X116950000Y-76415000D01*
X116946000Y-76410000D01*
X116942000Y-76406000D01*
X116938000Y-76401000D01*
X116934000Y-76395000D01*
X116931000Y-76390000D01*
X116928000Y-76384000D01*
X116925000Y-76379000D01*
X116923000Y-76373000D01*
X116921000Y-76367000D01*
X116919000Y-76361000D01*
X116918000Y-76355000D01*
X116916000Y-76349000D01*
X116916000Y-76343000D01*
X116915000Y-76336000D01*
X116915000Y-76330000D01*
X116915000Y-75830000D01*
X116915000Y-75824000D01*
X116916000Y-75817000D01*
X116916000Y-75811000D01*
X116918000Y-75805000D01*
X116919000Y-75799000D01*
X116921000Y-75793000D01*
X116923000Y-75787000D01*
X116925000Y-75781000D01*
X116928000Y-75776000D01*
X116931000Y-75770000D01*
X116934000Y-75765000D01*
X116938000Y-75759000D01*
X116942000Y-75754000D01*
X116946000Y-75750000D01*
X116950000Y-75745000D01*
X116955000Y-75741000D01*
X116959000Y-75737000D01*
X116964000Y-75733000D01*
X116970000Y-75729000D01*
X116975000Y-75726000D01*
X116981000Y-75723000D01*
X116986000Y-75720000D01*
X116992000Y-75718000D01*
X116998000Y-75716000D01*
X117004000Y-75714000D01*
X117010000Y-75713000D01*
X117016000Y-75711000D01*
X117022000Y-75711000D01*
X117029000Y-75710000D01*
X117035000Y-75710000D01*
X117185000Y-75710000D01*
X117191000Y-75710000D01*
X117198000Y-75711000D01*
G36*
X117198000Y-75711000D02*
G01*
X117204000Y-75711000D01*
X117210000Y-75713000D01*
X117216000Y-75714000D01*
X117222000Y-75716000D01*
X117228000Y-75718000D01*
X117234000Y-75720000D01*
X117239000Y-75723000D01*
X117245000Y-75726000D01*
X117250000Y-75729000D01*
X117256000Y-75733000D01*
X117261000Y-75737000D01*
X117265000Y-75741000D01*
X117270000Y-75745000D01*
X117274000Y-75750000D01*
X117278000Y-75754000D01*
X117282000Y-75759000D01*
X117286000Y-75765000D01*
X117289000Y-75770000D01*
X117292000Y-75776000D01*
X117295000Y-75781000D01*
X117297000Y-75787000D01*
X117299000Y-75793000D01*
X117301000Y-75799000D01*
X117302000Y-75805000D01*
X117304000Y-75811000D01*
X117304000Y-75817000D01*
X117305000Y-75824000D01*
X117305000Y-75830000D01*
X117305000Y-76330000D01*
X117305000Y-76336000D01*
X117304000Y-76343000D01*
X117304000Y-76349000D01*
X117302000Y-76355000D01*
X117301000Y-76361000D01*
X117299000Y-76367000D01*
X117297000Y-76373000D01*
X117295000Y-76379000D01*
X117292000Y-76384000D01*
X117289000Y-76390000D01*
X117286000Y-76395000D01*
X117282000Y-76401000D01*
X117278000Y-76406000D01*
X117274000Y-76410000D01*
X117270000Y-76415000D01*
X117265000Y-76419000D01*
X117261000Y-76423000D01*
X117256000Y-76427000D01*
X117250000Y-76431000D01*
X117245000Y-76434000D01*
X117239000Y-76437000D01*
X117234000Y-76440000D01*
X117228000Y-76442000D01*
X117222000Y-76444000D01*
X117216000Y-76446000D01*
X117210000Y-76447000D01*
X117204000Y-76449000D01*
X117198000Y-76449000D01*
X117191000Y-76450000D01*
X117185000Y-76450000D01*
X117035000Y-76450000D01*
X117029000Y-76450000D01*
X117022000Y-76449000D01*
X117016000Y-76449000D01*
X117010000Y-76447000D01*
X117004000Y-76446000D01*
X116998000Y-76444000D01*
X116992000Y-76442000D01*
X116986000Y-76440000D01*
X116981000Y-76437000D01*
X116975000Y-76434000D01*
X116970000Y-76431000D01*
X116964000Y-76427000D01*
X116959000Y-76423000D01*
X116955000Y-76419000D01*
X116950000Y-76415000D01*
X116946000Y-76410000D01*
X116942000Y-76406000D01*
X116938000Y-76401000D01*
X116934000Y-76395000D01*
X116931000Y-76390000D01*
X116928000Y-76384000D01*
X116925000Y-76379000D01*
X116923000Y-76373000D01*
X116921000Y-76367000D01*
X116919000Y-76361000D01*
X116918000Y-76355000D01*
X116916000Y-76349000D01*
X116916000Y-76343000D01*
X116915000Y-76336000D01*
X116915000Y-76330000D01*
X116915000Y-75830000D01*
X116915000Y-75824000D01*
X116916000Y-75817000D01*
X116916000Y-75811000D01*
X116918000Y-75805000D01*
X116919000Y-75799000D01*
X116921000Y-75793000D01*
X116923000Y-75787000D01*
X116925000Y-75781000D01*
X116928000Y-75776000D01*
X116931000Y-75770000D01*
X116934000Y-75765000D01*
X116938000Y-75759000D01*
X116942000Y-75754000D01*
X116946000Y-75750000D01*
X116950000Y-75745000D01*
X116955000Y-75741000D01*
X116959000Y-75737000D01*
X116964000Y-75733000D01*
X116970000Y-75729000D01*
X116975000Y-75726000D01*
X116981000Y-75723000D01*
X116986000Y-75720000D01*
X116992000Y-75718000D01*
X116998000Y-75716000D01*
X117004000Y-75714000D01*
X117010000Y-75713000D01*
X117016000Y-75711000D01*
X117022000Y-75711000D01*
X117029000Y-75710000D01*
X117035000Y-75710000D01*
X117185000Y-75710000D01*
X117191000Y-75710000D01*
X117198000Y-75711000D01*
G37*
X119673000Y-73531000D02*
X119679000Y-73531000D01*
X119685000Y-73533000D01*
X119691000Y-73534000D01*
X119697000Y-73536000D01*
X119703000Y-73538000D01*
X119709000Y-73540000D01*
X119714000Y-73543000D01*
X119720000Y-73546000D01*
X119725000Y-73549000D01*
X119731000Y-73553000D01*
X119736000Y-73557000D01*
X119740000Y-73561000D01*
X119745000Y-73565000D01*
X119749000Y-73570000D01*
X119753000Y-73574000D01*
X119757000Y-73579000D01*
X119761000Y-73585000D01*
X119764000Y-73590000D01*
X119767000Y-73596000D01*
X119770000Y-73601000D01*
X119772000Y-73607000D01*
X119774000Y-73613000D01*
X119776000Y-73619000D01*
X119777000Y-73625000D01*
X119779000Y-73631000D01*
X119779000Y-73637000D01*
X119780000Y-73644000D01*
X119780000Y-73650000D01*
X119780000Y-75250000D01*
X119780000Y-75256000D01*
X119779000Y-75263000D01*
X119779000Y-75269000D01*
X119777000Y-75275000D01*
X119776000Y-75281000D01*
X119774000Y-75287000D01*
X119772000Y-75293000D01*
X119770000Y-75299000D01*
X119767000Y-75304000D01*
X119764000Y-75310000D01*
X119761000Y-75315000D01*
X119757000Y-75321000D01*
X119753000Y-75326000D01*
X119749000Y-75330000D01*
X119745000Y-75335000D01*
X119740000Y-75339000D01*
X119736000Y-75343000D01*
X119731000Y-75347000D01*
X119725000Y-75351000D01*
X119720000Y-75354000D01*
X119714000Y-75357000D01*
X119709000Y-75360000D01*
X119703000Y-75362000D01*
X119697000Y-75364000D01*
X119691000Y-75366000D01*
X119685000Y-75367000D01*
X119679000Y-75369000D01*
X119673000Y-75369000D01*
X119666000Y-75370000D01*
X119660000Y-75370000D01*
X117060000Y-75370000D01*
X117054000Y-75370000D01*
X117047000Y-75369000D01*
X117041000Y-75369000D01*
X117035000Y-75367000D01*
X117029000Y-75366000D01*
X117023000Y-75364000D01*
X117017000Y-75362000D01*
X117011000Y-75360000D01*
X117006000Y-75357000D01*
X117000000Y-75354000D01*
X116995000Y-75351000D01*
X116989000Y-75347000D01*
X116984000Y-75343000D01*
X116980000Y-75339000D01*
X116975000Y-75335000D01*
X116971000Y-75330000D01*
X116967000Y-75326000D01*
X116963000Y-75321000D01*
X116959000Y-75315000D01*
X116956000Y-75310000D01*
X116953000Y-75304000D01*
X116950000Y-75299000D01*
X116948000Y-75293000D01*
X116946000Y-75287000D01*
X116944000Y-75281000D01*
X116943000Y-75275000D01*
X116941000Y-75269000D01*
X116941000Y-75263000D01*
X116940000Y-75256000D01*
X116940000Y-75250000D01*
X116940000Y-73650000D01*
X116940000Y-73644000D01*
X116941000Y-73637000D01*
X116941000Y-73631000D01*
X116943000Y-73625000D01*
X116944000Y-73619000D01*
X116946000Y-73613000D01*
X116948000Y-73607000D01*
X116950000Y-73601000D01*
X116953000Y-73596000D01*
X116956000Y-73590000D01*
X116959000Y-73585000D01*
X116963000Y-73579000D01*
X116967000Y-73574000D01*
X116971000Y-73570000D01*
X116975000Y-73565000D01*
X116980000Y-73561000D01*
X116984000Y-73557000D01*
X116989000Y-73553000D01*
X116995000Y-73549000D01*
X117000000Y-73546000D01*
X117006000Y-73543000D01*
X117011000Y-73540000D01*
X117017000Y-73538000D01*
X117023000Y-73536000D01*
X117029000Y-73534000D01*
X117035000Y-73533000D01*
X117041000Y-73531000D01*
X117047000Y-73531000D01*
X117054000Y-73530000D01*
X117060000Y-73530000D01*
X119660000Y-73530000D01*
X119666000Y-73530000D01*
X119673000Y-73531000D01*
G36*
X119673000Y-73531000D02*
G01*
X119679000Y-73531000D01*
X119685000Y-73533000D01*
X119691000Y-73534000D01*
X119697000Y-73536000D01*
X119703000Y-73538000D01*
X119709000Y-73540000D01*
X119714000Y-73543000D01*
X119720000Y-73546000D01*
X119725000Y-73549000D01*
X119731000Y-73553000D01*
X119736000Y-73557000D01*
X119740000Y-73561000D01*
X119745000Y-73565000D01*
X119749000Y-73570000D01*
X119753000Y-73574000D01*
X119757000Y-73579000D01*
X119761000Y-73585000D01*
X119764000Y-73590000D01*
X119767000Y-73596000D01*
X119770000Y-73601000D01*
X119772000Y-73607000D01*
X119774000Y-73613000D01*
X119776000Y-73619000D01*
X119777000Y-73625000D01*
X119779000Y-73631000D01*
X119779000Y-73637000D01*
X119780000Y-73644000D01*
X119780000Y-73650000D01*
X119780000Y-75250000D01*
X119780000Y-75256000D01*
X119779000Y-75263000D01*
X119779000Y-75269000D01*
X119777000Y-75275000D01*
X119776000Y-75281000D01*
X119774000Y-75287000D01*
X119772000Y-75293000D01*
X119770000Y-75299000D01*
X119767000Y-75304000D01*
X119764000Y-75310000D01*
X119761000Y-75315000D01*
X119757000Y-75321000D01*
X119753000Y-75326000D01*
X119749000Y-75330000D01*
X119745000Y-75335000D01*
X119740000Y-75339000D01*
X119736000Y-75343000D01*
X119731000Y-75347000D01*
X119725000Y-75351000D01*
X119720000Y-75354000D01*
X119714000Y-75357000D01*
X119709000Y-75360000D01*
X119703000Y-75362000D01*
X119697000Y-75364000D01*
X119691000Y-75366000D01*
X119685000Y-75367000D01*
X119679000Y-75369000D01*
X119673000Y-75369000D01*
X119666000Y-75370000D01*
X119660000Y-75370000D01*
X117060000Y-75370000D01*
X117054000Y-75370000D01*
X117047000Y-75369000D01*
X117041000Y-75369000D01*
X117035000Y-75367000D01*
X117029000Y-75366000D01*
X117023000Y-75364000D01*
X117017000Y-75362000D01*
X117011000Y-75360000D01*
X117006000Y-75357000D01*
X117000000Y-75354000D01*
X116995000Y-75351000D01*
X116989000Y-75347000D01*
X116984000Y-75343000D01*
X116980000Y-75339000D01*
X116975000Y-75335000D01*
X116971000Y-75330000D01*
X116967000Y-75326000D01*
X116963000Y-75321000D01*
X116959000Y-75315000D01*
X116956000Y-75310000D01*
X116953000Y-75304000D01*
X116950000Y-75299000D01*
X116948000Y-75293000D01*
X116946000Y-75287000D01*
X116944000Y-75281000D01*
X116943000Y-75275000D01*
X116941000Y-75269000D01*
X116941000Y-75263000D01*
X116940000Y-75256000D01*
X116940000Y-75250000D01*
X116940000Y-73650000D01*
X116940000Y-73644000D01*
X116941000Y-73637000D01*
X116941000Y-73631000D01*
X116943000Y-73625000D01*
X116944000Y-73619000D01*
X116946000Y-73613000D01*
X116948000Y-73607000D01*
X116950000Y-73601000D01*
X116953000Y-73596000D01*
X116956000Y-73590000D01*
X116959000Y-73585000D01*
X116963000Y-73579000D01*
X116967000Y-73574000D01*
X116971000Y-73570000D01*
X116975000Y-73565000D01*
X116980000Y-73561000D01*
X116984000Y-73557000D01*
X116989000Y-73553000D01*
X116995000Y-73549000D01*
X117000000Y-73546000D01*
X117006000Y-73543000D01*
X117011000Y-73540000D01*
X117017000Y-73538000D01*
X117023000Y-73536000D01*
X117029000Y-73534000D01*
X117035000Y-73533000D01*
X117041000Y-73531000D01*
X117047000Y-73531000D01*
X117054000Y-73530000D01*
X117060000Y-73530000D01*
X119660000Y-73530000D01*
X119666000Y-73530000D01*
X119673000Y-73531000D01*
G37*
X117698000Y-72411000D02*
X117704000Y-72411000D01*
X117710000Y-72413000D01*
X117716000Y-72414000D01*
X117722000Y-72416000D01*
X117728000Y-72418000D01*
X117734000Y-72420000D01*
X117739000Y-72423000D01*
X117745000Y-72426000D01*
X117750000Y-72429000D01*
X117756000Y-72433000D01*
X117761000Y-72437000D01*
X117765000Y-72441000D01*
X117770000Y-72445000D01*
X117774000Y-72450000D01*
X117778000Y-72454000D01*
X117782000Y-72459000D01*
X117786000Y-72465000D01*
X117789000Y-72470000D01*
X117792000Y-72476000D01*
X117795000Y-72481000D01*
X117797000Y-72487000D01*
X117799000Y-72493000D01*
X117801000Y-72499000D01*
X117802000Y-72505000D01*
X117804000Y-72511000D01*
X117804000Y-72517000D01*
X117805000Y-72524000D01*
X117805000Y-72530000D01*
X117805000Y-73030000D01*
X117805000Y-73036000D01*
X117804000Y-73043000D01*
X117804000Y-73049000D01*
X117802000Y-73055000D01*
X117801000Y-73061000D01*
X117799000Y-73067000D01*
X117797000Y-73073000D01*
X117795000Y-73079000D01*
X117792000Y-73084000D01*
X117789000Y-73090000D01*
X117786000Y-73095000D01*
X117782000Y-73101000D01*
X117778000Y-73106000D01*
X117774000Y-73110000D01*
X117770000Y-73115000D01*
X117765000Y-73119000D01*
X117761000Y-73123000D01*
X117756000Y-73127000D01*
X117750000Y-73131000D01*
X117745000Y-73134000D01*
X117739000Y-73137000D01*
X117734000Y-73140000D01*
X117728000Y-73142000D01*
X117722000Y-73144000D01*
X117716000Y-73146000D01*
X117710000Y-73147000D01*
X117704000Y-73149000D01*
X117698000Y-73149000D01*
X117691000Y-73150000D01*
X117685000Y-73150000D01*
X117535000Y-73150000D01*
X117529000Y-73150000D01*
X117522000Y-73149000D01*
X117516000Y-73149000D01*
X117510000Y-73147000D01*
X117504000Y-73146000D01*
X117498000Y-73144000D01*
X117492000Y-73142000D01*
X117486000Y-73140000D01*
X117481000Y-73137000D01*
X117475000Y-73134000D01*
X117470000Y-73131000D01*
X117464000Y-73127000D01*
X117459000Y-73123000D01*
X117455000Y-73119000D01*
X117450000Y-73115000D01*
X117446000Y-73110000D01*
X117442000Y-73106000D01*
X117438000Y-73101000D01*
X117434000Y-73095000D01*
X117431000Y-73090000D01*
X117428000Y-73084000D01*
X117425000Y-73079000D01*
X117423000Y-73073000D01*
X117421000Y-73067000D01*
X117419000Y-73061000D01*
X117418000Y-73055000D01*
X117416000Y-73049000D01*
X117416000Y-73043000D01*
X117415000Y-73036000D01*
X117415000Y-73030000D01*
X117415000Y-72530000D01*
X117415000Y-72524000D01*
X117416000Y-72517000D01*
X117416000Y-72511000D01*
X117418000Y-72505000D01*
X117419000Y-72499000D01*
X117421000Y-72493000D01*
X117423000Y-72487000D01*
X117425000Y-72481000D01*
X117428000Y-72476000D01*
X117431000Y-72470000D01*
X117434000Y-72465000D01*
X117438000Y-72459000D01*
X117442000Y-72454000D01*
X117446000Y-72450000D01*
X117450000Y-72445000D01*
X117455000Y-72441000D01*
X117459000Y-72437000D01*
X117464000Y-72433000D01*
X117470000Y-72429000D01*
X117475000Y-72426000D01*
X117481000Y-72423000D01*
X117486000Y-72420000D01*
X117492000Y-72418000D01*
X117498000Y-72416000D01*
X117504000Y-72414000D01*
X117510000Y-72413000D01*
X117516000Y-72411000D01*
X117522000Y-72411000D01*
X117529000Y-72410000D01*
X117535000Y-72410000D01*
X117685000Y-72410000D01*
X117691000Y-72410000D01*
X117698000Y-72411000D01*
G36*
X117698000Y-72411000D02*
G01*
X117704000Y-72411000D01*
X117710000Y-72413000D01*
X117716000Y-72414000D01*
X117722000Y-72416000D01*
X117728000Y-72418000D01*
X117734000Y-72420000D01*
X117739000Y-72423000D01*
X117745000Y-72426000D01*
X117750000Y-72429000D01*
X117756000Y-72433000D01*
X117761000Y-72437000D01*
X117765000Y-72441000D01*
X117770000Y-72445000D01*
X117774000Y-72450000D01*
X117778000Y-72454000D01*
X117782000Y-72459000D01*
X117786000Y-72465000D01*
X117789000Y-72470000D01*
X117792000Y-72476000D01*
X117795000Y-72481000D01*
X117797000Y-72487000D01*
X117799000Y-72493000D01*
X117801000Y-72499000D01*
X117802000Y-72505000D01*
X117804000Y-72511000D01*
X117804000Y-72517000D01*
X117805000Y-72524000D01*
X117805000Y-72530000D01*
X117805000Y-73030000D01*
X117805000Y-73036000D01*
X117804000Y-73043000D01*
X117804000Y-73049000D01*
X117802000Y-73055000D01*
X117801000Y-73061000D01*
X117799000Y-73067000D01*
X117797000Y-73073000D01*
X117795000Y-73079000D01*
X117792000Y-73084000D01*
X117789000Y-73090000D01*
X117786000Y-73095000D01*
X117782000Y-73101000D01*
X117778000Y-73106000D01*
X117774000Y-73110000D01*
X117770000Y-73115000D01*
X117765000Y-73119000D01*
X117761000Y-73123000D01*
X117756000Y-73127000D01*
X117750000Y-73131000D01*
X117745000Y-73134000D01*
X117739000Y-73137000D01*
X117734000Y-73140000D01*
X117728000Y-73142000D01*
X117722000Y-73144000D01*
X117716000Y-73146000D01*
X117710000Y-73147000D01*
X117704000Y-73149000D01*
X117698000Y-73149000D01*
X117691000Y-73150000D01*
X117685000Y-73150000D01*
X117535000Y-73150000D01*
X117529000Y-73150000D01*
X117522000Y-73149000D01*
X117516000Y-73149000D01*
X117510000Y-73147000D01*
X117504000Y-73146000D01*
X117498000Y-73144000D01*
X117492000Y-73142000D01*
X117486000Y-73140000D01*
X117481000Y-73137000D01*
X117475000Y-73134000D01*
X117470000Y-73131000D01*
X117464000Y-73127000D01*
X117459000Y-73123000D01*
X117455000Y-73119000D01*
X117450000Y-73115000D01*
X117446000Y-73110000D01*
X117442000Y-73106000D01*
X117438000Y-73101000D01*
X117434000Y-73095000D01*
X117431000Y-73090000D01*
X117428000Y-73084000D01*
X117425000Y-73079000D01*
X117423000Y-73073000D01*
X117421000Y-73067000D01*
X117419000Y-73061000D01*
X117418000Y-73055000D01*
X117416000Y-73049000D01*
X117416000Y-73043000D01*
X117415000Y-73036000D01*
X117415000Y-73030000D01*
X117415000Y-72530000D01*
X117415000Y-72524000D01*
X117416000Y-72517000D01*
X117416000Y-72511000D01*
X117418000Y-72505000D01*
X117419000Y-72499000D01*
X117421000Y-72493000D01*
X117423000Y-72487000D01*
X117425000Y-72481000D01*
X117428000Y-72476000D01*
X117431000Y-72470000D01*
X117434000Y-72465000D01*
X117438000Y-72459000D01*
X117442000Y-72454000D01*
X117446000Y-72450000D01*
X117450000Y-72445000D01*
X117455000Y-72441000D01*
X117459000Y-72437000D01*
X117464000Y-72433000D01*
X117470000Y-72429000D01*
X117475000Y-72426000D01*
X117481000Y-72423000D01*
X117486000Y-72420000D01*
X117492000Y-72418000D01*
X117498000Y-72416000D01*
X117504000Y-72414000D01*
X117510000Y-72413000D01*
X117516000Y-72411000D01*
X117522000Y-72411000D01*
X117529000Y-72410000D01*
X117535000Y-72410000D01*
X117685000Y-72410000D01*
X117691000Y-72410000D01*
X117698000Y-72411000D01*
G37*
X117698000Y-75711000D02*
X117704000Y-75711000D01*
X117710000Y-75713000D01*
X117716000Y-75714000D01*
X117722000Y-75716000D01*
X117728000Y-75718000D01*
X117734000Y-75720000D01*
X117739000Y-75723000D01*
X117745000Y-75726000D01*
X117750000Y-75729000D01*
X117756000Y-75733000D01*
X117761000Y-75737000D01*
X117765000Y-75741000D01*
X117770000Y-75745000D01*
X117774000Y-75750000D01*
X117778000Y-75754000D01*
X117782000Y-75759000D01*
X117786000Y-75765000D01*
X117789000Y-75770000D01*
X117792000Y-75776000D01*
X117795000Y-75781000D01*
X117797000Y-75787000D01*
X117799000Y-75793000D01*
X117801000Y-75799000D01*
X117802000Y-75805000D01*
X117804000Y-75811000D01*
X117804000Y-75817000D01*
X117805000Y-75824000D01*
X117805000Y-75830000D01*
X117805000Y-76330000D01*
X117805000Y-76336000D01*
X117804000Y-76343000D01*
X117804000Y-76349000D01*
X117802000Y-76355000D01*
X117801000Y-76361000D01*
X117799000Y-76367000D01*
X117797000Y-76373000D01*
X117795000Y-76379000D01*
X117792000Y-76384000D01*
X117789000Y-76390000D01*
X117786000Y-76395000D01*
X117782000Y-76401000D01*
X117778000Y-76406000D01*
X117774000Y-76410000D01*
X117770000Y-76415000D01*
X117765000Y-76419000D01*
X117761000Y-76423000D01*
X117756000Y-76427000D01*
X117750000Y-76431000D01*
X117745000Y-76434000D01*
X117739000Y-76437000D01*
X117734000Y-76440000D01*
X117728000Y-76442000D01*
X117722000Y-76444000D01*
X117716000Y-76446000D01*
X117710000Y-76447000D01*
X117704000Y-76449000D01*
X117698000Y-76449000D01*
X117691000Y-76450000D01*
X117685000Y-76450000D01*
X117535000Y-76450000D01*
X117529000Y-76450000D01*
X117522000Y-76449000D01*
X117516000Y-76449000D01*
X117510000Y-76447000D01*
X117504000Y-76446000D01*
X117498000Y-76444000D01*
X117492000Y-76442000D01*
X117486000Y-76440000D01*
X117481000Y-76437000D01*
X117475000Y-76434000D01*
X117470000Y-76431000D01*
X117464000Y-76427000D01*
X117459000Y-76423000D01*
X117455000Y-76419000D01*
X117450000Y-76415000D01*
X117446000Y-76410000D01*
X117442000Y-76406000D01*
X117438000Y-76401000D01*
X117434000Y-76395000D01*
X117431000Y-76390000D01*
X117428000Y-76384000D01*
X117425000Y-76379000D01*
X117423000Y-76373000D01*
X117421000Y-76367000D01*
X117419000Y-76361000D01*
X117418000Y-76355000D01*
X117416000Y-76349000D01*
X117416000Y-76343000D01*
X117415000Y-76336000D01*
X117415000Y-76330000D01*
X117415000Y-75830000D01*
X117415000Y-75824000D01*
X117416000Y-75817000D01*
X117416000Y-75811000D01*
X117418000Y-75805000D01*
X117419000Y-75799000D01*
X117421000Y-75793000D01*
X117423000Y-75787000D01*
X117425000Y-75781000D01*
X117428000Y-75776000D01*
X117431000Y-75770000D01*
X117434000Y-75765000D01*
X117438000Y-75759000D01*
X117442000Y-75754000D01*
X117446000Y-75750000D01*
X117450000Y-75745000D01*
X117455000Y-75741000D01*
X117459000Y-75737000D01*
X117464000Y-75733000D01*
X117470000Y-75729000D01*
X117475000Y-75726000D01*
X117481000Y-75723000D01*
X117486000Y-75720000D01*
X117492000Y-75718000D01*
X117498000Y-75716000D01*
X117504000Y-75714000D01*
X117510000Y-75713000D01*
X117516000Y-75711000D01*
X117522000Y-75711000D01*
X117529000Y-75710000D01*
X117535000Y-75710000D01*
X117685000Y-75710000D01*
X117691000Y-75710000D01*
X117698000Y-75711000D01*
G36*
X117698000Y-75711000D02*
G01*
X117704000Y-75711000D01*
X117710000Y-75713000D01*
X117716000Y-75714000D01*
X117722000Y-75716000D01*
X117728000Y-75718000D01*
X117734000Y-75720000D01*
X117739000Y-75723000D01*
X117745000Y-75726000D01*
X117750000Y-75729000D01*
X117756000Y-75733000D01*
X117761000Y-75737000D01*
X117765000Y-75741000D01*
X117770000Y-75745000D01*
X117774000Y-75750000D01*
X117778000Y-75754000D01*
X117782000Y-75759000D01*
X117786000Y-75765000D01*
X117789000Y-75770000D01*
X117792000Y-75776000D01*
X117795000Y-75781000D01*
X117797000Y-75787000D01*
X117799000Y-75793000D01*
X117801000Y-75799000D01*
X117802000Y-75805000D01*
X117804000Y-75811000D01*
X117804000Y-75817000D01*
X117805000Y-75824000D01*
X117805000Y-75830000D01*
X117805000Y-76330000D01*
X117805000Y-76336000D01*
X117804000Y-76343000D01*
X117804000Y-76349000D01*
X117802000Y-76355000D01*
X117801000Y-76361000D01*
X117799000Y-76367000D01*
X117797000Y-76373000D01*
X117795000Y-76379000D01*
X117792000Y-76384000D01*
X117789000Y-76390000D01*
X117786000Y-76395000D01*
X117782000Y-76401000D01*
X117778000Y-76406000D01*
X117774000Y-76410000D01*
X117770000Y-76415000D01*
X117765000Y-76419000D01*
X117761000Y-76423000D01*
X117756000Y-76427000D01*
X117750000Y-76431000D01*
X117745000Y-76434000D01*
X117739000Y-76437000D01*
X117734000Y-76440000D01*
X117728000Y-76442000D01*
X117722000Y-76444000D01*
X117716000Y-76446000D01*
X117710000Y-76447000D01*
X117704000Y-76449000D01*
X117698000Y-76449000D01*
X117691000Y-76450000D01*
X117685000Y-76450000D01*
X117535000Y-76450000D01*
X117529000Y-76450000D01*
X117522000Y-76449000D01*
X117516000Y-76449000D01*
X117510000Y-76447000D01*
X117504000Y-76446000D01*
X117498000Y-76444000D01*
X117492000Y-76442000D01*
X117486000Y-76440000D01*
X117481000Y-76437000D01*
X117475000Y-76434000D01*
X117470000Y-76431000D01*
X117464000Y-76427000D01*
X117459000Y-76423000D01*
X117455000Y-76419000D01*
X117450000Y-76415000D01*
X117446000Y-76410000D01*
X117442000Y-76406000D01*
X117438000Y-76401000D01*
X117434000Y-76395000D01*
X117431000Y-76390000D01*
X117428000Y-76384000D01*
X117425000Y-76379000D01*
X117423000Y-76373000D01*
X117421000Y-76367000D01*
X117419000Y-76361000D01*
X117418000Y-76355000D01*
X117416000Y-76349000D01*
X117416000Y-76343000D01*
X117415000Y-76336000D01*
X117415000Y-76330000D01*
X117415000Y-75830000D01*
X117415000Y-75824000D01*
X117416000Y-75817000D01*
X117416000Y-75811000D01*
X117418000Y-75805000D01*
X117419000Y-75799000D01*
X117421000Y-75793000D01*
X117423000Y-75787000D01*
X117425000Y-75781000D01*
X117428000Y-75776000D01*
X117431000Y-75770000D01*
X117434000Y-75765000D01*
X117438000Y-75759000D01*
X117442000Y-75754000D01*
X117446000Y-75750000D01*
X117450000Y-75745000D01*
X117455000Y-75741000D01*
X117459000Y-75737000D01*
X117464000Y-75733000D01*
X117470000Y-75729000D01*
X117475000Y-75726000D01*
X117481000Y-75723000D01*
X117486000Y-75720000D01*
X117492000Y-75718000D01*
X117498000Y-75716000D01*
X117504000Y-75714000D01*
X117510000Y-75713000D01*
X117516000Y-75711000D01*
X117522000Y-75711000D01*
X117529000Y-75710000D01*
X117535000Y-75710000D01*
X117685000Y-75710000D01*
X117691000Y-75710000D01*
X117698000Y-75711000D01*
G37*
X118198000Y-72411000D02*
X118204000Y-72411000D01*
X118210000Y-72413000D01*
X118216000Y-72414000D01*
X118222000Y-72416000D01*
X118228000Y-72418000D01*
X118234000Y-72420000D01*
X118239000Y-72423000D01*
X118245000Y-72426000D01*
X118250000Y-72429000D01*
X118256000Y-72433000D01*
X118261000Y-72437000D01*
X118265000Y-72441000D01*
X118270000Y-72445000D01*
X118274000Y-72450000D01*
X118278000Y-72454000D01*
X118282000Y-72459000D01*
X118286000Y-72465000D01*
X118289000Y-72470000D01*
X118292000Y-72476000D01*
X118295000Y-72481000D01*
X118297000Y-72487000D01*
X118299000Y-72493000D01*
X118301000Y-72499000D01*
X118302000Y-72505000D01*
X118304000Y-72511000D01*
X118304000Y-72517000D01*
X118305000Y-72524000D01*
X118305000Y-72530000D01*
X118305000Y-73030000D01*
X118305000Y-73036000D01*
X118304000Y-73043000D01*
X118304000Y-73049000D01*
X118302000Y-73055000D01*
X118301000Y-73061000D01*
X118299000Y-73067000D01*
X118297000Y-73073000D01*
X118295000Y-73079000D01*
X118292000Y-73084000D01*
X118289000Y-73090000D01*
X118286000Y-73095000D01*
X118282000Y-73101000D01*
X118278000Y-73106000D01*
X118274000Y-73110000D01*
X118270000Y-73115000D01*
X118265000Y-73119000D01*
X118261000Y-73123000D01*
X118256000Y-73127000D01*
X118250000Y-73131000D01*
X118245000Y-73134000D01*
X118239000Y-73137000D01*
X118234000Y-73140000D01*
X118228000Y-73142000D01*
X118222000Y-73144000D01*
X118216000Y-73146000D01*
X118210000Y-73147000D01*
X118204000Y-73149000D01*
X118198000Y-73149000D01*
X118191000Y-73150000D01*
X118185000Y-73150000D01*
X118035000Y-73150000D01*
X118029000Y-73150000D01*
X118022000Y-73149000D01*
X118016000Y-73149000D01*
X118010000Y-73147000D01*
X118004000Y-73146000D01*
X117998000Y-73144000D01*
X117992000Y-73142000D01*
X117986000Y-73140000D01*
X117981000Y-73137000D01*
X117975000Y-73134000D01*
X117970000Y-73131000D01*
X117964000Y-73127000D01*
X117959000Y-73123000D01*
X117955000Y-73119000D01*
X117950000Y-73115000D01*
X117946000Y-73110000D01*
X117942000Y-73106000D01*
X117938000Y-73101000D01*
X117934000Y-73095000D01*
X117931000Y-73090000D01*
X117928000Y-73084000D01*
X117925000Y-73079000D01*
X117923000Y-73073000D01*
X117921000Y-73067000D01*
X117919000Y-73061000D01*
X117918000Y-73055000D01*
X117916000Y-73049000D01*
X117916000Y-73043000D01*
X117915000Y-73036000D01*
X117915000Y-73030000D01*
X117915000Y-72530000D01*
X117915000Y-72524000D01*
X117916000Y-72517000D01*
X117916000Y-72511000D01*
X117918000Y-72505000D01*
X117919000Y-72499000D01*
X117921000Y-72493000D01*
X117923000Y-72487000D01*
X117925000Y-72481000D01*
X117928000Y-72476000D01*
X117931000Y-72470000D01*
X117934000Y-72465000D01*
X117938000Y-72459000D01*
X117942000Y-72454000D01*
X117946000Y-72450000D01*
X117950000Y-72445000D01*
X117955000Y-72441000D01*
X117959000Y-72437000D01*
X117964000Y-72433000D01*
X117970000Y-72429000D01*
X117975000Y-72426000D01*
X117981000Y-72423000D01*
X117986000Y-72420000D01*
X117992000Y-72418000D01*
X117998000Y-72416000D01*
X118004000Y-72414000D01*
X118010000Y-72413000D01*
X118016000Y-72411000D01*
X118022000Y-72411000D01*
X118029000Y-72410000D01*
X118035000Y-72410000D01*
X118185000Y-72410000D01*
X118191000Y-72410000D01*
X118198000Y-72411000D01*
G36*
X118198000Y-72411000D02*
G01*
X118204000Y-72411000D01*
X118210000Y-72413000D01*
X118216000Y-72414000D01*
X118222000Y-72416000D01*
X118228000Y-72418000D01*
X118234000Y-72420000D01*
X118239000Y-72423000D01*
X118245000Y-72426000D01*
X118250000Y-72429000D01*
X118256000Y-72433000D01*
X118261000Y-72437000D01*
X118265000Y-72441000D01*
X118270000Y-72445000D01*
X118274000Y-72450000D01*
X118278000Y-72454000D01*
X118282000Y-72459000D01*
X118286000Y-72465000D01*
X118289000Y-72470000D01*
X118292000Y-72476000D01*
X118295000Y-72481000D01*
X118297000Y-72487000D01*
X118299000Y-72493000D01*
X118301000Y-72499000D01*
X118302000Y-72505000D01*
X118304000Y-72511000D01*
X118304000Y-72517000D01*
X118305000Y-72524000D01*
X118305000Y-72530000D01*
X118305000Y-73030000D01*
X118305000Y-73036000D01*
X118304000Y-73043000D01*
X118304000Y-73049000D01*
X118302000Y-73055000D01*
X118301000Y-73061000D01*
X118299000Y-73067000D01*
X118297000Y-73073000D01*
X118295000Y-73079000D01*
X118292000Y-73084000D01*
X118289000Y-73090000D01*
X118286000Y-73095000D01*
X118282000Y-73101000D01*
X118278000Y-73106000D01*
X118274000Y-73110000D01*
X118270000Y-73115000D01*
X118265000Y-73119000D01*
X118261000Y-73123000D01*
X118256000Y-73127000D01*
X118250000Y-73131000D01*
X118245000Y-73134000D01*
X118239000Y-73137000D01*
X118234000Y-73140000D01*
X118228000Y-73142000D01*
X118222000Y-73144000D01*
X118216000Y-73146000D01*
X118210000Y-73147000D01*
X118204000Y-73149000D01*
X118198000Y-73149000D01*
X118191000Y-73150000D01*
X118185000Y-73150000D01*
X118035000Y-73150000D01*
X118029000Y-73150000D01*
X118022000Y-73149000D01*
X118016000Y-73149000D01*
X118010000Y-73147000D01*
X118004000Y-73146000D01*
X117998000Y-73144000D01*
X117992000Y-73142000D01*
X117986000Y-73140000D01*
X117981000Y-73137000D01*
X117975000Y-73134000D01*
X117970000Y-73131000D01*
X117964000Y-73127000D01*
X117959000Y-73123000D01*
X117955000Y-73119000D01*
X117950000Y-73115000D01*
X117946000Y-73110000D01*
X117942000Y-73106000D01*
X117938000Y-73101000D01*
X117934000Y-73095000D01*
X117931000Y-73090000D01*
X117928000Y-73084000D01*
X117925000Y-73079000D01*
X117923000Y-73073000D01*
X117921000Y-73067000D01*
X117919000Y-73061000D01*
X117918000Y-73055000D01*
X117916000Y-73049000D01*
X117916000Y-73043000D01*
X117915000Y-73036000D01*
X117915000Y-73030000D01*
X117915000Y-72530000D01*
X117915000Y-72524000D01*
X117916000Y-72517000D01*
X117916000Y-72511000D01*
X117918000Y-72505000D01*
X117919000Y-72499000D01*
X117921000Y-72493000D01*
X117923000Y-72487000D01*
X117925000Y-72481000D01*
X117928000Y-72476000D01*
X117931000Y-72470000D01*
X117934000Y-72465000D01*
X117938000Y-72459000D01*
X117942000Y-72454000D01*
X117946000Y-72450000D01*
X117950000Y-72445000D01*
X117955000Y-72441000D01*
X117959000Y-72437000D01*
X117964000Y-72433000D01*
X117970000Y-72429000D01*
X117975000Y-72426000D01*
X117981000Y-72423000D01*
X117986000Y-72420000D01*
X117992000Y-72418000D01*
X117998000Y-72416000D01*
X118004000Y-72414000D01*
X118010000Y-72413000D01*
X118016000Y-72411000D01*
X118022000Y-72411000D01*
X118029000Y-72410000D01*
X118035000Y-72410000D01*
X118185000Y-72410000D01*
X118191000Y-72410000D01*
X118198000Y-72411000D01*
G37*
X118198000Y-75711000D02*
X118204000Y-75711000D01*
X118210000Y-75713000D01*
X118216000Y-75714000D01*
X118222000Y-75716000D01*
X118228000Y-75718000D01*
X118234000Y-75720000D01*
X118239000Y-75723000D01*
X118245000Y-75726000D01*
X118250000Y-75729000D01*
X118256000Y-75733000D01*
X118261000Y-75737000D01*
X118265000Y-75741000D01*
X118270000Y-75745000D01*
X118274000Y-75750000D01*
X118278000Y-75754000D01*
X118282000Y-75759000D01*
X118286000Y-75765000D01*
X118289000Y-75770000D01*
X118292000Y-75776000D01*
X118295000Y-75781000D01*
X118297000Y-75787000D01*
X118299000Y-75793000D01*
X118301000Y-75799000D01*
X118302000Y-75805000D01*
X118304000Y-75811000D01*
X118304000Y-75817000D01*
X118305000Y-75824000D01*
X118305000Y-75830000D01*
X118305000Y-76330000D01*
X118305000Y-76336000D01*
X118304000Y-76343000D01*
X118304000Y-76349000D01*
X118302000Y-76355000D01*
X118301000Y-76361000D01*
X118299000Y-76367000D01*
X118297000Y-76373000D01*
X118295000Y-76379000D01*
X118292000Y-76384000D01*
X118289000Y-76390000D01*
X118286000Y-76395000D01*
X118282000Y-76401000D01*
X118278000Y-76406000D01*
X118274000Y-76410000D01*
X118270000Y-76415000D01*
X118265000Y-76419000D01*
X118261000Y-76423000D01*
X118256000Y-76427000D01*
X118250000Y-76431000D01*
X118245000Y-76434000D01*
X118239000Y-76437000D01*
X118234000Y-76440000D01*
X118228000Y-76442000D01*
X118222000Y-76444000D01*
X118216000Y-76446000D01*
X118210000Y-76447000D01*
X118204000Y-76449000D01*
X118198000Y-76449000D01*
X118191000Y-76450000D01*
X118185000Y-76450000D01*
X118035000Y-76450000D01*
X118029000Y-76450000D01*
X118022000Y-76449000D01*
X118016000Y-76449000D01*
X118010000Y-76447000D01*
X118004000Y-76446000D01*
X117998000Y-76444000D01*
X117992000Y-76442000D01*
X117986000Y-76440000D01*
X117981000Y-76437000D01*
X117975000Y-76434000D01*
X117970000Y-76431000D01*
X117964000Y-76427000D01*
X117959000Y-76423000D01*
X117955000Y-76419000D01*
X117950000Y-76415000D01*
X117946000Y-76410000D01*
X117942000Y-76406000D01*
X117938000Y-76401000D01*
X117934000Y-76395000D01*
X117931000Y-76390000D01*
X117928000Y-76384000D01*
X117925000Y-76379000D01*
X117923000Y-76373000D01*
X117921000Y-76367000D01*
X117919000Y-76361000D01*
X117918000Y-76355000D01*
X117916000Y-76349000D01*
X117916000Y-76343000D01*
X117915000Y-76336000D01*
X117915000Y-76330000D01*
X117915000Y-75830000D01*
X117915000Y-75824000D01*
X117916000Y-75817000D01*
X117916000Y-75811000D01*
X117918000Y-75805000D01*
X117919000Y-75799000D01*
X117921000Y-75793000D01*
X117923000Y-75787000D01*
X117925000Y-75781000D01*
X117928000Y-75776000D01*
X117931000Y-75770000D01*
X117934000Y-75765000D01*
X117938000Y-75759000D01*
X117942000Y-75754000D01*
X117946000Y-75750000D01*
X117950000Y-75745000D01*
X117955000Y-75741000D01*
X117959000Y-75737000D01*
X117964000Y-75733000D01*
X117970000Y-75729000D01*
X117975000Y-75726000D01*
X117981000Y-75723000D01*
X117986000Y-75720000D01*
X117992000Y-75718000D01*
X117998000Y-75716000D01*
X118004000Y-75714000D01*
X118010000Y-75713000D01*
X118016000Y-75711000D01*
X118022000Y-75711000D01*
X118029000Y-75710000D01*
X118035000Y-75710000D01*
X118185000Y-75710000D01*
X118191000Y-75710000D01*
X118198000Y-75711000D01*
G36*
X118198000Y-75711000D02*
G01*
X118204000Y-75711000D01*
X118210000Y-75713000D01*
X118216000Y-75714000D01*
X118222000Y-75716000D01*
X118228000Y-75718000D01*
X118234000Y-75720000D01*
X118239000Y-75723000D01*
X118245000Y-75726000D01*
X118250000Y-75729000D01*
X118256000Y-75733000D01*
X118261000Y-75737000D01*
X118265000Y-75741000D01*
X118270000Y-75745000D01*
X118274000Y-75750000D01*
X118278000Y-75754000D01*
X118282000Y-75759000D01*
X118286000Y-75765000D01*
X118289000Y-75770000D01*
X118292000Y-75776000D01*
X118295000Y-75781000D01*
X118297000Y-75787000D01*
X118299000Y-75793000D01*
X118301000Y-75799000D01*
X118302000Y-75805000D01*
X118304000Y-75811000D01*
X118304000Y-75817000D01*
X118305000Y-75824000D01*
X118305000Y-75830000D01*
X118305000Y-76330000D01*
X118305000Y-76336000D01*
X118304000Y-76343000D01*
X118304000Y-76349000D01*
X118302000Y-76355000D01*
X118301000Y-76361000D01*
X118299000Y-76367000D01*
X118297000Y-76373000D01*
X118295000Y-76379000D01*
X118292000Y-76384000D01*
X118289000Y-76390000D01*
X118286000Y-76395000D01*
X118282000Y-76401000D01*
X118278000Y-76406000D01*
X118274000Y-76410000D01*
X118270000Y-76415000D01*
X118265000Y-76419000D01*
X118261000Y-76423000D01*
X118256000Y-76427000D01*
X118250000Y-76431000D01*
X118245000Y-76434000D01*
X118239000Y-76437000D01*
X118234000Y-76440000D01*
X118228000Y-76442000D01*
X118222000Y-76444000D01*
X118216000Y-76446000D01*
X118210000Y-76447000D01*
X118204000Y-76449000D01*
X118198000Y-76449000D01*
X118191000Y-76450000D01*
X118185000Y-76450000D01*
X118035000Y-76450000D01*
X118029000Y-76450000D01*
X118022000Y-76449000D01*
X118016000Y-76449000D01*
X118010000Y-76447000D01*
X118004000Y-76446000D01*
X117998000Y-76444000D01*
X117992000Y-76442000D01*
X117986000Y-76440000D01*
X117981000Y-76437000D01*
X117975000Y-76434000D01*
X117970000Y-76431000D01*
X117964000Y-76427000D01*
X117959000Y-76423000D01*
X117955000Y-76419000D01*
X117950000Y-76415000D01*
X117946000Y-76410000D01*
X117942000Y-76406000D01*
X117938000Y-76401000D01*
X117934000Y-76395000D01*
X117931000Y-76390000D01*
X117928000Y-76384000D01*
X117925000Y-76379000D01*
X117923000Y-76373000D01*
X117921000Y-76367000D01*
X117919000Y-76361000D01*
X117918000Y-76355000D01*
X117916000Y-76349000D01*
X117916000Y-76343000D01*
X117915000Y-76336000D01*
X117915000Y-76330000D01*
X117915000Y-75830000D01*
X117915000Y-75824000D01*
X117916000Y-75817000D01*
X117916000Y-75811000D01*
X117918000Y-75805000D01*
X117919000Y-75799000D01*
X117921000Y-75793000D01*
X117923000Y-75787000D01*
X117925000Y-75781000D01*
X117928000Y-75776000D01*
X117931000Y-75770000D01*
X117934000Y-75765000D01*
X117938000Y-75759000D01*
X117942000Y-75754000D01*
X117946000Y-75750000D01*
X117950000Y-75745000D01*
X117955000Y-75741000D01*
X117959000Y-75737000D01*
X117964000Y-75733000D01*
X117970000Y-75729000D01*
X117975000Y-75726000D01*
X117981000Y-75723000D01*
X117986000Y-75720000D01*
X117992000Y-75718000D01*
X117998000Y-75716000D01*
X118004000Y-75714000D01*
X118010000Y-75713000D01*
X118016000Y-75711000D01*
X118022000Y-75711000D01*
X118029000Y-75710000D01*
X118035000Y-75710000D01*
X118185000Y-75710000D01*
X118191000Y-75710000D01*
X118198000Y-75711000D01*
G37*
X118698000Y-72411000D02*
X118704000Y-72411000D01*
X118710000Y-72413000D01*
X118716000Y-72414000D01*
X118722000Y-72416000D01*
X118728000Y-72418000D01*
X118734000Y-72420000D01*
X118739000Y-72423000D01*
X118745000Y-72426000D01*
X118750000Y-72429000D01*
X118756000Y-72433000D01*
X118761000Y-72437000D01*
X118765000Y-72441000D01*
X118770000Y-72445000D01*
X118774000Y-72450000D01*
X118778000Y-72454000D01*
X118782000Y-72459000D01*
X118786000Y-72465000D01*
X118789000Y-72470000D01*
X118792000Y-72476000D01*
X118795000Y-72481000D01*
X118797000Y-72487000D01*
X118799000Y-72493000D01*
X118801000Y-72499000D01*
X118802000Y-72505000D01*
X118804000Y-72511000D01*
X118804000Y-72517000D01*
X118805000Y-72524000D01*
X118805000Y-72530000D01*
X118805000Y-73030000D01*
X118805000Y-73036000D01*
X118804000Y-73043000D01*
X118804000Y-73049000D01*
X118802000Y-73055000D01*
X118801000Y-73061000D01*
X118799000Y-73067000D01*
X118797000Y-73073000D01*
X118795000Y-73079000D01*
X118792000Y-73084000D01*
X118789000Y-73090000D01*
X118786000Y-73095000D01*
X118782000Y-73101000D01*
X118778000Y-73106000D01*
X118774000Y-73110000D01*
X118770000Y-73115000D01*
X118765000Y-73119000D01*
X118761000Y-73123000D01*
X118756000Y-73127000D01*
X118750000Y-73131000D01*
X118745000Y-73134000D01*
X118739000Y-73137000D01*
X118734000Y-73140000D01*
X118728000Y-73142000D01*
X118722000Y-73144000D01*
X118716000Y-73146000D01*
X118710000Y-73147000D01*
X118704000Y-73149000D01*
X118698000Y-73149000D01*
X118691000Y-73150000D01*
X118685000Y-73150000D01*
X118535000Y-73150000D01*
X118529000Y-73150000D01*
X118522000Y-73149000D01*
X118516000Y-73149000D01*
X118510000Y-73147000D01*
X118504000Y-73146000D01*
X118498000Y-73144000D01*
X118492000Y-73142000D01*
X118486000Y-73140000D01*
X118481000Y-73137000D01*
X118475000Y-73134000D01*
X118470000Y-73131000D01*
X118464000Y-73127000D01*
X118459000Y-73123000D01*
X118455000Y-73119000D01*
X118450000Y-73115000D01*
X118446000Y-73110000D01*
X118442000Y-73106000D01*
X118438000Y-73101000D01*
X118434000Y-73095000D01*
X118431000Y-73090000D01*
X118428000Y-73084000D01*
X118425000Y-73079000D01*
X118423000Y-73073000D01*
X118421000Y-73067000D01*
X118419000Y-73061000D01*
X118418000Y-73055000D01*
X118416000Y-73049000D01*
X118416000Y-73043000D01*
X118415000Y-73036000D01*
X118415000Y-73030000D01*
X118415000Y-72530000D01*
X118415000Y-72524000D01*
X118416000Y-72517000D01*
X118416000Y-72511000D01*
X118418000Y-72505000D01*
X118419000Y-72499000D01*
X118421000Y-72493000D01*
X118423000Y-72487000D01*
X118425000Y-72481000D01*
X118428000Y-72476000D01*
X118431000Y-72470000D01*
X118434000Y-72465000D01*
X118438000Y-72459000D01*
X118442000Y-72454000D01*
X118446000Y-72450000D01*
X118450000Y-72445000D01*
X118455000Y-72441000D01*
X118459000Y-72437000D01*
X118464000Y-72433000D01*
X118470000Y-72429000D01*
X118475000Y-72426000D01*
X118481000Y-72423000D01*
X118486000Y-72420000D01*
X118492000Y-72418000D01*
X118498000Y-72416000D01*
X118504000Y-72414000D01*
X118510000Y-72413000D01*
X118516000Y-72411000D01*
X118522000Y-72411000D01*
X118529000Y-72410000D01*
X118535000Y-72410000D01*
X118685000Y-72410000D01*
X118691000Y-72410000D01*
X118698000Y-72411000D01*
G36*
X118698000Y-72411000D02*
G01*
X118704000Y-72411000D01*
X118710000Y-72413000D01*
X118716000Y-72414000D01*
X118722000Y-72416000D01*
X118728000Y-72418000D01*
X118734000Y-72420000D01*
X118739000Y-72423000D01*
X118745000Y-72426000D01*
X118750000Y-72429000D01*
X118756000Y-72433000D01*
X118761000Y-72437000D01*
X118765000Y-72441000D01*
X118770000Y-72445000D01*
X118774000Y-72450000D01*
X118778000Y-72454000D01*
X118782000Y-72459000D01*
X118786000Y-72465000D01*
X118789000Y-72470000D01*
X118792000Y-72476000D01*
X118795000Y-72481000D01*
X118797000Y-72487000D01*
X118799000Y-72493000D01*
X118801000Y-72499000D01*
X118802000Y-72505000D01*
X118804000Y-72511000D01*
X118804000Y-72517000D01*
X118805000Y-72524000D01*
X118805000Y-72530000D01*
X118805000Y-73030000D01*
X118805000Y-73036000D01*
X118804000Y-73043000D01*
X118804000Y-73049000D01*
X118802000Y-73055000D01*
X118801000Y-73061000D01*
X118799000Y-73067000D01*
X118797000Y-73073000D01*
X118795000Y-73079000D01*
X118792000Y-73084000D01*
X118789000Y-73090000D01*
X118786000Y-73095000D01*
X118782000Y-73101000D01*
X118778000Y-73106000D01*
X118774000Y-73110000D01*
X118770000Y-73115000D01*
X118765000Y-73119000D01*
X118761000Y-73123000D01*
X118756000Y-73127000D01*
X118750000Y-73131000D01*
X118745000Y-73134000D01*
X118739000Y-73137000D01*
X118734000Y-73140000D01*
X118728000Y-73142000D01*
X118722000Y-73144000D01*
X118716000Y-73146000D01*
X118710000Y-73147000D01*
X118704000Y-73149000D01*
X118698000Y-73149000D01*
X118691000Y-73150000D01*
X118685000Y-73150000D01*
X118535000Y-73150000D01*
X118529000Y-73150000D01*
X118522000Y-73149000D01*
X118516000Y-73149000D01*
X118510000Y-73147000D01*
X118504000Y-73146000D01*
X118498000Y-73144000D01*
X118492000Y-73142000D01*
X118486000Y-73140000D01*
X118481000Y-73137000D01*
X118475000Y-73134000D01*
X118470000Y-73131000D01*
X118464000Y-73127000D01*
X118459000Y-73123000D01*
X118455000Y-73119000D01*
X118450000Y-73115000D01*
X118446000Y-73110000D01*
X118442000Y-73106000D01*
X118438000Y-73101000D01*
X118434000Y-73095000D01*
X118431000Y-73090000D01*
X118428000Y-73084000D01*
X118425000Y-73079000D01*
X118423000Y-73073000D01*
X118421000Y-73067000D01*
X118419000Y-73061000D01*
X118418000Y-73055000D01*
X118416000Y-73049000D01*
X118416000Y-73043000D01*
X118415000Y-73036000D01*
X118415000Y-73030000D01*
X118415000Y-72530000D01*
X118415000Y-72524000D01*
X118416000Y-72517000D01*
X118416000Y-72511000D01*
X118418000Y-72505000D01*
X118419000Y-72499000D01*
X118421000Y-72493000D01*
X118423000Y-72487000D01*
X118425000Y-72481000D01*
X118428000Y-72476000D01*
X118431000Y-72470000D01*
X118434000Y-72465000D01*
X118438000Y-72459000D01*
X118442000Y-72454000D01*
X118446000Y-72450000D01*
X118450000Y-72445000D01*
X118455000Y-72441000D01*
X118459000Y-72437000D01*
X118464000Y-72433000D01*
X118470000Y-72429000D01*
X118475000Y-72426000D01*
X118481000Y-72423000D01*
X118486000Y-72420000D01*
X118492000Y-72418000D01*
X118498000Y-72416000D01*
X118504000Y-72414000D01*
X118510000Y-72413000D01*
X118516000Y-72411000D01*
X118522000Y-72411000D01*
X118529000Y-72410000D01*
X118535000Y-72410000D01*
X118685000Y-72410000D01*
X118691000Y-72410000D01*
X118698000Y-72411000D01*
G37*
X118698000Y-75711000D02*
X118704000Y-75711000D01*
X118710000Y-75713000D01*
X118716000Y-75714000D01*
X118722000Y-75716000D01*
X118728000Y-75718000D01*
X118734000Y-75720000D01*
X118739000Y-75723000D01*
X118745000Y-75726000D01*
X118750000Y-75729000D01*
X118756000Y-75733000D01*
X118761000Y-75737000D01*
X118765000Y-75741000D01*
X118770000Y-75745000D01*
X118774000Y-75750000D01*
X118778000Y-75754000D01*
X118782000Y-75759000D01*
X118786000Y-75765000D01*
X118789000Y-75770000D01*
X118792000Y-75776000D01*
X118795000Y-75781000D01*
X118797000Y-75787000D01*
X118799000Y-75793000D01*
X118801000Y-75799000D01*
X118802000Y-75805000D01*
X118804000Y-75811000D01*
X118804000Y-75817000D01*
X118805000Y-75824000D01*
X118805000Y-75830000D01*
X118805000Y-76330000D01*
X118805000Y-76336000D01*
X118804000Y-76343000D01*
X118804000Y-76349000D01*
X118802000Y-76355000D01*
X118801000Y-76361000D01*
X118799000Y-76367000D01*
X118797000Y-76373000D01*
X118795000Y-76379000D01*
X118792000Y-76384000D01*
X118789000Y-76390000D01*
X118786000Y-76395000D01*
X118782000Y-76401000D01*
X118778000Y-76406000D01*
X118774000Y-76410000D01*
X118770000Y-76415000D01*
X118765000Y-76419000D01*
X118761000Y-76423000D01*
X118756000Y-76427000D01*
X118750000Y-76431000D01*
X118745000Y-76434000D01*
X118739000Y-76437000D01*
X118734000Y-76440000D01*
X118728000Y-76442000D01*
X118722000Y-76444000D01*
X118716000Y-76446000D01*
X118710000Y-76447000D01*
X118704000Y-76449000D01*
X118698000Y-76449000D01*
X118691000Y-76450000D01*
X118685000Y-76450000D01*
X118535000Y-76450000D01*
X118529000Y-76450000D01*
X118522000Y-76449000D01*
X118516000Y-76449000D01*
X118510000Y-76447000D01*
X118504000Y-76446000D01*
X118498000Y-76444000D01*
X118492000Y-76442000D01*
X118486000Y-76440000D01*
X118481000Y-76437000D01*
X118475000Y-76434000D01*
X118470000Y-76431000D01*
X118464000Y-76427000D01*
X118459000Y-76423000D01*
X118455000Y-76419000D01*
X118450000Y-76415000D01*
X118446000Y-76410000D01*
X118442000Y-76406000D01*
X118438000Y-76401000D01*
X118434000Y-76395000D01*
X118431000Y-76390000D01*
X118428000Y-76384000D01*
X118425000Y-76379000D01*
X118423000Y-76373000D01*
X118421000Y-76367000D01*
X118419000Y-76361000D01*
X118418000Y-76355000D01*
X118416000Y-76349000D01*
X118416000Y-76343000D01*
X118415000Y-76336000D01*
X118415000Y-76330000D01*
X118415000Y-75830000D01*
X118415000Y-75824000D01*
X118416000Y-75817000D01*
X118416000Y-75811000D01*
X118418000Y-75805000D01*
X118419000Y-75799000D01*
X118421000Y-75793000D01*
X118423000Y-75787000D01*
X118425000Y-75781000D01*
X118428000Y-75776000D01*
X118431000Y-75770000D01*
X118434000Y-75765000D01*
X118438000Y-75759000D01*
X118442000Y-75754000D01*
X118446000Y-75750000D01*
X118450000Y-75745000D01*
X118455000Y-75741000D01*
X118459000Y-75737000D01*
X118464000Y-75733000D01*
X118470000Y-75729000D01*
X118475000Y-75726000D01*
X118481000Y-75723000D01*
X118486000Y-75720000D01*
X118492000Y-75718000D01*
X118498000Y-75716000D01*
X118504000Y-75714000D01*
X118510000Y-75713000D01*
X118516000Y-75711000D01*
X118522000Y-75711000D01*
X118529000Y-75710000D01*
X118535000Y-75710000D01*
X118685000Y-75710000D01*
X118691000Y-75710000D01*
X118698000Y-75711000D01*
G36*
X118698000Y-75711000D02*
G01*
X118704000Y-75711000D01*
X118710000Y-75713000D01*
X118716000Y-75714000D01*
X118722000Y-75716000D01*
X118728000Y-75718000D01*
X118734000Y-75720000D01*
X118739000Y-75723000D01*
X118745000Y-75726000D01*
X118750000Y-75729000D01*
X118756000Y-75733000D01*
X118761000Y-75737000D01*
X118765000Y-75741000D01*
X118770000Y-75745000D01*
X118774000Y-75750000D01*
X118778000Y-75754000D01*
X118782000Y-75759000D01*
X118786000Y-75765000D01*
X118789000Y-75770000D01*
X118792000Y-75776000D01*
X118795000Y-75781000D01*
X118797000Y-75787000D01*
X118799000Y-75793000D01*
X118801000Y-75799000D01*
X118802000Y-75805000D01*
X118804000Y-75811000D01*
X118804000Y-75817000D01*
X118805000Y-75824000D01*
X118805000Y-75830000D01*
X118805000Y-76330000D01*
X118805000Y-76336000D01*
X118804000Y-76343000D01*
X118804000Y-76349000D01*
X118802000Y-76355000D01*
X118801000Y-76361000D01*
X118799000Y-76367000D01*
X118797000Y-76373000D01*
X118795000Y-76379000D01*
X118792000Y-76384000D01*
X118789000Y-76390000D01*
X118786000Y-76395000D01*
X118782000Y-76401000D01*
X118778000Y-76406000D01*
X118774000Y-76410000D01*
X118770000Y-76415000D01*
X118765000Y-76419000D01*
X118761000Y-76423000D01*
X118756000Y-76427000D01*
X118750000Y-76431000D01*
X118745000Y-76434000D01*
X118739000Y-76437000D01*
X118734000Y-76440000D01*
X118728000Y-76442000D01*
X118722000Y-76444000D01*
X118716000Y-76446000D01*
X118710000Y-76447000D01*
X118704000Y-76449000D01*
X118698000Y-76449000D01*
X118691000Y-76450000D01*
X118685000Y-76450000D01*
X118535000Y-76450000D01*
X118529000Y-76450000D01*
X118522000Y-76449000D01*
X118516000Y-76449000D01*
X118510000Y-76447000D01*
X118504000Y-76446000D01*
X118498000Y-76444000D01*
X118492000Y-76442000D01*
X118486000Y-76440000D01*
X118481000Y-76437000D01*
X118475000Y-76434000D01*
X118470000Y-76431000D01*
X118464000Y-76427000D01*
X118459000Y-76423000D01*
X118455000Y-76419000D01*
X118450000Y-76415000D01*
X118446000Y-76410000D01*
X118442000Y-76406000D01*
X118438000Y-76401000D01*
X118434000Y-76395000D01*
X118431000Y-76390000D01*
X118428000Y-76384000D01*
X118425000Y-76379000D01*
X118423000Y-76373000D01*
X118421000Y-76367000D01*
X118419000Y-76361000D01*
X118418000Y-76355000D01*
X118416000Y-76349000D01*
X118416000Y-76343000D01*
X118415000Y-76336000D01*
X118415000Y-76330000D01*
X118415000Y-75830000D01*
X118415000Y-75824000D01*
X118416000Y-75817000D01*
X118416000Y-75811000D01*
X118418000Y-75805000D01*
X118419000Y-75799000D01*
X118421000Y-75793000D01*
X118423000Y-75787000D01*
X118425000Y-75781000D01*
X118428000Y-75776000D01*
X118431000Y-75770000D01*
X118434000Y-75765000D01*
X118438000Y-75759000D01*
X118442000Y-75754000D01*
X118446000Y-75750000D01*
X118450000Y-75745000D01*
X118455000Y-75741000D01*
X118459000Y-75737000D01*
X118464000Y-75733000D01*
X118470000Y-75729000D01*
X118475000Y-75726000D01*
X118481000Y-75723000D01*
X118486000Y-75720000D01*
X118492000Y-75718000D01*
X118498000Y-75716000D01*
X118504000Y-75714000D01*
X118510000Y-75713000D01*
X118516000Y-75711000D01*
X118522000Y-75711000D01*
X118529000Y-75710000D01*
X118535000Y-75710000D01*
X118685000Y-75710000D01*
X118691000Y-75710000D01*
X118698000Y-75711000D01*
G37*
X119198000Y-72411000D02*
X119204000Y-72411000D01*
X119210000Y-72413000D01*
X119216000Y-72414000D01*
X119222000Y-72416000D01*
X119228000Y-72418000D01*
X119234000Y-72420000D01*
X119239000Y-72423000D01*
X119245000Y-72426000D01*
X119250000Y-72429000D01*
X119256000Y-72433000D01*
X119261000Y-72437000D01*
X119265000Y-72441000D01*
X119270000Y-72445000D01*
X119274000Y-72450000D01*
X119278000Y-72454000D01*
X119282000Y-72459000D01*
X119286000Y-72465000D01*
X119289000Y-72470000D01*
X119292000Y-72476000D01*
X119295000Y-72481000D01*
X119297000Y-72487000D01*
X119299000Y-72493000D01*
X119301000Y-72499000D01*
X119302000Y-72505000D01*
X119304000Y-72511000D01*
X119304000Y-72517000D01*
X119305000Y-72524000D01*
X119305000Y-72530000D01*
X119305000Y-73030000D01*
X119305000Y-73036000D01*
X119304000Y-73043000D01*
X119304000Y-73049000D01*
X119302000Y-73055000D01*
X119301000Y-73061000D01*
X119299000Y-73067000D01*
X119297000Y-73073000D01*
X119295000Y-73079000D01*
X119292000Y-73084000D01*
X119289000Y-73090000D01*
X119286000Y-73095000D01*
X119282000Y-73101000D01*
X119278000Y-73106000D01*
X119274000Y-73110000D01*
X119270000Y-73115000D01*
X119265000Y-73119000D01*
X119261000Y-73123000D01*
X119256000Y-73127000D01*
X119250000Y-73131000D01*
X119245000Y-73134000D01*
X119239000Y-73137000D01*
X119234000Y-73140000D01*
X119228000Y-73142000D01*
X119222000Y-73144000D01*
X119216000Y-73146000D01*
X119210000Y-73147000D01*
X119204000Y-73149000D01*
X119198000Y-73149000D01*
X119191000Y-73150000D01*
X119185000Y-73150000D01*
X119035000Y-73150000D01*
X119029000Y-73150000D01*
X119022000Y-73149000D01*
X119016000Y-73149000D01*
X119010000Y-73147000D01*
X119004000Y-73146000D01*
X118998000Y-73144000D01*
X118992000Y-73142000D01*
X118986000Y-73140000D01*
X118981000Y-73137000D01*
X118975000Y-73134000D01*
X118970000Y-73131000D01*
X118964000Y-73127000D01*
X118959000Y-73123000D01*
X118955000Y-73119000D01*
X118950000Y-73115000D01*
X118946000Y-73110000D01*
X118942000Y-73106000D01*
X118938000Y-73101000D01*
X118934000Y-73095000D01*
X118931000Y-73090000D01*
X118928000Y-73084000D01*
X118925000Y-73079000D01*
X118923000Y-73073000D01*
X118921000Y-73067000D01*
X118919000Y-73061000D01*
X118918000Y-73055000D01*
X118916000Y-73049000D01*
X118916000Y-73043000D01*
X118915000Y-73036000D01*
X118915000Y-73030000D01*
X118915000Y-72530000D01*
X118915000Y-72524000D01*
X118916000Y-72517000D01*
X118916000Y-72511000D01*
X118918000Y-72505000D01*
X118919000Y-72499000D01*
X118921000Y-72493000D01*
X118923000Y-72487000D01*
X118925000Y-72481000D01*
X118928000Y-72476000D01*
X118931000Y-72470000D01*
X118934000Y-72465000D01*
X118938000Y-72459000D01*
X118942000Y-72454000D01*
X118946000Y-72450000D01*
X118950000Y-72445000D01*
X118955000Y-72441000D01*
X118959000Y-72437000D01*
X118964000Y-72433000D01*
X118970000Y-72429000D01*
X118975000Y-72426000D01*
X118981000Y-72423000D01*
X118986000Y-72420000D01*
X118992000Y-72418000D01*
X118998000Y-72416000D01*
X119004000Y-72414000D01*
X119010000Y-72413000D01*
X119016000Y-72411000D01*
X119022000Y-72411000D01*
X119029000Y-72410000D01*
X119035000Y-72410000D01*
X119185000Y-72410000D01*
X119191000Y-72410000D01*
X119198000Y-72411000D01*
G36*
X119198000Y-72411000D02*
G01*
X119204000Y-72411000D01*
X119210000Y-72413000D01*
X119216000Y-72414000D01*
X119222000Y-72416000D01*
X119228000Y-72418000D01*
X119234000Y-72420000D01*
X119239000Y-72423000D01*
X119245000Y-72426000D01*
X119250000Y-72429000D01*
X119256000Y-72433000D01*
X119261000Y-72437000D01*
X119265000Y-72441000D01*
X119270000Y-72445000D01*
X119274000Y-72450000D01*
X119278000Y-72454000D01*
X119282000Y-72459000D01*
X119286000Y-72465000D01*
X119289000Y-72470000D01*
X119292000Y-72476000D01*
X119295000Y-72481000D01*
X119297000Y-72487000D01*
X119299000Y-72493000D01*
X119301000Y-72499000D01*
X119302000Y-72505000D01*
X119304000Y-72511000D01*
X119304000Y-72517000D01*
X119305000Y-72524000D01*
X119305000Y-72530000D01*
X119305000Y-73030000D01*
X119305000Y-73036000D01*
X119304000Y-73043000D01*
X119304000Y-73049000D01*
X119302000Y-73055000D01*
X119301000Y-73061000D01*
X119299000Y-73067000D01*
X119297000Y-73073000D01*
X119295000Y-73079000D01*
X119292000Y-73084000D01*
X119289000Y-73090000D01*
X119286000Y-73095000D01*
X119282000Y-73101000D01*
X119278000Y-73106000D01*
X119274000Y-73110000D01*
X119270000Y-73115000D01*
X119265000Y-73119000D01*
X119261000Y-73123000D01*
X119256000Y-73127000D01*
X119250000Y-73131000D01*
X119245000Y-73134000D01*
X119239000Y-73137000D01*
X119234000Y-73140000D01*
X119228000Y-73142000D01*
X119222000Y-73144000D01*
X119216000Y-73146000D01*
X119210000Y-73147000D01*
X119204000Y-73149000D01*
X119198000Y-73149000D01*
X119191000Y-73150000D01*
X119185000Y-73150000D01*
X119035000Y-73150000D01*
X119029000Y-73150000D01*
X119022000Y-73149000D01*
X119016000Y-73149000D01*
X119010000Y-73147000D01*
X119004000Y-73146000D01*
X118998000Y-73144000D01*
X118992000Y-73142000D01*
X118986000Y-73140000D01*
X118981000Y-73137000D01*
X118975000Y-73134000D01*
X118970000Y-73131000D01*
X118964000Y-73127000D01*
X118959000Y-73123000D01*
X118955000Y-73119000D01*
X118950000Y-73115000D01*
X118946000Y-73110000D01*
X118942000Y-73106000D01*
X118938000Y-73101000D01*
X118934000Y-73095000D01*
X118931000Y-73090000D01*
X118928000Y-73084000D01*
X118925000Y-73079000D01*
X118923000Y-73073000D01*
X118921000Y-73067000D01*
X118919000Y-73061000D01*
X118918000Y-73055000D01*
X118916000Y-73049000D01*
X118916000Y-73043000D01*
X118915000Y-73036000D01*
X118915000Y-73030000D01*
X118915000Y-72530000D01*
X118915000Y-72524000D01*
X118916000Y-72517000D01*
X118916000Y-72511000D01*
X118918000Y-72505000D01*
X118919000Y-72499000D01*
X118921000Y-72493000D01*
X118923000Y-72487000D01*
X118925000Y-72481000D01*
X118928000Y-72476000D01*
X118931000Y-72470000D01*
X118934000Y-72465000D01*
X118938000Y-72459000D01*
X118942000Y-72454000D01*
X118946000Y-72450000D01*
X118950000Y-72445000D01*
X118955000Y-72441000D01*
X118959000Y-72437000D01*
X118964000Y-72433000D01*
X118970000Y-72429000D01*
X118975000Y-72426000D01*
X118981000Y-72423000D01*
X118986000Y-72420000D01*
X118992000Y-72418000D01*
X118998000Y-72416000D01*
X119004000Y-72414000D01*
X119010000Y-72413000D01*
X119016000Y-72411000D01*
X119022000Y-72411000D01*
X119029000Y-72410000D01*
X119035000Y-72410000D01*
X119185000Y-72410000D01*
X119191000Y-72410000D01*
X119198000Y-72411000D01*
G37*
X119198000Y-75711000D02*
X119204000Y-75711000D01*
X119210000Y-75713000D01*
X119216000Y-75714000D01*
X119222000Y-75716000D01*
X119228000Y-75718000D01*
X119234000Y-75720000D01*
X119239000Y-75723000D01*
X119245000Y-75726000D01*
X119250000Y-75729000D01*
X119256000Y-75733000D01*
X119261000Y-75737000D01*
X119265000Y-75741000D01*
X119270000Y-75745000D01*
X119274000Y-75750000D01*
X119278000Y-75754000D01*
X119282000Y-75759000D01*
X119286000Y-75765000D01*
X119289000Y-75770000D01*
X119292000Y-75776000D01*
X119295000Y-75781000D01*
X119297000Y-75787000D01*
X119299000Y-75793000D01*
X119301000Y-75799000D01*
X119302000Y-75805000D01*
X119304000Y-75811000D01*
X119304000Y-75817000D01*
X119305000Y-75824000D01*
X119305000Y-75830000D01*
X119305000Y-76330000D01*
X119305000Y-76336000D01*
X119304000Y-76343000D01*
X119304000Y-76349000D01*
X119302000Y-76355000D01*
X119301000Y-76361000D01*
X119299000Y-76367000D01*
X119297000Y-76373000D01*
X119295000Y-76379000D01*
X119292000Y-76384000D01*
X119289000Y-76390000D01*
X119286000Y-76395000D01*
X119282000Y-76401000D01*
X119278000Y-76406000D01*
X119274000Y-76410000D01*
X119270000Y-76415000D01*
X119265000Y-76419000D01*
X119261000Y-76423000D01*
X119256000Y-76427000D01*
X119250000Y-76431000D01*
X119245000Y-76434000D01*
X119239000Y-76437000D01*
X119234000Y-76440000D01*
X119228000Y-76442000D01*
X119222000Y-76444000D01*
X119216000Y-76446000D01*
X119210000Y-76447000D01*
X119204000Y-76449000D01*
X119198000Y-76449000D01*
X119191000Y-76450000D01*
X119185000Y-76450000D01*
X119035000Y-76450000D01*
X119029000Y-76450000D01*
X119022000Y-76449000D01*
X119016000Y-76449000D01*
X119010000Y-76447000D01*
X119004000Y-76446000D01*
X118998000Y-76444000D01*
X118992000Y-76442000D01*
X118986000Y-76440000D01*
X118981000Y-76437000D01*
X118975000Y-76434000D01*
X118970000Y-76431000D01*
X118964000Y-76427000D01*
X118959000Y-76423000D01*
X118955000Y-76419000D01*
X118950000Y-76415000D01*
X118946000Y-76410000D01*
X118942000Y-76406000D01*
X118938000Y-76401000D01*
X118934000Y-76395000D01*
X118931000Y-76390000D01*
X118928000Y-76384000D01*
X118925000Y-76379000D01*
X118923000Y-76373000D01*
X118921000Y-76367000D01*
X118919000Y-76361000D01*
X118918000Y-76355000D01*
X118916000Y-76349000D01*
X118916000Y-76343000D01*
X118915000Y-76336000D01*
X118915000Y-76330000D01*
X118915000Y-75830000D01*
X118915000Y-75824000D01*
X118916000Y-75817000D01*
X118916000Y-75811000D01*
X118918000Y-75805000D01*
X118919000Y-75799000D01*
X118921000Y-75793000D01*
X118923000Y-75787000D01*
X118925000Y-75781000D01*
X118928000Y-75776000D01*
X118931000Y-75770000D01*
X118934000Y-75765000D01*
X118938000Y-75759000D01*
X118942000Y-75754000D01*
X118946000Y-75750000D01*
X118950000Y-75745000D01*
X118955000Y-75741000D01*
X118959000Y-75737000D01*
X118964000Y-75733000D01*
X118970000Y-75729000D01*
X118975000Y-75726000D01*
X118981000Y-75723000D01*
X118986000Y-75720000D01*
X118992000Y-75718000D01*
X118998000Y-75716000D01*
X119004000Y-75714000D01*
X119010000Y-75713000D01*
X119016000Y-75711000D01*
X119022000Y-75711000D01*
X119029000Y-75710000D01*
X119035000Y-75710000D01*
X119185000Y-75710000D01*
X119191000Y-75710000D01*
X119198000Y-75711000D01*
G36*
X119198000Y-75711000D02*
G01*
X119204000Y-75711000D01*
X119210000Y-75713000D01*
X119216000Y-75714000D01*
X119222000Y-75716000D01*
X119228000Y-75718000D01*
X119234000Y-75720000D01*
X119239000Y-75723000D01*
X119245000Y-75726000D01*
X119250000Y-75729000D01*
X119256000Y-75733000D01*
X119261000Y-75737000D01*
X119265000Y-75741000D01*
X119270000Y-75745000D01*
X119274000Y-75750000D01*
X119278000Y-75754000D01*
X119282000Y-75759000D01*
X119286000Y-75765000D01*
X119289000Y-75770000D01*
X119292000Y-75776000D01*
X119295000Y-75781000D01*
X119297000Y-75787000D01*
X119299000Y-75793000D01*
X119301000Y-75799000D01*
X119302000Y-75805000D01*
X119304000Y-75811000D01*
X119304000Y-75817000D01*
X119305000Y-75824000D01*
X119305000Y-75830000D01*
X119305000Y-76330000D01*
X119305000Y-76336000D01*
X119304000Y-76343000D01*
X119304000Y-76349000D01*
X119302000Y-76355000D01*
X119301000Y-76361000D01*
X119299000Y-76367000D01*
X119297000Y-76373000D01*
X119295000Y-76379000D01*
X119292000Y-76384000D01*
X119289000Y-76390000D01*
X119286000Y-76395000D01*
X119282000Y-76401000D01*
X119278000Y-76406000D01*
X119274000Y-76410000D01*
X119270000Y-76415000D01*
X119265000Y-76419000D01*
X119261000Y-76423000D01*
X119256000Y-76427000D01*
X119250000Y-76431000D01*
X119245000Y-76434000D01*
X119239000Y-76437000D01*
X119234000Y-76440000D01*
X119228000Y-76442000D01*
X119222000Y-76444000D01*
X119216000Y-76446000D01*
X119210000Y-76447000D01*
X119204000Y-76449000D01*
X119198000Y-76449000D01*
X119191000Y-76450000D01*
X119185000Y-76450000D01*
X119035000Y-76450000D01*
X119029000Y-76450000D01*
X119022000Y-76449000D01*
X119016000Y-76449000D01*
X119010000Y-76447000D01*
X119004000Y-76446000D01*
X118998000Y-76444000D01*
X118992000Y-76442000D01*
X118986000Y-76440000D01*
X118981000Y-76437000D01*
X118975000Y-76434000D01*
X118970000Y-76431000D01*
X118964000Y-76427000D01*
X118959000Y-76423000D01*
X118955000Y-76419000D01*
X118950000Y-76415000D01*
X118946000Y-76410000D01*
X118942000Y-76406000D01*
X118938000Y-76401000D01*
X118934000Y-76395000D01*
X118931000Y-76390000D01*
X118928000Y-76384000D01*
X118925000Y-76379000D01*
X118923000Y-76373000D01*
X118921000Y-76367000D01*
X118919000Y-76361000D01*
X118918000Y-76355000D01*
X118916000Y-76349000D01*
X118916000Y-76343000D01*
X118915000Y-76336000D01*
X118915000Y-76330000D01*
X118915000Y-75830000D01*
X118915000Y-75824000D01*
X118916000Y-75817000D01*
X118916000Y-75811000D01*
X118918000Y-75805000D01*
X118919000Y-75799000D01*
X118921000Y-75793000D01*
X118923000Y-75787000D01*
X118925000Y-75781000D01*
X118928000Y-75776000D01*
X118931000Y-75770000D01*
X118934000Y-75765000D01*
X118938000Y-75759000D01*
X118942000Y-75754000D01*
X118946000Y-75750000D01*
X118950000Y-75745000D01*
X118955000Y-75741000D01*
X118959000Y-75737000D01*
X118964000Y-75733000D01*
X118970000Y-75729000D01*
X118975000Y-75726000D01*
X118981000Y-75723000D01*
X118986000Y-75720000D01*
X118992000Y-75718000D01*
X118998000Y-75716000D01*
X119004000Y-75714000D01*
X119010000Y-75713000D01*
X119016000Y-75711000D01*
X119022000Y-75711000D01*
X119029000Y-75710000D01*
X119035000Y-75710000D01*
X119185000Y-75710000D01*
X119191000Y-75710000D01*
X119198000Y-75711000D01*
G37*
X119698000Y-72411000D02*
X119704000Y-72411000D01*
X119710000Y-72413000D01*
X119716000Y-72414000D01*
X119722000Y-72416000D01*
X119728000Y-72418000D01*
X119734000Y-72420000D01*
X119739000Y-72423000D01*
X119745000Y-72426000D01*
X119750000Y-72429000D01*
X119756000Y-72433000D01*
X119761000Y-72437000D01*
X119765000Y-72441000D01*
X119770000Y-72445000D01*
X119774000Y-72450000D01*
X119778000Y-72454000D01*
X119782000Y-72459000D01*
X119786000Y-72465000D01*
X119789000Y-72470000D01*
X119792000Y-72476000D01*
X119795000Y-72481000D01*
X119797000Y-72487000D01*
X119799000Y-72493000D01*
X119801000Y-72499000D01*
X119802000Y-72505000D01*
X119804000Y-72511000D01*
X119804000Y-72517000D01*
X119805000Y-72524000D01*
X119805000Y-72530000D01*
X119805000Y-73030000D01*
X119805000Y-73036000D01*
X119804000Y-73043000D01*
X119804000Y-73049000D01*
X119802000Y-73055000D01*
X119801000Y-73061000D01*
X119799000Y-73067000D01*
X119797000Y-73073000D01*
X119795000Y-73079000D01*
X119792000Y-73084000D01*
X119789000Y-73090000D01*
X119786000Y-73095000D01*
X119782000Y-73101000D01*
X119778000Y-73106000D01*
X119774000Y-73110000D01*
X119770000Y-73115000D01*
X119765000Y-73119000D01*
X119761000Y-73123000D01*
X119756000Y-73127000D01*
X119750000Y-73131000D01*
X119745000Y-73134000D01*
X119739000Y-73137000D01*
X119734000Y-73140000D01*
X119728000Y-73142000D01*
X119722000Y-73144000D01*
X119716000Y-73146000D01*
X119710000Y-73147000D01*
X119704000Y-73149000D01*
X119698000Y-73149000D01*
X119691000Y-73150000D01*
X119685000Y-73150000D01*
X119535000Y-73150000D01*
X119529000Y-73150000D01*
X119522000Y-73149000D01*
X119516000Y-73149000D01*
X119510000Y-73147000D01*
X119504000Y-73146000D01*
X119498000Y-73144000D01*
X119492000Y-73142000D01*
X119486000Y-73140000D01*
X119481000Y-73137000D01*
X119475000Y-73134000D01*
X119470000Y-73131000D01*
X119464000Y-73127000D01*
X119459000Y-73123000D01*
X119455000Y-73119000D01*
X119450000Y-73115000D01*
X119446000Y-73110000D01*
X119442000Y-73106000D01*
X119438000Y-73101000D01*
X119434000Y-73095000D01*
X119431000Y-73090000D01*
X119428000Y-73084000D01*
X119425000Y-73079000D01*
X119423000Y-73073000D01*
X119421000Y-73067000D01*
X119419000Y-73061000D01*
X119418000Y-73055000D01*
X119416000Y-73049000D01*
X119416000Y-73043000D01*
X119415000Y-73036000D01*
X119415000Y-73030000D01*
X119415000Y-72530000D01*
X119415000Y-72524000D01*
X119416000Y-72517000D01*
X119416000Y-72511000D01*
X119418000Y-72505000D01*
X119419000Y-72499000D01*
X119421000Y-72493000D01*
X119423000Y-72487000D01*
X119425000Y-72481000D01*
X119428000Y-72476000D01*
X119431000Y-72470000D01*
X119434000Y-72465000D01*
X119438000Y-72459000D01*
X119442000Y-72454000D01*
X119446000Y-72450000D01*
X119450000Y-72445000D01*
X119455000Y-72441000D01*
X119459000Y-72437000D01*
X119464000Y-72433000D01*
X119470000Y-72429000D01*
X119475000Y-72426000D01*
X119481000Y-72423000D01*
X119486000Y-72420000D01*
X119492000Y-72418000D01*
X119498000Y-72416000D01*
X119504000Y-72414000D01*
X119510000Y-72413000D01*
X119516000Y-72411000D01*
X119522000Y-72411000D01*
X119529000Y-72410000D01*
X119535000Y-72410000D01*
X119685000Y-72410000D01*
X119691000Y-72410000D01*
X119698000Y-72411000D01*
G36*
X119698000Y-72411000D02*
G01*
X119704000Y-72411000D01*
X119710000Y-72413000D01*
X119716000Y-72414000D01*
X119722000Y-72416000D01*
X119728000Y-72418000D01*
X119734000Y-72420000D01*
X119739000Y-72423000D01*
X119745000Y-72426000D01*
X119750000Y-72429000D01*
X119756000Y-72433000D01*
X119761000Y-72437000D01*
X119765000Y-72441000D01*
X119770000Y-72445000D01*
X119774000Y-72450000D01*
X119778000Y-72454000D01*
X119782000Y-72459000D01*
X119786000Y-72465000D01*
X119789000Y-72470000D01*
X119792000Y-72476000D01*
X119795000Y-72481000D01*
X119797000Y-72487000D01*
X119799000Y-72493000D01*
X119801000Y-72499000D01*
X119802000Y-72505000D01*
X119804000Y-72511000D01*
X119804000Y-72517000D01*
X119805000Y-72524000D01*
X119805000Y-72530000D01*
X119805000Y-73030000D01*
X119805000Y-73036000D01*
X119804000Y-73043000D01*
X119804000Y-73049000D01*
X119802000Y-73055000D01*
X119801000Y-73061000D01*
X119799000Y-73067000D01*
X119797000Y-73073000D01*
X119795000Y-73079000D01*
X119792000Y-73084000D01*
X119789000Y-73090000D01*
X119786000Y-73095000D01*
X119782000Y-73101000D01*
X119778000Y-73106000D01*
X119774000Y-73110000D01*
X119770000Y-73115000D01*
X119765000Y-73119000D01*
X119761000Y-73123000D01*
X119756000Y-73127000D01*
X119750000Y-73131000D01*
X119745000Y-73134000D01*
X119739000Y-73137000D01*
X119734000Y-73140000D01*
X119728000Y-73142000D01*
X119722000Y-73144000D01*
X119716000Y-73146000D01*
X119710000Y-73147000D01*
X119704000Y-73149000D01*
X119698000Y-73149000D01*
X119691000Y-73150000D01*
X119685000Y-73150000D01*
X119535000Y-73150000D01*
X119529000Y-73150000D01*
X119522000Y-73149000D01*
X119516000Y-73149000D01*
X119510000Y-73147000D01*
X119504000Y-73146000D01*
X119498000Y-73144000D01*
X119492000Y-73142000D01*
X119486000Y-73140000D01*
X119481000Y-73137000D01*
X119475000Y-73134000D01*
X119470000Y-73131000D01*
X119464000Y-73127000D01*
X119459000Y-73123000D01*
X119455000Y-73119000D01*
X119450000Y-73115000D01*
X119446000Y-73110000D01*
X119442000Y-73106000D01*
X119438000Y-73101000D01*
X119434000Y-73095000D01*
X119431000Y-73090000D01*
X119428000Y-73084000D01*
X119425000Y-73079000D01*
X119423000Y-73073000D01*
X119421000Y-73067000D01*
X119419000Y-73061000D01*
X119418000Y-73055000D01*
X119416000Y-73049000D01*
X119416000Y-73043000D01*
X119415000Y-73036000D01*
X119415000Y-73030000D01*
X119415000Y-72530000D01*
X119415000Y-72524000D01*
X119416000Y-72517000D01*
X119416000Y-72511000D01*
X119418000Y-72505000D01*
X119419000Y-72499000D01*
X119421000Y-72493000D01*
X119423000Y-72487000D01*
X119425000Y-72481000D01*
X119428000Y-72476000D01*
X119431000Y-72470000D01*
X119434000Y-72465000D01*
X119438000Y-72459000D01*
X119442000Y-72454000D01*
X119446000Y-72450000D01*
X119450000Y-72445000D01*
X119455000Y-72441000D01*
X119459000Y-72437000D01*
X119464000Y-72433000D01*
X119470000Y-72429000D01*
X119475000Y-72426000D01*
X119481000Y-72423000D01*
X119486000Y-72420000D01*
X119492000Y-72418000D01*
X119498000Y-72416000D01*
X119504000Y-72414000D01*
X119510000Y-72413000D01*
X119516000Y-72411000D01*
X119522000Y-72411000D01*
X119529000Y-72410000D01*
X119535000Y-72410000D01*
X119685000Y-72410000D01*
X119691000Y-72410000D01*
X119698000Y-72411000D01*
G37*
X119698000Y-75711000D02*
X119704000Y-75711000D01*
X119710000Y-75713000D01*
X119716000Y-75714000D01*
X119722000Y-75716000D01*
X119728000Y-75718000D01*
X119734000Y-75720000D01*
X119739000Y-75723000D01*
X119745000Y-75726000D01*
X119750000Y-75729000D01*
X119756000Y-75733000D01*
X119761000Y-75737000D01*
X119765000Y-75741000D01*
X119770000Y-75745000D01*
X119774000Y-75750000D01*
X119778000Y-75754000D01*
X119782000Y-75759000D01*
X119786000Y-75765000D01*
X119789000Y-75770000D01*
X119792000Y-75776000D01*
X119795000Y-75781000D01*
X119797000Y-75787000D01*
X119799000Y-75793000D01*
X119801000Y-75799000D01*
X119802000Y-75805000D01*
X119804000Y-75811000D01*
X119804000Y-75817000D01*
X119805000Y-75824000D01*
X119805000Y-75830000D01*
X119805000Y-76330000D01*
X119805000Y-76336000D01*
X119804000Y-76343000D01*
X119804000Y-76349000D01*
X119802000Y-76355000D01*
X119801000Y-76361000D01*
X119799000Y-76367000D01*
X119797000Y-76373000D01*
X119795000Y-76379000D01*
X119792000Y-76384000D01*
X119789000Y-76390000D01*
X119786000Y-76395000D01*
X119782000Y-76401000D01*
X119778000Y-76406000D01*
X119774000Y-76410000D01*
X119770000Y-76415000D01*
X119765000Y-76419000D01*
X119761000Y-76423000D01*
X119756000Y-76427000D01*
X119750000Y-76431000D01*
X119745000Y-76434000D01*
X119739000Y-76437000D01*
X119734000Y-76440000D01*
X119728000Y-76442000D01*
X119722000Y-76444000D01*
X119716000Y-76446000D01*
X119710000Y-76447000D01*
X119704000Y-76449000D01*
X119698000Y-76449000D01*
X119691000Y-76450000D01*
X119685000Y-76450000D01*
X119535000Y-76450000D01*
X119529000Y-76450000D01*
X119522000Y-76449000D01*
X119516000Y-76449000D01*
X119510000Y-76447000D01*
X119504000Y-76446000D01*
X119498000Y-76444000D01*
X119492000Y-76442000D01*
X119486000Y-76440000D01*
X119481000Y-76437000D01*
X119475000Y-76434000D01*
X119470000Y-76431000D01*
X119464000Y-76427000D01*
X119459000Y-76423000D01*
X119455000Y-76419000D01*
X119450000Y-76415000D01*
X119446000Y-76410000D01*
X119442000Y-76406000D01*
X119438000Y-76401000D01*
X119434000Y-76395000D01*
X119431000Y-76390000D01*
X119428000Y-76384000D01*
X119425000Y-76379000D01*
X119423000Y-76373000D01*
X119421000Y-76367000D01*
X119419000Y-76361000D01*
X119418000Y-76355000D01*
X119416000Y-76349000D01*
X119416000Y-76343000D01*
X119415000Y-76336000D01*
X119415000Y-76330000D01*
X119415000Y-75830000D01*
X119415000Y-75824000D01*
X119416000Y-75817000D01*
X119416000Y-75811000D01*
X119418000Y-75805000D01*
X119419000Y-75799000D01*
X119421000Y-75793000D01*
X119423000Y-75787000D01*
X119425000Y-75781000D01*
X119428000Y-75776000D01*
X119431000Y-75770000D01*
X119434000Y-75765000D01*
X119438000Y-75759000D01*
X119442000Y-75754000D01*
X119446000Y-75750000D01*
X119450000Y-75745000D01*
X119455000Y-75741000D01*
X119459000Y-75737000D01*
X119464000Y-75733000D01*
X119470000Y-75729000D01*
X119475000Y-75726000D01*
X119481000Y-75723000D01*
X119486000Y-75720000D01*
X119492000Y-75718000D01*
X119498000Y-75716000D01*
X119504000Y-75714000D01*
X119510000Y-75713000D01*
X119516000Y-75711000D01*
X119522000Y-75711000D01*
X119529000Y-75710000D01*
X119535000Y-75710000D01*
X119685000Y-75710000D01*
X119691000Y-75710000D01*
X119698000Y-75711000D01*
G36*
X119698000Y-75711000D02*
G01*
X119704000Y-75711000D01*
X119710000Y-75713000D01*
X119716000Y-75714000D01*
X119722000Y-75716000D01*
X119728000Y-75718000D01*
X119734000Y-75720000D01*
X119739000Y-75723000D01*
X119745000Y-75726000D01*
X119750000Y-75729000D01*
X119756000Y-75733000D01*
X119761000Y-75737000D01*
X119765000Y-75741000D01*
X119770000Y-75745000D01*
X119774000Y-75750000D01*
X119778000Y-75754000D01*
X119782000Y-75759000D01*
X119786000Y-75765000D01*
X119789000Y-75770000D01*
X119792000Y-75776000D01*
X119795000Y-75781000D01*
X119797000Y-75787000D01*
X119799000Y-75793000D01*
X119801000Y-75799000D01*
X119802000Y-75805000D01*
X119804000Y-75811000D01*
X119804000Y-75817000D01*
X119805000Y-75824000D01*
X119805000Y-75830000D01*
X119805000Y-76330000D01*
X119805000Y-76336000D01*
X119804000Y-76343000D01*
X119804000Y-76349000D01*
X119802000Y-76355000D01*
X119801000Y-76361000D01*
X119799000Y-76367000D01*
X119797000Y-76373000D01*
X119795000Y-76379000D01*
X119792000Y-76384000D01*
X119789000Y-76390000D01*
X119786000Y-76395000D01*
X119782000Y-76401000D01*
X119778000Y-76406000D01*
X119774000Y-76410000D01*
X119770000Y-76415000D01*
X119765000Y-76419000D01*
X119761000Y-76423000D01*
X119756000Y-76427000D01*
X119750000Y-76431000D01*
X119745000Y-76434000D01*
X119739000Y-76437000D01*
X119734000Y-76440000D01*
X119728000Y-76442000D01*
X119722000Y-76444000D01*
X119716000Y-76446000D01*
X119710000Y-76447000D01*
X119704000Y-76449000D01*
X119698000Y-76449000D01*
X119691000Y-76450000D01*
X119685000Y-76450000D01*
X119535000Y-76450000D01*
X119529000Y-76450000D01*
X119522000Y-76449000D01*
X119516000Y-76449000D01*
X119510000Y-76447000D01*
X119504000Y-76446000D01*
X119498000Y-76444000D01*
X119492000Y-76442000D01*
X119486000Y-76440000D01*
X119481000Y-76437000D01*
X119475000Y-76434000D01*
X119470000Y-76431000D01*
X119464000Y-76427000D01*
X119459000Y-76423000D01*
X119455000Y-76419000D01*
X119450000Y-76415000D01*
X119446000Y-76410000D01*
X119442000Y-76406000D01*
X119438000Y-76401000D01*
X119434000Y-76395000D01*
X119431000Y-76390000D01*
X119428000Y-76384000D01*
X119425000Y-76379000D01*
X119423000Y-76373000D01*
X119421000Y-76367000D01*
X119419000Y-76361000D01*
X119418000Y-76355000D01*
X119416000Y-76349000D01*
X119416000Y-76343000D01*
X119415000Y-76336000D01*
X119415000Y-76330000D01*
X119415000Y-75830000D01*
X119415000Y-75824000D01*
X119416000Y-75817000D01*
X119416000Y-75811000D01*
X119418000Y-75805000D01*
X119419000Y-75799000D01*
X119421000Y-75793000D01*
X119423000Y-75787000D01*
X119425000Y-75781000D01*
X119428000Y-75776000D01*
X119431000Y-75770000D01*
X119434000Y-75765000D01*
X119438000Y-75759000D01*
X119442000Y-75754000D01*
X119446000Y-75750000D01*
X119450000Y-75745000D01*
X119455000Y-75741000D01*
X119459000Y-75737000D01*
X119464000Y-75733000D01*
X119470000Y-75729000D01*
X119475000Y-75726000D01*
X119481000Y-75723000D01*
X119486000Y-75720000D01*
X119492000Y-75718000D01*
X119498000Y-75716000D01*
X119504000Y-75714000D01*
X119510000Y-75713000D01*
X119516000Y-75711000D01*
X119522000Y-75711000D01*
X119529000Y-75710000D01*
X119535000Y-75710000D01*
X119685000Y-75710000D01*
X119691000Y-75710000D01*
X119698000Y-75711000D01*
G37*
X120198000Y-72411000D02*
X120204000Y-72411000D01*
X120210000Y-72413000D01*
X120216000Y-72414000D01*
X120222000Y-72416000D01*
X120228000Y-72418000D01*
X120234000Y-72420000D01*
X120239000Y-72423000D01*
X120245000Y-72426000D01*
X120250000Y-72429000D01*
X120256000Y-72433000D01*
X120261000Y-72437000D01*
X120265000Y-72441000D01*
X120270000Y-72445000D01*
X120274000Y-72450000D01*
X120278000Y-72454000D01*
X120282000Y-72459000D01*
X120286000Y-72465000D01*
X120289000Y-72470000D01*
X120292000Y-72476000D01*
X120295000Y-72481000D01*
X120297000Y-72487000D01*
X120299000Y-72493000D01*
X120301000Y-72499000D01*
X120302000Y-72505000D01*
X120304000Y-72511000D01*
X120304000Y-72517000D01*
X120305000Y-72524000D01*
X120305000Y-72530000D01*
X120305000Y-73030000D01*
X120305000Y-73036000D01*
X120304000Y-73043000D01*
X120304000Y-73049000D01*
X120302000Y-73055000D01*
X120301000Y-73061000D01*
X120299000Y-73067000D01*
X120297000Y-73073000D01*
X120295000Y-73079000D01*
X120292000Y-73084000D01*
X120289000Y-73090000D01*
X120286000Y-73095000D01*
X120282000Y-73101000D01*
X120278000Y-73106000D01*
X120274000Y-73110000D01*
X120270000Y-73115000D01*
X120265000Y-73119000D01*
X120261000Y-73123000D01*
X120256000Y-73127000D01*
X120250000Y-73131000D01*
X120245000Y-73134000D01*
X120239000Y-73137000D01*
X120234000Y-73140000D01*
X120228000Y-73142000D01*
X120222000Y-73144000D01*
X120216000Y-73146000D01*
X120210000Y-73147000D01*
X120204000Y-73149000D01*
X120198000Y-73149000D01*
X120191000Y-73150000D01*
X120185000Y-73150000D01*
X120035000Y-73150000D01*
X120029000Y-73150000D01*
X120022000Y-73149000D01*
X120016000Y-73149000D01*
X120010000Y-73147000D01*
X120004000Y-73146000D01*
X119998000Y-73144000D01*
X119992000Y-73142000D01*
X119986000Y-73140000D01*
X119981000Y-73137000D01*
X119975000Y-73134000D01*
X119970000Y-73131000D01*
X119964000Y-73127000D01*
X119959000Y-73123000D01*
X119955000Y-73119000D01*
X119950000Y-73115000D01*
X119946000Y-73110000D01*
X119942000Y-73106000D01*
X119938000Y-73101000D01*
X119934000Y-73095000D01*
X119931000Y-73090000D01*
X119928000Y-73084000D01*
X119925000Y-73079000D01*
X119923000Y-73073000D01*
X119921000Y-73067000D01*
X119919000Y-73061000D01*
X119918000Y-73055000D01*
X119916000Y-73049000D01*
X119916000Y-73043000D01*
X119915000Y-73036000D01*
X119915000Y-73030000D01*
X119915000Y-72530000D01*
X119915000Y-72524000D01*
X119916000Y-72517000D01*
X119916000Y-72511000D01*
X119918000Y-72505000D01*
X119919000Y-72499000D01*
X119921000Y-72493000D01*
X119923000Y-72487000D01*
X119925000Y-72481000D01*
X119928000Y-72476000D01*
X119931000Y-72470000D01*
X119934000Y-72465000D01*
X119938000Y-72459000D01*
X119942000Y-72454000D01*
X119946000Y-72450000D01*
X119950000Y-72445000D01*
X119955000Y-72441000D01*
X119959000Y-72437000D01*
X119964000Y-72433000D01*
X119970000Y-72429000D01*
X119975000Y-72426000D01*
X119981000Y-72423000D01*
X119986000Y-72420000D01*
X119992000Y-72418000D01*
X119998000Y-72416000D01*
X120004000Y-72414000D01*
X120010000Y-72413000D01*
X120016000Y-72411000D01*
X120022000Y-72411000D01*
X120029000Y-72410000D01*
X120035000Y-72410000D01*
X120185000Y-72410000D01*
X120191000Y-72410000D01*
X120198000Y-72411000D01*
G36*
X120198000Y-72411000D02*
G01*
X120204000Y-72411000D01*
X120210000Y-72413000D01*
X120216000Y-72414000D01*
X120222000Y-72416000D01*
X120228000Y-72418000D01*
X120234000Y-72420000D01*
X120239000Y-72423000D01*
X120245000Y-72426000D01*
X120250000Y-72429000D01*
X120256000Y-72433000D01*
X120261000Y-72437000D01*
X120265000Y-72441000D01*
X120270000Y-72445000D01*
X120274000Y-72450000D01*
X120278000Y-72454000D01*
X120282000Y-72459000D01*
X120286000Y-72465000D01*
X120289000Y-72470000D01*
X120292000Y-72476000D01*
X120295000Y-72481000D01*
X120297000Y-72487000D01*
X120299000Y-72493000D01*
X120301000Y-72499000D01*
X120302000Y-72505000D01*
X120304000Y-72511000D01*
X120304000Y-72517000D01*
X120305000Y-72524000D01*
X120305000Y-72530000D01*
X120305000Y-73030000D01*
X120305000Y-73036000D01*
X120304000Y-73043000D01*
X120304000Y-73049000D01*
X120302000Y-73055000D01*
X120301000Y-73061000D01*
X120299000Y-73067000D01*
X120297000Y-73073000D01*
X120295000Y-73079000D01*
X120292000Y-73084000D01*
X120289000Y-73090000D01*
X120286000Y-73095000D01*
X120282000Y-73101000D01*
X120278000Y-73106000D01*
X120274000Y-73110000D01*
X120270000Y-73115000D01*
X120265000Y-73119000D01*
X120261000Y-73123000D01*
X120256000Y-73127000D01*
X120250000Y-73131000D01*
X120245000Y-73134000D01*
X120239000Y-73137000D01*
X120234000Y-73140000D01*
X120228000Y-73142000D01*
X120222000Y-73144000D01*
X120216000Y-73146000D01*
X120210000Y-73147000D01*
X120204000Y-73149000D01*
X120198000Y-73149000D01*
X120191000Y-73150000D01*
X120185000Y-73150000D01*
X120035000Y-73150000D01*
X120029000Y-73150000D01*
X120022000Y-73149000D01*
X120016000Y-73149000D01*
X120010000Y-73147000D01*
X120004000Y-73146000D01*
X119998000Y-73144000D01*
X119992000Y-73142000D01*
X119986000Y-73140000D01*
X119981000Y-73137000D01*
X119975000Y-73134000D01*
X119970000Y-73131000D01*
X119964000Y-73127000D01*
X119959000Y-73123000D01*
X119955000Y-73119000D01*
X119950000Y-73115000D01*
X119946000Y-73110000D01*
X119942000Y-73106000D01*
X119938000Y-73101000D01*
X119934000Y-73095000D01*
X119931000Y-73090000D01*
X119928000Y-73084000D01*
X119925000Y-73079000D01*
X119923000Y-73073000D01*
X119921000Y-73067000D01*
X119919000Y-73061000D01*
X119918000Y-73055000D01*
X119916000Y-73049000D01*
X119916000Y-73043000D01*
X119915000Y-73036000D01*
X119915000Y-73030000D01*
X119915000Y-72530000D01*
X119915000Y-72524000D01*
X119916000Y-72517000D01*
X119916000Y-72511000D01*
X119918000Y-72505000D01*
X119919000Y-72499000D01*
X119921000Y-72493000D01*
X119923000Y-72487000D01*
X119925000Y-72481000D01*
X119928000Y-72476000D01*
X119931000Y-72470000D01*
X119934000Y-72465000D01*
X119938000Y-72459000D01*
X119942000Y-72454000D01*
X119946000Y-72450000D01*
X119950000Y-72445000D01*
X119955000Y-72441000D01*
X119959000Y-72437000D01*
X119964000Y-72433000D01*
X119970000Y-72429000D01*
X119975000Y-72426000D01*
X119981000Y-72423000D01*
X119986000Y-72420000D01*
X119992000Y-72418000D01*
X119998000Y-72416000D01*
X120004000Y-72414000D01*
X120010000Y-72413000D01*
X120016000Y-72411000D01*
X120022000Y-72411000D01*
X120029000Y-72410000D01*
X120035000Y-72410000D01*
X120185000Y-72410000D01*
X120191000Y-72410000D01*
X120198000Y-72411000D01*
G37*
X120198000Y-75711000D02*
X120204000Y-75711000D01*
X120210000Y-75713000D01*
X120216000Y-75714000D01*
X120222000Y-75716000D01*
X120228000Y-75718000D01*
X120234000Y-75720000D01*
X120239000Y-75723000D01*
X120245000Y-75726000D01*
X120250000Y-75729000D01*
X120256000Y-75733000D01*
X120261000Y-75737000D01*
X120265000Y-75741000D01*
X120270000Y-75745000D01*
X120274000Y-75750000D01*
X120278000Y-75754000D01*
X120282000Y-75759000D01*
X120286000Y-75765000D01*
X120289000Y-75770000D01*
X120292000Y-75776000D01*
X120295000Y-75781000D01*
X120297000Y-75787000D01*
X120299000Y-75793000D01*
X120301000Y-75799000D01*
X120302000Y-75805000D01*
X120304000Y-75811000D01*
X120304000Y-75817000D01*
X120305000Y-75824000D01*
X120305000Y-75830000D01*
X120305000Y-76330000D01*
X120305000Y-76336000D01*
X120304000Y-76343000D01*
X120304000Y-76349000D01*
X120302000Y-76355000D01*
X120301000Y-76361000D01*
X120299000Y-76367000D01*
X120297000Y-76373000D01*
X120295000Y-76379000D01*
X120292000Y-76384000D01*
X120289000Y-76390000D01*
X120286000Y-76395000D01*
X120282000Y-76401000D01*
X120278000Y-76406000D01*
X120274000Y-76410000D01*
X120270000Y-76415000D01*
X120265000Y-76419000D01*
X120261000Y-76423000D01*
X120256000Y-76427000D01*
X120250000Y-76431000D01*
X120245000Y-76434000D01*
X120239000Y-76437000D01*
X120234000Y-76440000D01*
X120228000Y-76442000D01*
X120222000Y-76444000D01*
X120216000Y-76446000D01*
X120210000Y-76447000D01*
X120204000Y-76449000D01*
X120198000Y-76449000D01*
X120191000Y-76450000D01*
X120185000Y-76450000D01*
X120035000Y-76450000D01*
X120029000Y-76450000D01*
X120022000Y-76449000D01*
X120016000Y-76449000D01*
X120010000Y-76447000D01*
X120004000Y-76446000D01*
X119998000Y-76444000D01*
X119992000Y-76442000D01*
X119986000Y-76440000D01*
X119981000Y-76437000D01*
X119975000Y-76434000D01*
X119970000Y-76431000D01*
X119964000Y-76427000D01*
X119959000Y-76423000D01*
X119955000Y-76419000D01*
X119950000Y-76415000D01*
X119946000Y-76410000D01*
X119942000Y-76406000D01*
X119938000Y-76401000D01*
X119934000Y-76395000D01*
X119931000Y-76390000D01*
X119928000Y-76384000D01*
X119925000Y-76379000D01*
X119923000Y-76373000D01*
X119921000Y-76367000D01*
X119919000Y-76361000D01*
X119918000Y-76355000D01*
X119916000Y-76349000D01*
X119916000Y-76343000D01*
X119915000Y-76336000D01*
X119915000Y-76330000D01*
X119915000Y-75830000D01*
X119915000Y-75824000D01*
X119916000Y-75817000D01*
X119916000Y-75811000D01*
X119918000Y-75805000D01*
X119919000Y-75799000D01*
X119921000Y-75793000D01*
X119923000Y-75787000D01*
X119925000Y-75781000D01*
X119928000Y-75776000D01*
X119931000Y-75770000D01*
X119934000Y-75765000D01*
X119938000Y-75759000D01*
X119942000Y-75754000D01*
X119946000Y-75750000D01*
X119950000Y-75745000D01*
X119955000Y-75741000D01*
X119959000Y-75737000D01*
X119964000Y-75733000D01*
X119970000Y-75729000D01*
X119975000Y-75726000D01*
X119981000Y-75723000D01*
X119986000Y-75720000D01*
X119992000Y-75718000D01*
X119998000Y-75716000D01*
X120004000Y-75714000D01*
X120010000Y-75713000D01*
X120016000Y-75711000D01*
X120022000Y-75711000D01*
X120029000Y-75710000D01*
X120035000Y-75710000D01*
X120185000Y-75710000D01*
X120191000Y-75710000D01*
X120198000Y-75711000D01*
G36*
X120198000Y-75711000D02*
G01*
X120204000Y-75711000D01*
X120210000Y-75713000D01*
X120216000Y-75714000D01*
X120222000Y-75716000D01*
X120228000Y-75718000D01*
X120234000Y-75720000D01*
X120239000Y-75723000D01*
X120245000Y-75726000D01*
X120250000Y-75729000D01*
X120256000Y-75733000D01*
X120261000Y-75737000D01*
X120265000Y-75741000D01*
X120270000Y-75745000D01*
X120274000Y-75750000D01*
X120278000Y-75754000D01*
X120282000Y-75759000D01*
X120286000Y-75765000D01*
X120289000Y-75770000D01*
X120292000Y-75776000D01*
X120295000Y-75781000D01*
X120297000Y-75787000D01*
X120299000Y-75793000D01*
X120301000Y-75799000D01*
X120302000Y-75805000D01*
X120304000Y-75811000D01*
X120304000Y-75817000D01*
X120305000Y-75824000D01*
X120305000Y-75830000D01*
X120305000Y-76330000D01*
X120305000Y-76336000D01*
X120304000Y-76343000D01*
X120304000Y-76349000D01*
X120302000Y-76355000D01*
X120301000Y-76361000D01*
X120299000Y-76367000D01*
X120297000Y-76373000D01*
X120295000Y-76379000D01*
X120292000Y-76384000D01*
X120289000Y-76390000D01*
X120286000Y-76395000D01*
X120282000Y-76401000D01*
X120278000Y-76406000D01*
X120274000Y-76410000D01*
X120270000Y-76415000D01*
X120265000Y-76419000D01*
X120261000Y-76423000D01*
X120256000Y-76427000D01*
X120250000Y-76431000D01*
X120245000Y-76434000D01*
X120239000Y-76437000D01*
X120234000Y-76440000D01*
X120228000Y-76442000D01*
X120222000Y-76444000D01*
X120216000Y-76446000D01*
X120210000Y-76447000D01*
X120204000Y-76449000D01*
X120198000Y-76449000D01*
X120191000Y-76450000D01*
X120185000Y-76450000D01*
X120035000Y-76450000D01*
X120029000Y-76450000D01*
X120022000Y-76449000D01*
X120016000Y-76449000D01*
X120010000Y-76447000D01*
X120004000Y-76446000D01*
X119998000Y-76444000D01*
X119992000Y-76442000D01*
X119986000Y-76440000D01*
X119981000Y-76437000D01*
X119975000Y-76434000D01*
X119970000Y-76431000D01*
X119964000Y-76427000D01*
X119959000Y-76423000D01*
X119955000Y-76419000D01*
X119950000Y-76415000D01*
X119946000Y-76410000D01*
X119942000Y-76406000D01*
X119938000Y-76401000D01*
X119934000Y-76395000D01*
X119931000Y-76390000D01*
X119928000Y-76384000D01*
X119925000Y-76379000D01*
X119923000Y-76373000D01*
X119921000Y-76367000D01*
X119919000Y-76361000D01*
X119918000Y-76355000D01*
X119916000Y-76349000D01*
X119916000Y-76343000D01*
X119915000Y-76336000D01*
X119915000Y-76330000D01*
X119915000Y-75830000D01*
X119915000Y-75824000D01*
X119916000Y-75817000D01*
X119916000Y-75811000D01*
X119918000Y-75805000D01*
X119919000Y-75799000D01*
X119921000Y-75793000D01*
X119923000Y-75787000D01*
X119925000Y-75781000D01*
X119928000Y-75776000D01*
X119931000Y-75770000D01*
X119934000Y-75765000D01*
X119938000Y-75759000D01*
X119942000Y-75754000D01*
X119946000Y-75750000D01*
X119950000Y-75745000D01*
X119955000Y-75741000D01*
X119959000Y-75737000D01*
X119964000Y-75733000D01*
X119970000Y-75729000D01*
X119975000Y-75726000D01*
X119981000Y-75723000D01*
X119986000Y-75720000D01*
X119992000Y-75718000D01*
X119998000Y-75716000D01*
X120004000Y-75714000D01*
X120010000Y-75713000D01*
X120016000Y-75711000D01*
X120022000Y-75711000D01*
X120029000Y-75710000D01*
X120035000Y-75710000D01*
X120185000Y-75710000D01*
X120191000Y-75710000D01*
X120198000Y-75711000D01*
G37*
X120773000Y-73486000D02*
X120779000Y-73486000D01*
X120785000Y-73488000D01*
X120791000Y-73489000D01*
X120797000Y-73491000D01*
X120803000Y-73493000D01*
X120809000Y-73495000D01*
X120814000Y-73498000D01*
X120820000Y-73501000D01*
X120825000Y-73504000D01*
X120831000Y-73508000D01*
X120836000Y-73512000D01*
X120840000Y-73516000D01*
X120845000Y-73520000D01*
X120849000Y-73525000D01*
X120853000Y-73529000D01*
X120857000Y-73534000D01*
X120861000Y-73540000D01*
X120864000Y-73545000D01*
X120867000Y-73551000D01*
X120870000Y-73556000D01*
X120872000Y-73562000D01*
X120874000Y-73568000D01*
X120876000Y-73574000D01*
X120877000Y-73580000D01*
X120879000Y-73586000D01*
X120879000Y-73592000D01*
X120880000Y-73599000D01*
X120880000Y-73605000D01*
X120880000Y-73755000D01*
X120880000Y-73761000D01*
X120879000Y-73768000D01*
X120879000Y-73774000D01*
X120877000Y-73780000D01*
X120876000Y-73786000D01*
X120874000Y-73792000D01*
X120872000Y-73798000D01*
X120870000Y-73804000D01*
X120867000Y-73809000D01*
X120864000Y-73815000D01*
X120861000Y-73820000D01*
X120857000Y-73826000D01*
X120853000Y-73831000D01*
X120849000Y-73835000D01*
X120845000Y-73840000D01*
X120840000Y-73844000D01*
X120836000Y-73848000D01*
X120831000Y-73852000D01*
X120825000Y-73856000D01*
X120820000Y-73859000D01*
X120814000Y-73862000D01*
X120809000Y-73865000D01*
X120803000Y-73867000D01*
X120797000Y-73869000D01*
X120791000Y-73871000D01*
X120785000Y-73872000D01*
X120779000Y-73874000D01*
X120773000Y-73874000D01*
X120766000Y-73875000D01*
X120760000Y-73875000D01*
X120260000Y-73875000D01*
X120254000Y-73875000D01*
X120247000Y-73874000D01*
X120241000Y-73874000D01*
X120235000Y-73872000D01*
X120229000Y-73871000D01*
X120223000Y-73869000D01*
X120217000Y-73867000D01*
X120211000Y-73865000D01*
X120206000Y-73862000D01*
X120200000Y-73859000D01*
X120195000Y-73856000D01*
X120189000Y-73852000D01*
X120184000Y-73848000D01*
X120180000Y-73844000D01*
X120175000Y-73840000D01*
X120171000Y-73835000D01*
X120167000Y-73831000D01*
X120163000Y-73826000D01*
X120159000Y-73820000D01*
X120156000Y-73815000D01*
X120153000Y-73809000D01*
X120150000Y-73804000D01*
X120148000Y-73798000D01*
X120146000Y-73792000D01*
X120144000Y-73786000D01*
X120143000Y-73780000D01*
X120141000Y-73774000D01*
X120141000Y-73768000D01*
X120140000Y-73761000D01*
X120140000Y-73755000D01*
X120140000Y-73605000D01*
X120140000Y-73599000D01*
X120141000Y-73592000D01*
X120141000Y-73586000D01*
X120143000Y-73580000D01*
X120144000Y-73574000D01*
X120146000Y-73568000D01*
X120148000Y-73562000D01*
X120150000Y-73556000D01*
X120153000Y-73551000D01*
X120156000Y-73545000D01*
X120159000Y-73540000D01*
X120163000Y-73534000D01*
X120167000Y-73529000D01*
X120171000Y-73525000D01*
X120175000Y-73520000D01*
X120180000Y-73516000D01*
X120184000Y-73512000D01*
X120189000Y-73508000D01*
X120195000Y-73504000D01*
X120200000Y-73501000D01*
X120206000Y-73498000D01*
X120211000Y-73495000D01*
X120217000Y-73493000D01*
X120223000Y-73491000D01*
X120229000Y-73489000D01*
X120235000Y-73488000D01*
X120241000Y-73486000D01*
X120247000Y-73486000D01*
X120254000Y-73485000D01*
X120260000Y-73485000D01*
X120760000Y-73485000D01*
X120766000Y-73485000D01*
X120773000Y-73486000D01*
G36*
X120773000Y-73486000D02*
G01*
X120779000Y-73486000D01*
X120785000Y-73488000D01*
X120791000Y-73489000D01*
X120797000Y-73491000D01*
X120803000Y-73493000D01*
X120809000Y-73495000D01*
X120814000Y-73498000D01*
X120820000Y-73501000D01*
X120825000Y-73504000D01*
X120831000Y-73508000D01*
X120836000Y-73512000D01*
X120840000Y-73516000D01*
X120845000Y-73520000D01*
X120849000Y-73525000D01*
X120853000Y-73529000D01*
X120857000Y-73534000D01*
X120861000Y-73540000D01*
X120864000Y-73545000D01*
X120867000Y-73551000D01*
X120870000Y-73556000D01*
X120872000Y-73562000D01*
X120874000Y-73568000D01*
X120876000Y-73574000D01*
X120877000Y-73580000D01*
X120879000Y-73586000D01*
X120879000Y-73592000D01*
X120880000Y-73599000D01*
X120880000Y-73605000D01*
X120880000Y-73755000D01*
X120880000Y-73761000D01*
X120879000Y-73768000D01*
X120879000Y-73774000D01*
X120877000Y-73780000D01*
X120876000Y-73786000D01*
X120874000Y-73792000D01*
X120872000Y-73798000D01*
X120870000Y-73804000D01*
X120867000Y-73809000D01*
X120864000Y-73815000D01*
X120861000Y-73820000D01*
X120857000Y-73826000D01*
X120853000Y-73831000D01*
X120849000Y-73835000D01*
X120845000Y-73840000D01*
X120840000Y-73844000D01*
X120836000Y-73848000D01*
X120831000Y-73852000D01*
X120825000Y-73856000D01*
X120820000Y-73859000D01*
X120814000Y-73862000D01*
X120809000Y-73865000D01*
X120803000Y-73867000D01*
X120797000Y-73869000D01*
X120791000Y-73871000D01*
X120785000Y-73872000D01*
X120779000Y-73874000D01*
X120773000Y-73874000D01*
X120766000Y-73875000D01*
X120760000Y-73875000D01*
X120260000Y-73875000D01*
X120254000Y-73875000D01*
X120247000Y-73874000D01*
X120241000Y-73874000D01*
X120235000Y-73872000D01*
X120229000Y-73871000D01*
X120223000Y-73869000D01*
X120217000Y-73867000D01*
X120211000Y-73865000D01*
X120206000Y-73862000D01*
X120200000Y-73859000D01*
X120195000Y-73856000D01*
X120189000Y-73852000D01*
X120184000Y-73848000D01*
X120180000Y-73844000D01*
X120175000Y-73840000D01*
X120171000Y-73835000D01*
X120167000Y-73831000D01*
X120163000Y-73826000D01*
X120159000Y-73820000D01*
X120156000Y-73815000D01*
X120153000Y-73809000D01*
X120150000Y-73804000D01*
X120148000Y-73798000D01*
X120146000Y-73792000D01*
X120144000Y-73786000D01*
X120143000Y-73780000D01*
X120141000Y-73774000D01*
X120141000Y-73768000D01*
X120140000Y-73761000D01*
X120140000Y-73755000D01*
X120140000Y-73605000D01*
X120140000Y-73599000D01*
X120141000Y-73592000D01*
X120141000Y-73586000D01*
X120143000Y-73580000D01*
X120144000Y-73574000D01*
X120146000Y-73568000D01*
X120148000Y-73562000D01*
X120150000Y-73556000D01*
X120153000Y-73551000D01*
X120156000Y-73545000D01*
X120159000Y-73540000D01*
X120163000Y-73534000D01*
X120167000Y-73529000D01*
X120171000Y-73525000D01*
X120175000Y-73520000D01*
X120180000Y-73516000D01*
X120184000Y-73512000D01*
X120189000Y-73508000D01*
X120195000Y-73504000D01*
X120200000Y-73501000D01*
X120206000Y-73498000D01*
X120211000Y-73495000D01*
X120217000Y-73493000D01*
X120223000Y-73491000D01*
X120229000Y-73489000D01*
X120235000Y-73488000D01*
X120241000Y-73486000D01*
X120247000Y-73486000D01*
X120254000Y-73485000D01*
X120260000Y-73485000D01*
X120760000Y-73485000D01*
X120766000Y-73485000D01*
X120773000Y-73486000D01*
G37*
X120773000Y-74986000D02*
X120779000Y-74986000D01*
X120785000Y-74988000D01*
X120791000Y-74989000D01*
X120797000Y-74991000D01*
X120803000Y-74993000D01*
X120809000Y-74995000D01*
X120814000Y-74998000D01*
X120820000Y-75001000D01*
X120825000Y-75004000D01*
X120831000Y-75008000D01*
X120836000Y-75012000D01*
X120840000Y-75016000D01*
X120845000Y-75020000D01*
X120849000Y-75025000D01*
X120853000Y-75029000D01*
X120857000Y-75034000D01*
X120861000Y-75040000D01*
X120864000Y-75045000D01*
X120867000Y-75051000D01*
X120870000Y-75056000D01*
X120872000Y-75062000D01*
X120874000Y-75068000D01*
X120876000Y-75074000D01*
X120877000Y-75080000D01*
X120879000Y-75086000D01*
X120879000Y-75092000D01*
X120880000Y-75099000D01*
X120880000Y-75105000D01*
X120880000Y-75255000D01*
X120880000Y-75261000D01*
X120879000Y-75268000D01*
X120879000Y-75274000D01*
X120877000Y-75280000D01*
X120876000Y-75286000D01*
X120874000Y-75292000D01*
X120872000Y-75298000D01*
X120870000Y-75304000D01*
X120867000Y-75309000D01*
X120864000Y-75315000D01*
X120861000Y-75320000D01*
X120857000Y-75326000D01*
X120853000Y-75331000D01*
X120849000Y-75335000D01*
X120845000Y-75340000D01*
X120840000Y-75344000D01*
X120836000Y-75348000D01*
X120831000Y-75352000D01*
X120825000Y-75356000D01*
X120820000Y-75359000D01*
X120814000Y-75362000D01*
X120809000Y-75365000D01*
X120803000Y-75367000D01*
X120797000Y-75369000D01*
X120791000Y-75371000D01*
X120785000Y-75372000D01*
X120779000Y-75374000D01*
X120773000Y-75374000D01*
X120766000Y-75375000D01*
X120760000Y-75375000D01*
X120260000Y-75375000D01*
X120254000Y-75375000D01*
X120247000Y-75374000D01*
X120241000Y-75374000D01*
X120235000Y-75372000D01*
X120229000Y-75371000D01*
X120223000Y-75369000D01*
X120217000Y-75367000D01*
X120211000Y-75365000D01*
X120206000Y-75362000D01*
X120200000Y-75359000D01*
X120195000Y-75356000D01*
X120189000Y-75352000D01*
X120184000Y-75348000D01*
X120180000Y-75344000D01*
X120175000Y-75340000D01*
X120171000Y-75335000D01*
X120167000Y-75331000D01*
X120163000Y-75326000D01*
X120159000Y-75320000D01*
X120156000Y-75315000D01*
X120153000Y-75309000D01*
X120150000Y-75304000D01*
X120148000Y-75298000D01*
X120146000Y-75292000D01*
X120144000Y-75286000D01*
X120143000Y-75280000D01*
X120141000Y-75274000D01*
X120141000Y-75268000D01*
X120140000Y-75261000D01*
X120140000Y-75255000D01*
X120140000Y-75105000D01*
X120140000Y-75099000D01*
X120141000Y-75092000D01*
X120141000Y-75086000D01*
X120143000Y-75080000D01*
X120144000Y-75074000D01*
X120146000Y-75068000D01*
X120148000Y-75062000D01*
X120150000Y-75056000D01*
X120153000Y-75051000D01*
X120156000Y-75045000D01*
X120159000Y-75040000D01*
X120163000Y-75034000D01*
X120167000Y-75029000D01*
X120171000Y-75025000D01*
X120175000Y-75020000D01*
X120180000Y-75016000D01*
X120184000Y-75012000D01*
X120189000Y-75008000D01*
X120195000Y-75004000D01*
X120200000Y-75001000D01*
X120206000Y-74998000D01*
X120211000Y-74995000D01*
X120217000Y-74993000D01*
X120223000Y-74991000D01*
X120229000Y-74989000D01*
X120235000Y-74988000D01*
X120241000Y-74986000D01*
X120247000Y-74986000D01*
X120254000Y-74985000D01*
X120260000Y-74985000D01*
X120760000Y-74985000D01*
X120766000Y-74985000D01*
X120773000Y-74986000D01*
G36*
X120773000Y-74986000D02*
G01*
X120779000Y-74986000D01*
X120785000Y-74988000D01*
X120791000Y-74989000D01*
X120797000Y-74991000D01*
X120803000Y-74993000D01*
X120809000Y-74995000D01*
X120814000Y-74998000D01*
X120820000Y-75001000D01*
X120825000Y-75004000D01*
X120831000Y-75008000D01*
X120836000Y-75012000D01*
X120840000Y-75016000D01*
X120845000Y-75020000D01*
X120849000Y-75025000D01*
X120853000Y-75029000D01*
X120857000Y-75034000D01*
X120861000Y-75040000D01*
X120864000Y-75045000D01*
X120867000Y-75051000D01*
X120870000Y-75056000D01*
X120872000Y-75062000D01*
X120874000Y-75068000D01*
X120876000Y-75074000D01*
X120877000Y-75080000D01*
X120879000Y-75086000D01*
X120879000Y-75092000D01*
X120880000Y-75099000D01*
X120880000Y-75105000D01*
X120880000Y-75255000D01*
X120880000Y-75261000D01*
X120879000Y-75268000D01*
X120879000Y-75274000D01*
X120877000Y-75280000D01*
X120876000Y-75286000D01*
X120874000Y-75292000D01*
X120872000Y-75298000D01*
X120870000Y-75304000D01*
X120867000Y-75309000D01*
X120864000Y-75315000D01*
X120861000Y-75320000D01*
X120857000Y-75326000D01*
X120853000Y-75331000D01*
X120849000Y-75335000D01*
X120845000Y-75340000D01*
X120840000Y-75344000D01*
X120836000Y-75348000D01*
X120831000Y-75352000D01*
X120825000Y-75356000D01*
X120820000Y-75359000D01*
X120814000Y-75362000D01*
X120809000Y-75365000D01*
X120803000Y-75367000D01*
X120797000Y-75369000D01*
X120791000Y-75371000D01*
X120785000Y-75372000D01*
X120779000Y-75374000D01*
X120773000Y-75374000D01*
X120766000Y-75375000D01*
X120760000Y-75375000D01*
X120260000Y-75375000D01*
X120254000Y-75375000D01*
X120247000Y-75374000D01*
X120241000Y-75374000D01*
X120235000Y-75372000D01*
X120229000Y-75371000D01*
X120223000Y-75369000D01*
X120217000Y-75367000D01*
X120211000Y-75365000D01*
X120206000Y-75362000D01*
X120200000Y-75359000D01*
X120195000Y-75356000D01*
X120189000Y-75352000D01*
X120184000Y-75348000D01*
X120180000Y-75344000D01*
X120175000Y-75340000D01*
X120171000Y-75335000D01*
X120167000Y-75331000D01*
X120163000Y-75326000D01*
X120159000Y-75320000D01*
X120156000Y-75315000D01*
X120153000Y-75309000D01*
X120150000Y-75304000D01*
X120148000Y-75298000D01*
X120146000Y-75292000D01*
X120144000Y-75286000D01*
X120143000Y-75280000D01*
X120141000Y-75274000D01*
X120141000Y-75268000D01*
X120140000Y-75261000D01*
X120140000Y-75255000D01*
X120140000Y-75105000D01*
X120140000Y-75099000D01*
X120141000Y-75092000D01*
X120141000Y-75086000D01*
X120143000Y-75080000D01*
X120144000Y-75074000D01*
X120146000Y-75068000D01*
X120148000Y-75062000D01*
X120150000Y-75056000D01*
X120153000Y-75051000D01*
X120156000Y-75045000D01*
X120159000Y-75040000D01*
X120163000Y-75034000D01*
X120167000Y-75029000D01*
X120171000Y-75025000D01*
X120175000Y-75020000D01*
X120180000Y-75016000D01*
X120184000Y-75012000D01*
X120189000Y-75008000D01*
X120195000Y-75004000D01*
X120200000Y-75001000D01*
X120206000Y-74998000D01*
X120211000Y-74995000D01*
X120217000Y-74993000D01*
X120223000Y-74991000D01*
X120229000Y-74989000D01*
X120235000Y-74988000D01*
X120241000Y-74986000D01*
X120247000Y-74986000D01*
X120254000Y-74985000D01*
X120260000Y-74985000D01*
X120760000Y-74985000D01*
X120766000Y-74985000D01*
X120773000Y-74986000D01*
G37*
G36*
X153550000Y-106820000D02*
G01*
X151950000Y-106820000D01*
X151950000Y-108320000D01*
X153550000Y-108320000D01*
X153550000Y-106820000D01*
G37*
D15*
X103420000Y-121030000D03*
D16*
X101420000Y-121030000D03*
D17*
X122870000Y-127760000D03*
D18*
X125370000Y-127760000D03*
X127870000Y-127760000D03*
D19*
X144979226Y-81433274D03*
D20*
X134000000Y-122000000D03*
D21*
X134000000Y-124500000D03*
X134000000Y-127000000D03*
D17*
X122920000Y-121080000D03*
D18*
X125420000Y-121080000D03*
X127920000Y-121080000D03*
D22*
X142050000Y-115280000D03*
D18*
X139550000Y-115280000D03*
X137050000Y-115280000D03*
X134550000Y-115280000D03*
D20*
X142000000Y-122000000D03*
D21*
X142000000Y-124500000D03*
X142000000Y-127000000D03*
D17*
X111110000Y-121080000D03*
D18*
X113610000Y-121080000D03*
X116110000Y-121080000D03*
D23*
X102000000Y-128650000D03*
X100833274Y-128166726D03*
X103166726Y-128166726D03*
X100350000Y-127000000D03*
D24*
X102000000Y-127000000D03*
D23*
X103650000Y-127000000D03*
X100833274Y-125833274D03*
X103166726Y-125833274D03*
X102000000Y-125350000D03*
D25*
X103320000Y-96270000D03*
D26*
X108320000Y-96270000D03*
D27*
X153000000Y-125460000D03*
D28*
X153000000Y-128000000D03*
D27*
X155580000Y-119540000D03*
D28*
X155580000Y-117000000D03*
X155580000Y-114460000D03*
D29*
X102400000Y-88000000D03*
D30*
X102400000Y-83000000D03*
D23*
X165000000Y-128650000D03*
X163833274Y-128166726D03*
X166166726Y-128166726D03*
X163350000Y-127000000D03*
D24*
X165000000Y-127000000D03*
D23*
X166650000Y-127000000D03*
X163833274Y-125833274D03*
X166166726Y-125833274D03*
X165000000Y-125350000D03*
D17*
X153740000Y-86970000D03*
D18*
X156240000Y-86970000D03*
X158740000Y-86970000D03*
X161240000Y-86970000D03*
X163740000Y-86970000D03*
X166240000Y-86970000D03*
D31*
X100660000Y-103920000D03*
D16*
X102660000Y-103920000D03*
X104660000Y-103920000D03*
D27*
X153040000Y-119540000D03*
D28*
X153040000Y-117000000D03*
X153040000Y-114460000D03*
D23*
X163350000Y-71000000D03*
X163833274Y-69833274D03*
X163833274Y-72166726D03*
X165000000Y-69350000D03*
D24*
X165000000Y-71000000D03*
D23*
X165000000Y-72650000D03*
X166166726Y-69833274D03*
X166166726Y-72166726D03*
X166650000Y-71000000D03*
D32*
X132500000Y-73000000D03*
D26*
X127500000Y-73000000D03*
D33*
X132200000Y-93760000D03*
X132200000Y-96300000D03*
X132200000Y-98840000D03*
D27*
X155540000Y-125460000D03*
D28*
X155540000Y-128000000D03*
D22*
X148750000Y-71300000D03*
D18*
X146250000Y-71300000D03*
X143750000Y-71300000D03*
X141250000Y-71300000D03*
D27*
X150460000Y-125460000D03*
D28*
X150460000Y-128000000D03*
D27*
X150500000Y-119540000D03*
D28*
X150500000Y-117000000D03*
X150500000Y-114460000D03*
D34*
X104000000Y-76000000D03*
D26*
X104000000Y-71000000D03*
D35*
X158190000Y-78730000D03*
X158190000Y-81270000D03*
X165810000Y-78730000D03*
X165810000Y-81270000D03*
D17*
X111130000Y-127810000D03*
D18*
X113630000Y-127810000D03*
X116130000Y-127810000D03*
D31*
X100720000Y-110320000D03*
D16*
X102720000Y-110320000D03*
X104720000Y-110320000D03*
D27*
X158080000Y-125460000D03*
D28*
X158080000Y-128000000D03*
D36*
X117130000Y-69607024D03*
X118150000Y-69607024D03*
D37*
X154730000Y-95970000D03*
X153770000Y-95970000D03*
D38*
X112530000Y-75722024D03*
X112530000Y-77372024D03*
D36*
X114440000Y-69977024D03*
X115460000Y-69977024D03*
D39*
X149860000Y-94470000D03*
X149860000Y-95490000D03*
X119130000Y-68547024D03*
X119130000Y-69567024D03*
D40*
X123787500Y-72500000D03*
X122212500Y-72500000D03*
D41*
X147652500Y-94460000D03*
X147652500Y-95420000D03*
D42*
X137400000Y-122975000D03*
X137400000Y-120025000D03*
D43*
X152652500Y-101420000D03*
X152652500Y-100460000D03*
D37*
X154730000Y-97070000D03*
X153770000Y-97070000D03*
D44*
X114230000Y-77472024D03*
X114230000Y-79022024D03*
D43*
X151510000Y-101420000D03*
X151510000Y-100460000D03*
D39*
X121230000Y-77390000D03*
X121230000Y-78410000D03*
D45*
X121405000Y-69047024D03*
X123055000Y-69047024D03*
D46*
X123825000Y-74200000D03*
X122175000Y-74200000D03*
D39*
X114530000Y-73737024D03*
X114530000Y-74757024D03*
D47*
X100700000Y-107600000D03*
X101660000Y-107600000D03*
D48*
X154050000Y-107570000D03*
X152750000Y-107570000D03*
X151450000Y-107570000D03*
D49*
X145700000Y-125050000D03*
X145700000Y-128350000D03*
D42*
X145700000Y-123175000D03*
X145700000Y-120225000D03*
D36*
X121410000Y-70547024D03*
X122430000Y-70547024D03*
D37*
X115440000Y-68877024D03*
X114480000Y-68877024D03*
D43*
X149240000Y-101420000D03*
X149240000Y-100460000D03*
D49*
X137500000Y-124950000D03*
X137500000Y-128250000D03*
D36*
X153730000Y-94830000D03*
X154750000Y-94830000D03*
D37*
X118140000Y-70697024D03*
X117180000Y-70697024D03*
D43*
X150340000Y-101420000D03*
X150340000Y-100460000D03*
D47*
X119210000Y-70727024D03*
X120170000Y-70727024D03*
X100700000Y-106370000D03*
X101660000Y-106370000D03*
D41*
X148752500Y-94460000D03*
X148752500Y-95420000D03*
D37*
X118070000Y-68397024D03*
X117110000Y-68397024D03*
D50*
X122265000Y-75890000D03*
X123815000Y-75890000D03*
D45*
X112805000Y-72247024D03*
X114455000Y-72247024D03*
D51*
X117775000Y-78047024D03*
X116225000Y-78047024D03*
D43*
X153752500Y-101420000D03*
X153752500Y-100460000D03*
%LPD*%
M02*
