ISO-10303-21;
HEADER;
FILE_DESCRIPTION(('FreeCAD Model'),'2;1');
FILE_NAME('Open CASCADE Shape Model','2025-09-10T21:34:44',(''),(''),
  'Open CASCADE STEP processor 7.8','FreeCAD','Unknown');
FILE_SCHEMA(('AUTOMOTIVE_DESIGN { 1 0 10303 214 1 1 1 1 }'));
ENDSEC;
DATA;
#1 = APPLICATION_PROTOCOL_DEFINITION('international standard',
  'automotive_design',2000,#2);
#2 = APPLICATION_CONTEXT(
  'core data for automotive mechanical design processes');
#3 = SHAPE_DEFINITION_REPRESENTATION(#4,#10);
#4 = PRODUCT_DEFINITION_SHAPE('','',#5);
#5 = PRODUCT_DEFINITION('design','',#6,#9);
#6 = PRODUCT_DEFINITION_FORMATION('','',#7);
#7 = PRODUCT('SOIC_Thermal_Pad_standard','SOIC_Thermal_Pad_standard','',
  (#8));
#8 = PRODUCT_CONTEXT('',#2,'mechanical');
#9 = PRODUCT_DEFINITION_CONTEXT('part definition',#2,'design');
#10 = SHAPE_REPRESENTATION('',(#11,#15,#19,#23,#27),#31);
#11 = AXIS2_PLACEMENT_3D('',#12,#13,#14);
#12 = CARTESIAN_POINT('',(0.,0.,0.));
#13 = DIRECTION('',(0.,0.,1.));
#14 = DIRECTION('',(1.,0.,-0.));
#15 = AXIS2_PLACEMENT_3D('',#16,#17,#18);
#16 = CARTESIAN_POINT('',(0.,0.,0.));
#17 = DIRECTION('',(0.,0.,1.));
#18 = DIRECTION('',(1.,0.,0.));
#19 = AXIS2_PLACEMENT_3D('',#20,#21,#22);
#20 = CARTESIAN_POINT('',(0.,0.,0.));
#21 = DIRECTION('',(0.,0.,1.));
#22 = DIRECTION('',(1.,0.,0.));
#23 = AXIS2_PLACEMENT_3D('',#24,#25,#26);
#24 = CARTESIAN_POINT('',(0.,0.,0.));
#25 = DIRECTION('',(0.,0.,1.));
#26 = DIRECTION('',(1.,0.,0.));
#27 = AXIS2_PLACEMENT_3D('',#28,#29,#30);
#28 = CARTESIAN_POINT('',(0.,0.,0.));
#29 = DIRECTION('',(0.,0.,1.));
#30 = DIRECTION('',(1.,0.,0.));
#31 = ( GEOMETRIC_REPRESENTATION_CONTEXT(3) 
GLOBAL_UNCERTAINTY_ASSIGNED_CONTEXT((#35)) GLOBAL_UNIT_ASSIGNED_CONTEXT(
(#32,#33,#34)) REPRESENTATION_CONTEXT('Context #1',
  '3D Context with UNIT and UNCERTAINTY') );
#32 = ( LENGTH_UNIT() NAMED_UNIT(*) SI_UNIT(.MILLI.,.METRE.) );
#33 = ( NAMED_UNIT(*) PLANE_ANGLE_UNIT() SI_UNIT($,.RADIAN.) );
#34 = ( NAMED_UNIT(*) SI_UNIT($,.STERADIAN.) SOLID_ANGLE_UNIT() );
#35 = UNCERTAINTY_MEASURE_WITH_UNIT(LENGTH_MEASURE(5.E-07),#32,
  'distance_accuracy_value','confusion accuracy');
#36 = PRODUCT_RELATED_PRODUCT_CATEGORY('part',$,(#7));
#37 = SHAPE_DEFINITION_REPRESENTATION(#38,#44);
#38 = PRODUCT_DEFINITION_SHAPE('','',#39);
#39 = PRODUCT_DEFINITION('design','',#40,#43);
#40 = PRODUCT_DEFINITION_FORMATION('','',#41);
#41 = PRODUCT('Body002','Body002','',(#42));
#42 = PRODUCT_CONTEXT('',#2,'mechanical');
#43 = PRODUCT_DEFINITION_CONTEXT('part definition',#2,'design');
#44 = ADVANCED_BREP_SHAPE_REPRESENTATION('',(#11,#45),#195);
#45 = MANIFOLD_SOLID_BREP('',#46);
#46 = CLOSED_SHELL('',(#47,#87,#118,#149,#171,#183));
#47 = ADVANCED_FACE('',(#48),#82,.T.);
#48 = FACE_BOUND('',#49,.T.);
#49 = EDGE_LOOP('',(#50,#60,#68,#76));
#50 = ORIENTED_EDGE('',*,*,#51,.T.);
#51 = EDGE_CURVE('',#52,#54,#56,.T.);
#52 = VERTEX_POINT('',#53);
#53 = CARTESIAN_POINT('',(-1.375,-6.883382752676E-16,-3.1));
#54 = VERTEX_POINT('',#55);
#55 = CARTESIAN_POINT('',(-1.375,0.111162575266,-3.1));
#56 = LINE('',#57,#58);
#57 = CARTESIAN_POINT('',(-1.375,-6.883382752676E-16,-3.1));
#58 = VECTOR('',#59,1.);
#59 = DIRECTION('',(-0.,1.,-2.E-16));
#60 = ORIENTED_EDGE('',*,*,#61,.T.);
#61 = EDGE_CURVE('',#54,#62,#64,.T.);
#62 = VERTEX_POINT('',#63);
#63 = CARTESIAN_POINT('',(1.375,0.111162575266,-3.1));
#64 = LINE('',#65,#66);
#65 = CARTESIAN_POINT('',(-1.375,0.111162575266,-3.1));
#66 = VECTOR('',#67,1.);
#67 = DIRECTION('',(1.,0.,0.));
#68 = ORIENTED_EDGE('',*,*,#69,.F.);
#69 = EDGE_CURVE('',#70,#62,#72,.T.);
#70 = VERTEX_POINT('',#71);
#71 = CARTESIAN_POINT('',(1.375,-6.883382752676E-16,-3.1));
#72 = LINE('',#73,#74);
#73 = CARTESIAN_POINT('',(1.375,-6.883382752676E-16,-3.1));
#74 = VECTOR('',#75,1.);
#75 = DIRECTION('',(-0.,1.,-2.E-16));
#76 = ORIENTED_EDGE('',*,*,#77,.F.);
#77 = EDGE_CURVE('',#52,#70,#78,.T.);
#78 = LINE('',#79,#80);
#79 = CARTESIAN_POINT('',(-1.375,-6.883382752676E-16,-3.1));
#80 = VECTOR('',#81,1.);
#81 = DIRECTION('',(1.,0.,0.));
#82 = PLANE('',#83);
#83 = AXIS2_PLACEMENT_3D('',#84,#85,#86);
#84 = CARTESIAN_POINT('',(-1.375,-6.883382752676E-16,-3.1));
#85 = DIRECTION('',(0.,-2.E-16,-1.));
#86 = DIRECTION('',(1.,0.,0.));
#87 = ADVANCED_FACE('',(#88),#113,.T.);
#88 = FACE_BOUND('',#89,.T.);
#89 = EDGE_LOOP('',(#90,#91,#99,#107));
#90 = ORIENTED_EDGE('',*,*,#69,.T.);
#91 = ORIENTED_EDGE('',*,*,#92,.T.);
#92 = EDGE_CURVE('',#62,#93,#95,.T.);
#93 = VERTEX_POINT('',#94);
#94 = CARTESIAN_POINT('',(1.375,0.111162575266,3.1));
#95 = LINE('',#96,#97);
#96 = CARTESIAN_POINT('',(1.375,0.111162575266,-3.1));
#97 = VECTOR('',#98,1.);
#98 = DIRECTION('',(0.,2.22044604925E-16,1.));
#99 = ORIENTED_EDGE('',*,*,#100,.F.);
#100 = EDGE_CURVE('',#101,#93,#103,.T.);
#101 = VERTEX_POINT('',#102);
#102 = CARTESIAN_POINT('',(1.375,6.883382752676E-16,3.1));
#103 = LINE('',#104,#105);
#104 = CARTESIAN_POINT('',(1.375,6.883382752676E-16,3.1));
#105 = VECTOR('',#106,1.);
#106 = DIRECTION('',(-0.,1.,-2.E-16));
#107 = ORIENTED_EDGE('',*,*,#108,.F.);
#108 = EDGE_CURVE('',#70,#101,#109,.T.);
#109 = LINE('',#110,#111);
#110 = CARTESIAN_POINT('',(1.375,-6.883382752676E-16,-3.1));
#111 = VECTOR('',#112,1.);
#112 = DIRECTION('',(0.,2.22044604925E-16,1.));
#113 = PLANE('',#114);
#114 = AXIS2_PLACEMENT_3D('',#115,#116,#117);
#115 = CARTESIAN_POINT('',(1.375,-6.883382752676E-16,-3.1));
#116 = DIRECTION('',(1.,0.,0.));
#117 = DIRECTION('',(0.,2.22044604925E-16,1.));
#118 = ADVANCED_FACE('',(#119),#144,.T.);
#119 = FACE_BOUND('',#120,.T.);
#120 = EDGE_LOOP('',(#121,#122,#130,#138));
#121 = ORIENTED_EDGE('',*,*,#100,.T.);
#122 = ORIENTED_EDGE('',*,*,#123,.T.);
#123 = EDGE_CURVE('',#93,#124,#126,.T.);
#124 = VERTEX_POINT('',#125);
#125 = CARTESIAN_POINT('',(-1.375,0.111162575266,3.1));
#126 = LINE('',#127,#128);
#127 = CARTESIAN_POINT('',(1.375,0.111162575266,3.1));
#128 = VECTOR('',#129,1.);
#129 = DIRECTION('',(-1.,0.,0.));
#130 = ORIENTED_EDGE('',*,*,#131,.F.);
#131 = EDGE_CURVE('',#132,#124,#134,.T.);
#132 = VERTEX_POINT('',#133);
#133 = CARTESIAN_POINT('',(-1.375,6.883382752676E-16,3.1));
#134 = LINE('',#135,#136);
#135 = CARTESIAN_POINT('',(-1.375,6.883382752676E-16,3.1));
#136 = VECTOR('',#137,1.);
#137 = DIRECTION('',(-0.,1.,-2.E-16));
#138 = ORIENTED_EDGE('',*,*,#139,.F.);
#139 = EDGE_CURVE('',#101,#132,#140,.T.);
#140 = LINE('',#141,#142);
#141 = CARTESIAN_POINT('',(1.375,6.883382752676E-16,3.1));
#142 = VECTOR('',#143,1.);
#143 = DIRECTION('',(-1.,0.,0.));
#144 = PLANE('',#145);
#145 = AXIS2_PLACEMENT_3D('',#146,#147,#148);
#146 = CARTESIAN_POINT('',(1.375,6.883382752676E-16,3.1));
#147 = DIRECTION('',(0.,2.E-16,1.));
#148 = DIRECTION('',(-1.,-0.,0.));
#149 = ADVANCED_FACE('',(#150),#166,.T.);
#150 = FACE_BOUND('',#151,.T.);
#151 = EDGE_LOOP('',(#152,#153,#159,#160));
#152 = ORIENTED_EDGE('',*,*,#131,.T.);
#153 = ORIENTED_EDGE('',*,*,#154,.T.);
#154 = EDGE_CURVE('',#124,#54,#155,.T.);
#155 = LINE('',#156,#157);
#156 = CARTESIAN_POINT('',(-1.375,0.111162575266,3.1));
#157 = VECTOR('',#158,1.);
#158 = DIRECTION('',(0.,-2.22044604925E-16,-1.));
#159 = ORIENTED_EDGE('',*,*,#51,.F.);
#160 = ORIENTED_EDGE('',*,*,#161,.F.);
#161 = EDGE_CURVE('',#132,#52,#162,.T.);
#162 = LINE('',#163,#164);
#163 = CARTESIAN_POINT('',(-1.375,6.883382752676E-16,3.1));
#164 = VECTOR('',#165,1.);
#165 = DIRECTION('',(0.,-2.22044604925E-16,-1.));
#166 = PLANE('',#167);
#167 = AXIS2_PLACEMENT_3D('',#168,#169,#170);
#168 = CARTESIAN_POINT('',(-1.375,6.883382752676E-16,3.1));
#169 = DIRECTION('',(-1.,-0.,0.));
#170 = DIRECTION('',(0.,-2.22044604925E-16,-1.));
#171 = ADVANCED_FACE('',(#172),#178,.F.);
#172 = FACE_BOUND('',#173,.T.);
#173 = EDGE_LOOP('',(#174,#175,#176,#177));
#174 = ORIENTED_EDGE('',*,*,#77,.T.);
#175 = ORIENTED_EDGE('',*,*,#108,.T.);
#176 = ORIENTED_EDGE('',*,*,#139,.T.);
#177 = ORIENTED_EDGE('',*,*,#161,.T.);
#178 = PLANE('',#179);
#179 = AXIS2_PLACEMENT_3D('',#180,#181,#182);
#180 = CARTESIAN_POINT('',(0.,0.,0.));
#181 = DIRECTION('',(0.,1.,0.));
#182 = DIRECTION('',(0.,0.,1.));
#183 = ADVANCED_FACE('',(#184),#190,.T.);
#184 = FACE_BOUND('',#185,.F.);
#185 = EDGE_LOOP('',(#186,#187,#188,#189));
#186 = ORIENTED_EDGE('',*,*,#61,.T.);
#187 = ORIENTED_EDGE('',*,*,#92,.T.);
#188 = ORIENTED_EDGE('',*,*,#123,.T.);
#189 = ORIENTED_EDGE('',*,*,#154,.T.);
#190 = PLANE('',#191);
#191 = AXIS2_PLACEMENT_3D('',#192,#193,#194);
#192 = CARTESIAN_POINT('',(0.,0.111162575266,-2.775557561563E-17));
#193 = DIRECTION('',(0.,1.,0.));
#194 = DIRECTION('',(0.,0.,1.));
#195 = ( GEOMETRIC_REPRESENTATION_CONTEXT(3) 
GLOBAL_UNCERTAINTY_ASSIGNED_CONTEXT((#199)) GLOBAL_UNIT_ASSIGNED_CONTEXT
((#196,#197,#198)) REPRESENTATION_CONTEXT('Context #1',
  '3D Context with UNIT and UNCERTAINTY') );
#196 = ( LENGTH_UNIT() NAMED_UNIT(*) SI_UNIT(.MILLI.,.METRE.) );
#197 = ( NAMED_UNIT(*) PLANE_ANGLE_UNIT() SI_UNIT($,.RADIAN.) );
#198 = ( NAMED_UNIT(*) SI_UNIT($,.STERADIAN.) SOLID_ANGLE_UNIT() );
#199 = UNCERTAINTY_MEASURE_WITH_UNIT(LENGTH_MEASURE(1.E-07),#196,
  'distance_accuracy_value','confusion accuracy');
#200 = CONTEXT_DEPENDENT_SHAPE_REPRESENTATION(#201,#203);
#201 = ( REPRESENTATION_RELATIONSHIP('','',#44,#10) 
REPRESENTATION_RELATIONSHIP_WITH_TRANSFORMATION(#202) 
SHAPE_REPRESENTATION_RELATIONSHIP() );
#202 = ITEM_DEFINED_TRANSFORMATION('','',#11,#15);
#203 = PRODUCT_DEFINITION_SHAPE('Placement','Placement of an item',#204
  );
#204 = NEXT_ASSEMBLY_USAGE_OCCURRENCE('262','Body002','',#5,#39,$);
#205 = PRODUCT_RELATED_PRODUCT_CATEGORY('part',$,(#41));
#206 = SHAPE_DEFINITION_REPRESENTATION(#207,#213);
#207 = PRODUCT_DEFINITION_SHAPE('','',#208);
#208 = PRODUCT_DEFINITION('design','',#209,#212);
#209 = PRODUCT_DEFINITION_FORMATION('','',#210);
#210 = PRODUCT('Array001','Array001','',(#211));
#211 = PRODUCT_CONTEXT('',#2,'mechanical');
#212 = PRODUCT_DEFINITION_CONTEXT('part definition',#2,'design');
#213 = SHAPE_REPRESENTATION('',(#11,#214,#218,#222,#226,#230,#234,#238,
    #242,#246,#250,#254,#258,#262,#266),#270);
#214 = AXIS2_PLACEMENT_3D('',#215,#216,#217);
#215 = CARTESIAN_POINT('',(0.,0.,4.225));
#216 = DIRECTION('',(0.,0.,1.));
#217 = DIRECTION('',(1.,0.,0.));
#218 = AXIS2_PLACEMENT_3D('',#219,#220,#221);
#219 = CARTESIAN_POINT('',(0.,0.,3.575));
#220 = DIRECTION('',(0.,0.,1.));
#221 = DIRECTION('',(1.,0.,0.));
#222 = AXIS2_PLACEMENT_3D('',#223,#224,#225);
#223 = CARTESIAN_POINT('',(0.,0.,2.925));
#224 = DIRECTION('',(0.,0.,1.));
#225 = DIRECTION('',(1.,0.,0.));
#226 = AXIS2_PLACEMENT_3D('',#227,#228,#229);
#227 = CARTESIAN_POINT('',(0.,0.,2.275));
#228 = DIRECTION('',(0.,0.,1.));
#229 = DIRECTION('',(1.,0.,0.));
#230 = AXIS2_PLACEMENT_3D('',#231,#232,#233);
#231 = CARTESIAN_POINT('',(0.,0.,1.625));
#232 = DIRECTION('',(0.,0.,1.));
#233 = DIRECTION('',(1.,0.,0.));
#234 = AXIS2_PLACEMENT_3D('',#235,#236,#237);
#235 = CARTESIAN_POINT('',(0.,0.,0.975));
#236 = DIRECTION('',(0.,0.,1.));
#237 = DIRECTION('',(1.,0.,0.));
#238 = AXIS2_PLACEMENT_3D('',#239,#240,#241);
#239 = CARTESIAN_POINT('',(0.,0.,0.325));
#240 = DIRECTION('',(0.,0.,1.));
#241 = DIRECTION('',(1.,0.,0.));
#242 = AXIS2_PLACEMENT_3D('',#243,#244,#245);
#243 = CARTESIAN_POINT('',(0.,0.,-0.325));
#244 = DIRECTION('',(0.,0.,1.));
#245 = DIRECTION('',(1.,0.,0.));
#246 = AXIS2_PLACEMENT_3D('',#247,#248,#249);
#247 = CARTESIAN_POINT('',(0.,0.,-0.975));
#248 = DIRECTION('',(0.,0.,1.));
#249 = DIRECTION('',(1.,0.,0.));
#250 = AXIS2_PLACEMENT_3D('',#251,#252,#253);
#251 = CARTESIAN_POINT('',(0.,0.,-1.625));
#252 = DIRECTION('',(0.,0.,1.));
#253 = DIRECTION('',(1.,0.,0.));
#254 = AXIS2_PLACEMENT_3D('',#255,#256,#257);
#255 = CARTESIAN_POINT('',(0.,0.,-2.275));
#256 = DIRECTION('',(0.,0.,1.));
#257 = DIRECTION('',(1.,0.,0.));
#258 = AXIS2_PLACEMENT_3D('',#259,#260,#261);
#259 = CARTESIAN_POINT('',(0.,0.,-2.925));
#260 = DIRECTION('',(0.,0.,1.));
#261 = DIRECTION('',(1.,0.,0.));
#262 = AXIS2_PLACEMENT_3D('',#263,#264,#265);
#263 = CARTESIAN_POINT('',(0.,0.,-3.575));
#264 = DIRECTION('',(0.,0.,1.));
#265 = DIRECTION('',(1.,0.,0.));
#266 = AXIS2_PLACEMENT_3D('',#267,#268,#269);
#267 = CARTESIAN_POINT('',(0.,0.,-4.225));
#268 = DIRECTION('',(0.,0.,1.));
#269 = DIRECTION('',(1.,0.,0.));
#270 = ( GEOMETRIC_REPRESENTATION_CONTEXT(3) 
GLOBAL_UNCERTAINTY_ASSIGNED_CONTEXT((#274)) GLOBAL_UNIT_ASSIGNED_CONTEXT
((#271,#272,#273)) REPRESENTATION_CONTEXT('Context #1',
  '3D Context with UNIT and UNCERTAINTY') );
#271 = ( LENGTH_UNIT() NAMED_UNIT(*) SI_UNIT(.MILLI.,.METRE.) );
#272 = ( NAMED_UNIT(*) PLANE_ANGLE_UNIT() SI_UNIT($,.RADIAN.) );
#273 = ( NAMED_UNIT(*) SI_UNIT($,.STERADIAN.) SOLID_ANGLE_UNIT() );
#274 = UNCERTAINTY_MEASURE_WITH_UNIT(LENGTH_MEASURE(1.E-07),#271,
  'distance_accuracy_value','confusion accuracy');
#275 = CONTEXT_DEPENDENT_SHAPE_REPRESENTATION(#276,#278);
#276 = ( REPRESENTATION_RELATIONSHIP('','',#213,#10) 
REPRESENTATION_RELATIONSHIP_WITH_TRANSFORMATION(#277) 
SHAPE_REPRESENTATION_RELATIONSHIP() );
#277 = ITEM_DEFINED_TRANSFORMATION('','',#11,#19);
#278 = PRODUCT_DEFINITION_SHAPE('Placement','Placement of an item',#279
  );
#279 = NEXT_ASSEMBLY_USAGE_OCCURRENCE('277','Array001','',#5,#208,$);
#280 = PRODUCT_RELATED_PRODUCT_CATEGORY('part',$,(#210));
#281 = SHAPE_DEFINITION_REPRESENTATION(#282,#288);
#282 = PRODUCT_DEFINITION_SHAPE('','',#283);
#283 = PRODUCT_DEFINITION('design','',#284,#287);
#284 = PRODUCT_DEFINITION_FORMATION('','',#285);
#285 = PRODUCT('Body001','Body001','',(#286));
#286 = PRODUCT_CONTEXT('',#2,'mechanical');
#287 = PRODUCT_DEFINITION_CONTEXT('part definition',#2,'design');
#288 = ADVANCED_BREP_SHAPE_REPRESENTATION('',(#11,#289),#571);
#289 = MANIFOLD_SOLID_BREP('',#290);
#290 = CLOSED_SHELL('',(#291,#331,#362,#393,#424,#455,#486,#517,#539,
    #555));
#291 = ADVANCED_FACE('',(#292),#326,.F.);
#292 = FACE_BOUND('',#293,.F.);
#293 = EDGE_LOOP('',(#294,#304,#312,#320));
#294 = ORIENTED_EDGE('',*,*,#295,.T.);
#295 = EDGE_CURVE('',#296,#298,#300,.T.);
#296 = VERTEX_POINT('',#297);
#297 = CARTESIAN_POINT('',(2.2,0.578081287633,-0.1225));
#298 = VERTEX_POINT('',#299);
#299 = CARTESIAN_POINT('',(2.2,0.578081287633,0.1225));
#300 = LINE('',#301,#302);
#301 = CARTESIAN_POINT('',(2.2,0.578081287633,-0.1225));
#302 = VECTOR('',#303,1.);
#303 = DIRECTION('',(0.,0.,1.));
#304 = ORIENTED_EDGE('',*,*,#305,.T.);
#305 = EDGE_CURVE('',#298,#306,#308,.T.);
#306 = VERTEX_POINT('',#307);
#307 = CARTESIAN_POINT('',(2.3,0.578081287633,0.1225));
#308 = LINE('',#309,#310);
#309 = CARTESIAN_POINT('',(2.2,0.578081287633,0.1225));
#310 = VECTOR('',#311,1.);
#311 = DIRECTION('',(1.,0.,0.));
#312 = ORIENTED_EDGE('',*,*,#313,.F.);
#313 = EDGE_CURVE('',#314,#306,#316,.T.);
#314 = VERTEX_POINT('',#315);
#315 = CARTESIAN_POINT('',(2.3,0.578081287633,-0.1225));
#316 = LINE('',#317,#318);
#317 = CARTESIAN_POINT('',(2.3,0.578081287633,-0.1225));
#318 = VECTOR('',#319,1.);
#319 = DIRECTION('',(0.,0.,1.));
#320 = ORIENTED_EDGE('',*,*,#321,.F.);
#321 = EDGE_CURVE('',#296,#314,#322,.T.);
#322 = LINE('',#323,#324);
#323 = CARTESIAN_POINT('',(2.2,0.578081287633,-0.1225));
#324 = VECTOR('',#325,1.);
#325 = DIRECTION('',(1.,0.,0.));
#326 = PLANE('',#327);
#327 = AXIS2_PLACEMENT_3D('',#328,#329,#330);
#328 = CARTESIAN_POINT('',(2.2,0.578081287633,-0.1225));
#329 = DIRECTION('',(0.,1.,0.));
#330 = DIRECTION('',(1.,0.,0.));
#331 = ADVANCED_FACE('',(#332),#357,.F.);
#332 = FACE_BOUND('',#333,.F.);
#333 = EDGE_LOOP('',(#334,#335,#343,#351));
#334 = ORIENTED_EDGE('',*,*,#313,.T.);
#335 = ORIENTED_EDGE('',*,*,#336,.T.);
#336 = EDGE_CURVE('',#306,#337,#339,.T.);
#337 = VERTEX_POINT('',#338);
#338 = CARTESIAN_POINT('',(2.6,-1.333585328032E-23,0.1225));
#339 = LINE('',#340,#341);
#340 = CARTESIAN_POINT('',(2.3,0.578081287633,0.1225));
#341 = VECTOR('',#342,1.);
#342 = DIRECTION('',(0.460624673561,-0.887595014692,0.));
#343 = ORIENTED_EDGE('',*,*,#344,.F.);
#344 = EDGE_CURVE('',#345,#337,#347,.T.);
#345 = VERTEX_POINT('',#346);
#346 = CARTESIAN_POINT('',(2.6,-1.333585328032E-23,-0.1225));
#347 = LINE('',#348,#349);
#348 = CARTESIAN_POINT('',(2.6,-1.333585328032E-23,-0.1225));
#349 = VECTOR('',#350,1.);
#350 = DIRECTION('',(0.,0.,1.));
#351 = ORIENTED_EDGE('',*,*,#352,.F.);
#352 = EDGE_CURVE('',#314,#345,#353,.T.);
#353 = LINE('',#354,#355);
#354 = CARTESIAN_POINT('',(2.3,0.578081287633,-0.1225));
#355 = VECTOR('',#356,1.);
#356 = DIRECTION('',(0.460624673561,-0.887595014692,0.));
#357 = PLANE('',#358);
#358 = AXIS2_PLACEMENT_3D('',#359,#360,#361);
#359 = CARTESIAN_POINT('',(2.3,0.578081287633,-0.1225));
#360 = DIRECTION('',(0.887595014692,0.460624673561,0.));
#361 = DIRECTION('',(0.460624673561,-0.887595014692,0.));
#362 = ADVANCED_FACE('',(#363),#388,.F.);
#363 = FACE_BOUND('',#364,.F.);
#364 = EDGE_LOOP('',(#365,#366,#374,#382));
#365 = ORIENTED_EDGE('',*,*,#344,.T.);
#366 = ORIENTED_EDGE('',*,*,#367,.T.);
#367 = EDGE_CURVE('',#337,#368,#370,.T.);
#368 = VERTEX_POINT('',#369);
#369 = CARTESIAN_POINT('',(3.2,-3.980563288202E-23,0.1225));
#370 = LINE('',#371,#372);
#371 = CARTESIAN_POINT('',(2.6,-3.980563288202E-23,0.1225));
#372 = VECTOR('',#373,1.);
#373 = DIRECTION('',(1.,0.,0.));
#374 = ORIENTED_EDGE('',*,*,#375,.F.);
#375 = EDGE_CURVE('',#376,#368,#378,.T.);
#376 = VERTEX_POINT('',#377);
#377 = CARTESIAN_POINT('',(3.2,-3.980563288202E-23,-0.1225));
#378 = LINE('',#379,#380);
#379 = CARTESIAN_POINT('',(3.2,-3.980563288202E-23,-0.1225));
#380 = VECTOR('',#381,1.);
#381 = DIRECTION('',(0.,0.,1.));
#382 = ORIENTED_EDGE('',*,*,#383,.F.);
#383 = EDGE_CURVE('',#345,#376,#384,.T.);
#384 = LINE('',#385,#386);
#385 = CARTESIAN_POINT('',(2.6,-3.980563288202E-23,-0.1225));
#386 = VECTOR('',#387,1.);
#387 = DIRECTION('',(1.,0.,0.));
#388 = PLANE('',#389);
#389 = AXIS2_PLACEMENT_3D('',#390,#391,#392);
#390 = CARTESIAN_POINT('',(2.6,-3.980563288202E-23,-0.1225));
#391 = DIRECTION('',(0.,1.,0.));
#392 = DIRECTION('',(1.,0.,0.));
#393 = ADVANCED_FACE('',(#394),#419,.F.);
#394 = FACE_BOUND('',#395,.F.);
#395 = EDGE_LOOP('',(#396,#397,#405,#413));
#396 = ORIENTED_EDGE('',*,*,#375,.T.);
#397 = ORIENTED_EDGE('',*,*,#398,.T.);
#398 = EDGE_CURVE('',#368,#399,#401,.T.);
#399 = VERTEX_POINT('',#400);
#400 = CARTESIAN_POINT('',(3.2,0.155,0.1225));
#401 = LINE('',#402,#403);
#402 = CARTESIAN_POINT('',(3.2,-3.980563288202E-23,0.1225));
#403 = VECTOR('',#404,1.);
#404 = DIRECTION('',(0.,1.,0.));
#405 = ORIENTED_EDGE('',*,*,#406,.F.);
#406 = EDGE_CURVE('',#407,#399,#409,.T.);
#407 = VERTEX_POINT('',#408);
#408 = CARTESIAN_POINT('',(3.2,0.155,-0.1225));
#409 = LINE('',#410,#411);
#410 = CARTESIAN_POINT('',(3.2,0.155,-0.1225));
#411 = VECTOR('',#412,1.);
#412 = DIRECTION('',(0.,0.,1.));
#413 = ORIENTED_EDGE('',*,*,#414,.F.);
#414 = EDGE_CURVE('',#376,#407,#415,.T.);
#415 = LINE('',#416,#417);
#416 = CARTESIAN_POINT('',(3.2,-3.980563288202E-23,-0.1225));
#417 = VECTOR('',#418,1.);
#418 = DIRECTION('',(0.,1.,0.));
#419 = PLANE('',#420);
#420 = AXIS2_PLACEMENT_3D('',#421,#422,#423);
#421 = CARTESIAN_POINT('',(3.2,-3.980563288202E-23,-0.1225));
#422 = DIRECTION('',(-1.,0.,0.));
#423 = DIRECTION('',(0.,1.,0.));
#424 = ADVANCED_FACE('',(#425),#450,.F.);
#425 = FACE_BOUND('',#426,.F.);
#426 = EDGE_LOOP('',(#427,#428,#436,#444));
#427 = ORIENTED_EDGE('',*,*,#406,.T.);
#428 = ORIENTED_EDGE('',*,*,#429,.T.);
#429 = EDGE_CURVE('',#399,#430,#432,.T.);
#430 = VERTEX_POINT('',#431);
#431 = CARTESIAN_POINT('',(2.694190677296,0.155,0.1225));
#432 = LINE('',#433,#434);
#433 = CARTESIAN_POINT('',(3.2,0.155,0.1225));
#434 = VECTOR('',#435,1.);
#435 = DIRECTION('',(-1.,0.,0.));
#436 = ORIENTED_EDGE('',*,*,#437,.F.);
#437 = EDGE_CURVE('',#438,#430,#440,.T.);
#438 = VERTEX_POINT('',#439);
#439 = CARTESIAN_POINT('',(2.694190677296,0.155,-0.1225));
#440 = LINE('',#441,#442);
#441 = CARTESIAN_POINT('',(2.694190677296,0.155,-0.1225));
#442 = VECTOR('',#443,1.);
#443 = DIRECTION('',(0.,0.,1.));
#444 = ORIENTED_EDGE('',*,*,#445,.F.);
#445 = EDGE_CURVE('',#407,#438,#446,.T.);
#446 = LINE('',#447,#448);
#447 = CARTESIAN_POINT('',(3.2,0.155,-0.1225));
#448 = VECTOR('',#449,1.);
#449 = DIRECTION('',(-1.,0.,0.));
#450 = PLANE('',#451);
#451 = AXIS2_PLACEMENT_3D('',#452,#453,#454);
#452 = CARTESIAN_POINT('',(3.2,0.155,-0.1225));
#453 = DIRECTION('',(0.,-1.,0.));
#454 = DIRECTION('',(-1.,0.,0.));
#455 = ADVANCED_FACE('',(#456),#481,.F.);
#456 = FACE_BOUND('',#457,.F.);
#457 = EDGE_LOOP('',(#458,#459,#467,#475));
#458 = ORIENTED_EDGE('',*,*,#437,.T.);
#459 = ORIENTED_EDGE('',*,*,#460,.T.);
#460 = EDGE_CURVE('',#430,#461,#463,.T.);
#461 = VERTEX_POINT('',#462);
#462 = CARTESIAN_POINT('',(2.394190677296,0.733081287633,0.1225));
#463 = LINE('',#464,#465);
#464 = CARTESIAN_POINT('',(2.694190677296,0.155,0.1225));
#465 = VECTOR('',#466,1.);
#466 = DIRECTION('',(-0.460624673561,0.887595014692,0.));
#467 = ORIENTED_EDGE('',*,*,#468,.F.);
#468 = EDGE_CURVE('',#469,#461,#471,.T.);
#469 = VERTEX_POINT('',#470);
#470 = CARTESIAN_POINT('',(2.394190677296,0.733081287633,-0.1225));
#471 = LINE('',#472,#473);
#472 = CARTESIAN_POINT('',(2.394190677296,0.733081287633,-0.1225));
#473 = VECTOR('',#474,1.);
#474 = DIRECTION('',(0.,0.,1.));
#475 = ORIENTED_EDGE('',*,*,#476,.F.);
#476 = EDGE_CURVE('',#438,#469,#477,.T.);
#477 = LINE('',#478,#479);
#478 = CARTESIAN_POINT('',(2.694190677296,0.155,-0.1225));
#479 = VECTOR('',#480,1.);
#480 = DIRECTION('',(-0.460624673561,0.887595014692,0.));
#481 = PLANE('',#482);
#482 = AXIS2_PLACEMENT_3D('',#483,#484,#485);
#483 = CARTESIAN_POINT('',(2.694190677296,0.155,-0.1225));
#484 = DIRECTION('',(-0.887595014692,-0.460624673561,0.));
#485 = DIRECTION('',(-0.460624673561,0.887595014692,0.));
#486 = ADVANCED_FACE('',(#487),#512,.F.);
#487 = FACE_BOUND('',#488,.F.);
#488 = EDGE_LOOP('',(#489,#490,#498,#506));
#489 = ORIENTED_EDGE('',*,*,#468,.T.);
#490 = ORIENTED_EDGE('',*,*,#491,.T.);
#491 = EDGE_CURVE('',#461,#492,#494,.T.);
#492 = VERTEX_POINT('',#493);
#493 = CARTESIAN_POINT('',(2.2,0.733081287633,0.1225));
#494 = LINE('',#495,#496);
#495 = CARTESIAN_POINT('',(2.394190677296,0.733081287633,0.1225));
#496 = VECTOR('',#497,1.);
#497 = DIRECTION('',(-1.,0.,0.));
#498 = ORIENTED_EDGE('',*,*,#499,.F.);
#499 = EDGE_CURVE('',#500,#492,#502,.T.);
#500 = VERTEX_POINT('',#501);
#501 = CARTESIAN_POINT('',(2.2,0.733081287633,-0.1225));
#502 = LINE('',#503,#504);
#503 = CARTESIAN_POINT('',(2.2,0.733081287633,-0.1225));
#504 = VECTOR('',#505,1.);
#505 = DIRECTION('',(0.,0.,1.));
#506 = ORIENTED_EDGE('',*,*,#507,.F.);
#507 = EDGE_CURVE('',#469,#500,#508,.T.);
#508 = LINE('',#509,#510);
#509 = CARTESIAN_POINT('',(2.394190677296,0.733081287633,-0.1225));
#510 = VECTOR('',#511,1.);
#511 = DIRECTION('',(-1.,0.,0.));
#512 = PLANE('',#513);
#513 = AXIS2_PLACEMENT_3D('',#514,#515,#516);
#514 = CARTESIAN_POINT('',(2.394190677296,0.733081287633,-0.1225));
#515 = DIRECTION('',(0.,-1.,0.));
#516 = DIRECTION('',(-1.,0.,0.));
#517 = ADVANCED_FACE('',(#518),#534,.F.);
#518 = FACE_BOUND('',#519,.F.);
#519 = EDGE_LOOP('',(#520,#521,#527,#528));
#520 = ORIENTED_EDGE('',*,*,#499,.T.);
#521 = ORIENTED_EDGE('',*,*,#522,.T.);
#522 = EDGE_CURVE('',#492,#298,#523,.T.);
#523 = LINE('',#524,#525);
#524 = CARTESIAN_POINT('',(2.2,0.733081287633,0.1225));
#525 = VECTOR('',#526,1.);
#526 = DIRECTION('',(0.,-1.,0.));
#527 = ORIENTED_EDGE('',*,*,#295,.F.);
#528 = ORIENTED_EDGE('',*,*,#529,.F.);
#529 = EDGE_CURVE('',#500,#296,#530,.T.);
#530 = LINE('',#531,#532);
#531 = CARTESIAN_POINT('',(2.2,0.733081287633,-0.1225));
#532 = VECTOR('',#533,1.);
#533 = DIRECTION('',(0.,-1.,0.));
#534 = PLANE('',#535);
#535 = AXIS2_PLACEMENT_3D('',#536,#537,#538);
#536 = CARTESIAN_POINT('',(2.2,0.733081287633,-0.1225));
#537 = DIRECTION('',(1.,0.,0.));
#538 = DIRECTION('',(0.,-1.,0.));
#539 = ADVANCED_FACE('',(#540),#550,.F.);
#540 = FACE_BOUND('',#541,.F.);
#541 = EDGE_LOOP('',(#542,#543,#544,#545,#546,#547,#548,#549));
#542 = ORIENTED_EDGE('',*,*,#321,.T.);
#543 = ORIENTED_EDGE('',*,*,#352,.T.);
#544 = ORIENTED_EDGE('',*,*,#383,.T.);
#545 = ORIENTED_EDGE('',*,*,#414,.T.);
#546 = ORIENTED_EDGE('',*,*,#445,.T.);
#547 = ORIENTED_EDGE('',*,*,#476,.T.);
#548 = ORIENTED_EDGE('',*,*,#507,.T.);
#549 = ORIENTED_EDGE('',*,*,#529,.T.);
#550 = PLANE('',#551);
#551 = AXIS2_PLACEMENT_3D('',#552,#553,#554);
#552 = CARTESIAN_POINT('',(2.652679566225,0.288670227701,-0.1225));
#553 = DIRECTION('',(0.,0.,1.));
#554 = DIRECTION('',(1.,0.,0.));
#555 = ADVANCED_FACE('',(#556),#566,.T.);
#556 = FACE_BOUND('',#557,.T.);
#557 = EDGE_LOOP('',(#558,#559,#560,#561,#562,#563,#564,#565));
#558 = ORIENTED_EDGE('',*,*,#305,.T.);
#559 = ORIENTED_EDGE('',*,*,#336,.T.);
#560 = ORIENTED_EDGE('',*,*,#367,.T.);
#561 = ORIENTED_EDGE('',*,*,#398,.T.);
#562 = ORIENTED_EDGE('',*,*,#429,.T.);
#563 = ORIENTED_EDGE('',*,*,#460,.T.);
#564 = ORIENTED_EDGE('',*,*,#491,.T.);
#565 = ORIENTED_EDGE('',*,*,#522,.T.);
#566 = PLANE('',#567);
#567 = AXIS2_PLACEMENT_3D('',#568,#569,#570);
#568 = CARTESIAN_POINT('',(2.652679566225,0.288670227701,0.1225));
#569 = DIRECTION('',(0.,0.,1.));
#570 = DIRECTION('',(1.,0.,0.));
#571 = ( GEOMETRIC_REPRESENTATION_CONTEXT(3) 
GLOBAL_UNCERTAINTY_ASSIGNED_CONTEXT((#575)) GLOBAL_UNIT_ASSIGNED_CONTEXT
((#572,#573,#574)) REPRESENTATION_CONTEXT('Context #1',
  '3D Context with UNIT and UNCERTAINTY') );
#572 = ( LENGTH_UNIT() NAMED_UNIT(*) SI_UNIT(.MILLI.,.METRE.) );
#573 = ( NAMED_UNIT(*) PLANE_ANGLE_UNIT() SI_UNIT($,.RADIAN.) );
#574 = ( NAMED_UNIT(*) SI_UNIT($,.STERADIAN.) SOLID_ANGLE_UNIT() );
#575 = UNCERTAINTY_MEASURE_WITH_UNIT(LENGTH_MEASURE(1.E-07),#572,
  'distance_accuracy_value','confusion accuracy');
#576 = CONTEXT_DEPENDENT_SHAPE_REPRESENTATION(#577,#579);
#577 = ( REPRESENTATION_RELATIONSHIP('','',#288,#213) 
REPRESENTATION_RELATIONSHIP_WITH_TRANSFORMATION(#578) 
SHAPE_REPRESENTATION_RELATIONSHIP() );
#578 = ITEM_DEFINED_TRANSFORMATION('','',#11,#214);
#579 = PRODUCT_DEFINITION_SHAPE('Placement','Placement of an item',#580
  );
#580 = NEXT_ASSEMBLY_USAGE_OCCURRENCE('263','0','',#208,#283,$);
#581 = PRODUCT_RELATED_PRODUCT_CATEGORY('part',$,(#285));
#582 = CONTEXT_DEPENDENT_SHAPE_REPRESENTATION(#583,#585);
#583 = ( REPRESENTATION_RELATIONSHIP('','',#288,#213) 
REPRESENTATION_RELATIONSHIP_WITH_TRANSFORMATION(#584) 
SHAPE_REPRESENTATION_RELATIONSHIP() );
#584 = ITEM_DEFINED_TRANSFORMATION('','',#11,#218);
#585 = PRODUCT_DEFINITION_SHAPE('Placement','Placement of an item',#586
  );
#586 = NEXT_ASSEMBLY_USAGE_OCCURRENCE('264','1','',#208,#283,$);
#587 = CONTEXT_DEPENDENT_SHAPE_REPRESENTATION(#588,#590);
#588 = ( REPRESENTATION_RELATIONSHIP('','',#288,#213) 
REPRESENTATION_RELATIONSHIP_WITH_TRANSFORMATION(#589) 
SHAPE_REPRESENTATION_RELATIONSHIP() );
#589 = ITEM_DEFINED_TRANSFORMATION('','',#11,#222);
#590 = PRODUCT_DEFINITION_SHAPE('Placement','Placement of an item',#591
  );
#591 = NEXT_ASSEMBLY_USAGE_OCCURRENCE('265','2','',#208,#283,$);
#592 = CONTEXT_DEPENDENT_SHAPE_REPRESENTATION(#593,#595);
#593 = ( REPRESENTATION_RELATIONSHIP('','',#288,#213) 
REPRESENTATION_RELATIONSHIP_WITH_TRANSFORMATION(#594) 
SHAPE_REPRESENTATION_RELATIONSHIP() );
#594 = ITEM_DEFINED_TRANSFORMATION('','',#11,#226);
#595 = PRODUCT_DEFINITION_SHAPE('Placement','Placement of an item',#596
  );
#596 = NEXT_ASSEMBLY_USAGE_OCCURRENCE('266','3','',#208,#283,$);
#597 = CONTEXT_DEPENDENT_SHAPE_REPRESENTATION(#598,#600);
#598 = ( REPRESENTATION_RELATIONSHIP('','',#288,#213) 
REPRESENTATION_RELATIONSHIP_WITH_TRANSFORMATION(#599) 
SHAPE_REPRESENTATION_RELATIONSHIP() );
#599 = ITEM_DEFINED_TRANSFORMATION('','',#11,#230);
#600 = PRODUCT_DEFINITION_SHAPE('Placement','Placement of an item',#601
  );
#601 = NEXT_ASSEMBLY_USAGE_OCCURRENCE('267','4','',#208,#283,$);
#602 = CONTEXT_DEPENDENT_SHAPE_REPRESENTATION(#603,#605);
#603 = ( REPRESENTATION_RELATIONSHIP('','',#288,#213) 
REPRESENTATION_RELATIONSHIP_WITH_TRANSFORMATION(#604) 
SHAPE_REPRESENTATION_RELATIONSHIP() );
#604 = ITEM_DEFINED_TRANSFORMATION('','',#11,#234);
#605 = PRODUCT_DEFINITION_SHAPE('Placement','Placement of an item',#606
  );
#606 = NEXT_ASSEMBLY_USAGE_OCCURRENCE('268','5','',#208,#283,$);
#607 = CONTEXT_DEPENDENT_SHAPE_REPRESENTATION(#608,#610);
#608 = ( REPRESENTATION_RELATIONSHIP('','',#288,#213) 
REPRESENTATION_RELATIONSHIP_WITH_TRANSFORMATION(#609) 
SHAPE_REPRESENTATION_RELATIONSHIP() );
#609 = ITEM_DEFINED_TRANSFORMATION('','',#11,#238);
#610 = PRODUCT_DEFINITION_SHAPE('Placement','Placement of an item',#611
  );
#611 = NEXT_ASSEMBLY_USAGE_OCCURRENCE('269','6','',#208,#283,$);
#612 = CONTEXT_DEPENDENT_SHAPE_REPRESENTATION(#613,#615);
#613 = ( REPRESENTATION_RELATIONSHIP('','',#288,#213) 
REPRESENTATION_RELATIONSHIP_WITH_TRANSFORMATION(#614) 
SHAPE_REPRESENTATION_RELATIONSHIP() );
#614 = ITEM_DEFINED_TRANSFORMATION('','',#11,#242);
#615 = PRODUCT_DEFINITION_SHAPE('Placement','Placement of an item',#616
  );
#616 = NEXT_ASSEMBLY_USAGE_OCCURRENCE('270','7','',#208,#283,$);
#617 = CONTEXT_DEPENDENT_SHAPE_REPRESENTATION(#618,#620);
#618 = ( REPRESENTATION_RELATIONSHIP('','',#288,#213) 
REPRESENTATION_RELATIONSHIP_WITH_TRANSFORMATION(#619) 
SHAPE_REPRESENTATION_RELATIONSHIP() );
#619 = ITEM_DEFINED_TRANSFORMATION('','',#11,#246);
#620 = PRODUCT_DEFINITION_SHAPE('Placement','Placement of an item',#621
  );
#621 = NEXT_ASSEMBLY_USAGE_OCCURRENCE('271','8','',#208,#283,$);
#622 = CONTEXT_DEPENDENT_SHAPE_REPRESENTATION(#623,#625);
#623 = ( REPRESENTATION_RELATIONSHIP('','',#288,#213) 
REPRESENTATION_RELATIONSHIP_WITH_TRANSFORMATION(#624) 
SHAPE_REPRESENTATION_RELATIONSHIP() );
#624 = ITEM_DEFINED_TRANSFORMATION('','',#11,#250);
#625 = PRODUCT_DEFINITION_SHAPE('Placement','Placement of an item',#626
  );
#626 = NEXT_ASSEMBLY_USAGE_OCCURRENCE('272','9','',#208,#283,$);
#627 = CONTEXT_DEPENDENT_SHAPE_REPRESENTATION(#628,#630);
#628 = ( REPRESENTATION_RELATIONSHIP('','',#288,#213) 
REPRESENTATION_RELATIONSHIP_WITH_TRANSFORMATION(#629) 
SHAPE_REPRESENTATION_RELATIONSHIP() );
#629 = ITEM_DEFINED_TRANSFORMATION('','',#11,#254);
#630 = PRODUCT_DEFINITION_SHAPE('Placement','Placement of an item',#631
  );
#631 = NEXT_ASSEMBLY_USAGE_OCCURRENCE('273','10','',#208,#283,$);
#632 = CONTEXT_DEPENDENT_SHAPE_REPRESENTATION(#633,#635);
#633 = ( REPRESENTATION_RELATIONSHIP('','',#288,#213) 
REPRESENTATION_RELATIONSHIP_WITH_TRANSFORMATION(#634) 
SHAPE_REPRESENTATION_RELATIONSHIP() );
#634 = ITEM_DEFINED_TRANSFORMATION('','',#11,#258);
#635 = PRODUCT_DEFINITION_SHAPE('Placement','Placement of an item',#636
  );
#636 = NEXT_ASSEMBLY_USAGE_OCCURRENCE('274','11','',#208,#283,$);
#637 = CONTEXT_DEPENDENT_SHAPE_REPRESENTATION(#638,#640);
#638 = ( REPRESENTATION_RELATIONSHIP('','',#288,#213) 
REPRESENTATION_RELATIONSHIP_WITH_TRANSFORMATION(#639) 
SHAPE_REPRESENTATION_RELATIONSHIP() );
#639 = ITEM_DEFINED_TRANSFORMATION('','',#11,#262);
#640 = PRODUCT_DEFINITION_SHAPE('Placement','Placement of an item',#641
  );
#641 = NEXT_ASSEMBLY_USAGE_OCCURRENCE('275','12','',#208,#283,$);
#642 = CONTEXT_DEPENDENT_SHAPE_REPRESENTATION(#643,#645);
#643 = ( REPRESENTATION_RELATIONSHIP('','',#288,#213) 
REPRESENTATION_RELATIONSHIP_WITH_TRANSFORMATION(#644) 
SHAPE_REPRESENTATION_RELATIONSHIP() );
#644 = ITEM_DEFINED_TRANSFORMATION('','',#11,#266);
#645 = PRODUCT_DEFINITION_SHAPE('Placement','Placement of an item',#646
  );
#646 = NEXT_ASSEMBLY_USAGE_OCCURRENCE('276','13','',#208,#283,$);
#647 = SHAPE_DEFINITION_REPRESENTATION(#648,#654);
#648 = PRODUCT_DEFINITION_SHAPE('','',#649);
#649 = PRODUCT_DEFINITION('design','',#650,#653);
#650 = PRODUCT_DEFINITION_FORMATION('','',#651);
#651 = PRODUCT('Body','Body','',(#652));
#652 = PRODUCT_CONTEXT('',#2,'mechanical');
#653 = PRODUCT_DEFINITION_CONTEXT('part definition',#2,'design');
#654 = ADVANCED_BREP_SHAPE_REPRESENTATION('',(#11,#655),#997);
#655 = MANIFOLD_SOLID_BREP('',#656);
#656 = CLOSED_SHELL('',(#657,#697,#728,#759,#790,#821,#845,#869,#886,
    #908,#932,#956,#973,#985));
#657 = ADVANCED_FACE('',(#658),#692,.T.);
#658 = FACE_BOUND('',#659,.T.);
#659 = EDGE_LOOP('',(#660,#670,#678,#686));
#660 = ORIENTED_EDGE('',*,*,#661,.T.);
#661 = EDGE_CURVE('',#662,#664,#666,.T.);
#662 = VERTEX_POINT('',#663);
#663 = CARTESIAN_POINT('',(2.2,0.578081287633,4.85));
#664 = VERTEX_POINT('',#665);
#665 = CARTESIAN_POINT('',(2.2,0.578081287633,-4.85));
#666 = LINE('',#667,#668);
#667 = CARTESIAN_POINT('',(2.2,0.578081287633,10.813868032899));
#668 = VECTOR('',#669,1.);
#669 = DIRECTION('',(0.,0.,-1.));
#670 = ORIENTED_EDGE('',*,*,#671,.T.);
#671 = EDGE_CURVE('',#664,#672,#674,.T.);
#672 = VERTEX_POINT('',#673);
#673 = CARTESIAN_POINT('',(2.2,0.733081287633,-4.85));
#674 = LINE('',#675,#676);
#675 = CARTESIAN_POINT('',(2.2,-1.076916333886E-15,-4.85));
#676 = VECTOR('',#677,1.);
#677 = DIRECTION('',(0.,1.,-2.22044604925E-16));
#678 = ORIENTED_EDGE('',*,*,#679,.F.);
#679 = EDGE_CURVE('',#680,#672,#682,.T.);
#680 = VERTEX_POINT('',#681);
#681 = CARTESIAN_POINT('',(2.2,0.733081287633,4.85));
#682 = LINE('',#683,#684);
#683 = CARTESIAN_POINT('',(2.2,0.733081287633,10.813868032899));
#684 = VECTOR('',#685,1.);
#685 = DIRECTION('',(0.,0.,-1.));
#686 = ORIENTED_EDGE('',*,*,#687,.F.);
#687 = EDGE_CURVE('',#662,#680,#688,.T.);
#688 = LINE('',#689,#690);
#689 = CARTESIAN_POINT('',(2.2,1.076916333886E-15,4.85));
#690 = VECTOR('',#691,1.);
#691 = DIRECTION('',(0.,1.,-2.22044604925E-16));
#692 = PLANE('',#693);
#693 = AXIS2_PLACEMENT_3D('',#694,#695,#696);
#694 = CARTESIAN_POINT('',(2.2,-1.076916333886E-15,-4.85));
#695 = DIRECTION('',(1.,0.,0.));
#696 = DIRECTION('',(0.,2.22044604925E-16,1.));
#697 = ADVANCED_FACE('',(#698),#723,.T.);
#698 = FACE_BOUND('',#699,.T.);
#699 = EDGE_LOOP('',(#700,#701,#709,#717));
#700 = ORIENTED_EDGE('',*,*,#661,.F.);
#701 = ORIENTED_EDGE('',*,*,#702,.F.);
#702 = EDGE_CURVE('',#703,#662,#705,.T.);
#703 = VERTEX_POINT('',#704);
#704 = CARTESIAN_POINT('',(2.134378854426,0.111162575266,4.784378854426)
  );
#705 = LINE('',#706,#707);
#706 = CARTESIAN_POINT('',(2.274122360224,1.10548928532,4.924122360224)
  );
#707 = VECTOR('',#708,1.);
#708 = DIRECTION('',(0.137844537492,0.980814848464,0.137844537492));
#709 = ORIENTED_EDGE('',*,*,#710,.T.);
#710 = EDGE_CURVE('',#703,#711,#713,.T.);
#711 = VERTEX_POINT('',#712);
#712 = CARTESIAN_POINT('',(2.134378854426,0.111162575266,-4.784378854426
    ));
#713 = LINE('',#714,#715);
#714 = CARTESIAN_POINT('',(2.134378854426,0.111162575266,10.813868032899
    ));
#715 = VECTOR('',#716,1.);
#716 = DIRECTION('',(0.,0.,-1.));
#717 = ORIENTED_EDGE('',*,*,#718,.T.);
#718 = EDGE_CURVE('',#711,#664,#719,.T.);
#719 = LINE('',#720,#721);
#720 = CARTESIAN_POINT('',(2.068646793739,-0.356545339135,
    -4.718646793739));
#721 = VECTOR('',#722,1.);
#722 = DIRECTION('',(0.137844537492,0.980814848464,-0.137844537492));
#723 = PLANE('',#724);
#724 = AXIS2_PLACEMENT_3D('',#725,#726,#727);
#725 = CARTESIAN_POINT('',(2.134378854426,0.111162575266,10.813868032899
    ));
#726 = DIRECTION('',(0.990268068742,-0.13917310096,0.));
#727 = DIRECTION('',(0.13917310096,0.990268068742,0.));
#728 = ADVANCED_FACE('',(#729),#754,.T.);
#729 = FACE_BOUND('',#730,.T.);
#730 = EDGE_LOOP('',(#731,#739,#740,#748));
#731 = ORIENTED_EDGE('',*,*,#732,.F.);
#732 = EDGE_CURVE('',#662,#733,#735,.T.);
#733 = VERTEX_POINT('',#734);
#734 = CARTESIAN_POINT('',(-2.2,0.578081287633,4.85));
#735 = LINE('',#736,#737);
#736 = CARTESIAN_POINT('',(10.813868032899,0.578081287633,4.85));
#737 = VECTOR('',#738,1.);
#738 = DIRECTION('',(-1.,0.,0.));
#739 = ORIENTED_EDGE('',*,*,#687,.T.);
#740 = ORIENTED_EDGE('',*,*,#741,.T.);
#741 = EDGE_CURVE('',#680,#742,#744,.T.);
#742 = VERTEX_POINT('',#743);
#743 = CARTESIAN_POINT('',(-2.2,0.733081287633,4.85));
#744 = LINE('',#745,#746);
#745 = CARTESIAN_POINT('',(10.813868032899,0.733081287633,4.85));
#746 = VECTOR('',#747,1.);
#747 = DIRECTION('',(-1.,0.,0.));
#748 = ORIENTED_EDGE('',*,*,#749,.F.);
#749 = EDGE_CURVE('',#733,#742,#750,.T.);
#750 = LINE('',#751,#752);
#751 = CARTESIAN_POINT('',(-2.2,1.076916333886E-15,4.85));
#752 = VECTOR('',#753,1.);
#753 = DIRECTION('',(0.,1.,-2.22044604925E-16));
#754 = PLANE('',#755);
#755 = AXIS2_PLACEMENT_3D('',#756,#757,#758);
#756 = CARTESIAN_POINT('',(2.2,1.076916333886E-15,4.85));
#757 = DIRECTION('',(0.,2.22044604925E-16,1.));
#758 = DIRECTION('',(-1.,0.,0.));
#759 = ADVANCED_FACE('',(#760),#785,.F.);
#760 = FACE_BOUND('',#761,.F.);
#761 = EDGE_LOOP('',(#762,#763,#771,#779));
#762 = ORIENTED_EDGE('',*,*,#679,.F.);
#763 = ORIENTED_EDGE('',*,*,#764,.F.);
#764 = EDGE_CURVE('',#765,#680,#767,.T.);
#765 = VERTEX_POINT('',#766);
#766 = CARTESIAN_POINT('',(2.134378854426,1.2,4.784378854426));
#767 = LINE('',#768,#769);
#768 = CARTESIAN_POINT('',(2.306309495494,-2.335007780888E-02,
    4.956309495494));
#769 = VECTOR('',#770,1.);
#770 = DIRECTION('',(0.137844537492,-0.980814848464,0.137844537492));
#771 = ORIENTED_EDGE('',*,*,#772,.T.);
#772 = EDGE_CURVE('',#765,#773,#775,.T.);
#773 = VERTEX_POINT('',#774);
#774 = CARTESIAN_POINT('',(2.134378854426,1.2,-4.784378854426));
#775 = LINE('',#776,#777);
#776 = CARTESIAN_POINT('',(2.134378854426,1.2,10.813868032899));
#777 = VECTOR('',#778,1.);
#778 = DIRECTION('',(0.,0.,-1.));
#779 = ORIENTED_EDGE('',*,*,#780,.T.);
#780 = EDGE_CURVE('',#773,#672,#781,.T.);
#781 = LINE('',#782,#783);
#782 = CARTESIAN_POINT('',(2.10083392901,1.438684546647,-4.75083392901)
  );
#783 = VECTOR('',#784,1.);
#784 = DIRECTION('',(0.137844537492,-0.980814848464,-0.137844537492));
#785 = PLANE('',#786);
#786 = AXIS2_PLACEMENT_3D('',#787,#788,#789);
#787 = CARTESIAN_POINT('',(2.134378854426,1.2,10.813868032899));
#788 = DIRECTION('',(-0.990268068742,-0.13917310096,0.));
#789 = DIRECTION('',(0.13917310096,-0.990268068742,0.));
#790 = ADVANCED_FACE('',(#791),#816,.T.);
#791 = FACE_BOUND('',#792,.T.);
#792 = EDGE_LOOP('',(#793,#801,#809,#815));
#793 = ORIENTED_EDGE('',*,*,#794,.T.);
#794 = EDGE_CURVE('',#664,#795,#797,.T.);
#795 = VERTEX_POINT('',#796);
#796 = CARTESIAN_POINT('',(-2.2,0.578081287633,-4.85));
#797 = LINE('',#798,#799);
#798 = CARTESIAN_POINT('',(10.813868032899,0.578081287633,-4.85));
#799 = VECTOR('',#800,1.);
#800 = DIRECTION('',(-1.,0.,0.));
#801 = ORIENTED_EDGE('',*,*,#802,.T.);
#802 = EDGE_CURVE('',#795,#803,#805,.T.);
#803 = VERTEX_POINT('',#804);
#804 = CARTESIAN_POINT('',(-2.2,0.733081287633,-4.85));
#805 = LINE('',#806,#807);
#806 = CARTESIAN_POINT('',(-2.2,-1.076916333886E-15,-4.85));
#807 = VECTOR('',#808,1.);
#808 = DIRECTION('',(0.,1.,-2.22044604925E-16));
#809 = ORIENTED_EDGE('',*,*,#810,.F.);
#810 = EDGE_CURVE('',#672,#803,#811,.T.);
#811 = LINE('',#812,#813);
#812 = CARTESIAN_POINT('',(10.813868032899,0.733081287633,-4.85));
#813 = VECTOR('',#814,1.);
#814 = DIRECTION('',(-1.,0.,0.));
#815 = ORIENTED_EDGE('',*,*,#671,.F.);
#816 = PLANE('',#817);
#817 = AXIS2_PLACEMENT_3D('',#818,#819,#820);
#818 = CARTESIAN_POINT('',(-2.2,-1.076916333886E-15,-4.85));
#819 = DIRECTION('',(0.,-2.22044604925E-16,-1.));
#820 = DIRECTION('',(1.,0.,0.));
#821 = ADVANCED_FACE('',(#822),#840,.F.);
#822 = FACE_BOUND('',#823,.T.);
#823 = EDGE_LOOP('',(#824,#825,#833,#839));
#824 = ORIENTED_EDGE('',*,*,#718,.F.);
#825 = ORIENTED_EDGE('',*,*,#826,.T.);
#826 = EDGE_CURVE('',#711,#827,#829,.T.);
#827 = VERTEX_POINT('',#828);
#828 = CARTESIAN_POINT('',(-2.134378854426,0.111162575266,
    -4.784378854426));
#829 = LINE('',#830,#831);
#830 = CARTESIAN_POINT('',(10.813868032899,0.111162575266,
    -4.784378854426));
#831 = VECTOR('',#832,1.);
#832 = DIRECTION('',(-1.,0.,0.));
#833 = ORIENTED_EDGE('',*,*,#834,.T.);
#834 = EDGE_CURVE('',#827,#795,#835,.T.);
#835 = LINE('',#836,#837);
#836 = CARTESIAN_POINT('',(-1.863171227254,-1.818579963591,
    -4.513171227254));
#837 = VECTOR('',#838,1.);
#838 = DIRECTION('',(-0.137844537492,0.980814848464,-0.137844537492));
#839 = ORIENTED_EDGE('',*,*,#794,.F.);
#840 = PLANE('',#841);
#841 = AXIS2_PLACEMENT_3D('',#842,#843,#844);
#842 = CARTESIAN_POINT('',(10.813868032899,0.111162575266,
    -4.784378854426));
#843 = DIRECTION('',(0.,0.13917310096,0.990268068742));
#844 = DIRECTION('',(0.,-0.990268068742,0.13917310096));
#845 = ADVANCED_FACE('',(#846),#864,.F.);
#846 = FACE_BOUND('',#847,.F.);
#847 = EDGE_LOOP('',(#848,#856,#857,#858));
#848 = ORIENTED_EDGE('',*,*,#849,.F.);
#849 = EDGE_CURVE('',#703,#850,#852,.T.);
#850 = VERTEX_POINT('',#851);
#851 = CARTESIAN_POINT('',(-2.134378854426,0.111162575266,4.784378854426
    ));
#852 = LINE('',#853,#854);
#853 = CARTESIAN_POINT('',(10.813868032899,0.111162575266,4.784378854426
    ));
#854 = VECTOR('',#855,1.);
#855 = DIRECTION('',(-1.,0.,0.));
#856 = ORIENTED_EDGE('',*,*,#710,.T.);
#857 = ORIENTED_EDGE('',*,*,#826,.T.);
#858 = ORIENTED_EDGE('',*,*,#859,.F.);
#859 = EDGE_CURVE('',#850,#827,#860,.T.);
#860 = LINE('',#861,#862);
#861 = CARTESIAN_POINT('',(-2.134378854426,0.111162575266,
    10.813868032899));
#862 = VECTOR('',#863,1.);
#863 = DIRECTION('',(2.22044604925E-16,0.,-1.));
#864 = PLANE('',#865);
#865 = AXIS2_PLACEMENT_3D('',#866,#867,#868);
#866 = CARTESIAN_POINT('',(0.,0.111162575266,-2.775557561563E-17));
#867 = DIRECTION('',(0.,1.,0.));
#868 = DIRECTION('',(0.,0.,1.));
#869 = ADVANCED_FACE('',(#870),#881,.F.);
#870 = FACE_BOUND('',#871,.F.);
#871 = EDGE_LOOP('',(#872,#873,#874,#880));
#872 = ORIENTED_EDGE('',*,*,#702,.F.);
#873 = ORIENTED_EDGE('',*,*,#849,.T.);
#874 = ORIENTED_EDGE('',*,*,#875,.T.);
#875 = EDGE_CURVE('',#850,#733,#876,.T.);
#876 = LINE('',#877,#878);
#877 = CARTESIAN_POINT('',(-2.068646793739,-0.356545339135,
    4.718646793739));
#878 = VECTOR('',#879,1.);
#879 = DIRECTION('',(-0.137844537492,0.980814848464,0.137844537492));
#880 = ORIENTED_EDGE('',*,*,#732,.F.);
#881 = PLANE('',#882);
#882 = AXIS2_PLACEMENT_3D('',#883,#884,#885);
#883 = CARTESIAN_POINT('',(10.813868032899,0.111162575266,4.784378854426
    ));
#884 = DIRECTION('',(0.,0.13917310096,-0.990268068742));
#885 = DIRECTION('',(0.,0.990268068742,0.13917310096));
#886 = ADVANCED_FACE('',(#887),#903,.T.);
#887 = FACE_BOUND('',#888,.T.);
#888 = EDGE_LOOP('',(#889,#895,#896,#902));
#889 = ORIENTED_EDGE('',*,*,#890,.F.);
#890 = EDGE_CURVE('',#733,#795,#891,.T.);
#891 = LINE('',#892,#893);
#892 = CARTESIAN_POINT('',(-2.2,0.578081287633,10.813868032899));
#893 = VECTOR('',#894,1.);
#894 = DIRECTION('',(2.22044604925E-16,0.,-1.));
#895 = ORIENTED_EDGE('',*,*,#749,.T.);
#896 = ORIENTED_EDGE('',*,*,#897,.T.);
#897 = EDGE_CURVE('',#742,#803,#898,.T.);
#898 = LINE('',#899,#900);
#899 = CARTESIAN_POINT('',(-2.2,0.733081287633,10.813868032899));
#900 = VECTOR('',#901,1.);
#901 = DIRECTION('',(2.22044604925E-16,0.,-1.));
#902 = ORIENTED_EDGE('',*,*,#802,.F.);
#903 = PLANE('',#904);
#904 = AXIS2_PLACEMENT_3D('',#905,#906,#907);
#905 = CARTESIAN_POINT('',(-2.2,1.076916333886E-15,4.85));
#906 = DIRECTION('',(-1.,0.,0.));
#907 = DIRECTION('',(0.,-2.22044604925E-16,-1.));
#908 = ADVANCED_FACE('',(#909),#927,.F.);
#909 = FACE_BOUND('',#910,.F.);
#910 = EDGE_LOOP('',(#911,#912,#913,#921));
#911 = ORIENTED_EDGE('',*,*,#764,.T.);
#912 = ORIENTED_EDGE('',*,*,#741,.T.);
#913 = ORIENTED_EDGE('',*,*,#914,.F.);
#914 = EDGE_CURVE('',#915,#742,#917,.T.);
#915 = VERTEX_POINT('',#916);
#916 = CARTESIAN_POINT('',(-2.134378854426,1.2,4.784378854426));
#917 = LINE('',#918,#919);
#918 = CARTESIAN_POINT('',(-2.10083392901,1.438684546647,4.750833929009)
  );
#919 = VECTOR('',#920,1.);
#920 = DIRECTION('',(-0.137844537492,-0.980814848464,0.137844537492));
#921 = ORIENTED_EDGE('',*,*,#922,.F.);
#922 = EDGE_CURVE('',#765,#915,#923,.T.);
#923 = LINE('',#924,#925);
#924 = CARTESIAN_POINT('',(10.813868032899,1.2,4.784378854426));
#925 = VECTOR('',#926,1.);
#926 = DIRECTION('',(-1.,0.,0.));
#927 = PLANE('',#928);
#928 = AXIS2_PLACEMENT_3D('',#929,#930,#931);
#929 = CARTESIAN_POINT('',(10.813868032899,0.733081287633,4.85));
#930 = DIRECTION('',(0.,-0.13917310096,-0.990268068742));
#931 = DIRECTION('',(0.,0.990268068742,-0.13917310096));
#932 = ADVANCED_FACE('',(#933),#951,.F.);
#933 = FACE_BOUND('',#934,.T.);
#934 = EDGE_LOOP('',(#935,#936,#937,#945));
#935 = ORIENTED_EDGE('',*,*,#780,.T.);
#936 = ORIENTED_EDGE('',*,*,#810,.T.);
#937 = ORIENTED_EDGE('',*,*,#938,.F.);
#938 = EDGE_CURVE('',#939,#803,#941,.T.);
#939 = VERTEX_POINT('',#940);
#940 = CARTESIAN_POINT('',(-2.134378854426,1.2,-4.784378854426));
#941 = LINE('',#942,#943);
#942 = CARTESIAN_POINT('',(-1.895358362525,2.900719171102,
    -4.545358362525));
#943 = VECTOR('',#944,1.);
#944 = DIRECTION('',(-0.137844537492,-0.980814848464,-0.137844537492));
#945 = ORIENTED_EDGE('',*,*,#946,.F.);
#946 = EDGE_CURVE('',#773,#939,#947,.T.);
#947 = LINE('',#948,#949);
#948 = CARTESIAN_POINT('',(10.813868032899,1.2,-4.784378854426));
#949 = VECTOR('',#950,1.);
#950 = DIRECTION('',(-1.,0.,0.));
#951 = PLANE('',#952);
#952 = AXIS2_PLACEMENT_3D('',#953,#954,#955);
#953 = CARTESIAN_POINT('',(10.813868032899,0.733081287633,-4.85));
#954 = DIRECTION('',(0.,-0.13917310096,0.990268068742));
#955 = DIRECTION('',(-0.,-0.990268068742,-0.13917310096));
#956 = ADVANCED_FACE('',(#957),#968,.T.);
#957 = FACE_BOUND('',#958,.T.);
#958 = EDGE_LOOP('',(#959,#960,#961,#962));
#959 = ORIENTED_EDGE('',*,*,#922,.F.);
#960 = ORIENTED_EDGE('',*,*,#772,.T.);
#961 = ORIENTED_EDGE('',*,*,#946,.T.);
#962 = ORIENTED_EDGE('',*,*,#963,.F.);
#963 = EDGE_CURVE('',#915,#939,#964,.T.);
#964 = LINE('',#965,#966);
#965 = CARTESIAN_POINT('',(-2.134378854426,1.2,10.813868032899));
#966 = VECTOR('',#967,1.);
#967 = DIRECTION('',(2.22044604925E-16,0.,-1.));
#968 = PLANE('',#969);
#969 = AXIS2_PLACEMENT_3D('',#970,#971,#972);
#970 = CARTESIAN_POINT('',(0.,1.2,-2.22044604925E-16));
#971 = DIRECTION('',(0.,1.,0.));
#972 = DIRECTION('',(0.,0.,1.));
#973 = ADVANCED_FACE('',(#974),#980,.T.);
#974 = FACE_BOUND('',#975,.F.);
#975 = EDGE_LOOP('',(#976,#977,#978,#979));
#976 = ORIENTED_EDGE('',*,*,#890,.F.);
#977 = ORIENTED_EDGE('',*,*,#875,.F.);
#978 = ORIENTED_EDGE('',*,*,#859,.T.);
#979 = ORIENTED_EDGE('',*,*,#834,.T.);
#980 = PLANE('',#981);
#981 = AXIS2_PLACEMENT_3D('',#982,#983,#984);
#982 = CARTESIAN_POINT('',(-2.134378854426,0.111162575266,
    10.813868032899));
#983 = DIRECTION('',(-0.990268068742,-0.13917310096,-2.198836820936E-16)
  );
#984 = DIRECTION('',(0.13917310096,-0.990268068742,3.090263621887E-17));
#985 = ADVANCED_FACE('',(#986),#992,.F.);
#986 = FACE_BOUND('',#987,.T.);
#987 = EDGE_LOOP('',(#988,#989,#990,#991));
#988 = ORIENTED_EDGE('',*,*,#897,.F.);
#989 = ORIENTED_EDGE('',*,*,#914,.F.);
#990 = ORIENTED_EDGE('',*,*,#963,.T.);
#991 = ORIENTED_EDGE('',*,*,#938,.T.);
#992 = PLANE('',#993);
#993 = AXIS2_PLACEMENT_3D('',#994,#995,#996);
#994 = CARTESIAN_POINT('',(-2.134378854426,1.2,10.813868032899));
#995 = DIRECTION('',(0.990268068742,-0.13917310096,2.198836820936E-16));
#996 = DIRECTION('',(0.13917310096,0.990268068742,3.090263621887E-17));
#997 = ( GEOMETRIC_REPRESENTATION_CONTEXT(3) 
GLOBAL_UNCERTAINTY_ASSIGNED_CONTEXT((#1001)) 
GLOBAL_UNIT_ASSIGNED_CONTEXT((#998,#999,#1000)) REPRESENTATION_CONTEXT(
  'Context #1','3D Context with UNIT and UNCERTAINTY') );
#998 = ( LENGTH_UNIT() NAMED_UNIT(*) SI_UNIT(.MILLI.,.METRE.) );
#999 = ( NAMED_UNIT(*) PLANE_ANGLE_UNIT() SI_UNIT($,.RADIAN.) );
#1000 = ( NAMED_UNIT(*) SI_UNIT($,.STERADIAN.) SOLID_ANGLE_UNIT() );
#1001 = UNCERTAINTY_MEASURE_WITH_UNIT(LENGTH_MEASURE(1.E-05),#998,
  'distance_accuracy_value','confusion accuracy');
#1002 = CONTEXT_DEPENDENT_SHAPE_REPRESENTATION(#1003,#1005);
#1003 = ( REPRESENTATION_RELATIONSHIP('','',#654,#10) 
REPRESENTATION_RELATIONSHIP_WITH_TRANSFORMATION(#1004) 
SHAPE_REPRESENTATION_RELATIONSHIP() );
#1004 = ITEM_DEFINED_TRANSFORMATION('','',#11,#23);
#1005 = PRODUCT_DEFINITION_SHAPE('Placement','Placement of an item',
  #1006);
#1006 = NEXT_ASSEMBLY_USAGE_OCCURRENCE('278','Body','',#5,#649,$);
#1007 = PRODUCT_RELATED_PRODUCT_CATEGORY('part',$,(#651));
#1008 = SHAPE_DEFINITION_REPRESENTATION(#1009,#1015);
#1009 = PRODUCT_DEFINITION_SHAPE('','',#1010);
#1010 = PRODUCT_DEFINITION('design','',#1011,#1014);
#1011 = PRODUCT_DEFINITION_FORMATION('','',#1012);
#1012 = PRODUCT('Array','Array','',(#1013));
#1013 = PRODUCT_CONTEXT('',#2,'mechanical');
#1014 = PRODUCT_DEFINITION_CONTEXT('part definition',#2,'design');
#1015 = SHAPE_REPRESENTATION('',(#11,#1016,#1020,#1024,#1028,#1032,#1036
    ,#1040,#1044,#1048,#1052,#1056,#1060,#1064,#1068),#1072);
#1016 = AXIS2_PLACEMENT_3D('',#1017,#1018,#1019);
#1017 = CARTESIAN_POINT('',(0.,0.,0.));
#1018 = DIRECTION('',(0.,0.,1.));
#1019 = DIRECTION('',(1.,0.,0.));
#1020 = AXIS2_PLACEMENT_3D('',#1021,#1022,#1023);
#1021 = CARTESIAN_POINT('',(0.,0.,-0.65));
#1022 = DIRECTION('',(0.,0.,1.));
#1023 = DIRECTION('',(1.,0.,0.));
#1024 = AXIS2_PLACEMENT_3D('',#1025,#1026,#1027);
#1025 = CARTESIAN_POINT('',(0.,0.,-1.3));
#1026 = DIRECTION('',(0.,0.,1.));
#1027 = DIRECTION('',(1.,0.,0.));
#1028 = AXIS2_PLACEMENT_3D('',#1029,#1030,#1031);
#1029 = CARTESIAN_POINT('',(0.,0.,-1.95));
#1030 = DIRECTION('',(0.,0.,1.));
#1031 = DIRECTION('',(1.,0.,0.));
#1032 = AXIS2_PLACEMENT_3D('',#1033,#1034,#1035);
#1033 = CARTESIAN_POINT('',(0.,0.,-2.6));
#1034 = DIRECTION('',(0.,0.,1.));
#1035 = DIRECTION('',(1.,0.,0.));
#1036 = AXIS2_PLACEMENT_3D('',#1037,#1038,#1039);
#1037 = CARTESIAN_POINT('',(0.,0.,-3.25));
#1038 = DIRECTION('',(0.,0.,1.));
#1039 = DIRECTION('',(1.,0.,0.));
#1040 = AXIS2_PLACEMENT_3D('',#1041,#1042,#1043);
#1041 = CARTESIAN_POINT('',(0.,0.,-3.9));
#1042 = DIRECTION('',(0.,0.,1.));
#1043 = DIRECTION('',(1.,0.,0.));
#1044 = AXIS2_PLACEMENT_3D('',#1045,#1046,#1047);
#1045 = CARTESIAN_POINT('',(0.,0.,-4.55));
#1046 = DIRECTION('',(0.,0.,1.));
#1047 = DIRECTION('',(1.,0.,0.));
#1048 = AXIS2_PLACEMENT_3D('',#1049,#1050,#1051);
#1049 = CARTESIAN_POINT('',(0.,0.,-5.2));
#1050 = DIRECTION('',(0.,0.,1.));
#1051 = DIRECTION('',(1.,0.,0.));
#1052 = AXIS2_PLACEMENT_3D('',#1053,#1054,#1055);
#1053 = CARTESIAN_POINT('',(0.,0.,-5.85));
#1054 = DIRECTION('',(0.,0.,1.));
#1055 = DIRECTION('',(1.,0.,0.));
#1056 = AXIS2_PLACEMENT_3D('',#1057,#1058,#1059);
#1057 = CARTESIAN_POINT('',(0.,0.,-6.5));
#1058 = DIRECTION('',(0.,0.,1.));
#1059 = DIRECTION('',(1.,0.,0.));
#1060 = AXIS2_PLACEMENT_3D('',#1061,#1062,#1063);
#1061 = CARTESIAN_POINT('',(0.,0.,-7.15));
#1062 = DIRECTION('',(0.,0.,1.));
#1063 = DIRECTION('',(1.,0.,0.));
#1064 = AXIS2_PLACEMENT_3D('',#1065,#1066,#1067);
#1065 = CARTESIAN_POINT('',(0.,0.,-7.8));
#1066 = DIRECTION('',(0.,0.,1.));
#1067 = DIRECTION('',(1.,0.,0.));
#1068 = AXIS2_PLACEMENT_3D('',#1069,#1070,#1071);
#1069 = CARTESIAN_POINT('',(0.,0.,-8.45));
#1070 = DIRECTION('',(0.,0.,1.));
#1071 = DIRECTION('',(1.,0.,0.));
#1072 = ( GEOMETRIC_REPRESENTATION_CONTEXT(3) 
GLOBAL_UNCERTAINTY_ASSIGNED_CONTEXT((#1076)) 
GLOBAL_UNIT_ASSIGNED_CONTEXT((#1073,#1074,#1075)) REPRESENTATION_CONTEXT
('Context #1','3D Context with UNIT and UNCERTAINTY') );
#1073 = ( LENGTH_UNIT() NAMED_UNIT(*) SI_UNIT(.MILLI.,.METRE.) );
#1074 = ( NAMED_UNIT(*) PLANE_ANGLE_UNIT() SI_UNIT($,.RADIAN.) );
#1075 = ( NAMED_UNIT(*) SI_UNIT($,.STERADIAN.) SOLID_ANGLE_UNIT() );
#1076 = UNCERTAINTY_MEASURE_WITH_UNIT(LENGTH_MEASURE(1.E-07),#1073,
  'distance_accuracy_value','confusion accuracy');
#1077 = CONTEXT_DEPENDENT_SHAPE_REPRESENTATION(#1078,#1080);
#1078 = ( REPRESENTATION_RELATIONSHIP('','',#1015,#10) 
REPRESENTATION_RELATIONSHIP_WITH_TRANSFORMATION(#1079) 
SHAPE_REPRESENTATION_RELATIONSHIP() );
#1079 = ITEM_DEFINED_TRANSFORMATION('','',#11,#27);
#1080 = PRODUCT_DEFINITION_SHAPE('Placement','Placement of an item',
  #1081);
#1081 = NEXT_ASSEMBLY_USAGE_OCCURRENCE('293','Array','',#5,#1010,$);
#1082 = PRODUCT_RELATED_PRODUCT_CATEGORY('part',$,(#1012));
#1083 = SHAPE_DEFINITION_REPRESENTATION(#1084,#1090);
#1084 = PRODUCT_DEFINITION_SHAPE('','',#1085);
#1085 = PRODUCT_DEFINITION('design','',#1086,#1089);
#1086 = PRODUCT_DEFINITION_FORMATION('','',#1087);
#1087 = PRODUCT('Body001 (Mirror #1)','Body001 (Mirror #1)','',(#1088));
#1088 = PRODUCT_CONTEXT('',#2,'mechanical');
#1089 = PRODUCT_DEFINITION_CONTEXT('part definition',#2,'design');
#1090 = ADVANCED_BREP_SHAPE_REPRESENTATION('',(#11,#1091),#1373);
#1091 = MANIFOLD_SOLID_BREP('',#1092);
#1092 = CLOSED_SHELL('',(#1093,#1133,#1164,#1195,#1226,#1257,#1288,#1319
    ,#1341,#1357));
#1093 = ADVANCED_FACE('',(#1094),#1128,.F.);
#1094 = FACE_BOUND('',#1095,.T.);
#1095 = EDGE_LOOP('',(#1096,#1106,#1114,#1122));
#1096 = ORIENTED_EDGE('',*,*,#1097,.T.);
#1097 = EDGE_CURVE('',#1098,#1100,#1102,.T.);
#1098 = VERTEX_POINT('',#1099);
#1099 = CARTESIAN_POINT('',(-2.2,0.578081287633,4.1025));
#1100 = VERTEX_POINT('',#1101);
#1101 = CARTESIAN_POINT('',(-2.2,0.578081287633,4.3475));
#1102 = LINE('',#1103,#1104);
#1103 = CARTESIAN_POINT('',(-2.2,0.578081287633,4.1025));
#1104 = VECTOR('',#1105,1.);
#1105 = DIRECTION('',(-0.,-0.,1.));
#1106 = ORIENTED_EDGE('',*,*,#1107,.T.);
#1107 = EDGE_CURVE('',#1100,#1108,#1110,.T.);
#1108 = VERTEX_POINT('',#1109);
#1109 = CARTESIAN_POINT('',(-2.3,0.578081287633,4.3475));
#1110 = LINE('',#1111,#1112);
#1111 = CARTESIAN_POINT('',(-2.2,0.578081287633,4.3475));
#1112 = VECTOR('',#1113,1.);
#1113 = DIRECTION('',(-1.,-0.,-0.));
#1114 = ORIENTED_EDGE('',*,*,#1115,.F.);
#1115 = EDGE_CURVE('',#1116,#1108,#1118,.T.);
#1116 = VERTEX_POINT('',#1117);
#1117 = CARTESIAN_POINT('',(-2.3,0.578081287633,4.1025));
#1118 = LINE('',#1119,#1120);
#1119 = CARTESIAN_POINT('',(-2.3,0.578081287633,4.1025));
#1120 = VECTOR('',#1121,1.);
#1121 = DIRECTION('',(-0.,-0.,1.));
#1122 = ORIENTED_EDGE('',*,*,#1123,.F.);
#1123 = EDGE_CURVE('',#1098,#1116,#1124,.T.);
#1124 = LINE('',#1125,#1126);
#1125 = CARTESIAN_POINT('',(-2.2,0.578081287633,4.1025));
#1126 = VECTOR('',#1127,1.);
#1127 = DIRECTION('',(-1.,-0.,-0.));
#1128 = PLANE('',#1129);
#1129 = AXIS2_PLACEMENT_3D('',#1130,#1131,#1132);
#1130 = CARTESIAN_POINT('',(-2.2,0.578081287633,4.1025));
#1131 = DIRECTION('',(-0.,1.,-0.));
#1132 = DIRECTION('',(1.,0.,0.));
#1133 = ADVANCED_FACE('',(#1134),#1159,.F.);
#1134 = FACE_BOUND('',#1135,.T.);
#1135 = EDGE_LOOP('',(#1136,#1137,#1145,#1153));
#1136 = ORIENTED_EDGE('',*,*,#1115,.T.);
#1137 = ORIENTED_EDGE('',*,*,#1138,.T.);
#1138 = EDGE_CURVE('',#1108,#1139,#1141,.T.);
#1139 = VERTEX_POINT('',#1140);
#1140 = CARTESIAN_POINT('',(-2.6,-1.333585328032E-23,4.3475));
#1141 = LINE('',#1142,#1143);
#1142 = CARTESIAN_POINT('',(-2.3,0.578081287633,4.3475));
#1143 = VECTOR('',#1144,1.);
#1144 = DIRECTION('',(-0.460624673561,-0.887595014692,-0.));
#1145 = ORIENTED_EDGE('',*,*,#1146,.F.);
#1146 = EDGE_CURVE('',#1147,#1139,#1149,.T.);
#1147 = VERTEX_POINT('',#1148);
#1148 = CARTESIAN_POINT('',(-2.6,-1.333585328032E-23,4.1025));
#1149 = LINE('',#1150,#1151);
#1150 = CARTESIAN_POINT('',(-2.6,-1.333585328032E-23,4.1025));
#1151 = VECTOR('',#1152,1.);
#1152 = DIRECTION('',(-0.,-0.,1.));
#1153 = ORIENTED_EDGE('',*,*,#1154,.F.);
#1154 = EDGE_CURVE('',#1116,#1147,#1155,.T.);
#1155 = LINE('',#1156,#1157);
#1156 = CARTESIAN_POINT('',(-2.3,0.578081287633,4.1025));
#1157 = VECTOR('',#1158,1.);
#1158 = DIRECTION('',(-0.460624673561,-0.887595014692,-0.));
#1159 = PLANE('',#1160);
#1160 = AXIS2_PLACEMENT_3D('',#1161,#1162,#1163);
#1161 = CARTESIAN_POINT('',(-2.3,0.578081287633,4.1025));
#1162 = DIRECTION('',(-0.887595014692,0.460624673561,-0.));
#1163 = DIRECTION('',(0.460624673561,0.887595014692,0.));
#1164 = ADVANCED_FACE('',(#1165),#1190,.F.);
#1165 = FACE_BOUND('',#1166,.T.);
#1166 = EDGE_LOOP('',(#1167,#1168,#1176,#1184));
#1167 = ORIENTED_EDGE('',*,*,#1146,.T.);
#1168 = ORIENTED_EDGE('',*,*,#1169,.T.);
#1169 = EDGE_CURVE('',#1139,#1170,#1172,.T.);
#1170 = VERTEX_POINT('',#1171);
#1171 = CARTESIAN_POINT('',(-3.2,-3.980563288202E-23,4.3475));
#1172 = LINE('',#1173,#1174);
#1173 = CARTESIAN_POINT('',(-2.6,-3.980563288202E-23,4.3475));
#1174 = VECTOR('',#1175,1.);
#1175 = DIRECTION('',(-1.,-0.,-0.));
#1176 = ORIENTED_EDGE('',*,*,#1177,.F.);
#1177 = EDGE_CURVE('',#1178,#1170,#1180,.T.);
#1178 = VERTEX_POINT('',#1179);
#1179 = CARTESIAN_POINT('',(-3.2,-3.980563288202E-23,4.1025));
#1180 = LINE('',#1181,#1182);
#1181 = CARTESIAN_POINT('',(-3.2,-3.980563288202E-23,4.1025));
#1182 = VECTOR('',#1183,1.);
#1183 = DIRECTION('',(-0.,-0.,1.));
#1184 = ORIENTED_EDGE('',*,*,#1185,.F.);
#1185 = EDGE_CURVE('',#1147,#1178,#1186,.T.);
#1186 = LINE('',#1187,#1188);
#1187 = CARTESIAN_POINT('',(-2.6,-3.980563288202E-23,4.1025));
#1188 = VECTOR('',#1189,1.);
#1189 = DIRECTION('',(-1.,-0.,-0.));
#1190 = PLANE('',#1191);
#1191 = AXIS2_PLACEMENT_3D('',#1192,#1193,#1194);
#1192 = CARTESIAN_POINT('',(-2.6,-3.980563288202E-23,4.1025));
#1193 = DIRECTION('',(-0.,1.,-0.));
#1194 = DIRECTION('',(1.,0.,0.));
#1195 = ADVANCED_FACE('',(#1196),#1221,.F.);
#1196 = FACE_BOUND('',#1197,.T.);
#1197 = EDGE_LOOP('',(#1198,#1199,#1207,#1215));
#1198 = ORIENTED_EDGE('',*,*,#1177,.T.);
#1199 = ORIENTED_EDGE('',*,*,#1200,.T.);
#1200 = EDGE_CURVE('',#1170,#1201,#1203,.T.);
#1201 = VERTEX_POINT('',#1202);
#1202 = CARTESIAN_POINT('',(-3.2,0.155,4.3475));
#1203 = LINE('',#1204,#1205);
#1204 = CARTESIAN_POINT('',(-3.2,-3.980563288202E-23,4.3475));
#1205 = VECTOR('',#1206,1.);
#1206 = DIRECTION('',(0.,1.,0.));
#1207 = ORIENTED_EDGE('',*,*,#1208,.F.);
#1208 = EDGE_CURVE('',#1209,#1201,#1211,.T.);
#1209 = VERTEX_POINT('',#1210);
#1210 = CARTESIAN_POINT('',(-3.2,0.155,4.1025));
#1211 = LINE('',#1212,#1213);
#1212 = CARTESIAN_POINT('',(-3.2,0.155,4.1025));
#1213 = VECTOR('',#1214,1.);
#1214 = DIRECTION('',(-0.,-0.,1.));
#1215 = ORIENTED_EDGE('',*,*,#1216,.F.);
#1216 = EDGE_CURVE('',#1178,#1209,#1217,.T.);
#1217 = LINE('',#1218,#1219);
#1218 = CARTESIAN_POINT('',(-3.2,-3.980563288202E-23,4.1025));
#1219 = VECTOR('',#1220,1.);
#1220 = DIRECTION('',(0.,1.,0.));
#1221 = PLANE('',#1222);
#1222 = AXIS2_PLACEMENT_3D('',#1223,#1224,#1225);
#1223 = CARTESIAN_POINT('',(-3.2,-3.980563288202E-23,4.1025));
#1224 = DIRECTION('',(1.,-0.,-0.));
#1225 = DIRECTION('',(0.,-1.,0.));
#1226 = ADVANCED_FACE('',(#1227),#1252,.F.);
#1227 = FACE_BOUND('',#1228,.T.);
#1228 = EDGE_LOOP('',(#1229,#1230,#1238,#1246));
#1229 = ORIENTED_EDGE('',*,*,#1208,.T.);
#1230 = ORIENTED_EDGE('',*,*,#1231,.T.);
#1231 = EDGE_CURVE('',#1201,#1232,#1234,.T.);
#1232 = VERTEX_POINT('',#1233);
#1233 = CARTESIAN_POINT('',(-2.694190677296,0.155,4.3475));
#1234 = LINE('',#1235,#1236);
#1235 = CARTESIAN_POINT('',(-3.2,0.155,4.3475));
#1236 = VECTOR('',#1237,1.);
#1237 = DIRECTION('',(1.,0.,0.));
#1238 = ORIENTED_EDGE('',*,*,#1239,.F.);
#1239 = EDGE_CURVE('',#1240,#1232,#1242,.T.);
#1240 = VERTEX_POINT('',#1241);
#1241 = CARTESIAN_POINT('',(-2.694190677296,0.155,4.1025));
#1242 = LINE('',#1243,#1244);
#1243 = CARTESIAN_POINT('',(-2.694190677296,0.155,4.1025));
#1244 = VECTOR('',#1245,1.);
#1245 = DIRECTION('',(-0.,-0.,1.));
#1246 = ORIENTED_EDGE('',*,*,#1247,.F.);
#1247 = EDGE_CURVE('',#1209,#1240,#1248,.T.);
#1248 = LINE('',#1249,#1250);
#1249 = CARTESIAN_POINT('',(-3.2,0.155,4.1025));
#1250 = VECTOR('',#1251,1.);
#1251 = DIRECTION('',(1.,0.,0.));
#1252 = PLANE('',#1253);
#1253 = AXIS2_PLACEMENT_3D('',#1254,#1255,#1256);
#1254 = CARTESIAN_POINT('',(-3.2,0.155,4.1025));
#1255 = DIRECTION('',(-0.,-1.,-0.));
#1256 = DIRECTION('',(-1.,0.,0.));
#1257 = ADVANCED_FACE('',(#1258),#1283,.F.);
#1258 = FACE_BOUND('',#1259,.T.);
#1259 = EDGE_LOOP('',(#1260,#1261,#1269,#1277));
#1260 = ORIENTED_EDGE('',*,*,#1239,.T.);
#1261 = ORIENTED_EDGE('',*,*,#1262,.T.);
#1262 = EDGE_CURVE('',#1232,#1263,#1265,.T.);
#1263 = VERTEX_POINT('',#1264);
#1264 = CARTESIAN_POINT('',(-2.394190677296,0.733081287633,4.3475));
#1265 = LINE('',#1266,#1267);
#1266 = CARTESIAN_POINT('',(-2.694190677296,0.155,4.3475));
#1267 = VECTOR('',#1268,1.);
#1268 = DIRECTION('',(0.460624673561,0.887595014692,0.));
#1269 = ORIENTED_EDGE('',*,*,#1270,.F.);
#1270 = EDGE_CURVE('',#1271,#1263,#1273,.T.);
#1271 = VERTEX_POINT('',#1272);
#1272 = CARTESIAN_POINT('',(-2.394190677296,0.733081287633,4.1025));
#1273 = LINE('',#1274,#1275);
#1274 = CARTESIAN_POINT('',(-2.394190677296,0.733081287633,4.1025));
#1275 = VECTOR('',#1276,1.);
#1276 = DIRECTION('',(-0.,-0.,1.));
#1277 = ORIENTED_EDGE('',*,*,#1278,.F.);
#1278 = EDGE_CURVE('',#1240,#1271,#1279,.T.);
#1279 = LINE('',#1280,#1281);
#1280 = CARTESIAN_POINT('',(-2.694190677296,0.155,4.1025));
#1281 = VECTOR('',#1282,1.);
#1282 = DIRECTION('',(0.460624673561,0.887595014692,0.));
#1283 = PLANE('',#1284);
#1284 = AXIS2_PLACEMENT_3D('',#1285,#1286,#1287);
#1285 = CARTESIAN_POINT('',(-2.694190677296,0.155,4.1025));
#1286 = DIRECTION('',(0.887595014692,-0.460624673561,0.));
#1287 = DIRECTION('',(-0.460624673561,-0.887595014692,0.));
#1288 = ADVANCED_FACE('',(#1289),#1314,.F.);
#1289 = FACE_BOUND('',#1290,.T.);
#1290 = EDGE_LOOP('',(#1291,#1292,#1300,#1308));
#1291 = ORIENTED_EDGE('',*,*,#1270,.T.);
#1292 = ORIENTED_EDGE('',*,*,#1293,.T.);
#1293 = EDGE_CURVE('',#1263,#1294,#1296,.T.);
#1294 = VERTEX_POINT('',#1295);
#1295 = CARTESIAN_POINT('',(-2.2,0.733081287633,4.3475));
#1296 = LINE('',#1297,#1298);
#1297 = CARTESIAN_POINT('',(-2.394190677296,0.733081287633,4.3475));
#1298 = VECTOR('',#1299,1.);
#1299 = DIRECTION('',(1.,0.,0.));
#1300 = ORIENTED_EDGE('',*,*,#1301,.F.);
#1301 = EDGE_CURVE('',#1302,#1294,#1304,.T.);
#1302 = VERTEX_POINT('',#1303);
#1303 = CARTESIAN_POINT('',(-2.2,0.733081287633,4.1025));
#1304 = LINE('',#1305,#1306);
#1305 = CARTESIAN_POINT('',(-2.2,0.733081287633,4.1025));
#1306 = VECTOR('',#1307,1.);
#1307 = DIRECTION('',(-0.,-0.,1.));
#1308 = ORIENTED_EDGE('',*,*,#1309,.F.);
#1309 = EDGE_CURVE('',#1271,#1302,#1310,.T.);
#1310 = LINE('',#1311,#1312);
#1311 = CARTESIAN_POINT('',(-2.394190677296,0.733081287633,4.1025));
#1312 = VECTOR('',#1313,1.);
#1313 = DIRECTION('',(1.,0.,0.));
#1314 = PLANE('',#1315);
#1315 = AXIS2_PLACEMENT_3D('',#1316,#1317,#1318);
#1316 = CARTESIAN_POINT('',(-2.394190677296,0.733081287633,4.1025));
#1317 = DIRECTION('',(-0.,-1.,-0.));
#1318 = DIRECTION('',(-1.,0.,0.));
#1319 = ADVANCED_FACE('',(#1320),#1336,.F.);
#1320 = FACE_BOUND('',#1321,.T.);
#1321 = EDGE_LOOP('',(#1322,#1323,#1329,#1330));
#1322 = ORIENTED_EDGE('',*,*,#1301,.T.);
#1323 = ORIENTED_EDGE('',*,*,#1324,.T.);
#1324 = EDGE_CURVE('',#1294,#1100,#1325,.T.);
#1325 = LINE('',#1326,#1327);
#1326 = CARTESIAN_POINT('',(-2.2,0.733081287633,4.3475));
#1327 = VECTOR('',#1328,1.);
#1328 = DIRECTION('',(-0.,-1.,-0.));
#1329 = ORIENTED_EDGE('',*,*,#1097,.F.);
#1330 = ORIENTED_EDGE('',*,*,#1331,.F.);
#1331 = EDGE_CURVE('',#1302,#1098,#1332,.T.);
#1332 = LINE('',#1333,#1334);
#1333 = CARTESIAN_POINT('',(-2.2,0.733081287633,4.1025));
#1334 = VECTOR('',#1335,1.);
#1335 = DIRECTION('',(-0.,-1.,-0.));
#1336 = PLANE('',#1337);
#1337 = AXIS2_PLACEMENT_3D('',#1338,#1339,#1340);
#1338 = CARTESIAN_POINT('',(-2.2,0.733081287633,4.1025));
#1339 = DIRECTION('',(-1.,-0.,-0.));
#1340 = DIRECTION('',(0.,1.,0.));
#1341 = ADVANCED_FACE('',(#1342),#1352,.F.);
#1342 = FACE_BOUND('',#1343,.T.);
#1343 = EDGE_LOOP('',(#1344,#1345,#1346,#1347,#1348,#1349,#1350,#1351));
#1344 = ORIENTED_EDGE('',*,*,#1123,.T.);
#1345 = ORIENTED_EDGE('',*,*,#1154,.T.);
#1346 = ORIENTED_EDGE('',*,*,#1185,.T.);
#1347 = ORIENTED_EDGE('',*,*,#1216,.T.);
#1348 = ORIENTED_EDGE('',*,*,#1247,.T.);
#1349 = ORIENTED_EDGE('',*,*,#1278,.T.);
#1350 = ORIENTED_EDGE('',*,*,#1309,.T.);
#1351 = ORIENTED_EDGE('',*,*,#1331,.T.);
#1352 = PLANE('',#1353);
#1353 = AXIS2_PLACEMENT_3D('',#1354,#1355,#1356);
#1354 = CARTESIAN_POINT('',(-2.652679566225,0.288670227701,4.1025));
#1355 = DIRECTION('',(0.,0.,1.));
#1356 = DIRECTION('',(1.,0.,0.));
#1357 = ADVANCED_FACE('',(#1358),#1368,.T.);
#1358 = FACE_BOUND('',#1359,.F.);
#1359 = EDGE_LOOP('',(#1360,#1361,#1362,#1363,#1364,#1365,#1366,#1367));
#1360 = ORIENTED_EDGE('',*,*,#1107,.T.);
#1361 = ORIENTED_EDGE('',*,*,#1138,.T.);
#1362 = ORIENTED_EDGE('',*,*,#1169,.T.);
#1363 = ORIENTED_EDGE('',*,*,#1200,.T.);
#1364 = ORIENTED_EDGE('',*,*,#1231,.T.);
#1365 = ORIENTED_EDGE('',*,*,#1262,.T.);
#1366 = ORIENTED_EDGE('',*,*,#1293,.T.);
#1367 = ORIENTED_EDGE('',*,*,#1324,.T.);
#1368 = PLANE('',#1369);
#1369 = AXIS2_PLACEMENT_3D('',#1370,#1371,#1372);
#1370 = CARTESIAN_POINT('',(-2.652679566225,0.288670227701,4.3475));
#1371 = DIRECTION('',(0.,0.,1.));
#1372 = DIRECTION('',(1.,0.,0.));
#1373 = ( GEOMETRIC_REPRESENTATION_CONTEXT(3) 
GLOBAL_UNCERTAINTY_ASSIGNED_CONTEXT((#1377)) 
GLOBAL_UNIT_ASSIGNED_CONTEXT((#1374,#1375,#1376)) REPRESENTATION_CONTEXT
('Context #1','3D Context with UNIT and UNCERTAINTY') );
#1374 = ( LENGTH_UNIT() NAMED_UNIT(*) SI_UNIT(.MILLI.,.METRE.) );
#1375 = ( NAMED_UNIT(*) PLANE_ANGLE_UNIT() SI_UNIT($,.RADIAN.) );
#1376 = ( NAMED_UNIT(*) SI_UNIT($,.STERADIAN.) SOLID_ANGLE_UNIT() );
#1377 = UNCERTAINTY_MEASURE_WITH_UNIT(LENGTH_MEASURE(1.E-07),#1374,
  'distance_accuracy_value','confusion accuracy');
#1378 = CONTEXT_DEPENDENT_SHAPE_REPRESENTATION(#1379,#1381);
#1379 = ( REPRESENTATION_RELATIONSHIP('','',#1090,#1015) 
REPRESENTATION_RELATIONSHIP_WITH_TRANSFORMATION(#1380) 
SHAPE_REPRESENTATION_RELATIONSHIP() );
#1380 = ITEM_DEFINED_TRANSFORMATION('','',#11,#1016);
#1381 = PRODUCT_DEFINITION_SHAPE('Placement','Placement of an item',
  #1382);
#1382 = NEXT_ASSEMBLY_USAGE_OCCURRENCE('279','0','',#1010,#1085,$);
#1383 = PRODUCT_RELATED_PRODUCT_CATEGORY('part',$,(#1087));
#1384 = CONTEXT_DEPENDENT_SHAPE_REPRESENTATION(#1385,#1387);
#1385 = ( REPRESENTATION_RELATIONSHIP('','',#1090,#1015) 
REPRESENTATION_RELATIONSHIP_WITH_TRANSFORMATION(#1386) 
SHAPE_REPRESENTATION_RELATIONSHIP() );
#1386 = ITEM_DEFINED_TRANSFORMATION('','',#11,#1020);
#1387 = PRODUCT_DEFINITION_SHAPE('Placement','Placement of an item',
  #1388);
#1388 = NEXT_ASSEMBLY_USAGE_OCCURRENCE('280','1','',#1010,#1085,$);
#1389 = CONTEXT_DEPENDENT_SHAPE_REPRESENTATION(#1390,#1392);
#1390 = ( REPRESENTATION_RELATIONSHIP('','',#1090,#1015) 
REPRESENTATION_RELATIONSHIP_WITH_TRANSFORMATION(#1391) 
SHAPE_REPRESENTATION_RELATIONSHIP() );
#1391 = ITEM_DEFINED_TRANSFORMATION('','',#11,#1024);
#1392 = PRODUCT_DEFINITION_SHAPE('Placement','Placement of an item',
  #1393);
#1393 = NEXT_ASSEMBLY_USAGE_OCCURRENCE('281','2','',#1010,#1085,$);
#1394 = CONTEXT_DEPENDENT_SHAPE_REPRESENTATION(#1395,#1397);
#1395 = ( REPRESENTATION_RELATIONSHIP('','',#1090,#1015) 
REPRESENTATION_RELATIONSHIP_WITH_TRANSFORMATION(#1396) 
SHAPE_REPRESENTATION_RELATIONSHIP() );
#1396 = ITEM_DEFINED_TRANSFORMATION('','',#11,#1028);
#1397 = PRODUCT_DEFINITION_SHAPE('Placement','Placement of an item',
  #1398);
#1398 = NEXT_ASSEMBLY_USAGE_OCCURRENCE('282','3','',#1010,#1085,$);
#1399 = CONTEXT_DEPENDENT_SHAPE_REPRESENTATION(#1400,#1402);
#1400 = ( REPRESENTATION_RELATIONSHIP('','',#1090,#1015) 
REPRESENTATION_RELATIONSHIP_WITH_TRANSFORMATION(#1401) 
SHAPE_REPRESENTATION_RELATIONSHIP() );
#1401 = ITEM_DEFINED_TRANSFORMATION('','',#11,#1032);
#1402 = PRODUCT_DEFINITION_SHAPE('Placement','Placement of an item',
  #1403);
#1403 = NEXT_ASSEMBLY_USAGE_OCCURRENCE('283','4','',#1010,#1085,$);
#1404 = CONTEXT_DEPENDENT_SHAPE_REPRESENTATION(#1405,#1407);
#1405 = ( REPRESENTATION_RELATIONSHIP('','',#1090,#1015) 
REPRESENTATION_RELATIONSHIP_WITH_TRANSFORMATION(#1406) 
SHAPE_REPRESENTATION_RELATIONSHIP() );
#1406 = ITEM_DEFINED_TRANSFORMATION('','',#11,#1036);
#1407 = PRODUCT_DEFINITION_SHAPE('Placement','Placement of an item',
  #1408);
#1408 = NEXT_ASSEMBLY_USAGE_OCCURRENCE('284','5','',#1010,#1085,$);
#1409 = CONTEXT_DEPENDENT_SHAPE_REPRESENTATION(#1410,#1412);
#1410 = ( REPRESENTATION_RELATIONSHIP('','',#1090,#1015) 
REPRESENTATION_RELATIONSHIP_WITH_TRANSFORMATION(#1411) 
SHAPE_REPRESENTATION_RELATIONSHIP() );
#1411 = ITEM_DEFINED_TRANSFORMATION('','',#11,#1040);
#1412 = PRODUCT_DEFINITION_SHAPE('Placement','Placement of an item',
  #1413);
#1413 = NEXT_ASSEMBLY_USAGE_OCCURRENCE('285','6','',#1010,#1085,$);
#1414 = CONTEXT_DEPENDENT_SHAPE_REPRESENTATION(#1415,#1417);
#1415 = ( REPRESENTATION_RELATIONSHIP('','',#1090,#1015) 
REPRESENTATION_RELATIONSHIP_WITH_TRANSFORMATION(#1416) 
SHAPE_REPRESENTATION_RELATIONSHIP() );
#1416 = ITEM_DEFINED_TRANSFORMATION('','',#11,#1044);
#1417 = PRODUCT_DEFINITION_SHAPE('Placement','Placement of an item',
  #1418);
#1418 = NEXT_ASSEMBLY_USAGE_OCCURRENCE('286','7','',#1010,#1085,$);
#1419 = CONTEXT_DEPENDENT_SHAPE_REPRESENTATION(#1420,#1422);
#1420 = ( REPRESENTATION_RELATIONSHIP('','',#1090,#1015) 
REPRESENTATION_RELATIONSHIP_WITH_TRANSFORMATION(#1421) 
SHAPE_REPRESENTATION_RELATIONSHIP() );
#1421 = ITEM_DEFINED_TRANSFORMATION('','',#11,#1048);
#1422 = PRODUCT_DEFINITION_SHAPE('Placement','Placement of an item',
  #1423);
#1423 = NEXT_ASSEMBLY_USAGE_OCCURRENCE('287','8','',#1010,#1085,$);
#1424 = CONTEXT_DEPENDENT_SHAPE_REPRESENTATION(#1425,#1427);
#1425 = ( REPRESENTATION_RELATIONSHIP('','',#1090,#1015) 
REPRESENTATION_RELATIONSHIP_WITH_TRANSFORMATION(#1426) 
SHAPE_REPRESENTATION_RELATIONSHIP() );
#1426 = ITEM_DEFINED_TRANSFORMATION('','',#11,#1052);
#1427 = PRODUCT_DEFINITION_SHAPE('Placement','Placement of an item',
  #1428);
#1428 = NEXT_ASSEMBLY_USAGE_OCCURRENCE('288','9','',#1010,#1085,$);
#1429 = CONTEXT_DEPENDENT_SHAPE_REPRESENTATION(#1430,#1432);
#1430 = ( REPRESENTATION_RELATIONSHIP('','',#1090,#1015) 
REPRESENTATION_RELATIONSHIP_WITH_TRANSFORMATION(#1431) 
SHAPE_REPRESENTATION_RELATIONSHIP() );
#1431 = ITEM_DEFINED_TRANSFORMATION('','',#11,#1056);
#1432 = PRODUCT_DEFINITION_SHAPE('Placement','Placement of an item',
  #1433);
#1433 = NEXT_ASSEMBLY_USAGE_OCCURRENCE('289','10','',#1010,#1085,$);
#1434 = CONTEXT_DEPENDENT_SHAPE_REPRESENTATION(#1435,#1437);
#1435 = ( REPRESENTATION_RELATIONSHIP('','',#1090,#1015) 
REPRESENTATION_RELATIONSHIP_WITH_TRANSFORMATION(#1436) 
SHAPE_REPRESENTATION_RELATIONSHIP() );
#1436 = ITEM_DEFINED_TRANSFORMATION('','',#11,#1060);
#1437 = PRODUCT_DEFINITION_SHAPE('Placement','Placement of an item',
  #1438);
#1438 = NEXT_ASSEMBLY_USAGE_OCCURRENCE('290','11','',#1010,#1085,$);
#1439 = CONTEXT_DEPENDENT_SHAPE_REPRESENTATION(#1440,#1442);
#1440 = ( REPRESENTATION_RELATIONSHIP('','',#1090,#1015) 
REPRESENTATION_RELATIONSHIP_WITH_TRANSFORMATION(#1441) 
SHAPE_REPRESENTATION_RELATIONSHIP() );
#1441 = ITEM_DEFINED_TRANSFORMATION('','',#11,#1064);
#1442 = PRODUCT_DEFINITION_SHAPE('Placement','Placement of an item',
  #1443);
#1443 = NEXT_ASSEMBLY_USAGE_OCCURRENCE('291','12','',#1010,#1085,$);
#1444 = CONTEXT_DEPENDENT_SHAPE_REPRESENTATION(#1445,#1447);
#1445 = ( REPRESENTATION_RELATIONSHIP('','',#1090,#1015) 
REPRESENTATION_RELATIONSHIP_WITH_TRANSFORMATION(#1446) 
SHAPE_REPRESENTATION_RELATIONSHIP() );
#1446 = ITEM_DEFINED_TRANSFORMATION('','',#11,#1068);
#1447 = PRODUCT_DEFINITION_SHAPE('Placement','Placement of an item',
  #1448);
#1448 = NEXT_ASSEMBLY_USAGE_OCCURRENCE('292','13','',#1010,#1085,$);
#1449 = MECHANICAL_DESIGN_GEOMETRIC_PRESENTATION_REPRESENTATION('',(
    #1450),#997);
#1450 = STYLED_ITEM('color',(#1451),#655);
#1451 = PRESENTATION_STYLE_ASSIGNMENT((#1452,#1458));
#1452 = SURFACE_STYLE_USAGE(.BOTH.,#1453);
#1453 = SURFACE_SIDE_STYLE('',(#1454));
#1454 = SURFACE_STYLE_FILL_AREA(#1455);
#1455 = FILL_AREA_STYLE('',(#1456));
#1456 = FILL_AREA_STYLE_COLOUR('',#1457);
#1457 = COLOUR_RGB('',0.196078429142,0.196078429142,0.196078429142);
#1458 = CURVE_STYLE('',#1459,POSITIVE_LENGTH_MEASURE(0.1),#1460);
#1459 = DRAUGHTING_PRE_DEFINED_CURVE_FONT('continuous');
#1460 = COLOUR_RGB('',9.803921802644E-02,9.803921802644E-02,
  9.803921802644E-02);
#1461 = MECHANICAL_DESIGN_GEOMETRIC_PRESENTATION_REPRESENTATION('',(
    #1462),#1373);
#1462 = STYLED_ITEM('color',(#1463),#1091);
#1463 = PRESENTATION_STYLE_ASSIGNMENT((#1464,#1470));
#1464 = SURFACE_STYLE_USAGE(.BOTH.,#1465);
#1465 = SURFACE_SIDE_STYLE('',(#1466));
#1466 = SURFACE_STYLE_FILL_AREA(#1467);
#1467 = FILL_AREA_STYLE('',(#1468));
#1468 = FILL_AREA_STYLE_COLOUR('',#1469);
#1469 = COLOUR_RGB('',0.800000010877,0.800000010877,0.800000010877);
#1470 = CURVE_STYLE('',#1471,POSITIVE_LENGTH_MEASURE(0.1),#1460);
#1471 = DRAUGHTING_PRE_DEFINED_CURVE_FONT('continuous');
#1472 = MECHANICAL_DESIGN_GEOMETRIC_PRESENTATION_REPRESENTATION('',(
    #1473),#195);
#1473 = STYLED_ITEM('color',(#1474),#45);
#1474 = PRESENTATION_STYLE_ASSIGNMENT((#1475,#1480));
#1475 = SURFACE_STYLE_USAGE(.BOTH.,#1476);
#1476 = SURFACE_SIDE_STYLE('',(#1477));
#1477 = SURFACE_STYLE_FILL_AREA(#1478);
#1478 = FILL_AREA_STYLE('',(#1479));
#1479 = FILL_AREA_STYLE_COLOUR('',#1469);
#1480 = CURVE_STYLE('',#1481,POSITIVE_LENGTH_MEASURE(0.1),#1460);
#1481 = DRAUGHTING_PRE_DEFINED_CURVE_FONT('continuous');
#1482 = MECHANICAL_DESIGN_GEOMETRIC_PRESENTATION_REPRESENTATION('',(
    #1483),#571);
#1483 = STYLED_ITEM('color',(#1484),#289);
#1484 = PRESENTATION_STYLE_ASSIGNMENT((#1485,#1490));
#1485 = SURFACE_STYLE_USAGE(.BOTH.,#1486);
#1486 = SURFACE_SIDE_STYLE('',(#1487));
#1487 = SURFACE_STYLE_FILL_AREA(#1488);
#1488 = FILL_AREA_STYLE('',(#1489));
#1489 = FILL_AREA_STYLE_COLOUR('',#1469);
#1490 = CURVE_STYLE('',#1491,POSITIVE_LENGTH_MEASURE(0.1),#1460);
#1491 = DRAUGHTING_PRE_DEFINED_CURVE_FONT('continuous');
ENDSEC;
END-ISO-10303-21;
